<?xml version="1.0" standalone="no"?>
<!DOCTYPE svg PUBLIC "-//W3C//DTD SVG 1.1//EN" "http://www.w3.org/Graphics/SVG/1.1/DTD/svg11.dtd" >
<svg xmlns="http://www.w3.org/2000/svg" xmlns:xlink="http://www.w3.org/1999/xlink" version="1.1">
<metadata>
Created by FontForge 20150102 at Sat Jan 17 10:27:46 2015
 By uniteet7
Copyright (c) 2011 by Ruben Hakobyan (Tarumian). All rights reserved.
</metadata>
<defs>
<font id="Arian_Grqi_i_U" horiz-adv-x="0" >
  <font-face 
    font-family="Arian_Grqi_i_U"
    font-weight="400"
    font-style="italic"
    font-stretch="normal"
    units-per-em="2048"
    panose-1="1 0 0 0 0 0 0 0 0 0"
    ascent="1638"
    descent="-410"
    x-height="1062"
    cap-height="1466"
    bbox="-874 -676 2579 1990"
    underline-thickness="150"
    underline-position="-142"
    slope="-15"
    unicode-range="U+0020-FB17"
  />
<missing-glyph horiz-adv-x="1444" 
d="M-177 0l378 1416h1239l-379 -1416h-1238zM996 89l331 1238h-1061l-331 -1238h1061z" />
    <glyph glyph-name=".notdef" horiz-adv-x="1444" 
d="M-177 0l378 1416h1239l-379 -1416h-1238zM996 89l331 1238h-1061l-331 -1238h1061z" />
    <glyph glyph-name=".null" 
 />
    <glyph glyph-name="nonmarkingreturn" horiz-adv-x="682" 
 />
    <glyph glyph-name="space" unicode=" " horiz-adv-x="586" 
 />
    <glyph glyph-name="exclam" unicode="!" horiz-adv-x="486" 
d="M521 1373q-2 -7 -13.5 -40.5t-30 -87t-43.5 -122.5t-53 -147t-57.5 -160.5t-58.5 -163t-56 -154.5t-49 -135h-78q11 61 24.5 135t28 154.5t29.5 163t29 160.5t26 147t22 122.5t16 87t8 40.5q14 56 58.5 85.5t100.5 29.5q47 0 74.5 -19.5t27.5 -60.5q0 -13 -5 -35zM49 -22
q36 0 62.5 12.5t44 32t25.5 41.5t8 42q0 26 -9.5 48t-25 37.5t-37 24.5t-45.5 9q-36 0 -62.5 -13t-44 -32t-25.5 -42t-8 -42q0 -26 9.5 -48t25.5 -37.5t37 -24t45 -8.5z" />
    <glyph glyph-name="quotedbl" unicode="&#x22;" horiz-adv-x="751" 
d="M555 947q14 70 19 132.5t5 133.5q0 13 -0.5 26.5t-0.5 27.5q0 49 10.5 90t31.5 70t53.5 45t76.5 16q48 0 75 -22t27 -62q0 -21 -7.5 -45t-19 -49.5t-25 -50.5t-24.5 -46q-37 -70 -65 -133t-50 -133h-106zM191 947q14 70 19 132.5t5 133.5q0 13 -0.5 26.5t-0.5 27.5
q0 49 10.5 90t31.5 70t53.5 45t76.5 16q48 0 75 -22t27 -62q0 -21 -7.5 -45t-19 -49.5t-25 -50.5t-24.5 -46q-37 -70 -65 -133t-50 -133h-106z" />
    <glyph glyph-name="numbersign" unicode="#" horiz-adv-x="1033" 
d="M99 -25l83 426h-162v149h191l71 363h-262v149h291l84 429h144l-84 -429h302l84 429h145l-84 -429h166v-149h-194l-72 -363h266v-149h-295l-84 -426h-144l83 426h-302l-83 -426h-144zM355 550h302l72 363h-303z" />
    <glyph glyph-name="dollar" unicode="$" horiz-adv-x="1099" 
d="M233 -211l50 190q-66 3 -111 8.5t-86.5 11.5t-89 10.5t-119.5 4.5l47 298h74q15 -44 33.5 -85t52.5 -73.5t87.5 -54t137.5 -26.5l164 613q-65 19 -127.5 41.5t-111.5 57t-79 85t-30 124.5q0 73 21.5 136t59.5 116t90.5 95t115 72t132.5 48.5t143 23.5l31 116h131
l-31 -114q50 -2 88 -5.5t76.5 -7t83.5 -6t109 -2.5l-47 -298h-74q-13 40 -30.5 77t-46.5 67t-73.5 50t-111.5 27l-148 -552q67 -21 133 -45t117.5 -60t83.5 -87.5t32 -126.5q0 -52 -16 -110q-26 -94 -77 -169.5t-125.5 -129.5t-169.5 -86.5t-207 -41.5l-51 -192h-131z
M813 398q2 11 3 21t1 20q0 44 -17.5 77t-48 57.5t-71 43t-86.5 33.5l-153 -574q66 6 127 26t110.5 57.5t85 96t49.5 142.5zM314 1087q-1 -5 -1 -15q0 -40 16 -70t44.5 -53t67 -41t82.5 -33l138 514q-60 -7 -120 -28t-108.5 -57.5t-81 -90.5t-37.5 -126z" />
    <glyph glyph-name="percent" unicode="%" horiz-adv-x="1489" 
d="M649 977q0 -65 -16 -121.5t-48 -97.5t-79.5 -64.5t-109.5 -23.5t-109.5 23.5t-79 64.5t-47.5 97.5t-16 121.5t16 121t47.5 97t79 64.5t109.5 23.5t109.5 -23.5t79.5 -64.5t48 -97t16 -121zM1115 1402l-703 -1580l-10 4q-1 -2 -2.5 -4.5t-2.5 -4.5l-64 33l705 1591z
M504 977q0 136 -26.5 194.5t-81.5 58.5t-80 -58.5t-25 -194.5q0 -68 6 -116t18.5 -78t32.5 -44t48 -14t48 14t33.5 44t20 78t6.5 116zM1296 285q0 -65 -16 -121.5t-48 -97.5t-79.5 -64.5t-109.5 -23.5t-109.5 23.5t-79 64.5t-47.5 97.5t-16 121.5t16 121t47.5 97t79 64.5
t109.5 23.5t109.5 -23.5t79.5 -64.5t48 -97t16 -121zM1151 285q0 136 -26.5 194.5t-81.5 58.5t-80 -58.5t-25 -194.5q0 -68 6 -116t18.5 -78t32.5 -44t48 -14t48 14t33.5 44t20 78t6.5 116z" />
    <glyph glyph-name="ampersand" unicode="&#x26;" horiz-adv-x="1496" 
d="M864 1393q-73 0 -139 -20.5t-120 -60t-94 -98.5t-61 -137q-12 -45 -12 -81q0 -44 17 -74.5t47 -49.5t71.5 -27.5t91.5 -8.5h14l-27 -100h-14q-76 0 -141 -23.5t-117 -66.5t-89 -104.5t-57 -136.5q-15 -57 -15 -105q0 -105 72 -163.5t220 -58.5q90 0 165 23t132.5 65.5
t97.5 103t60 135.5l89 331h-212l27 100h607l-27 -100h-199l-89 -331q-29 -107 -93 -187t-153.5 -133.5t-199.5 -80t-231 -26.5q-104 0 -189.5 19.5t-146.5 58.5t-94 98t-33 137q0 85 30.5 162.5t81.5 142t117 113t137 74.5q-31 15 -58 35t-46.5 45t-31 57t-11.5 71
q0 40 13 86q27 99 84 176t139.5 129t186.5 79t225 27q47 0 83.5 -1.5t67.5 -4t59 -5.5t60 -5.5t69.5 -4t86.5 -1.5l-47 -298h-74q-15 45 -35 86t-56 71.5t-93 49t-146 18.5z" />
    <glyph glyph-name="quotesingle" unicode="'" horiz-adv-x="374" 
d="M191 947q14 70 19 132.5t5 133.5q0 13 -0.5 26.5t-0.5 27.5q0 49 10.5 90t31.5 70t53.5 45t76.5 16q48 0 75 -22t27 -62q0 -21 -7.5 -45t-19 -49.5t-25 -50.5t-24.5 -46q-37 -70 -65 -133t-50 -133h-106z" />
    <glyph glyph-name="parenleft" unicode="(" horiz-adv-x="917" 
d="M634 1195q-41 -60 -73.5 -128.5t-56.5 -147.5q-20 -63 -32.5 -133t-20.5 -148q-5 -55 -7.5 -118t-2.5 -133q0 -66 2.5 -126t7.5 -113q4 -36 9.5 -73.5t12.5 -74t14.5 -70.5t16.5 -63q24 -76 56 -141.5t73 -118.5l-36 -21q-153 159 -243 366q-49 114 -73.5 221.5
t-24.5 213.5q0 102 22 208.5t62 210.5q44 112 108 215t149 192z" />
    <glyph glyph-name="parenright" unicode=")" horiz-adv-x="917" 
d="M634 387q0 -208 -97 -433q-47 -105 -107 -196.5t-136 -171.5l-36 19q42 54 73.5 118.5t53.5 142.5q18 61 31.5 131t21.5 151q5 57 8 116.5t3 122.5q0 149 -9 250q-13 150 -53 281q-23 78 -55.5 147t-75.5 130l38 18q86 -91 149.5 -192t108.5 -214q82 -212 82 -420z" />
    <glyph glyph-name="asterisk" unicode="*" horiz-adv-x="744" 
d="M10 1206q-5 17 1 41q6 20 17.5 39.5t27 34.5t33.5 24.5t37 9.5q29 0 56.5 -17.5t52 -40t46.5 -44t41 -30.5q3 19 1.5 46.5t-3 58.5t-1 62.5t8.5 59.5q11 42 40.5 66.5t74.5 24.5t62 -25t5 -67q-7 -28 -23 -59.5t-34 -61.5t-34 -57.5t-22 -46.5q24 9 57 30t69 42.5
t72.5 38.5t65.5 17q19 0 32.5 -9t20.5 -24t8 -34.5t-4 -40.5q-9 -33 -30.5 -51.5t-50 -28t-62 -12t-65.5 -2.5q-11 0 -21 0.5t-21 0.5q-20 0 -37 -1t-31 -4q12 -20 39.5 -42.5t54.5 -48t44.5 -54.5t8.5 -62q-5 -18 -19 -35t-32.5 -30.5t-40 -21.5t-40.5 -8q-25 0 -40 14.5
t-23 38t-11.5 52.5t-4.5 57.5t-3.5 53.5t-7.5 40q-13 -15 -27 -40t-30 -54t-34 -58t-38 -52.5t-43 -38.5t-48 -15q-19 0 -35.5 8.5t-27.5 22.5t-16 31t0 35q8 32 40.5 61t72 55t78 48.5t60.5 42.5q-16 4 -40 4.5t-51.5 1t-56.5 1.5t-53.5 6t-42 16t-23.5 31z" />
    <glyph glyph-name="plus" unicode="+" horiz-adv-x="1232" 
d="M615 634h469v-86h-469v-468h-86v468h-468v86h468v469h86v-469z" />
    <glyph glyph-name="comma" unicode="," horiz-adv-x="479" 
d="M351 27q0 -69 -26 -123t-77 -99l-75 -67l-36 37l77 73q23 21 39.5 52t16.5 57q0 11 -7.5 22t-18.5 11q-8 0 -18 -4t-25 -4q-14 0 -30.5 6t-30.5 18.5t-24 32t-10 47.5q0 18 6.5 37t20 35.5t34 27t48.5 10.5q34 0 59.5 -14.5t42.5 -38.5t25.5 -54.5t8.5 -61.5z" />
    <glyph glyph-name="hyphen" unicode="-" horiz-adv-x="603" 
d="M469 289h-365v100h365v-100z" />
    <glyph glyph-name="period" unicode="." horiz-adv-x="445" 
d="M313 78q0 -23 -8.5 -42.5t-23 -33.5t-34 -22.5t-41.5 -8.5q-23 0 -42.5 8.5t-34 22.5t-23 33.5t-8.5 42.5q0 22 8 41.5t22.5 34t34.5 23t43 8.5q22 0 41.5 -8t34 -22.5t23 -34t8.5 -42.5z" />
    <glyph glyph-name="slash" unicode="/" horiz-adv-x="855" 
d="M782 1290l-648 -1770l-11 5l-4 -12l-71 30l651 1784z" />
    <glyph glyph-name="zero" unicode="0" horiz-adv-x="947" 
d="M857 633q0 -151 -24 -272t-74 -206t-127 -131t-183 -46t-182.5 46t-126 131t-73.5 206t-24 272t24 275t73.5 213t126 138t182.5 49t183 -49t127 -138t74 -213t24 -275zM611 633q0 139 -6.5 250.5t-24.5 190.5t-49.5 121.5t-81.5 42.5t-81.5 -42.5t-49.5 -121.5
t-24.5 -190.5t-6.5 -250.5t6 -247.5t23 -183.5t49 -114.5t84 -39.5t84 39.5t49 114.5t23 183.5t6 247.5z" />
    <glyph glyph-name="one" unicode="1" horiz-adv-x="947" 
d="M644 0h-432v70h112v1005q0 9 -4.5 15.5t-12.5 6.5q-13 0 -36 -6.5t-42 -14.5l-47 -22l-26 62q27 5 59.5 19.5t70.5 39.5q81 52 129 110h122v-1215h107v-70z" />
    <glyph glyph-name="two" unicode="2" horiz-adv-x="947" 
d="M235 214h388q27 0 45 3.5t30 16.5t19.5 38t14.5 67h56l-52 -339h-655q-5 23 -5 44q0 74 40 146.5t100 146t129.5 149t129.5 154.5t100 162.5t40 174.5q0 125 -56 192t-152 67q-27 0 -56 -8.5t-53 -24.5t-39.5 -39.5t-15.5 -53.5q0 -23 9.5 -38.5t23.5 -28.5t31 -25.5
t31 -28.5t23.5 -38t9.5 -54q0 -26 -8 -49t-23.5 -40.5t-39 -27.5t-54.5 -10q-38 0 -66.5 16t-47 42t-27.5 59.5t-9 69.5q0 81 28.5 145.5t76.5 110.5t110.5 70.5t131.5 24.5q93 0 166 -26t124 -73.5t78 -113t27 -144.5q0 -96 -34.5 -169t-89.5 -132t-123 -108.5t-135 -99.5
t-125.5 -104.5t-95.5 -123.5z" />
    <glyph glyph-name="three" unicode="3" horiz-adv-x="947" 
d="M827 371q0 -86 -30.5 -158t-86 -124t-133 -81.5t-170.5 -29.5q-75 0 -137 22t-106.5 60.5t-69.5 91t-25 114.5q0 81 35.5 128t101.5 47q24 0 46 -8.5t38 -24t25.5 -38.5t9.5 -51q0 -43 -14.5 -67t-31.5 -40.5t-31.5 -31.5t-14.5 -40q0 -23 14 -41.5t38 -32t55.5 -20.5
t66.5 -7q45 0 79.5 23.5t58 67.5t36 108.5t12.5 145.5q0 79 -10.5 134.5t-31 90.5t-51.5 51.5t-73 16.5q-33 0 -66 -4.5t-53 -4.5q-52 0 -52 45q0 25 14.5 36t37.5 11q20 0 41 -1.5t38.5 -3.5t30 -3.5t16.5 -1.5q37 0 65 19t47.5 53.5t29.5 82.5t10 106q0 50 -12.5 93.5
t-36 76t-57.5 51t-76 18.5q-57 0 -86 -21t-29 -55q0 -16 11 -28.5t24 -26.5t24 -32.5t11 -46.5q0 -29 -9 -52.5t-24 -40t-35.5 -25.5t-43.5 -9q-62 0 -97 37t-35 103q0 54 22.5 100.5t63.5 80.5t97.5 53.5t125.5 19.5q81 0 147.5 -22.5t114 -62.5t73.5 -95.5t26 -121.5
q0 -55 -17.5 -104t-49.5 -88t-76.5 -66t-98.5 -36v-1q57 -5 108.5 -35t90.5 -76.5t62 -105.5t23 -122z" />
    <glyph glyph-name="four" unicode="4" horiz-adv-x="947" 
d="M864 345h-169v-275h107v-70h-433v70h112v275h-435v55l538 885h111v-849h169v-91zM481 436v542l-316 -522v-20h316z" />
    <glyph glyph-name="five" unicode="5" horiz-adv-x="947" 
d="M830 431q0 -105 -29.5 -189t-84.5 -142.5t-134 -90t-179 -31.5q-83 0 -147 20t-107 55.5t-65 83t-22 102.5q0 33 9.5 61t26.5 49t40.5 32.5t51.5 11.5q60 0 91 -30t31 -83q0 -35 -12.5 -55t-27.5 -35.5t-27.5 -31t-12.5 -40.5q0 -18 13 -33t33.5 -26.5t44.5 -17.5t46 -6
q54 0 94 22t66.5 70t39 123t12.5 181q0 85 -14.5 147t-40.5 101.5t-64 58.5t-84 19q-60 0 -112.5 -31.5t-80.5 -91.5l-47 10v664q70 -30 152.5 -50t165.5 -20q67 0 129 16t112 54l31 -44q-59 -113 -156.5 -172t-213.5 -59q-78 0 -157 27v-297q44 34 102.5 52t115.5 18
q92 0 168 -31t130 -85t83.5 -127.5t29.5 -158.5z" />
    <glyph glyph-name="six" unicode="6" horiz-adv-x="947" 
d="M879 391q0 -83 -26.5 -158t-77.5 -131.5t-124.5 -90t-167.5 -33.5q-198 0 -303 153t-105 451q0 155 27 287.5t82.5 230t140.5 153t201 55.5q68 0 124.5 -15.5t97 -44t63 -69.5t22.5 -91q0 -57 -31 -94.5t-97 -37.5q-59 0 -90 30t-31 77q0 18 5 32.5t11.5 28t11.5 28
t5 33.5q0 36 -29.5 50.5t-70.5 14.5q-104 0 -153.5 -137t-49.5 -425q23 56 79.5 85t129.5 29q79 0 144.5 -28t112.5 -80.5t73 -129t26 -173.5zM643 391q0 94 -10 158t-30.5 102t-51.5 54.5t-73 16.5q-76 0 -120.5 -80t-44.5 -251q0 -98 11 -166t33 -110t53.5 -61t73.5 -19
q75 0 117 89.5t42 266.5z" />
    <glyph glyph-name="seven" unicode="7" horiz-adv-x="947" 
d="M836 1255q0 -70 -16 -131t-41.5 -119.5t-58.5 -117.5t-66 -125t-63.5 -141.5t-53 -168t-33 -204t-3.5 -248.5h-231q-1 9 -2 26.5t-1.5 35t-1 31t-0.5 14.5q0 108 31 206.5t78.5 187.5t103.5 168.5t106.5 150.5t87 134t44.5 117h-478q-38 0 -56 -29t-25 -98h-58v341h708
q12 0 20.5 -9t8.5 -21z" />
    <glyph glyph-name="eight" unicode="8" horiz-adv-x="947" 
d="M847 371q0 -84 -28.5 -156.5t-82 -125t-129.5 -82.5t-172 -30q-89 0 -160.5 24.5t-122 69t-78 106.5t-27.5 137q0 110 63.5 203.5t192.5 165.5q-50 25 -88 59.5t-63.5 74t-38.5 83t-13 88.5q0 69 26 127.5t73 101.5t113.5 67t146.5 24t143.5 -20.5t107.5 -56.5t67 -86
t23 -110q0 -94 -55 -165t-161 -125q128 -77 195.5 -172.5t67.5 -201.5zM691 1045q0 43 -15.5 78.5t-43.5 61t-67 39.5t-85 14q-39 0 -73.5 -11.5t-60.5 -34t-41.5 -56.5t-15.5 -79q0 -79 54.5 -140t169.5 -121q37 22 69.5 49t56.5 57.5t38 66t14 76.5zM636 269
q0 57 -16.5 105t-50.5 91.5t-85 85t-121 83.5q-52 -27 -90 -62.5t-63 -75.5t-37 -83.5t-12 -87.5q0 -60 19 -111.5t53.5 -89.5t82.5 -59.5t106 -21.5q42 0 80.5 17.5t68.5 47.5t47.5 71.5t17.5 89.5z" />
    <glyph glyph-name="nine" unicode="9" horiz-adv-x="947" 
d="M58 895q0 83 26.5 158t77.5 131.5t124.5 90t167.5 33.5q198 0 303 -153t105 -451q0 -155 -27 -287.5t-82.5 -230t-140.5 -153t-201 -55.5q-68 0 -124.5 15.5t-97 44t-63 69.5t-22.5 91q0 57 31 94.5t97 37.5q59 0 90 -30t31 -77q0 -18 -5 -32.5t-11.5 -28t-11.5 -28
t-5 -33.5q0 -36 29.5 -50.5t70.5 -14.5q103 0 153 137t50 425q-23 -56 -79.5 -85t-129.5 -29q-79 0 -144.5 28t-112.5 80.5t-73 129t-26 173.5zM294 895q0 -95 10 -158.5t30.5 -101.5t51.5 -54.5t73 -16.5q76 0 120.5 80t44.5 251q0 98 -11 166t-33 110t-53.5 61t-73.5 19
q-75 0 -117 -89.5t-42 -266.5z" />
    <glyph glyph-name="colon" unicode=":" horiz-adv-x="437" 
d="M313 580q0 -23 -8.5 -42.5t-23 -34.5t-34 -23.5t-41.5 -8.5t-41.5 8.5t-34.5 23.5t-23.5 34.5t-8.5 42.5q0 22 8.5 41.5t23 34t34 23t42.5 8.5q22 0 41.5 -8.5t34 -22.5t23 -34t8.5 -42zM313 75q0 -22 -8.5 -41.5t-23 -34t-34 -23t-41.5 -8.5q-23 0 -42.5 8.5t-34 23
t-23 34t-8.5 41.5q0 46 30.5 77t77.5 31q22 0 41.5 -8.5t34 -23t23 -34t8.5 -42.5z" />
    <glyph glyph-name="semicolon" unicode=";" horiz-adv-x="437" 
d="M313 580q0 -23 -8.5 -42.5t-23 -34.5t-34 -23.5t-41.5 -8.5t-41.5 8.5t-34.5 23.5t-23.5 34.5t-8.5 42.5q0 22 8.5 41.5t23 34t34 23t42.5 8.5q22 0 41.5 -8.5t34 -22.5t23 -34t8.5 -42zM351 27q0 -69 -26 -123t-77 -99l-75 -67l-36 37l77 73q23 21 39.5 52t16.5 57
q0 11 -7.5 22t-18.5 11q-8 0 -18 -4t-25 -4q-14 0 -30.5 6t-30.5 18.5t-24 32t-10 47.5q0 18 6.5 37t20 35.5t34 27t48.5 10.5q34 0 59.5 -14.5t42.5 -38.5t25.5 -54.5t8.5 -61.5z" />
    <glyph glyph-name="less" unicode="&#x3c;" horiz-adv-x="940" 
d="M862 243l-60 -123l-777 506l8 10l-8 9l777 507l60 -125l-602 -391z" />
    <glyph glyph-name="equal" unicode="=" horiz-adv-x="1232" 
d="M1108 687h-1024v93h12v9h1012v-102zM1108 433h-1024v91h12v11h1012v-102z" />
    <glyph glyph-name="greater" unicode="&#x3e;" horiz-adv-x="940" 
d="M887 626l-780 -506l-59 123l600 393q-150 98 -300 195.5t-300 195.5l59 125l780 -507l-6 -9z" />
    <glyph glyph-name="question" unicode="?" horiz-adv-x="1033" 
d="M711 1394q-109 0 -200 -31t-162 -75l45 170q60 11 143.5 20.5t195.5 9.5q103 0 178 -17.5t124 -50.5t72 -80.5t23 -106.5q0 -49 -15 -104q-19 -70 -53 -124t-77.5 -97.5t-94 -80t-103 -72t-103.5 -73.5t-95.5 -84t-79.5 -103.5t-55 -133.5h-89q30 110 78.5 191.5
t105.5 144t117 112t113 98t94.5 101t59.5 121.5q11 44 11 77q0 48 -18 83t-49.5 58.5t-74 35t-91.5 11.5zM340 -22q36 0 62.5 12.5t44 32t25.5 41.5t8 42q0 26 -9.5 48t-25 37.5t-37 24.5t-45.5 9q-36 0 -62.5 -13t-44 -32t-25.5 -42t-8 -42q0 -26 9.5 -48t25.5 -37.5
t37 -24t45 -8.5z" />
    <glyph glyph-name="at" unicode="@" horiz-adv-x="1984" 
d="M1370 74q86 0 162 53.5t132.5 144.5t89.5 212t33 256q0 151 -47.5 279t-138 221t-221.5 145t-297 52q-126 0 -240 -35t-211.5 -98.5t-176 -153t-134 -198.5t-85.5 -234.5t-30 -260.5q0 -195 58 -348t164 -258t253.5 -160t326.5 -55q135 0 260 39t233 112.5t194.5 178.5
t143.5 237h60q-48 -135 -135 -250.5t-203.5 -199.5t-257.5 -132t-295 -48q-122 0 -237 23.5t-217 71.5t-187.5 121t-147 171t-95.5 222.5t-34 274.5q0 151 34.5 286.5t97.5 250t152.5 206t200 155.5t239 98.5t269.5 34.5q178 0 324.5 -53t251.5 -151t162.5 -236.5
t57.5 -310.5q0 -86 -19.5 -175t-56 -173.5t-89.5 -159t-120 -130.5t-146.5 -88.5t-169.5 -32.5q-45 0 -75.5 13t-48.5 35t-25.5 52t-7.5 63q0 43 7 87.5t19 84.5q-43 -78 -90.5 -140t-99.5 -105.5t-107 -66.5t-112 -23q-50 0 -96.5 15t-82 50.5t-56.5 94.5t-21 148t17.5 183
t53.5 182.5t92 167.5t133 137.5t175 93t220 34.5q136 0 213 -30.5t77 -95.5q0 -17 -3.5 -36t-8.5 -40l-148 -560q-4 -14 -9 -32.5t-9.5 -38t-7.5 -40t-3 -38.5q0 -32 8.5 -51.5t22.5 -30t31 -14t34 -3.5zM658 297q0 -53 7 -90t21.5 -59.5t37 -32.5t54.5 -10q67 0 135 51.5
t129.5 139.5t113 204t86.5 245l39 144q7 24 7 44q0 16 -12.5 28t-33.5 20t-48 12t-57 4q-79 0 -145 -32.5t-119.5 -87t-93.5 -126t-67 -149t-40.5 -156.5t-13.5 -149z" />
    <glyph glyph-name="A" unicode="A" horiz-adv-x="1524" 
d="M759 1466h239q36 -165 65 -332t49.5 -324t31.5 -297.5t11 -252.5q0 -26 -1 -50t-1 -46q0 -29 4.5 -45.5t11 -25t15 -11t16.5 -2.5h24l-22 -80h-339l22 80h26q10 0 19 7.5t16 26.5t10.5 52t3.5 85q0 47 -3 103.5t-8 120t-12 132t-15 138.5h-459q15 26 30.5 50.5t32.5 49.5
h384q-11 73 -21.5 145t-21 138t-21 123.5t-20.5 102.5h-35q-50 -67 -108 -150t-119 -173.5t-122 -185.5t-117.5 -187t-105.5 -177t-85 -156t-56.5 -124t-20.5 -81q0 -24 12.5 -32t33.5 -8h12l-22 -80h-349l22 80h5q19 0 37 4.5t40 23t50.5 56.5t67.5 104q174 296 370.5 598
t422.5 600z" />
    <glyph glyph-name="B" unicode="B" horiz-adv-x="1453" 
d="M1289 1099q-15 -60 -47 -111.5t-79.5 -91t-109.5 -65.5t-137 -34q60 -9 109.5 -35.5t84.5 -67t54.5 -92.5t19.5 -112q0 -44 -10 -87q-19 -80 -53.5 -141t-81.5 -106t-104.5 -75t-122 -48t-135 -25.5t-142.5 -7.5h-672l21 80h34q17 0 29 5.5t21 18t16.5 33t15.5 50.5
l292 1092q7 26 10.5 43.5t3.5 30.5q0 19 -9.5 26t-32.5 7h-30l21 80h108q63 0 122.5 3.5t123 7.5t134.5 7.5t157 3.5q103 0 178 -23t124.5 -63.5t73.5 -94.5t24 -117q0 -23 -3 -45.5t-8 -45.5zM186 187q-5 -18 -7.5 -31t-2.5 -23q0 -20 11 -26.5t34 -6.5h274
q93 0 173.5 15.5t143 51t105.5 93.5t61 143q12 57 12 105q0 118 -74.5 177.5t-227.5 59.5h-253l27 100h250q76 0 138.5 12.5t111 42t82.5 77t53 117.5q14 54 14 101q0 42 -12.5 78t-41 63t-74 42t-111.5 15q-98 0 -167.5 -2.5t-115.5 -11t-70.5 -24t-31.5 -42.5z" />
    <glyph glyph-name="C" unicode="C" horiz-adv-x="1372" 
d="M590 92q126 0 237.5 34.5t208.5 97.5l-34 -121q-32 -20 -74 -42t-97.5 -40.5t-126.5 -30.5t-162 -12q-138 0 -242 39t-173.5 109t-104 167t-34.5 213q0 129 27 252.5t79 232.5t128 200.5t175 157t219 102.5t260 37q71 0 125 -3.5t105 -7.5t106.5 -7.5t129.5 -3.5
l-47 -298h-74q-15 45 -41 86t-69.5 71.5t-107 49t-152.5 18.5q-105 0 -195 -39t-163 -104.5t-130 -153t-95 -184t-58 -197t-20 -192.5q0 -213 102.5 -322t297.5 -109z" />
    <glyph glyph-name="D" unicode="D" horiz-adv-x="1529" 
d="M-137 0l21 80h30q18 0 30.5 4.5t22 16.5t17 33t16.5 53l292 1092q14 50 14 72q0 20 -10 27.5t-32 7.5h-30l21 80h107q51 0 108.5 3.5t115.5 7.5t115.5 7.5t108.5 3.5q153 0 262 -40.5t179.5 -111t103.5 -166t33 -204.5q0 -112 -32 -232q-54 -200 -136 -339.5t-193.5 -227
t-253 -127.5t-313.5 -40h-597zM186 187q-11 -39 -11 -56q0 -22 16 -26.5t53 -4.5h202q127 0 235 28t196.5 100t158 194.5t120.5 311.5q39 148 39 262q0 199 -114 296.5t-329 97.5q-120 0 -186.5 -15t-79.5 -66z" />
    <glyph glyph-name="E" unicode="E" horiz-adv-x="1415" 
d="M788 845q30 0 58.5 9.5t54.5 30.5t49 55t42 83h74l-123 -456h-74q5 28 5 48q0 62 -31 96t-82 34h-426l-149 -558q-8 -27 -8 -47q0 -17 9 -27.5t32 -10.5h395q64 0 114.5 17t91.5 47.5t74 72.5t62 91h74l-118 -330h-1049l21 80h30q18 0 32 10t24.5 25.5t17.5 34.5t12 37
l292 1092q4 14 6.5 29.5t2.5 29.5q0 20 -8 34t-29 14h-30l21 80h579q42 0 99.5 0.5t119.5 3t123.5 7.5t110.5 13l-44 -324h-74q-3 51 -19.5 88.5t-44 62t-65 37t-80.5 12.5h-402q-36 0 -53 -25.5t-27 -61.5l-116 -434h426z" />
    <glyph glyph-name="F" unicode="F" horiz-adv-x="1304" 
d="M223 0h-360l21 80h30q18 0 32 10t24.5 25.5t17.5 34.5t12 37l292 1092q4 14 6.5 29.5t2.5 29.5q0 20 -8 34t-29 14h-30l21 80h579q42 0 99.5 0.5t119.5 3t123.5 7.5t110.5 13l-44 -324h-74q-3 51 -19.5 88.5t-44 62t-65 37t-80.5 12.5h-402q-36 0 -53 -25.5t-27 -61.5
l-116 -434h426q30 0 58.5 9.5t54.5 30.5t49 55t42 83h74l-125 -464h-74q2 14 3.5 26t1.5 24q0 63 -30.5 99.5t-80.5 36.5h-426l-149 -558q-4 -15 -7 -30t-3 -29q0 -20 8 -34t30 -14h30z" />
    <glyph glyph-name="G" unicode="G" horiz-adv-x="1583" 
d="M983 212l117 437q3 12 5 23.5t2 22.5q0 18 -8.5 29.5t-31.5 11.5h-109l27 100h438l-22 -80h-30q-18 0 -30.5 -5t-22 -17t-17 -33t-15.5 -52l-128 -479q-57 -43 -123 -78.5t-139.5 -61t-152 -39.5t-159.5 -14q-158 0 -272.5 40.5t-189 114t-110 177.5t-35.5 232
q0 120 27.5 237t80 222t128.5 194.5t174 154.5t216.5 102t255.5 37q71 0 139 -3.5t136.5 -7.5t138 -7.5t143.5 -3.5l-47 -298h-74q-14 43 -48.5 83.5t-88 72t-124 51t-155.5 19.5q-117 0 -214 -38t-174.5 -103t-136 -151.5t-97 -183.5t-58 -198.5t-19.5 -196.5
q0 -214 104 -323t322 -109q98 0 197 29t180 92z" />
    <glyph glyph-name="H" unicode="H" horiz-adv-x="1604" 
d="M1067 745h-732l-149 -558q-12 -45 -12 -68t10 -31t30 -8h29l-21 -80h-359l21 80h30q15 0 26.5 4.5t22 16t19.5 32.5t18 54l292 1092q12 45 12 68t-10 31t-30 8h-30l21 80h359l-21 -80h-29q-15 0 -27 -4.5t-22 -16t-19 -32.5t-18 -54l-116 -434h732l116 434q12 45 12 68
t-10 31t-30 8h-30l21 80h359l-21 -80h-29q-15 0 -27 -4.5t-22 -16t-19 -32.5t-18 -54l-292 -1092q-12 -45 -12 -68t10 -31t30 -8h29l-21 -80h-359l21 80h30q15 0 26.5 4.5t22 16t19.5 32.5t18 54z" />
    <glyph glyph-name="I" unicode="I" horiz-adv-x="686" 
d="M292 1279q12 45 12 68t-10 31t-30 8h-30l21 80h359l-21 -80h-29q-15 0 -27 -4.5t-22 -16t-19 -32.5t-18 -54l-292 -1092q-12 -45 -12 -68t10 -31t30 -8h29l-21 -80h-359l21 80h30q15 0 26.5 4.5t22 16t19.5 32.5t18 54z" />
    <glyph glyph-name="J" unicode="J" horiz-adv-x="686" 
d="M292 1279q12 45 12 68t-10 31t-30 8h-30l21 80h359l-21 -80h-29q-15 0 -27 -4.5t-22 -16t-19 -32.5t-18 -54l-321 -1199q-53 -197 -173 -288t-323 -91q-43 0 -79 6t-57 14l29 108q28 -14 59.5 -21t73.5 -7t83 10t76 35.5t64 69.5t47 112z" />
    <glyph glyph-name="K" unicode="K" horiz-adv-x="1485" 
d="M860 147q0 25 -5 67.5t-18 95t-35 113t-57.5 122.5t-85 123.5t-116.5 115.5q-54 -19 -107 -29t-101 -10l-149 -558q-12 -45 -12 -68t10 -31t30 -8h29l-21 -80h-359l21 80h30q15 0 26.5 4.5t22 16t19.5 32.5t18 54l292 1092q12 45 12 68t-10 31t-30 8h-30l21 80h359
l-21 -80h-29q-15 0 -27 -4.5t-22 -16t-19 -32.5t-18 -54l-116 -434q96 0 181 30t166 85q106 73 180.5 134.5t121.5 111t68 86t21 59.5q0 35 -43 35h-41l21 80h429l-21 -80h-35q-34 0 -66.5 -17.5t-70 -49t-84 -76.5t-109 -100.5t-143.5 -120t-187 -135.5q-12 -8 -24.5 -15.5
t-25.5 -15.5q65 -55 115.5 -119t89 -130.5t65 -133t43.5 -127t25.5 -112t11.5 -87.5q0 -7 2.5 -18t8.5 -22t15.5 -19t24.5 -8h29l-21 -80h-344l21 80h30q15 0 23 3.5t12.5 11.5t6 20.5t2.5 31.5z" />
    <glyph glyph-name="L" unicode="L" horiz-adv-x="1202" 
d="M594 1386h-30q-18 0 -32 -10t-24.5 -25.5t-17.5 -34.5t-12 -37l-292 -1092q-8 -29 -8 -48q0 -18 8.5 -28.5t31.5 -10.5h372q43 0 87.5 14t86 40.5t79 65.5t67.5 90h74l-123 -310h-998l21 80h30q18 0 32 10t24.5 25.5t17.5 34.5t12 37l292 1092q4 14 6.5 29.5t2.5 29.5
q0 20 -8 34t-29 14h-30l21 80h360z" />
    <glyph glyph-name="M" unicode="M" horiz-adv-x="1837" 
d="M291 1279q9 33 9 56q0 51 -47 51h-30l21 80h307q33 -59 67.5 -146.5t66 -193.5t58.5 -225.5t45 -242.5q44 65 97.5 138.5t112.5 149t121.5 151t124 143.5t120 126t108.5 100h293l-21 -80h-30q-35 0 -52.5 -27t-31.5 -78l-293 -1093q-6 -23 -9.5 -40t-3.5 -31q0 -19 9 -28
t31 -9h30l-21 -80h-359l21 80h30q36 0 53.5 25.5t32.5 81.5l302 1130q-55 -50 -117 -117.5t-127 -145.5t-131 -163t-129 -171t-121 -169t-107 -157h-69q-10 81 -25.5 171.5t-35 182.5t-41.5 180.5t-45 165.5t-46.5 137.5t-44.5 95.5l-254 -949q-25 -94 -38 -152t-13 -90
q0 -33 14 -44.5t44 -11.5h31l-21 -80h-349l21 80h35q29 0 49 11.5t37.5 43.5t35.5 90.5t44 153.5z" />
    <glyph glyph-name="N" unicode="N" horiz-adv-x="1580" 
d="M906 0q-19 131 -53 263t-77 258.5t-92 244t-98 219t-95 183t-83 136.5l-248 -926q-25 -92 -37 -149t-12 -90q0 -35 14 -47t42 -12h31l-21 -80h-349l21 80h35q26 0 45.5 11.5t38 43.5t37.5 90.5t45 153.5l242 903q7 25 7 46q0 30 -15 44t-41 14h-30l21 80h263
q29 -33 65.5 -88t75.5 -125.5t79.5 -152t78.5 -168t72 -174t60.5 -169t43 -154t20.5 -128.5q3 14 6 31t6.5 33t6.5 29.5t5 20.5l179 667q24 91 36.5 148.5t12.5 90.5q0 35 -14 47t-42 12h-31l21 80h349l-21 -80h-35q-27 0 -47 -11.5t-38 -43.5t-36.5 -91t-43.5 -153
l-291 -1087h-109z" />
    <glyph glyph-name="O" unicode="O" horiz-adv-x="1595" 
d="M-20 494v27q0 130 28 252t80.5 229.5t128 196.5t171 153.5t209.5 100t243 35.5q141 0 249 -36.5t181 -104.5t110 -166.5t37 -222.5q0 -130 -28 -253.5t-80.5 -232.5t-128 -199.5t-171.5 -156t-211 -102t-246 -36.5q-135 0 -240 35.5t-177.5 102.5t-112 162.5t-42.5 215.5
zM847 1392q-107 0 -199 -38.5t-167.5 -105.5t-134.5 -156t-99 -189.5t-60.5 -208t-20.5 -209.5q0 -87 21.5 -162t68 -130.5t120 -87t177.5 -31.5q102 0 191.5 37t164.5 101.5t134.5 152t100.5 188t63 210t22 217.5q0 86 -21.5 161t-67.5 131t-118.5 88t-174.5 32z" />
    <glyph glyph-name="P" unicode="P" horiz-adv-x="1373" 
d="M458 831q54 -26 121.5 -44.5t139.5 -18.5q51 0 107 7.5t108 37t94.5 88t66.5 160.5q12 49 12 94q0 114 -79 175.5t-237 61.5q-88 0 -144 -4t-90 -14.5t-50 -28.5t-23 -46l-298 -1112q-7 -26 -10.5 -43.5t-3.5 -30.5q0 -19 9.5 -26t32.5 -7h30l-21 -80h-360l21 80h30
q18 0 30.5 4.5t22 16.5t17 33t16.5 53l292 1092q14 51 14 74q0 18 -9 25.5t-29 7.5h-34l21 80h130q55 0 107 3.5t109.5 7.5t126 7.5t155.5 3.5q95 0 172.5 -22t133 -64.5t86 -104.5t30.5 -141q0 -23 -2.5 -46.5t-7.5 -48.5q-19 -88 -53 -151.5t-78.5 -108t-98 -71.5
t-110.5 -42t-115.5 -20t-114.5 -5q-80 0 -156 15t-141 42z" />
    <glyph glyph-name="Q" unicode="Q" horiz-adv-x="1595" 
d="M-23 494q0 130 27.5 254t80 235t127.5 204t170 160.5t207.5 105t240.5 37.5q145 0 256 -34.5t186 -100t113.5 -161t38.5 -218.5q0 -117 -23 -231t-67 -217.5t-107.5 -193.5t-144 -160.5t-176.5 -118.5t-205 -67q27 -25 58 -55.5t64 -57.5t65 -45.5t61 -18.5q23 0 40 12
l19 14l27 -39l-163 -145q-44 12 -82.5 36t-74.5 54t-70.5 64t-70.5 66t-75 60t-82 47q-6 3 -14.5 5.5t-17.5 6.5q-202 39 -305 167.5t-103 334.5zM838 1394q-101 0 -190.5 -40.5t-164.5 -110t-134.5 -163t-100.5 -198.5t-63 -217t-22 -219q0 -86 22.5 -155t71 -117.5
t124 -75t180.5 -26.5q100 0 189.5 40.5t164.5 110t134.5 162.5t101.5 198t64 217t22 219q0 85 -22.5 154.5t-71 118.5t-124 75.5t-181.5 26.5z" />
    <glyph glyph-name="R" unicode="R" horiz-adv-x="1484" 
d="M1024 174q6 -30 10 -48.5t9 -28.5t12.5 -13.5t22.5 -3.5h45l-21 -80h-242v10q0 51 -12 120t-35.5 143.5t-59.5 149t-84 136.5t-109 105.5t-134 55.5l31 109q23 -8 49.5 -18.5t57 -19.5t65.5 -15t75 -6q64 0 124 12.5t110 45t87.5 89t57.5 144.5q12 52 12 98
q0 118 -79 175.5t-227 57.5q-74 0 -128 -3t-90.5 -11.5t-57 -24t-27.5 -40.5l-301 -1126q-12 -45 -12 -68t10 -31t30 -8h30l-21 -80h-359l21 80h29q15 0 26.5 4.5t22 16t19.5 32.5t18 54l292 1092q13 46 13 71q0 21 -10 28.5t-31 7.5h-30l21 80q84 0 149.5 1.5t118.5 4
t97 5.5t85.5 5.5t84 4t92.5 1.5q109 0 187.5 -27.5t128.5 -73.5t73.5 -106t23.5 -126q0 -52 -14 -106q-28 -106 -76 -175.5t-113 -112t-147 -62t-178 -25.5q42 -29 76.5 -70t61.5 -88.5t47 -98t34.5 -96.5t24 -84.5t14.5 -62.5z" />
    <glyph glyph-name="S" unicode="S" horiz-adv-x="1382" 
d="M424 73q96 0 176 14.5t137 51.5t89 100t32 161q0 61 -29.5 104.5t-77.5 76.5t-109.5 58.5t-126 52t-126 57t-109.5 72.5t-77.5 100t-29.5 138q2 101 45 181t121 135t188 84t246 29q71 0 121.5 -3.5t97 -7.5t98.5 -7.5t126 -3.5l-47 -298h-74q-15 45 -35.5 86t-58.5 71.5
t-98.5 49t-154.5 18.5q-84 0 -156.5 -14.5t-126 -49.5t-84.5 -93t-31 -145q0 -57 29.5 -97.5t78.5 -72t111 -57t126.5 -52t126.5 -57.5t111 -73t78.5 -99t29.5 -135q0 -121 -45 -209.5t-128.5 -146.5t-202.5 -86t-266 -28q-56 0 -99 2.5t-79.5 6.5t-69.5 9t-68.5 9
t-76.5 6.5t-93 2.5l52 318h79q19 -78 50.5 -128t77.5 -79.5t108.5 -40.5t143.5 -11z" />
    <glyph glyph-name="T" unicode="T" horiz-adv-x="1282" 
d="M431 1366q-44 0 -87.5 -12.5t-85 -37t-78 -62t-66.5 -88.5h-74l130 324q45 -8 103.5 -13t119 -7.5t117.5 -3t99 -0.5h284q42 0 99.5 0.5t119.5 3t123.5 7.5t110.5 13l-44 -324h-74q-3 51 -19.5 88.5t-44 62t-65 37t-80.5 12.5h-145q-36 0 -53 -25.5t-27 -61.5l-292 -1092
q-7 -26 -11 -44.5t-4 -30.5q0 -19 10 -25.5t32 -6.5h30l-21 -80h-359l21 80h30q18 0 30.5 4.5t21.5 16t17 32.5t17 54l292 1092q3 12 5 23t2 21q0 19 -8.5 31t-30.5 12h-145z" />
    <glyph glyph-name="U" unicode="U" horiz-adv-x="1608" 
d="M1211 470q-30 -110 -88 -200.5t-142 -155.5t-193.5 -100.5t-242.5 -35.5q-223 0 -342 91t-119 267q0 65 19 134l218 809q6 23 9.5 40.5t3.5 30.5q0 20 -9.5 28t-31.5 8h-30l21 80h358l-21 -80h-30q-18 0 -30.5 -6t-22 -18.5t-17 -33t-15.5 -50.5l-219 -811
q-18 -66 -18 -120q0 -67 24.5 -114.5t68 -78t103.5 -45t130 -14.5q84 0 164 23.5t147.5 69.5t117.5 115t75 160l169 625q23 87 34.5 143t11.5 89q0 39 -15.5 52.5t-47.5 13.5h-31l21 80h369l-21 -80h-35q-30 0 -51.5 -12t-41 -45t-39 -91.5t-44.5 -150.5z" />
    <glyph glyph-name="V" unicode="V" horiz-adv-x="1348" 
d="M397 -22h-95q-38 166 -67 335.5t-48 329.5t-28.5 303.5t-9.5 256.5q0 26 0.5 50.5t0.5 47.5q0 32 -4 49.5t-10.5 25.5t-14.5 9t-16 1h-24l21 80h343l-21 -80h-26q-15 0 -25 -8t-17 -30t-10 -59.5t-3 -96.5q0 -70 4.5 -154.5t12.5 -176t19 -185t23 -181t25 -164.5t26 -135
q56 79 122.5 177.5t136.5 206.5t139.5 222.5t130.5 226.5q37 67 62.5 118.5t41.5 89.5t23 64.5t7 43.5q0 24 -12.5 32.5t-32.5 8.5h-12l21 80h350l-21 -80h-5q-18 0 -35 -2t-38.5 -19t-51 -55.5t-71.5 -111.5q-174 -297 -376.5 -606t-434.5 -614z" />
    <glyph glyph-name="W" unicode="W" horiz-adv-x="2002" 
d="M1045 -22h-95q-35 152 -61 305t-45 302q-103 -153 -210 -305t-222 -302h-95q-38 163 -65 330t-44.5 325t-26 300t-8.5 256q0 30 1 58t1 54q0 32 -4 49.5t-10.5 25.5t-14.5 9t-16 1h-24l21 80h343l-21 -80h-26q-14 0 -24.5 -9t-17.5 -32t-10 -63t-3 -103q0 -70 4 -154.5
t11 -174.5t16.5 -182t20.5 -178t23.5 -161.5t24.5 -132.5q75 107 169 244t191 288q-14 132 -20.5 250t-6.5 216q0 29 1 55.5t1 51.5q0 32 -4 49.5t-10.5 25.5t-14.5 9t-16 1h-24l21 80h343l-21 -80h-26q-15 0 -25 -8.5t-17 -31t-10 -61t-3 -99.5q0 -70 4.5 -154.5t12 -175.5
t17.5 -183.5t21.5 -179.5t24 -163t25.5 -134q56 79 119.5 177.5t129.5 206.5t132.5 222.5t127.5 226.5q37 67 62.5 118.5t41.5 89.5t23 64.5t7 43.5q0 24 -12.5 32.5t-32.5 8.5h-12l21 80h350l-21 -80h-5q-18 0 -35 -2t-38.5 -19t-51 -55.5t-71.5 -111.5q-87 -148 -178 -300
t-188.5 -306t-203.5 -308.5t-221 -305.5z" />
    <glyph glyph-name="X" unicode="X" horiz-adv-x="1512" 
d="M1480 1386q-24 0 -47.5 -9.5t-46 -25t-44.5 -36.5t-42 -43q-63 -69 -128 -131t-133 -121.5t-140 -118t-148 -119.5q46 -73 92 -147.5t88 -152.5t78 -161.5t62 -173.5q10 -35 29 -51t33 -16h31l-21 -80h-339l21 80h26q15 0 25.5 9t10.5 29q0 6 -1 13.5t-4 15.5
q-47 139 -118.5 266t-151.5 254q-123 -104 -219.5 -195t-163 -164t-101 -125.5t-34.5 -79.5q0 -23 29 -23h12l-21 -80h-337l21 80h5q27 0 54 13t57.5 38.5t66 62t79.5 83.5q117 124 242.5 237t263.5 225q-44 69 -86.5 138.5t-81 141.5t-72 146.5t-58.5 152.5
q-7 22 -15.5 35.5t-17 20.5t-16.5 9.5t-15 2.5h-31l21 80h348l-21 -80h-26q-15 0 -26 -10.5t-11 -30.5q0 -14 6 -30q45 -125 108 -237.5t134 -224.5q115 93 225.5 189t203.5 208q35 42 50 68.5t15 41.5t-11.5 20.5t-28.5 5.5h-12l21 80h337l-21 -80h-5v0z" />
    <glyph glyph-name="Y" unicode="Y" horiz-adv-x="1421" 
d="M1130 1250q32 42 46 68.5t14 43.5q0 24 -31 24h-12l21 80h337l-21 -80h-5q-18 0 -36.5 -5.5t-44 -23.5t-62 -52t-90.5 -91q-56 -59 -118 -118.5t-132.5 -123t-151.5 -133t-175 -148.5l-134 -504q-4 -15 -7 -31t-3 -30q0 -20 8 -33t29 -13h30l-21 -80h-359l21 80h30
q18 0 32 10t24.5 25.5t17.5 34.5t12 37l134 505q-100 152 -185 308t-140 318q-8 21 -13 34.5t-10 21t-10.5 10t-12.5 2.5h-31l21 80h320l-21 -80h-26q-14 0 -24 -8.5t-10 -25.5q0 -13 8 -34q23 -63 55.5 -133t70 -140t78.5 -135t82 -117q70 55 138.5 110t132 111.5
t120.5 115t104 120.5z" />
    <glyph glyph-name="Z" unicode="Z" horiz-adv-x="1441" 
d="M532 1366q-44 0 -87.5 -12.5t-85 -37t-78 -62t-66.5 -88.5h-74l130 324q61 -9 122 -14t118 -7t107.5 -2.5t92.5 -0.5h716l-25 -94q-59 -40 -139.5 -103t-173.5 -141t-194.5 -168t-202.5 -184.5t-196.5 -189t-177 -182.5t-144.5 -165.5t-98 -136.5h595q55 0 106 17
t96 47.5t83 72.5t67 91h74l-118 -330h-1169l26 99q52 78 123 165.5t154.5 180t176 186.5t186.5 184.5t185.5 174t174 155t151.5 128.5t118 93h-573z" />
    <glyph glyph-name="bracketleft" unicode="[" horiz-adv-x="789" 
d="M644 -410h-357v1675h357v-72h-170v-1528h158v-12h12v-63z" />
    <glyph glyph-name="backslash" unicode="\" horiz-adv-x="940" 
d="M791 -118l-11 -5v-12h-128l-533 1622h143z" />
    <glyph glyph-name="bracketright" unicode="]" horiz-adv-x="789" 
d="M477 -410h-357v63h11v12h160v1528h-171v72h357v-1675z" />
    <glyph glyph-name="asciicircum" unicode="^" horiz-adv-x="644" 
d="M598 950h-164l-122 137l-121 -137h-163l284 322z" />
    <glyph glyph-name="underscore" unicode="_" horiz-adv-x="940" 
d="M15 -366v128h893v-128h-893zM6 -373v7h9v-7h-9z" />
    <glyph glyph-name="grave" unicode="`" horiz-adv-x="458" 
d="M418 1177h-104l-277 289h223z" />
    <glyph glyph-name="a" unicode="a" horiz-adv-x="1196" 
d="M176 297q0 -53 7 -90t21.5 -59.5t37 -32.5t54.5 -10q67 0 135 51.5t129.5 139.5t113 204t86.5 245l39 144q7 24 7 44q0 16 -12.5 28t-33.5 20t-48 12t-57 4q-79 0 -145 -32.5t-119.5 -87t-93.5 -126t-67 -149t-40.5 -156.5t-13.5 -149zM0 286q0 89 17.5 183t53.5 182.5
t92 167.5t133 137.5t175.5 93t219.5 34.5q136 0 213 -30.5t77 -95.5q0 -17 -3.5 -36t-8.5 -40l-148 -560q-4 -14 -9 -32.5t-9.5 -38t-7.5 -40t-3 -38.5q0 -32 12.5 -54t46.5 -22q13 0 35.5 10.5t50 31.5t56.5 52t56 72v-105q-30 -39 -60.5 -72t-62 -57t-64 -37.5
t-66.5 -13.5q-45 0 -75.5 13t-48.5 35t-25.5 52t-7.5 63q0 43 7 87.5t19 84.5q-43 -78 -90.5 -140t-99.5 -105.5t-107 -66.5t-112 -23q-50 0 -96.5 12.5t-82 47t-56.5 94t-21 154.5z" />
    <glyph glyph-name="b" unicode="b" horiz-adv-x="1132" 
d="M154 173q-7 -24 -7 -44q0 -32 23.5 -48t83.5 -16q93 0 172.5 44t143 114t108.5 156t68 170q17 62 24 112t7 91q0 57 -12 96.5t-31.5 63.5t-43 34.5t-45.5 10.5q-52 0 -114 -42.5t-123.5 -124t-117.5 -201.5t-98 -275zM328 818q73 127 171 196.5t206 69.5q61 0 109 -23
t81.5 -65t51.5 -100.5t18 -130.5q0 -99 -36 -216q-49 -154 -129 -262.5t-176.5 -177t-201.5 -100t-204 -31.5q-68 0 -115 7.5t-76 23t-42 39t-13 56.5q0 32 12 76l298 1112q11 42 11 62q0 22 -10 29.5t-28 7.5h-28l20 75h253z" />
    <glyph glyph-name="c" unicode="c" horiz-adv-x="991" 
d="M577 991q-70 0 -126.5 -31t-100 -83t-75.5 -119.5t-52.5 -140t-30.5 -145t-10 -134.5q2 -119 54 -185t157 -66q188 0 360 176v-105q-46 -47 -92 -80.5t-95.5 -56t-104.5 -33t-118 -10.5q-74 0 -137 23t-108.5 68.5t-71.5 114t-26 159.5q0 90 19 180t56 172t90.5 153.5
t122.5 123.5t152 82t179 30q45 0 95 -4.5t92 -13.5t69.5 -21.5t27.5 -27.5q0 -10 -3 -20l-27 -110q-8 -35 -19.5 -52t-42.5 -17q-13 0 -21.5 13t-17.5 32t-22 41.5t-35 41.5t-55 32t-83 13z" />
    <glyph glyph-name="d" unicode="d" horiz-adv-x="1198" 
d="M793 860q-9 41 -33.5 67.5t-54 41.5t-58.5 21t-48 6q-67 0 -125 -35t-106 -92.5t-85 -131t-62.5 -150.5t-39 -151.5t-13.5 -133.5q0 -40 5.5 -75.5t20 -62.5t41 -43t68.5 -16q64 0 132 51t130 138.5t114 203.5t85 247zM909 1292q11 42 11 62q0 22 -10 29.5t-28 7.5h-28
l20 75h257l-308 -1144q-4 -14 -9 -32.5t-9.5 -38t-7.5 -40t-3 -38.5q0 -32 12.5 -54t46.5 -22q13 0 35.5 10.5t50 31.5t56.5 52t56 72v-105q-30 -39 -60.5 -72t-62 -57t-64 -37.5t-66.5 -13.5q-45 0 -75.5 13t-48.5 35t-25.5 52t-7.5 63q0 43 9.5 87.5t21.5 84.5
q-98 -165 -195.5 -250t-216.5 -85q-55 0 -102.5 18t-82.5 56t-55 98.5t-20 144.5q0 93 18.5 187.5t54 182.5t86.5 164t116 133t143.5 89.5t167.5 32.5q42 0 79.5 -6.5t68.5 -17.5t55.5 -25.5t40.5 -30.5z" />
    <glyph glyph-name="e" unicode="e" horiz-adv-x="1053" 
d="M0 330q0 96 19.5 189t57.5 176.5t92.5 155t124 123t153.5 81t180 29.5q60 0 113.5 -15.5t93.5 -45t63.5 -72t23.5 -96.5q0 -48 -15 -92.5t-48.5 -83t-88.5 -70.5t-135.5 -54.5t-188.5 -35.5t-247 -14q-16 -79 -16 -156q0 -81 18 -132t48 -80t70 -39.5t85 -10.5
q40 0 84.5 11t90 33t90 55t85.5 77v-105q-35 -38 -78 -71t-92.5 -57t-105 -38t-115.5 -14q-93 0 -161 27.5t-112.5 75.5t-66.5 112t-22 137zM746 851q0 27 -8 52.5t-25.5 45.5t-44.5 32t-65 12q-66 0 -124 -32.5t-107 -87t-86.5 -125.5t-62.5 -148q147 1 247 20.5
t161.5 52.5t88 78.5t26.5 99.5z" />
    <glyph glyph-name="f" unicode="f" horiz-adv-x="684" 
d="M-51 0l255 957h-112l28 105h112l6 22q24 96 58 171.5t82 127t114 78.5t155 27q18 0 52.5 -2.5t69.5 -9t61 -17t26 -26.5q0 -5 -0.5 -13t-2.5 -13l-23 -85q-10 -35 -21.5 -52t-42.5 -17q-15 0 -21 11t-10 27t-9 35t-17 35t-33.5 27t-58.5 11q-30 0 -56 -11t-49 -41
t-45 -82.5t-44 -135.5l-18 -67h233l-28 -105h-233l-256 -957h-172z" />
    <glyph glyph-name="g" unicode="g" horiz-adv-x="1143" 
d="M669 313q-49 -84 -96 -145t-96.5 -100t-104 -58t-117.5 -19q-54 0 -100.5 17t-81 54t-54 95.5t-19.5 141.5q0 78 18 167t55.5 176t95 167t135.5 141t177.5 97.5t221.5 36.5q137 0 208.5 -30t71.5 -96q0 -17 -3.5 -36t-8.5 -40l-204 -773q-33 -123 -91 -222t-137 -169
t-175.5 -107.5t-206.5 -37.5q-12 0 -36.5 1t-54.5 4t-62 7t-58 10t-43 14.5t-17 18.5q0 5 0.5 13t2.5 13l28 95q5 17 9.5 30t11 21.5t17 13t26.5 4.5q11 0 17 -11.5t12 -29t16.5 -37.5t29.5 -37.5t51 -29t82 -11.5q55 0 113 20t112 66.5t100 123.5t79 192l21 74
q12 42 27.5 88.5t27.5 86.5zM175 310q0 -40 6 -75t20.5 -61t38 -41t58.5 -15q72 0 140 48.5t127.5 133t109 199t86.5 246.5l40 144q7 22 7 44q0 16 -11 28t-30 20t-44.5 12t-55.5 4q-88 0 -159 -36t-125.5 -94.5t-94 -132.5t-64.5 -150.5t-37 -148.5t-12 -125z" />
    <glyph glyph-name="h" unicode="h" horiz-adv-x="1177" 
d="M747 723q11 37 16.5 67.5t5.5 55.5q0 111 -116 111q-47 0 -107 -37t-122.5 -117.5t-122.5 -208t-108 -307.5l-76 -287h-173l347 1292q11 42 11 62q0 22 -10 29.5t-28 7.5h-28l20 75h253l-134 -497q-3 -10 -9.5 -31t-15.5 -48t-20 -56t-21 -56q91 155 197 230.5t207 75.5
q121 0 176.5 -54.5t55.5 -151.5q0 -67 -24 -149l-119 -407q-8 -29 -18.5 -70.5t-10.5 -78.5q0 -39 14.5 -56.5t37.5 -17.5q21 0 48 13t54.5 35t54.5 52t48 64v-105q-67 -93 -133 -136.5t-138 -43.5q-34 0 -63.5 10.5t-51 31.5t-34 51.5t-12.5 69.5q0 43 7 84t19 81z" />
    <glyph glyph-name="i" unicode="i" horiz-adv-x="568" 
d="M174 888q6 21 8.5 36.5t2.5 26.5q0 21 -9.5 28.5t-27.5 7.5h-28l20 75h253l-200 -740q-4 -14 -9 -32.5t-9.5 -38t-7.5 -40t-3 -38.5q0 -39 14.5 -56.5t37.5 -17.5q21 0 48 13t54.5 35t54.5 52t48 64v-105q-67 -93 -133 -136.5t-138 -43.5q-81 0 -120.5 44.5t-39.5 126.5
q0 60 21 138zM361 1241q-24 0 -45 8.5t-37 24t-25.5 37.5t-9.5 48q0 19 8 42t25.5 42t44 32t62.5 13q24 0 45.5 -9t37 -24.5t25 -37.5t9.5 -48q0 -20 -8 -42t-25.5 -41.5t-44 -32t-62.5 -12.5z" />
    <glyph glyph-name="j" unicode="j" horiz-adv-x="574" 
d="M181 888q5 21 8 36.5t3 26.5q0 21 -9.5 28.5t-27.5 7.5h-28l20 75h253l-261 -973q-29 -108 -68.5 -202t-93.5 -164t-123.5 -110t-158.5 -40q-29 0 -67 2.5t-71.5 9t-57 17t-23.5 26.5q0 5 0.5 13t2.5 13l31 105q5 17 9.5 30t11.5 21.5t17 13t26 4.5q14 0 20.5 -12.5
t11 -30.5l10 -40t17 -40t33.5 -30.5t59 -12.5q30 0 57 12.5t54 53t56 115.5t63 201zM367 1241q-24 0 -45 8.5t-37 24t-25.5 37.5t-9.5 48q0 19 8 42t25.5 42t44 32t62.5 13q24 0 45.5 -9t37 -24.5t25 -37.5t9.5 -48q0 -20 -8 -42t-25.5 -41.5t-44 -32t-62.5 -12.5z" />
    <glyph glyph-name="k" unicode="k" horiz-adv-x="1148" 
d="M290 1292q5 21 8 36.5t3 26.5q0 21 -9.5 28.5t-27.5 7.5h-28l20 75h253l-134 -497q-3 -10 -9.5 -31t-15.5 -48t-19.5 -56t-21.5 -56q43 70 95.5 126.5t112.5 96.5t126.5 61.5t138.5 21.5q52 0 92.5 -13t68.5 -37t43 -57.5t15 -73.5q0 -54 -24.5 -108.5t-76 -101.5
t-130.5 -83.5t-188 -54.5q58 -30 85.5 -78t37 -101.5t9.5 -107t3 -96.5q3 -41 17.5 -57t42.5 -16q23 0 49 13t52 35t52 52t49 64v-105q-61 -85 -128 -132.5t-137 -47.5q-87 0 -131.5 52t-44.5 163q0 26 1.5 57.5t1.5 64.5q0 37 -4 73.5t-17 67.5t-36 53t-62 30l2 1h-36
l25 73q117 4 197 30t129 63t70 80.5t21 81.5q0 50 -32.5 71.5t-92.5 21.5q-72 0 -142.5 -37t-136 -117.5t-124.5 -208.5t-109 -311l-76 -287h-173z" />
    <glyph glyph-name="l" unicode="l" horiz-adv-x="580" 
d="M295 1292q6 21 8.5 36.5t2.5 26.5q0 21 -9.5 28.5t-27.5 7.5h-28l20 75h253l-318 -1144q-15 -55 -22.5 -94t-7.5 -66q0 -35 16 -49t39 -14q21 0 47.5 13t54 35.5t54 52.5t47.5 63v-105q-67 -93 -133 -136.5t-138 -43.5q-79 0 -120.5 44t-41.5 119q0 18 2.5 40.5t7 46
t10 45.5t10.5 40z" />
    <glyph glyph-name="m" unicode="m" horiz-adv-x="1747" 
d="M181 888q5 21 8 36.5t3 26.5q0 21 -9.5 28.5t-27.5 7.5h-28l20 75h244l-83 -295q42 78 90 137.5t99 99t103.5 60t102.5 20.5q116 0 167.5 -49.5t51.5 -144.5q0 -43 -9 -92q85 135 181 210.5t199 75.5q224 0 224 -198q0 -29 -4.5 -61.5t-15.5 -69.5l-125 -433
q-4 -14 -9 -32t-9.5 -38t-7.5 -40.5t-3 -38.5q0 -39 14 -56.5t37 -17.5q21 0 48 13t55 35t55 52t48 64v-105q-67 -93 -133 -136.5t-138 -43.5q-34 0 -63.5 10.5t-51 31t-33.5 51t-12 70.5q0 43 8 84t19 81l126 437q19 69 19 116q0 53 -26 75.5t-82 22.5q-42 0 -85.5 -25.5
t-86 -71t-82.5 -108.5t-76.5 -137.5t-67 -157.5t-53.5 -170l-76 -287h-172l191 723q11 40 16.5 73t5.5 59q0 51 -24 76.5t-80 25.5q-47 0 -105.5 -38t-119 -119t-119.5 -208t-106 -305l-76 -287h-173z" />
    <glyph glyph-name="n" unicode="n" horiz-adv-x="1177" 
d="M181 888q5 21 8 36.5t3 26.5q0 21 -9.5 28.5t-27.5 7.5h-28l20 75h244l-83 -294q89 166 194 241t211 75q121 0 176.5 -54.5t55.5 -151.5q0 -67 -24 -149l-119 -407q-8 -29 -18.5 -70.5t-10.5 -78.5q0 -40 14 -58t40 -18q21 0 47.5 13.5t54 36t54 52.5t47.5 64v-105
q-67 -93 -133 -136.5t-138 -43.5q-34 0 -63.5 10.5t-51 31t-34 51t-12.5 70.5q0 43 7 84t19 81l123 417q11 37 16.5 67.5t5.5 55.5q0 111 -116 111q-47 0 -107 -37t-122.5 -117.5t-122.5 -208t-108 -307.5l-76 -287h-173z" />
    <glyph glyph-name="o" unicode="o" horiz-adv-x="1104" 
d="M10 353q0 77 16.5 161.5t48.5 166t79.5 154.5t110 128.5t140 88t169.5 32.5q91 0 157 -28t109 -79t63.5 -123t20.5 -160q0 -77 -16 -160t-48 -163t-80 -151t-111 -125t-141 -85.5t-171 -31.5q-86 0 -149.5 25t-106.5 71t-65.5 111t-25.5 145v23zM577 994q-58 0 -110 -33
t-96 -87.5t-79.5 -126.5t-60.5 -149.5t-38.5 -156t-13.5 -146.5q0 -51 9 -93t30 -71.5t55 -46t85 -16.5q58 0 110.5 32.5t96.5 87t79 126t59.5 149t37.5 155.5t13 147q0 51 -9 93.5t-29.5 72.5t-54.5 46.5t-84 16.5z" />
    <glyph glyph-name="p" unicode="p" horiz-adv-x="1135" 
d="M168 196q4 -20 16 -43t32 -42.5t48.5 -32t65.5 -12.5q61 0 123 29.5t117.5 89t103 150.5t80.5 214q17 64 24.5 115.5t7.5 92.5q0 60 -13.5 98.5t-33.5 61t-43 31.5t-43 9q-55 0 -117 -42t-123 -123.5t-116.5 -201.5t-96.5 -276zM388 1062l-82 -295q49 89 100.5 149.5
t103.5 98t104.5 53.5t104.5 16q51 0 96.5 -20t79 -60t53.5 -100t20 -140q0 -47 -7 -100.5t-24 -114.5q-34 -126 -93.5 -231t-137.5 -180.5t-170.5 -117.5t-192.5 -42q-73 0 -126 24t-84 56l-128 -465h-172l348 1295q5 21 8 36.5t3 26.5q0 21 -9.5 28.5t-27.5 7.5h-28l20 75
h241z" />
    <glyph glyph-name="q" unicode="q" horiz-adv-x="1141" 
d="M602 138q8 30 24 72.5t37 93.5q-48 -77 -95.5 -137.5t-98 -102.5t-106 -64t-119.5 -22q-54 0 -98.5 17t-77 54t-50.5 95.5t-18 141.5q0 89 17.5 183t53.5 182.5t92 167.5t133 137.5t175.5 93t219.5 34.5q136 0 213 -30.5t77 -95.5q0 -17 -3.5 -36t-8.5 -40l-343 -1289
h-171zM176 297q0 -40 4 -75t16 -61t34 -41t57 -15q70 0 138.5 48.5t130 134t113.5 202.5t90 255l40 144q7 24 7 44q0 16 -12.5 28t-33.5 20t-48 12t-57 4q-79 0 -145 -32t-119 -85.5t-93 -124.5t-67 -148.5t-40.5 -157.5t-14.5 -152z" />
    <glyph glyph-name="r" unicode="r" horiz-adv-x="930" 
d="M653 957q-47 0 -107 -37t-122.5 -117.5t-122.5 -208t-108 -307.5l-76 -287h-173l238 888q5 21 8 36.5t3 26.5q0 21 -9.5 28.5t-27.5 7.5h-28l20 75h233l-88 -313q47 87 99 150t106.5 104.5t109.5 61t109 19.5q17 0 47.5 -1t60.5 -7t52 -18.5t22 -35.5q0 -10 -3 -20
l-32 -120q-9 -35 -21 -52t-43 -17q-13 0 -18.5 10.5t-9.5 26.5t-9.5 35t-17.5 35t-33.5 26.5t-58.5 10.5z" />
    <glyph glyph-name="s" unicode="s" horiz-adv-x="1020" 
d="M300 70q73 0 130.5 16.5t96.5 47.5t59.5 73.5t20.5 95.5q0 39 -11.5 65.5t-36.5 46t-63 34t-90 28.5q-74 19 -127 41t-87.5 51t-50.5 66t-16 86q0 72 34.5 137.5t97.5 115.5t153 80t201 30q15 0 41.5 -1t57.5 -3.5t63 -7.5t58 -12t42.5 -16.5t16.5 -21.5q0 -10 -3 -20
l-21 -80q-9 -35 -21.5 -52t-42.5 -17q-11 0 -20.5 10.5t-22 26.5t-30 34t-44 34t-63.5 26.5t-88 10.5q-50 0 -96 -15.5t-81.5 -42.5t-57 -64t-21.5 -80q0 -36 12 -60t34 -40.5t52.5 -27.5t68.5 -21q83 -21 143 -46t98.5 -57t57 -74.5t18.5 -98.5q0 -81 -34 -152t-100 -124
t-163 -83.5t-222 -30.5q-52 0 -108.5 2t-103 8.5t-77 19t-30.5 32.5q0 9 3 20l22 80q5 17 9.5 30t11.5 21.5t17 13t26 4.5q19 0 37 -21.5t47.5 -48t77 -48t125.5 -21.5z" />
    <glyph glyph-name="t" unicode="t" horiz-adv-x="762" 
d="M311 1224l215 160l-86 -322h244l-28 -105h-244l-181 -676q-7 -26 -12 -54t-5 -54q0 -40 14 -58t40 -18q21 0 47.5 13.5t54 36t54 52.5t47.5 64v-105q-67 -93 -133 -136.5t-138 -43.5q-34 0 -63.5 10.5t-51 31t-34 51t-12.5 70.5q0 43 7.5 84t18.5 81l174 651h-101l28 105
h101z" />
    <glyph glyph-name="u" unicode="u" horiz-adv-x="1181" 
d="M394 1062l-194 -723q-20 -72 -20 -121q0 -57 27 -85t87 -28q47 0 107 37t122.5 117.5t122.5 208t108 307.5l76 287h173l-197 -740q-4 -14 -9 -32.5t-9.5 -38t-7.5 -40t-3 -38.5q0 -32 12.5 -54t46.5 -22q13 0 35.5 10.5t50 31.5t56.5 52t56 72v-105q-30 -39 -60.5 -72
t-62 -57t-64 -37.5t-66.5 -13.5q-45 0 -75.5 13t-48.5 35t-25.5 52t-7.5 63q0 43 7 87.5t19 84.5q-48 -92 -99 -155.5t-104 -103.5t-106.5 -58t-106.5 -18q-61 0 -104.5 14.5t-71.5 41.5t-41 65.5t-13 86.5q0 68 22 147l149 555q5 21 8 36.5t3 26.5q0 21 -9.5 28.5
t-27.5 7.5h-28l20 75h253z" />
    <glyph glyph-name="v" unicode="v" horiz-adv-x="999" 
d="M94 957q0 17 -8.5 23.5t-23.5 6.5h-32l20 75h212q-1 -13 -1.5 -27t-0.5 -31q0 -52 3.5 -119t9.5 -141.5t14 -152t16.5 -150.5t17.5 -137t18 -111q2 -12 12 -12q8 0 17 10q39 45 81 103t81.5 121t74.5 128t61.5 124.5t42 110.5t15.5 86q0 44 -12.5 68t-27 38.5t-27 24
t-12.5 24.5q1 15 6 25.5t18.5 17t37.5 9.5t65 3q22 0 45 -3t41 -11t29.5 -24t11.5 -41q0 -44 -22 -113t-61.5 -153t-93.5 -177.5t-118 -188t-135.5 -185t-145.5 -166.5q-11 -11 -30.5 -22.5t-40.5 -11.5q-23 0 -35 13t-14 24q-24 111 -43 238.5t-33 254t-22.5 243.5
t-10.5 206z" />
    <glyph glyph-name="w" unicode="w" horiz-adv-x="1518" 
d="M613 957q0 17 -8.5 23.5t-23.5 6.5h-32l20 75h212q-1 -13 -1.5 -27t-0.5 -31q0 -52 3.5 -119t9.5 -141.5t14 -152t16.5 -150.5t18 -137t17.5 -111q2 -12 12 -12q8 0 17 10q39 45 81 103t81.5 121t74.5 128t61.5 124.5t42 110.5t15.5 86q0 44 -12.5 68t-27 38.5t-27 24
t-12.5 24.5q1 15 6 25.5t18.5 17t37.5 9.5t65 3q22 0 45 -3t41 -11t29.5 -24t11.5 -41q0 -44 -22 -113t-61.5 -153t-93.5 -177.5t-118 -188t-135.5 -185t-145.5 -166.5q-11 -11 -30.5 -22.5t-40.5 -11.5q-23 0 -35 13t-14 24q-20 97 -37 205t-31 220q-72 -115 -157 -225.5
t-174 -202.5q-11 -11 -30.5 -22.5t-40.5 -11.5q-23 0 -35 13t-14 24q-24 112 -43 242t-33 258t-22.5 243.5t-10.5 198.5q0 17 -8.5 23.5t-23.5 6.5h-32l20 75h212q-1 -13 -1.5 -27t-0.5 -31q0 -52 3.5 -119t9.5 -141.5t14 -152t16.5 -150.5t17.5 -137t18 -111q2 -12 12 -12
q8 0 17 10q34 39 70 88t71 103t67.5 110.5t59.5 110.5q-10 100 -15.5 190.5t-7.5 163.5z" />
    <glyph glyph-name="x" unicode="x" horiz-adv-x="1175" 
d="M732 110q22 0 47.5 11t52 31t52.5 48t49 62l-6 -105q-71 -92 -134.5 -136t-134.5 -44q-41 0 -75.5 30.5t-63.5 87.5t-55 138.5t-51 183.5q-137 -106 -209 -181t-72 -119q0 -14 6 -24.5t13.5 -19t13.5 -17t6 -18.5q0 -17 -5 -28t-19.5 -18.5t-39.5 -10.5t-64 -3
q-21 0 -42 2.5t-38 10t-27.5 21t-10.5 35.5q0 36 25.5 70.5t55.5 65.5q68 71 168.5 154t216.5 172l-3 16q-33 145 -53.5 235.5t-39.5 140.5t-40 68t-54 18h-37l23 75h184q22 0 40 -23t36 -75.5t39 -137.5t49 -209q27 20 60.5 45t67 53t65.5 57.5t57 58t40 56t15 50.5
q0 14 -4.5 25t-10.5 20t-10.5 17t-4.5 16q0 16 5 27.5t19 18.5t39 10t65 3q21 0 42.5 -2.5t38.5 -10t27.5 -21t10.5 -35.5q0 -26 -20 -58.5t-53 -65.5q-50 -50 -98.5 -93t-100 -85t-108 -85t-121.5 -92q26 -114 47.5 -193.5t42 -129t41 -71.5t45.5 -22z" />
    <glyph glyph-name="y" unicode="y" horiz-adv-x="1040" 
d="M73 987l20 75h212q-1 -14 -1.5 -30.5t-0.5 -35.5q0 -52 3.5 -118t9 -139t13.5 -149t17.5 -148.5t19 -137.5t19.5 -115q4 -21 16 -21q13 0 24 18q69 97 131 197t109.5 190.5t75 166t27.5 124.5q0 46 -12.5 69.5t-27 37t-27 22.5t-12.5 26q0 15 5 25.5t19 17t39 9.5t64 3
q36 0 60.5 -6t39.5 -16.5t21 -25t6 -31.5q0 -43 -21.5 -109.5t-60 -149t-91.5 -176t-115 -190.5t-131.5 -194t-141 -185.5t-142.5 -165t-137 -132.5t-124.5 -88t-104.5 -32q-62 0 -102.5 16t-40.5 39q0 5 0.5 13t2.5 13l31 105q5 17 9.5 30t11.5 21.5t17 13t26 4.5
q14 0 21 -9t10.5 -22t6 -28.5t8.5 -28.5t18 -22t34 -9q28 0 65.5 20.5t82 57.5t94 88t102.5 112q-7 2 -15 10t-10 20q-24 114 -43.5 240.5t-33.5 251.5t-22 240.5t-10 207.5q0 17 -8.5 23.5t-23.5 6.5h-32z" />
    <glyph glyph-name="z" unicode="z" horiz-adv-x="1071" 
d="M976 1062q17 0 26 -16.5t9 -37.5q0 -18 -7.5 -36t-24.5 -28q-49 -29 -104.5 -67.5t-115 -83t-121 -94.5t-122.5 -102q-60 -51 -117 -104.5t-107 -106t-92 -102.5t-72 -93q32 5 66 7.5t69 2.5q80 0 161.5 -13t154 -39.5t131.5 -66.5t95 -94l-69 -42q-34 19 -83.5 35
t-110.5 28t-129.5 19t-140.5 7q-78 0 -154 -8.5t-148 -28.5q-20 2 -27.5 15t-7.5 30q0 15 4.5 30t10.5 25q28 48 66 102t84 108.5t97 109t104 104.5q54 52 108 101t105.5 92.5t99 80.5t88.5 66q-51 3 -103.5 13t-104 21t-100 19.5t-91.5 8.5q-54 0 -95.5 -18.5t-63.5 -69.5
l-34 73q18 51 43.5 84.5t57 53.5t68.5 28t78 8q53 0 110.5 -10t116 -22t116.5 -22t112 -10q46 0 87.5 9.5t76.5 33.5z" />
    <glyph glyph-name="braceleft" unicode="{" horiz-adv-x="627" 
d="M505 -399q-63 8 -103.5 26t-68.5 51q-24 32 -42 62.5t-29 66.5q-6 23 -11.5 51.5t-8.5 55.5l-1 73v49q0 7 0.5 14t2.5 15v41v14t2 17q-1 80 -11 145t-31 100q-41 65 -107 71v102q21 0 26 5q4 0 16 6q41 16 72 83q35 66 35 227q0 8 -0.5 14.5t-1.5 11.5v42q0 24 -3 36v41
l1 76q0 16 1.5 32.5t6.5 33.5q1 5 4.5 18t7.5 23q10 31 27.5 64t43.5 62q55 63 161 76l2 -11q2 0 5 1t5 1l9 -83q-26 0 -32 -6l-6 -2h1q-5 -2 -10.5 -4t-10.5 -4q-10 -8 -23 -22.5t-24 -29.5q-9 -17 -14.5 -41t-5.5 -56l1 -66q0 -17 0.5 -33.5t3.5 -37.5l1 -28l2 -24v-9v-17
t2 -23v-36q0 -2 -0.5 -4t-0.5 -4q-1 -5 -1 -11q0 -65 -14.5 -120t-39.5 -100q-20 -37 -51.5 -70.5t-75.5 -62.5q43 -26 75 -62.5t52 -73.5q23 -43 38.5 -98t15.5 -117l2 -51v-39q0 -2 -0.5 -4t-0.5 -4t-0.5 -3t-0.5 -2l-2 -24l1 -15l-3 -27l-3 -29q0 -5 -0.5 -11.5
t-0.5 -10.5v-70q0 -67 33 -113q30 -47 92 -57z" />
    <glyph glyph-name="bar" unicode="|" horiz-adv-x="940" 
d="M406 -367v2021h111v-2021h-111zM398 -373v6h8v-6h-8z" />
    <glyph glyph-name="braceright" unicode="}" horiz-adv-x="627" 
d="M510 449q-35 0 -58 -14t-40 -37q-11 -22 -22 -51t-18 -58q0 -2 -0.5 -3t-0.5 -3q-4 -21 -7 -43t-3 -39l-1 -64l1 -4v-66v-4h1v-36v-17.5t1 -15.5l-2 -72q0 -47 -10 -87q-9 -42 -25 -78t-43 -70q-23 -35 -65.5 -56.5t-96.5 -29.5v7q-5 0 -10.5 -1t-10.5 -1l-8 80
q53 10 88.5 54.5t35.5 119.5l-2 63v17q0 11 -0.5 24.5t-1.5 30.5l-2 22v63q0 1 -0.5 2t-0.5 2q-1 3 -1 6.5v5.5v11v20t2 21q2 119 47 209t133 144q-44 29 -75 60.5t-54 70.5q-24 46 -37.5 100t-13.5 123v35q0 1 -0.5 2t-0.5 2q-1 3 -1 6.5v5.5v10v20t2 22v19q0 10 2 20v9
q0 8 0.5 14.5t1.5 11.5v43l2 26v46q0 38 -9.5 68.5t-31.5 53.5q-11 14 -31 26t-52 23l10 88q129 -16 181 -90q23 -30 40 -67.5t28 -77.5q3 -14 5 -25t3 -21t1.5 -20.5t0.5 -23.5v-13.5t1 -20.5q1 -13 1 -22v-14l-2 -34l1 -28v-7l-2 -32l1 -36q0 -93 11 -155t33 -98
q21 -30 45 -48t60 -22v-102z" />
    <glyph glyph-name="asciitilde" unicode="~" horiz-adv-x="916" 
d="M814 711l-28 -63q-7 -13 -14 -24t-13 -19q-9 -13 -24 -30t-28 -31q-8 -10 -19.5 -17.5t-24.5 -12.5q-27 -8 -43 -8q-17 0 -36 1t-42 4q-2 0 -3 0.5t-3 0.5q-23 4 -47.5 8.5t-64.5 15.5h1l-111 25q-13 2 -27 3t-25 1h-18q-5 0 -10 -0.5t-10 -1.5t-21 -11q-14 -8 -36 -49
h-71q18 47 42.5 84.5t54.5 68.5q61 60 139 60q11 0 21 -0.5t26 -3.5q11 -1 27.5 -3t30.5 -6l32 -6q10 -1 19 -2.5t17 -4.5q9 0 15 -4q2 0 6 -1.5t6 -2.5q30 -9 52.5 -15t40.5 -10t33 -6t30 -2q3 0 7.5 3.5t7.5 5.5l10 11l13 17l8 10l8 13l7 -5v7h65z" />
    <glyph glyph-name="uni00A0" unicode="&#xa0;" horiz-adv-x="586" 
 />
    <glyph glyph-name="exclamdown" unicode="&#xa1;" horiz-adv-x="476" 
d="M-74 -311q2 7 13.5 40.5t30 87t43.5 122.5t53 147t57.5 160.5t58.5 163t56 154.5t49 135h78q-11 -61 -24.5 -135t-28 -154.5t-29.5 -163t-29 -160.5t-26 -147t-22 -122.5t-16 -87t-8 -40.5q-14 -56 -58.5 -85.5t-100.5 -29.5q-47 0 -74.5 19.5t-27.5 60.5q0 13 5 35z
M398 1084q24 0 45 -8.5t37 -24t25.5 -37.5t9.5 -48q0 -20 -8 -42.5t-25.5 -41.5t-44 -32t-62.5 -13q-24 0 -45.5 8.5t-37 24.5t-25 38t-9.5 48q0 19 8 41.5t25.5 42t44 32t62.5 12.5z" />
    <glyph glyph-name="cent" unicode="&#xa2;" horiz-adv-x="991" 
d="M271 -407h-99l101 391q-61 10 -111 37.5t-86 72.5t-56 107.5t-20 142.5q0 85 17 170t50 163.5t81 147.5t110 122.5t137 88t161 44.5l100 386h98l-99 -383q43 -2 87 -7t79.5 -13.5t58.5 -20t23 -25.5q0 -10 -3 -20l-27 -110q-8 -35 -19.5 -52t-42.5 -17q-12 0 -19.5 10.5
t-15.5 27t-18.5 36t-27 38.5t-40.5 34t-60 22l-232 -899q185 1 355 176v-105q-44 -44 -87.5 -76.5t-90 -54.5t-97 -34t-108.5 -14zM182 338q2 -91 32 -151t90 -84l228 884q-62 -11 -112 -46.5t-89 -88.5t-67 -118t-46.5 -133.5t-27 -136.5t-8.5 -126z" />
    <glyph glyph-name="sterling" unicode="&#xa3;" horiz-adv-x="1253" 
d="M708 836l-27 -100h-274q-6 -71 -24.5 -149.5t-61 -158t-114.5 -156.5t-184 -144q88 48 176.5 70t171.5 22q68 0 123.5 -14t104 -30.5t92.5 -30t89 -13.5q36 0 74 12t81 41l-30 -112q-78 -56 -146 -75.5t-122 -19.5q-46 0 -95.5 14t-102 31t-107.5 31t-112 14
q-36 0 -77 -6.5t-83 -18.5t-84.5 -29.5t-81.5 -38.5l-23 173q119 59 188.5 128.5t105 145t45 155t9.5 159.5h-205l27 100h176q0 75 3.5 131t17.5 106q25 92 73 168.5t115.5 131t152.5 85t185 30.5q60 0 101 -3.5t78 -7.5t76 -7.5t95 -3.5l-47 -298h-74q-8 46 -25 87
t-47 71.5t-74.5 48.5t-107.5 18q-48 0 -97 -12t-91.5 -38.5t-76 -69.5t-49.5 -104q-10 -36 -13 -77t-3 -87q0 -40 1 -82t1 -87h297z" />
    <glyph glyph-name="currency" unicode="&#xa4;" horiz-adv-x="1139" 
d="M230 949l-141 139l109 113l143 -141q51 33 106 50.5t118 17.5t118.5 -17.5t106.5 -50.5l142 141l110 -113l-142 -139q33 -54 50.5 -109t17.5 -115t-17.5 -114.5t-50.5 -108.5l142 -139l-110 -113l-142 142q-51 -34 -106.5 -51.5t-118.5 -17.5t-118 17.5t-106 51.5
l-143 -142l-109 113l141 139q-32 54 -49.5 108.5t-17.5 114.5t17.5 115t49.5 109zM300 725q0 -54 20.5 -102t56.5 -84t84 -57t103 -21t103 21t83.5 57t56 84t20.5 102t-20.5 102t-56 84t-83.5 57t-103 21q-54 0 -102 -21t-84 -57t-57 -84t-21 -102z" />
    <glyph glyph-name="yen" unicode="&#xa5;" horiz-adv-x="1421" 
d="M121 434h293l20 74h-293l26 100h293l23 84q-100 152 -185 308t-140 318q-8 21 -13 34.5t-10 21t-10.5 10t-12.5 2.5h-31l21 80h320l-21 -80h-26q-14 0 -24 -8.5t-10 -25.5q0 -13 8 -34q23 -63 55.5 -133t70 -140t78.5 -135t82 -117q70 55 138.5 110t132 111.5t120.5 115
t104 120.5q32 42 46 68.5t14 43.5q0 24 -31 24h-12l21 80h337l-21 -80h-5q-18 0 -36.5 -5.5t-44 -23.5t-62 -52t-90.5 -91q-56 -59 -118 -118.5t-132.5 -123t-151.5 -133t-175 -148.5l-22 -83h320l-26 -100h-321l-20 -74h321l-27 -100h-320l-39 -147q-4 -15 -7 -31t-3 -30
q0 -20 8 -33t29 -13h30l-21 -80h-359l21 80h30q18 0 32 10t24.5 25.5t17.5 34.5t12 37l39 147h-294z" />
    <glyph glyph-name="brokenbar" unicode="&#xa6;" horiz-adv-x="501" 
d="M-144 -427l192 721h110l-193 -721h-109zM173 761l195 727h110l-195 -727h-110z" />
    <glyph glyph-name="section" unicode="&#xa7;" horiz-adv-x="1195" 
d="M238 -336q61 0 110 21t83.5 54.5t52.5 76t18 84.5t-21.5 76t-56.5 64t-79.5 57.5t-91 56t-91 60t-79.5 70.5t-56.5 86t-21.5 107q0 79 31.5 147t85 120t124.5 86t150 45q-30 23 -56 48t-44.5 54.5t-29.5 63t-11 73.5q0 86 38 155.5t103 118t153 74.5t187 26q15 0 41.5 -1
t57.5 -4t63 -7.5t58 -11.5t42.5 -16.5t16.5 -21.5q0 -10 -3 -20l-21 -80q-9 -35 -21.5 -52t-42.5 -17q-11 0 -20.5 10.5t-22 26.5t-30 34t-44 34t-63 26.5t-88.5 10.5q-55 0 -100.5 -18t-77.5 -47t-50 -66.5t-18 -77.5q0 -62 38.5 -108.5t97 -86.5t126 -78t126 -84.5
t97 -106t38.5 -140.5q0 -90 -35 -161.5t-93.5 -121.5t-135.5 -76.5t-161 -27.5q30 -23 56.5 -49t46 -56.5t31 -66t11.5 -77.5q0 -90 -38 -160t-103.5 -118.5t-153 -73.5t-187.5 -25q-15 0 -41.5 1t-57.5 4t-63 7.5t-58 11.5t-42.5 16.5t-16.5 21.5q0 9 3 20l21 80
q9 35 21.5 52t42.5 17q10 0 19.5 -10.5t21.5 -26t28.5 -33.5t41.5 -33.5t60 -26t84 -10.5zM468 276q123 0 192 48t96 147q7 27 7 55q0 48 -22.5 87t-59 72t-83.5 62t-95 58q-67 0 -126.5 -20t-103.5 -56t-70 -86t-26 -111q0 -43 17.5 -78t47 -65t68 -56.5t80.5 -52.5
q18 -2 37.5 -3t40.5 -1z" />
    <glyph glyph-name="dieresis" unicode="&#xa8;" horiz-adv-x="682" 
d="M156 1241q-24 0 -45 8.5t-37 24t-25.5 37.5t-9.5 48q0 19 8 42t25.5 42t44 32t62.5 13q24 0 45.5 -9t37 -24.5t25 -37.5t9.5 -48q0 -20 -8 -42t-25.5 -41.5t-44 -32t-62.5 -12.5zM508 1241q-24 0 -45 8.5t-37 24t-25.5 37.5t-9.5 48q0 19 8 42t25.5 42t44 32t62.5 13
q24 0 45.5 -9t37 -24.5t25 -37.5t9.5 -48q0 -20 -8 -42t-25.5 -41.5t-44 -32t-62.5 -12.5z" />
    <glyph glyph-name="copyright" unicode="&#xa9;" horiz-adv-x="1509" 
d="M758 78q139 0 257.5 46t205.5 131.5t136 207t49 273.5q0 151 -49 273t-136 208t-205.5 132t-257.5 46t-258 -46t-206 -132t-136 -208t-49 -273q0 -152 49 -273.5t136 -207t206 -131.5t258 -46zM758 -14q-158 0 -295.5 52.5t-238.5 150t-159 236t-58 311.5q0 172 58 311
t159 237t238.5 150.5t295.5 52.5t295 -52.5t238 -150.5t159 -237t58 -311q0 -173 -58 -311.5t-159 -236t-238 -150t-295 -52.5zM802 386q63 0 125.5 15t112.5 49v-74q-14 -13 -36.5 -26.5t-54.5 -25t-73 -18.5t-91 -7q-100 0 -174.5 30.5t-124.5 87t-75 137t-25 179.5
q0 90 22 169t70 138t123.5 93t183.5 34q40 0 68 -2t54 -4t55 -4t71 -2l19 -182h-48q-16 26 -34 48.5t-42 39.5t-55 26.5t-71 9.5q-131 0 -193.5 -94t-62.5 -270q0 -97 19.5 -163.5t54 -107t81.5 -58.5t101 -18z" />
    <glyph glyph-name="ordfeminine" unicode="&#xaa;" horiz-adv-x="789" 
d="M560 1319q-7 23 -21 39t-31 25.5t-36 13.5t-35 4q-46 0 -84.5 -22t-69 -58.5t-54 -83.5t-39 -97.5t-23 -100t-7.5 -90.5q0 -64 19 -95.5t64 -31.5q42 0 84 34t81 91.5t72.5 134.5t58.5 164zM458 837q0 14 2 32.5t4 32.5q-54 -90 -117.5 -137t-135.5 -47q-36 0 -69 11
t-58.5 37.5t-40.5 70.5t-15 110q0 62 11.5 126t34.5 123t57.5 111t79.5 90.5t101.5 60.5t122.5 22q49 0 89 -12t63 -43l11 41h137l-136 -520q-5 -18 -11.5 -43t-6.5 -45q0 -17 6 -29t23 -12q8 0 23 8.5t34.5 25.5t41.5 42t44 58v-106q-43 -54 -87.5 -90.5t-92.5 -36.5
q-33 0 -55 9.5t-35.5 26t-19 38t-5.5 45.5z" />
    <glyph glyph-name="guillemotleft" unicode="&#xab;" horiz-adv-x="1098" 
d="M548 -9h-66l-413 504l413 501h66l-261 -501zM1028 -9h-67l-420 504l420 501h67l-260 -501z" />
    <glyph glyph-name="logicalnot" unicode="&#xac;" horiz-adv-x="1175" 
d="M41 1030h985l-87 -326h-133l54 202h-852z" />
    <glyph glyph-name="uni00AD" unicode="&#xad;" horiz-adv-x="595" 
d="M467 289h-365v100h365v-100z" />
    <glyph glyph-name="registered" unicode="&#xae;" horiz-adv-x="1509" 
d="M1081 412q8 -17 13 -27.5t9.5 -16.5t9.5 -8t13 -2h27v-45h-198q-11 48 -40.5 108.5t-68.5 118.5t-84.5 105.5t-88.5 67.5v59q20 -6 50.5 -10t56.5 -4q31 0 61 8t54 27.5t38.5 51.5t14.5 79q0 54 -14.5 87.5t-40 52t-61 25t-77.5 6.5q-50 0 -77.5 -3.5t-41.5 -10t-17 -17
t-3 -24.5v-620q0 -38 7.5 -50t24.5 -12h18v-45h-252v45h17q17 0 24.5 12t7.5 50v624q0 38 -6.5 49t-25.5 11h-18v47q72 0 121.5 2t88.5 4t74 4t78 2q89 0 152 -16t103 -46.5t58.5 -75t18.5 -101.5q0 -50 -16.5 -88.5t-47 -65t-73 -41t-94.5 -15.5q39 -28 72.5 -70.5
t59.5 -87t44.5 -84t28.5 -60.5zM758 78q139 0 257.5 46t205.5 131.5t136 207t49 273.5q0 151 -49 273t-136 208t-205.5 132t-257.5 46t-258 -46t-206 -132t-136 -208t-49 -273q0 -152 49 -273.5t136 -207t206 -131.5t258 -46zM758 -14q-158 0 -295.5 52.5t-238.5 150
t-159 236t-58 311.5q0 172 58 311t159 237t238.5 150.5t295.5 52.5t295 -52.5t238 -150.5t159 -237t58 -311q0 -173 -58 -311.5t-159 -236t-238 -150t-295 -52.5z" />
    <glyph glyph-name="macron" unicode="&#xaf;" horiz-adv-x="1024" 
d="M-76 1550l27 100h1146l-27 -100h-1146z" />
    <glyph glyph-name="degree" unicode="&#xb0;" horiz-adv-x="631" 
d="M70 1222q0 51 17.5 95.5t50 77.5t78.5 52t103 19t103 -19t78 -52t49.5 -77.5t17.5 -95.5t-17.5 -95.5t-50 -77.5t-78.5 -52t-102 -19t-102 19t-78.5 52t-50.5 77.5t-18 95.5zM144 1222q0 -37 11.5 -69.5t33.5 -56.5t54.5 -37.5t75.5 -13.5t75.5 13.5t54.5 37.5t33 56.5
t11 69.5t-11.5 69.5t-33.5 56.5t-54.5 37.5t-74.5 13.5t-74.5 -13.5t-55 -37.5t-34 -56.5t-11.5 -69.5z" />
    <glyph glyph-name="plusminus" unicode="&#xb1;" horiz-adv-x="1124" 
d="M386 292l85 319h-398l33 123h398l77 289h133l-77 -289h399l-33 -123h-399l-85 -319h-133zM-67 83l32 123h930l-33 -123h-929z" />
    <glyph glyph-name="twosuperior" unicode="&#xb2;" horiz-adv-x="583" 
d="M334 1412q-33 0 -71.5 -14.5t-70.5 -49.5h-31l40 110q26 5 59 13t79 8q118 0 174 -46.5t56 -133.5q0 -67 -31.5 -129t-88 -119t-134.5 -107.5t-171 -93.5h181q21 0 36.5 1t28.5 7t24.5 18.5t24.5 36.5h33l-66 -181h-432l26 97q45 28 94.5 59.5t97.5 67t92 75.5t77.5 84.5
t53 94t19.5 103.5q0 48 -24.5 73.5t-75.5 25.5z" />
    <glyph glyph-name="threesuperior" unicode="&#xb3;" horiz-adv-x="583" 
d="M309 1423q-35 0 -72 -14t-73 -52h-30l41 108q31 10 72 16.5t76 6.5q37 0 75 -8t69 -26.5t50 -48.5t19 -74q0 -75 -44.5 -126.5t-129.5 -70.5q22 -4 42 -15t35.5 -29t24.5 -43.5t9 -57.5q0 -60 -23 -109t-66.5 -84.5t-105 -55t-137.5 -19.5q-21 0 -47 1t-51.5 2.5
t-47.5 4.5t-35 6l21 117h30q12 -39 49.5 -53t82.5 -14q26 0 54 8t53.5 26.5t46.5 48t33 72.5q9 33 9 59q0 31 -11 50t-27.5 29.5t-36 14.5t-35.5 4t-28 -2t-20 -2q-27 0 -27 25q0 32 12.5 44t23.5 12q13 0 23 -1.5t18 -1.5q25 0 50.5 5t48 18.5t40.5 38t29 62.5q6 22 6 43
q0 42 -25.5 63.5t-70.5 21.5z" />
    <glyph glyph-name="acute" unicode="&#xb4;" horiz-adv-x="408" 
d="M175 1466h223l-276 -289h-105z" />
    <glyph glyph-name="mu1" unicode="&#xb5;" horiz-adv-x="1210" 
d="M423 1062l-194 -723q-20 -74 -20 -121q0 -57 27 -85t87 -28q47 0 106.5 37t122 117.5t123 208t108.5 307.5l76 287h173l-197 -740q-8 -29 -18.5 -70.5t-10.5 -78.5q0 -32 12.5 -54t46.5 -22q13 0 35.5 10.5t49.5 31.5t56.5 52t56.5 72v-105q-30 -39 -60.5 -72t-62 -57
t-64 -37.5t-66.5 -13.5q-45 0 -75.5 13t-48.5 35t-25.5 52t-7.5 63q0 43 7 87.5t19 84.5q-48 -92 -99 -155.5t-104 -103.5t-106.5 -58t-106.5 -18q-75 0 -123.5 21.5t-74.5 61.5l-9 -35q-11 -42 -14.5 -93.5t-6.5 -103.5t-8.5 -101.5t-20.5 -87.5t-42.5 -61t-73.5 -23
q-35 0 -54.5 18t-19.5 50q0 8 1.5 15.5t3.5 16.5q10 39 31.5 88t46 103t48 110.5t37.5 109.5l266 995h173z" />
    <glyph glyph-name="paragraph" unicode="&#xb6;" horiz-adv-x="1137" 
d="M628 1466h498l-26 -100h-144l-475 -1773h-110l475 1773h-143l-475 -1773h-110l301 1125q-67 0 -125 18t-101 52.5t-67.5 85t-24.5 116.5q0 48 15 104q24 90 76 159.5t121.5 117t150.5 71.5t164 24z" />
    <glyph glyph-name="periodcentered" unicode="&#xb7;" horiz-adv-x="535" 
d="M311 574q0 -23 -8.5 -42.5t-23 -33.5t-34 -22.5t-41.5 -8.5q-23 0 -42.5 8.5t-34 22.5t-23 33.5t-8.5 42.5q0 22 8 41.5t22.5 34t34.5 23t43 8.5q22 0 41.5 -8t34 -22.5t23 -34t8.5 -42.5z" />
    <glyph glyph-name="cedilla" unicode="&#xb8;" horiz-adv-x="445" 
d="M166 23h76l-38 -125q46 0 89 -7t76 -24t52.5 -46.5t19.5 -74.5q0 -82 -68 -127.5t-214 -45.5h-144l19 70h86q84 0 119.5 29.5t35.5 73.5q0 24 -6.5 42.5t-24.5 31t-49.5 19t-80.5 7.5z" />
    <glyph glyph-name="onesuperior" unicode="&#xb9;" horiz-adv-x="338" 
d="M196 1371q1 2 1 7q0 8 -5 13t-14 5h-93l19 70q24 0 52.5 0.5t58 2.5t59.5 6.5t57 12.5h28l-183 -680q-2 -7 -3 -12t-1 -10q0 -13 10 -13h16l-10 -41h-194l11 41h15q8 0 14 9t10 24z" />
    <glyph glyph-name="ordmasculine" unicode="&#xba;" horiz-adv-x="767" 
d="M59 1137q18 67 51.5 130.5t83.5 112.5t117.5 78.5t152.5 29.5q69 0 118.5 -18t81.5 -51t47.5 -79.5t15.5 -103.5q0 -55 -11 -114.5t-33.5 -117t-57.5 -108.5t-83 -90t-110 -61.5t-139 -22.5q-68 0 -117 17.5t-80.5 49.5t-46.5 78t-15 103q0 38 6.5 79.5t18.5 87.5z
M195 1105q-14 -49 -21.5 -92.5t-7.5 -80.5q0 -65 29 -103.5t100 -38.5q56 0 99.5 24.5t77.5 67t58.5 100t42.5 123.5q12 45 18.5 86t6.5 76q0 70 -30.5 112.5t-103.5 42.5q-55 0 -97.5 -24.5t-74.5 -67.5t-55.5 -101t-41.5 -124z" />
    <glyph glyph-name="guillemotright" unicode="&#xbb;" horiz-adv-x="1098" 
d="M549 996h65l413 -503l-413 -502h-65l261 502zM68 996h67l421 -503l-421 -502h-67l261 502z" />
    <glyph glyph-name="onequarter" unicode="&#xbc;" horiz-adv-x="1710" 
d="M41 -22l1478 1510h125l-1478 -1510h-125zM307 1371q1 2 1 7q0 8 -5 13t-14 5h-93l19 70q24 0 52.5 0.5t58 2.5t59.5 6.5t57 12.5h28l-183 -680q-2 -7 -3 -12t-1 -10q0 -13 10 -13h16l-10 -41h-194l11 41h15q8 0 14 9t10 24zM1293 289l89 331q-62 -47 -136.5 -109.5
t-148.5 -141.5q-27 -29 -27 -54q0 -11 7 -18.5t24 -7.5h192zM1368 76q-2 -7 -3 -12t-1 -10q0 -13 10 -13h16l-10 -41h-194l11 41h15q8 0 14 9t10 24l39 146h-366l14 51q51 64 111.5 126.5t125.5 121t131.5 113t130.5 102.5h123l-120 -445h76l-18 -69h-76z" />
    <glyph glyph-name="onehalf" unicode="&#xbd;" horiz-adv-x="1710" 
d="M41 -22l1478 1510h125l-1478 -1510h-125zM307 1371q1 2 1 7q0 8 -5 13t-14 5h-93l19 70q24 0 52.5 0.5t58 2.5t59.5 6.5t57 12.5h28l-183 -680q-2 -7 -3 -12t-1 -10q0 -13 10 -13h16l-10 -41h-194l11 41h15q8 0 14 9t10 24zM1310 680q-33 0 -71.5 -14.5t-70.5 -49.5h-31
l40 110q26 5 59 13t79 8q118 0 174 -46.5t56 -133.5q0 -67 -31.5 -129t-88 -119t-134.5 -107.5t-171 -93.5h181q21 0 36.5 1t28.5 7t24.5 18.5t24.5 36.5h33l-66 -181h-432l26 97q45 28 94.5 59.5t97.5 67t92 75.5t77.5 84.5t53 93.5t19.5 104q0 48 -24.5 73.5t-75.5 25.5z
" />
    <glyph glyph-name="threequarters" unicode="&#xbe;" horiz-adv-x="1710" 
d="M41 -22l1478 1510h125l-1478 -1510h-125zM454 1423q-35 0 -72 -14t-73 -52h-30l41 108q31 10 72 16.5t76 6.5q37 0 75 -8t69 -26.5t50 -48.5t19 -74q0 -75 -44.5 -126.5t-129.5 -70.5q22 -4 42 -15t35.5 -29t24.5 -43.5t9 -57.5q0 -60 -23 -109t-66.5 -84.5t-105 -55
t-137.5 -19.5q-21 0 -47 1t-51.5 2.5t-47.5 4.5t-35 6l21 117h30q12 -39 49.5 -53t82.5 -14q26 0 54 8t53.5 26.5t46.5 48t33 72.5q9 33 9 59q0 31 -11 50t-27.5 29.5t-36 14.5t-35.5 4t-28 -2t-20 -2q-27 0 -27 25q0 32 12.5 44t23.5 12q13 0 23 -1.5t18 -1.5q25 0 50.5 5
t48 18.5t40.5 38t29 62.5q6 22 6 43q0 42 -25.5 63.5t-70.5 21.5zM1293 289l89 331q-62 -47 -136.5 -109.5t-148.5 -141.5q-27 -29 -27 -54q0 -11 7 -18.5t24 -7.5h192zM1368 76q-2 -7 -3 -12t-1 -10q0 -13 10 -13h16l-10 -41h-194l11 41h15q8 0 14 9t10 24l39 146h-366
l14 51q51 64 111.5 126.5t125.5 121t131.5 113t130.5 102.5h123l-120 -445h76l-18 -69h-76z" />
    <glyph glyph-name="questiondown" unicode="&#xbf;" horiz-adv-x="1079" 
d="M362 -332q109 0 200 31t162 75l-45 -170q-60 -11 -143.5 -20.5t-195.5 -9.5q-104 0 -178.5 17.5t-123.5 50.5t-72 80.5t-23 106.5q0 48 15 104q19 70 53 124t77.5 97.5t94 80t103 72t103.5 73.5t95.5 84t79.5 103.5t55 133.5h89q-30 -112 -78.5 -193t-105.5 -143.5
t-117 -112t-113 -97.5t-94.5 -100.5t-59.5 -121.5q-11 -44 -11 -77q0 -48 18 -83t49.5 -58.5t74 -35t91.5 -11.5zM727 845q-24 0 -45 8.5t-37 24t-25.5 37.5t-9.5 48q0 19 8 42t25.5 42t44 32t62.5 13q24 0 45.5 -9t37 -24.5t25 -37.5t9.5 -48q0 -20 -8 -42t-25.5 -41.5
t-44 -32t-62.5 -12.5z" />
    <glyph glyph-name="Agrave" unicode="&#xc0;" horiz-adv-x="1524" 
d="M759 1466h239q36 -165 65 -332t49.5 -324t31.5 -297.5t11 -252.5q0 -26 -1 -50t-1 -46q0 -29 4.5 -45.5t11 -25t15 -11t16.5 -2.5h24l-22 -80h-339l22 80h26q10 0 19 7.5t16 26.5t10.5 52t3.5 85q0 47 -3 103.5t-8 120t-12 132t-15 138.5h-459q15 26 30.5 50.5t32.5 49.5
h384q-11 73 -21.5 145t-21 138t-21 123.5t-20.5 102.5h-35q-50 -67 -108 -150t-119 -173.5t-122 -185.5t-117.5 -187t-105.5 -177t-85 -156t-56.5 -124t-20.5 -81q0 -24 12.5 -32t33.5 -8h12l-22 -80h-349l22 80h5q19 0 37 4.5t40 23t50.5 56.5t67.5 104q174 296 370.5 598
t422.5 600zM1075 1581h-104l-277 289h223z" />
    <glyph glyph-name="Aacute" unicode="&#xc1;" horiz-adv-x="1524" 
d="M759 1466h239q36 -165 65 -332t49.5 -324t31.5 -297.5t11 -252.5q0 -26 -1 -50t-1 -46q0 -29 4.5 -45.5t11 -25t15 -11t16.5 -2.5h24l-22 -80h-339l22 80h26q10 0 19 7.5t16 26.5t10.5 52t3.5 85q0 47 -3 103.5t-8 120t-12 132t-15 138.5h-459q15 26 30.5 50.5t32.5 49.5
h384q-11 73 -21.5 145t-21 138t-21 123.5t-20.5 102.5h-35q-50 -67 -108 -150t-119 -173.5t-122 -185.5t-117.5 -187t-105.5 -177t-85 -156t-56.5 -124t-20.5 -81q0 -24 12.5 -32t33.5 -8h12l-22 -80h-349l22 80h5q19 0 37 4.5t40 23t50.5 56.5t67.5 104q174 296 370.5 598
t422.5 600zM886 1870h223l-276 -289h-105z" />
    <glyph glyph-name="Acircumflex" unicode="&#xc2;" horiz-adv-x="1524" 
d="M759 1466h239q36 -165 65 -332t49.5 -324t31.5 -297.5t11 -252.5q0 -26 -1 -50t-1 -46q0 -29 4.5 -45.5t11 -25t15 -11t16.5 -2.5h24l-22 -80h-339l22 80h26q10 0 19 7.5t16 26.5t10.5 52t3.5 85q0 47 -3 103.5t-8 120t-12 132t-15 138.5h-459q15 26 30.5 50.5t32.5 49.5
h384q-11 73 -21.5 145t-21 138t-21 123.5t-20.5 102.5h-35q-50 -67 -108 -150t-119 -173.5t-122 -185.5t-117.5 -187t-105.5 -177t-85 -156t-56.5 -124t-20.5 -81q0 -24 12.5 -32t33.5 -8h12l-22 -80h-349l22 80h5q19 0 37 4.5t40 23t50.5 56.5t67.5 104q174 296 370.5 598
t422.5 600zM885 1870h187l127 -272h-75l-170 180l-267 -180h-75z" />
    <glyph glyph-name="Atilde" unicode="&#xc3;" horiz-adv-x="1524" 
d="M759 1466h239q36 -165 65 -332t49.5 -324t31.5 -297.5t11 -252.5q0 -26 -1 -50t-1 -46q0 -29 4.5 -45.5t11 -25t15 -11t16.5 -2.5h24l-22 -80h-339l22 80h26q10 0 19 7.5t16 26.5t10.5 52t3.5 85q0 47 -3 103.5t-8 120t-12 132t-15 138.5h-459q15 26 30.5 50.5t32.5 49.5
h384q-11 73 -21.5 145t-21 138t-21 123.5t-20.5 102.5h-35q-50 -67 -108 -150t-119 -173.5t-122 -185.5t-117.5 -187t-105.5 -177t-85 -156t-56.5 -124t-20.5 -81q0 -24 12.5 -32t33.5 -8h12l-22 -80h-349l22 80h5q19 0 37 4.5t40 23t50.5 56.5t67.5 104q174 296 370.5 598
t422.5 600zM588 1716q46 44 93.5 61.5t105.5 17.5q46 0 86.5 -17.5t80.5 -38t81.5 -38t88.5 -17.5q36 0 70.5 16.5t66.5 55.5l-26 -98q-40 -44 -86.5 -61.5t-90.5 -17.5q-56 0 -100 17.5t-84.5 38.5t-81.5 38.5t-90 17.5q-35 0 -72 -18.5t-67 -55.5z" />
    <glyph glyph-name="Adieresis" unicode="&#xc4;" horiz-adv-x="1524" 
d="M759 1466h239q36 -165 65 -332t49.5 -324t31.5 -297.5t11 -252.5q0 -26 -1 -50t-1 -46q0 -29 4.5 -45.5t11 -25t15 -11t16.5 -2.5h24l-22 -80h-339l22 80h26q10 0 19 7.5t16 26.5t10.5 52t3.5 85q0 47 -3 103.5t-8 120t-12 132t-15 138.5h-459q15 26 30.5 50.5t32.5 49.5
h384q-11 73 -21.5 145t-21 138t-21 123.5t-20.5 102.5h-35q-50 -67 -108 -150t-119 -173.5t-122 -185.5t-117.5 -187t-105.5 -177t-85 -156t-56.5 -124t-20.5 -81q0 -24 12.5 -32t33.5 -8h12l-22 -80h-349l22 80h5q19 0 37 4.5t40 23t50.5 56.5t67.5 104q174 296 370.5 598
t422.5 600zM707 1645q-24 0 -45 8.5t-37 24t-25.5 37.5t-9.5 48q0 19 8 42t25.5 42t44 32t62.5 13q24 0 45.5 -9t37 -24.5t25 -37.5t9.5 -48q0 -20 -8 -42t-25.5 -41.5t-44 -32t-62.5 -12.5zM1059 1645q-24 0 -45 8.5t-37 24t-25.5 37.5t-9.5 48q0 19 8 42t25.5 42t44 32
t62.5 13q24 0 45.5 -9t37 -24.5t25 -37.5t9.5 -48q0 -20 -8 -42t-25.5 -41.5t-44 -32t-62.5 -12.5z" />
    <glyph glyph-name="Aring" unicode="&#xc5;" horiz-adv-x="1524" 
d="M759 1466h239q36 -165 65 -332t49.5 -324t31.5 -297.5t11 -252.5q0 -26 -1 -50t-1 -46q0 -29 4.5 -45.5t11 -25t15 -11t16.5 -2.5h24l-22 -80h-339l22 80h26q10 0 19 7.5t16 26.5t10.5 52t3.5 85q0 47 -3 103.5t-8 120t-12 132t-15 138.5h-459q15 26 30.5 50.5t32.5 49.5
h384q-11 73 -21.5 145t-21 138t-21 123.5t-20.5 102.5h-35q-50 -67 -108 -150t-119 -173.5t-122 -185.5t-117.5 -187t-105.5 -177t-85 -156t-56.5 -124t-20.5 -81q0 -24 12.5 -32t33.5 -8h12l-22 -80h-349l22 80h5q19 0 37 4.5t40 23t50.5 56.5t67.5 104q174 296 370.5 598
t422.5 600zM726 1738q0 41 13.5 73t39.5 56.5t58.5 36.5t68.5 12q39 0 70 -10.5t58 -33.5t42.5 -57t15.5 -77q0 -40 -14 -74t-41.5 -58t-59.5 -35t-71 -11q-35 0 -69 12.5t-59.5 37t-38.5 57t-13 71.5zM799 1738q0 -24 7.5 -43t22 -34.5t35 -24t42.5 -8.5q24 0 43.5 6.5
t36.5 22.5t25 36.5t8 44.5q0 23 -7.5 43t-23.5 36t-37 23.5t-45 7.5q-20 0 -41.5 -8.5t-36 -23.5t-22 -34.5t-7.5 -43.5z" />
    <glyph glyph-name="AE" unicode="&#xc6;" horiz-adv-x="2274" 
d="M936 1298q15 14 26.5 32t11.5 32q0 11 -9 17.5t-30 6.5h-30l22 80h767q42 0 99 0.5t119.5 3t123.5 7.5t110 13l-44 -324h-74q-3 51 -19.5 88.5t-44 62t-65 37t-80.5 12.5h-402q-37 0 -53 -25.5t-26 -61.5l-117 -434h426q30 0 58 9t54 29.5t49 53.5t42 82h74l-122 -456
h-74q4 23 4 48q0 63 -30 98.5t-81 35.5h-426l-150 -558q-8 -27 -8 -47q0 -17 9 -27.5t32 -10.5h395q64 0 113.5 14t89.5 41t72.5 65.5t61.5 87.5h74l-113 -310h-1049l21 80h30q18 0 32 10t24.5 25.5t17.5 34.5t12 37l149 558h-382q22 26 42.5 50.5t43.5 49.5h323l145 539
h-28q-267 -257 -489 -497.5t-386 -449.5q-59 -75 -98.5 -130t-64.5 -94t-35.5 -64.5t-10.5 -40.5q0 -17 10.5 -22.5t27.5 -5.5h12l-21 -80h-361l21 80h5q18 0 35 2t41.5 19t62.5 55.5t98 111.5q209 254 440 513t497 517z" />
    <glyph glyph-name="Ccedilla" unicode="&#xc7;" horiz-adv-x="1372" 
d="M590 92q126 0 237.5 34.5t208.5 97.5l-34 -121q-32 -20 -74 -42t-97.5 -40.5t-126.5 -30.5t-162 -12q-138 0 -242 39t-173.5 109t-104 167t-34.5 213q0 129 27 252.5t79 232.5t128 200.5t175 157t219 102.5t260 37q71 0 125 -3.5t105 -7.5t106.5 -7.5t129.5 -3.5
l-47 -298h-74q-15 45 -41 86t-69.5 71.5t-107 49t-152.5 18.5q-105 0 -195 -39t-163 -104.5t-130 -153t-95 -184t-58 -197t-20 -192.5q0 -213 102.5 -322t297.5 -109zM447 23h76l-38 -125q46 0 89 -7t76 -24t52.5 -46.5t19.5 -74.5q0 -82 -68 -127.5t-214 -45.5h-144l19 70
h86q84 0 119.5 29.5t35.5 73.5q0 24 -6.5 42.5t-24.5 31t-49.5 19t-80.5 7.5z" />
    <glyph glyph-name="Egrave" unicode="&#xc8;" horiz-adv-x="1415" 
d="M788 845q30 0 58.5 9.5t54.5 30.5t49 55t42 83h74l-123 -456h-74q5 28 5 48q0 62 -31 96t-82 34h-426l-149 -558q-8 -27 -8 -47q0 -17 9 -27.5t32 -10.5h395q64 0 114.5 17t91.5 47.5t74 72.5t62 91h74l-118 -330h-1049l21 80h30q18 0 32 10t24.5 25.5t17.5 34.5t12 37
l292 1092q4 14 6.5 29.5t2.5 29.5q0 20 -8 34t-29 14h-30l21 80h579q42 0 99.5 0.5t119.5 3t123.5 7.5t110.5 13l-44 -324h-74q-3 51 -19.5 88.5t-44 62t-65 37t-80.5 12.5h-402q-36 0 -53 -25.5t-27 -61.5l-116 -434h426zM972 1581h-104l-277 289h223z" />
    <glyph glyph-name="Eacute" unicode="&#xc9;" horiz-adv-x="1415" 
d="M788 845q30 0 58.5 9.5t54.5 30.5t49 55t42 83h74l-123 -456h-74q5 28 5 48q0 62 -31 96t-82 34h-426l-149 -558q-8 -27 -8 -47q0 -17 9 -27.5t32 -10.5h395q64 0 114.5 17t91.5 47.5t74 72.5t62 91h74l-118 -330h-1049l21 80h30q18 0 32 10t24.5 25.5t17.5 34.5t12 37
l292 1092q4 14 6.5 29.5t2.5 29.5q0 20 -8 34t-29 14h-30l21 80h579q42 0 99.5 0.5t119.5 3t123.5 7.5t110.5 13l-44 -324h-74q-3 51 -19.5 88.5t-44 62t-65 37t-80.5 12.5h-402q-36 0 -53 -25.5t-27 -61.5l-116 -434h426zM795 1870h223l-276 -289h-105z" />
    <glyph glyph-name="Ecircumflex" unicode="&#xca;" horiz-adv-x="1415" 
d="M788 845q30 0 58.5 9.5t54.5 30.5t49 55t42 83h74l-123 -456h-74q5 28 5 48q0 62 -31 96t-82 34h-426l-149 -558q-8 -27 -8 -47q0 -17 9 -27.5t32 -10.5h395q64 0 114.5 17t91.5 47.5t74 72.5t62 91h74l-118 -330h-1049l21 80h30q18 0 32 10t24.5 25.5t17.5 34.5t12 37
l292 1092q4 14 6.5 29.5t2.5 29.5q0 20 -8 34t-29 14h-30l21 80h579q42 0 99.5 0.5t119.5 3t123.5 7.5t110.5 13l-44 -324h-74q-3 51 -19.5 88.5t-44 62t-65 37t-80.5 12.5h-402q-36 0 -53 -25.5t-27 -61.5l-116 -434h426zM769 1937h187l127 -272h-75l-170 180l-267 -180
h-75z" />
    <glyph glyph-name="Edieresis" unicode="&#xcb;" horiz-adv-x="1415" 
d="M788 845q30 0 58.5 9.5t54.5 30.5t49 55t42 83h74l-123 -456h-74q5 28 5 48q0 62 -31 96t-82 34h-426l-149 -558q-8 -27 -8 -47q0 -17 9 -27.5t32 -10.5h395q64 0 114.5 17t91.5 47.5t74 72.5t62 91h74l-118 -330h-1049l21 80h30q18 0 32 10t24.5 25.5t17.5 34.5t12 37
l292 1092q4 14 6.5 29.5t2.5 29.5q0 20 -8 34t-29 14h-30l21 80h579q42 0 99.5 0.5t119.5 3t123.5 7.5t110.5 13l-44 -324h-74q-3 51 -19.5 88.5t-44 62t-65 37t-80.5 12.5h-402q-36 0 -53 -25.5t-27 -61.5l-116 -434h426zM632 1645q-24 0 -45 8.5t-37 24t-25.5 37.5
t-9.5 48q0 19 8 42t25.5 42t44 32t62.5 13q24 0 45.5 -9t37 -24.5t25 -37.5t9.5 -48q0 -20 -8 -42t-25.5 -41.5t-44 -32t-62.5 -12.5zM984 1645q-24 0 -45 8.5t-37 24t-25.5 37.5t-9.5 48q0 19 8 42t25.5 42t44 32t62.5 13q24 0 45.5 -9t37 -24.5t25 -37.5t9.5 -48
q0 -20 -8 -42t-25.5 -41.5t-44 -32t-62.5 -12.5z" />
    <glyph glyph-name="Igrave" unicode="&#xcc;" horiz-adv-x="686" 
d="M292 1279q12 45 12 68t-10 31t-30 8h-30l21 80h359l-21 -80h-29q-15 0 -27 -4.5t-22 -16t-19 -32.5t-18 -54l-292 -1092q-12 -45 -12 -68t10 -31t30 -8h29l-21 -80h-359l21 80h30q15 0 26.5 4.5t22 16t19.5 32.5t18 54zM683 1581h-104l-277 289h223z" />
    <glyph glyph-name="Iacute" unicode="&#xcd;" horiz-adv-x="686" 
d="M292 1279q12 45 12 68t-10 31t-30 8h-30l21 80h359l-21 -80h-29q-15 0 -27 -4.5t-22 -16t-19 -32.5t-18 -54l-292 -1092q-12 -45 -12 -68t10 -31t30 -8h29l-21 -80h-359l21 80h30q15 0 26.5 4.5t22 16t19.5 32.5t18 54zM473 1956h223l-276 -289h-105z" />
    <glyph glyph-name="Icircumflex" unicode="&#xce;" horiz-adv-x="686" 
d="M292 1279q12 45 12 68t-10 31t-30 8h-30l21 80h359l-21 -80h-29q-15 0 -27 -4.5t-22 -16t-19 -32.5t-18 -54l-292 -1092q-12 -45 -12 -68t10 -31t30 -8h29l-21 -80h-359l21 80h30q15 0 26.5 4.5t22 16t19.5 32.5t18 54zM495 1990h187l127 -272h-75l-170 180l-267 -180
h-75z" />
    <glyph glyph-name="Idieresis" unicode="&#xcf;" horiz-adv-x="686" 
d="M292 1279q12 45 12 68t-10 31t-30 8h-30l21 80h359l-21 -80h-29q-15 0 -27 -4.5t-22 -16t-19 -32.5t-18 -54l-292 -1092q-12 -45 -12 -68t10 -31t30 -8h29l-21 -80h-359l21 80h30q15 0 26.5 4.5t22 16t19.5 32.5t18 54zM324 1645q-24 0 -45 8.5t-37 24t-25.5 37.5
t-9.5 48q0 19 8 42t25.5 42t44 32t62.5 13q24 0 45.5 -9t37 -24.5t25 -37.5t9.5 -48q0 -20 -8 -42t-25.5 -41.5t-44 -32t-62.5 -12.5zM676 1645q-24 0 -45 8.5t-37 24t-25.5 37.5t-9.5 48q0 19 8 42t25.5 42t44 32t62.5 13q24 0 45.5 -9t37 -24.5t25 -37.5t9.5 -48
q0 -20 -8 -42t-25.5 -41.5t-44 -32t-62.5 -12.5z" />
    <glyph glyph-name="Eth" unicode="&#xd0;" horiz-adv-x="1529" 
d="M10 845h166l116 434q14 50 14 72q0 20 -10 27.5t-32 7.5h-30l21 80h107q51 0 108.5 3.5t115.5 7.5t115.5 7.5t108.5 3.5q153 0 262 -40.5t179.5 -111t103.5 -166t33 -204.5q0 -112 -32 -232q-54 -200 -136 -339.5t-193.5 -227t-253 -127.5t-313.5 -40h-597l21 80h30
q18 0 30.5 4.5t22 16.5t17 33t16.5 53l149 558h-165zM362 845h407l-27 -100h-407l-149 -558q-11 -39 -11 -56q0 -22 16 -26.5t53 -4.5h202q127 0 235 28t196.5 100t158 194.5t120.5 311.5q39 148 39 262q0 199 -114 296.5t-329 97.5q-120 0 -186.5 -15t-79.5 -66z" />
    <glyph glyph-name="Ntilde" unicode="&#xd1;" horiz-adv-x="1580" 
d="M906 0q-19 131 -53 263t-77 258.5t-92 244t-98 219t-95 183t-83 136.5l-248 -926q-25 -92 -37 -149t-12 -90q0 -35 14 -47t42 -12h31l-21 -80h-349l21 80h35q26 0 45.5 11.5t38 43.5t37.5 90.5t45 153.5l242 903q7 25 7 46q0 30 -15 44t-41 14h-30l21 80h263
q29 -33 65.5 -88t75.5 -125.5t79.5 -152t78.5 -168t72 -174t60.5 -169t43 -154t20.5 -128.5q3 14 6 31t6.5 33t6.5 29.5t5 20.5l179 667q24 91 36.5 148.5t12.5 90.5q0 35 -14 47t-42 12h-31l21 80h349l-21 -80h-35q-27 0 -47 -11.5t-38 -43.5t-36.5 -91t-43.5 -153
l-291 -1087h-109zM588 1704q46 44 93.5 61.5t105.5 17.5q46 0 86.5 -17.5t80.5 -38t81.5 -38t88.5 -17.5q36 0 70.5 16.5t66.5 55.5l-26 -98q-40 -44 -86.5 -61.5t-90.5 -17.5q-56 0 -100 17.5t-84.5 38.5t-81.5 38.5t-90 17.5q-35 0 -72 -18.5t-67 -55.5z" />
    <glyph glyph-name="Ograve" unicode="&#xd2;" horiz-adv-x="1595" 
d="M-20 494v27q0 130 28 252t80.5 229.5t128 196.5t171 153.5t209.5 100t243 35.5q141 0 249 -36.5t181 -104.5t110 -166.5t37 -222.5q0 -130 -28 -253.5t-80.5 -232.5t-128 -199.5t-171.5 -156t-211 -102t-246 -36.5q-135 0 -240 35.5t-177.5 102.5t-112 162.5t-42.5 215.5
zM847 1392q-107 0 -199 -38.5t-167.5 -105.5t-134.5 -156t-99 -189.5t-60.5 -208t-20.5 -209.5q0 -87 21.5 -162t68 -130.5t120 -87t177.5 -31.5q102 0 191.5 37t164.5 101.5t134.5 152t100.5 188t63 210t22 217.5q0 86 -21.5 161t-67.5 131t-118.5 88t-174.5 32zM1141 1581
h-104l-277 289h223z" />
    <glyph glyph-name="Oacute" unicode="&#xd3;" horiz-adv-x="1595" 
d="M-20 494v27q0 130 28 252t80.5 229.5t128 196.5t171 153.5t209.5 100t243 35.5q141 0 249 -36.5t181 -104.5t110 -166.5t37 -222.5q0 -130 -28 -253.5t-80.5 -232.5t-128 -199.5t-171.5 -156t-211 -102t-246 -36.5q-135 0 -240 35.5t-177.5 102.5t-112 162.5t-42.5 215.5
zM847 1392q-107 0 -199 -38.5t-167.5 -105.5t-134.5 -156t-99 -189.5t-60.5 -208t-20.5 -209.5q0 -87 21.5 -162t68 -130.5t120 -87t177.5 -31.5q102 0 191.5 37t164.5 101.5t134.5 152t100.5 188t63 210t22 217.5q0 86 -21.5 161t-67.5 131t-118.5 88t-174.5 32zM935 1870
h223l-276 -289h-105z" />
    <glyph glyph-name="Ocircumflex" unicode="&#xd4;" horiz-adv-x="1595" 
d="M-20 494v27q0 130 28 252t80.5 229.5t128 196.5t171 153.5t209.5 100t243 35.5q141 0 249 -36.5t181 -104.5t110 -166.5t37 -222.5q0 -130 -28 -253.5t-80.5 -232.5t-128 -199.5t-171.5 -156t-211 -102t-246 -36.5q-135 0 -240 35.5t-177.5 102.5t-112 162.5t-42.5 215.5
zM847 1392q-107 0 -199 -38.5t-167.5 -105.5t-134.5 -156t-99 -189.5t-60.5 -208t-20.5 -209.5q0 -87 21.5 -162t68 -130.5t120 -87t177.5 -31.5q102 0 191.5 37t164.5 101.5t134.5 152t100.5 188t63 210t22 217.5q0 86 -21.5 161t-67.5 131t-118.5 88t-174.5 32zM824 1941
h187l127 -272h-75l-170 180l-267 -180h-75z" />
    <glyph glyph-name="Otilde" unicode="&#xd5;" horiz-adv-x="1595" 
d="M-20 494v27q0 130 28 252t80.5 229.5t128 196.5t171 153.5t209.5 100t243 35.5q141 0 249 -36.5t181 -104.5t110 -166.5t37 -222.5q0 -130 -28 -253.5t-80.5 -232.5t-128 -199.5t-171.5 -156t-211 -102t-246 -36.5q-135 0 -240 35.5t-177.5 102.5t-112 162.5t-42.5 215.5
zM847 1392q-107 0 -199 -38.5t-167.5 -105.5t-134.5 -156t-99 -189.5t-60.5 -208t-20.5 -209.5q0 -87 21.5 -162t68 -130.5t120 -87t177.5 -31.5q102 0 191.5 37t164.5 101.5t134.5 152t100.5 188t63 210t22 217.5q0 86 -21.5 161t-67.5 131t-118.5 88t-174.5 32zM647 1719
q46 44 93.5 61.5t105.5 17.5q46 0 86.5 -17.5t80.5 -38t81.5 -38t88.5 -17.5q36 0 70.5 16.5t66.5 55.5l-26 -98q-40 -44 -86.5 -61.5t-90.5 -17.5q-56 0 -100 17.5t-84.5 38.5t-81.5 38.5t-90 17.5q-35 0 -72 -18.5t-67 -55.5z" />
    <glyph glyph-name="Odieresis" unicode="&#xd6;" horiz-adv-x="1595" 
d="M-20 494v27q0 130 28 252t80.5 229.5t128 196.5t171 153.5t209.5 100t243 35.5q141 0 249 -36.5t181 -104.5t110 -166.5t37 -222.5q0 -130 -28 -253.5t-80.5 -232.5t-128 -199.5t-171.5 -156t-211 -102t-246 -36.5q-135 0 -240 35.5t-177.5 102.5t-112 162.5t-42.5 215.5
zM847 1392q-107 0 -199 -38.5t-167.5 -105.5t-134.5 -156t-99 -189.5t-60.5 -208t-20.5 -209.5q0 -87 21.5 -162t68 -130.5t120 -87t177.5 -31.5q102 0 191.5 37t164.5 101.5t134.5 152t100.5 188t63 210t22 217.5q0 86 -21.5 161t-67.5 131t-118.5 88t-174.5 32zM787 1645
q-24 0 -45 8.5t-37 24t-25.5 37.5t-9.5 48q0 19 8 42t25.5 42t44 32t62.5 13q24 0 45.5 -9t37 -24.5t25 -37.5t9.5 -48q0 -20 -8 -42t-25.5 -41.5t-44 -32t-62.5 -12.5zM1139 1645q-24 0 -45 8.5t-37 24t-25.5 37.5t-9.5 48q0 19 8 42t25.5 42t44 32t62.5 13q24 0 45.5 -9
t37 -24.5t25 -37.5t9.5 -48q0 -20 -8 -42t-25.5 -41.5t-44 -32t-62.5 -12.5z" />
    <glyph glyph-name="multiply" unicode="&#xd7;" horiz-adv-x="1045" 
d="M637 323l-209 284l-354 -277l-91 123l354 277l-210 286l125 97l210 -286l355 284l91 -123l-355 -284l209 -284z" />
    <glyph glyph-name="Oslash" unicode="&#xd8;" horiz-adv-x="1595" 
d="M-46 0l141 157q-45 53 -73 121q-39 96 -42 216v27q0 130 28 252t80.5 229.5t128 196.5t171 153.5t209.5 100t243 35.5q141 0 249 -37q64 -21 116 -54l62 69h135l-119 -133q63 -64 97 -153q37 -98 37 -222q0 -130 -28 -253.5t-80.5 -232.5t-128 -199.5t-171.5 -156
t-211 -102t-246 -36.5q-135 0 -240 35q-81 28 -143 73l-77 -86h-138zM375 105q74 -31 178 -31q102 0 191.5 37t164.5 101.5t134.5 152t100.5 188t63 210t22 217.5q0 86 -22 161q-11 40 -29 74l-919 -1028q46 -52 116 -82zM847 1392q-107 0 -199 -38.5t-167.5 -105.5
t-134.5 -156t-99 -189.5t-60.5 -208t-20.5 -209.5q0 -87 21 -162q7 -24 16 -45l913 1019q-40 38 -95 63q-72 32 -174 32z" />
    <glyph glyph-name="Ugrave" unicode="&#xd9;" horiz-adv-x="1608" 
d="M1211 470q-30 -110 -88 -200.5t-142 -155.5t-193.5 -100.5t-242.5 -35.5q-223 0 -342 91t-119 267q0 65 19 134l218 809q6 23 9.5 40.5t3.5 30.5q0 20 -9.5 28t-31.5 8h-30l21 80h358l-21 -80h-30q-18 0 -30.5 -6t-22 -18.5t-17 -33t-15.5 -50.5l-219 -811
q-18 -66 -18 -120q0 -67 24.5 -114.5t68 -78t103.5 -45t130 -14.5q84 0 164 23.5t147.5 69.5t117.5 115t75 160l169 625q23 87 34.5 143t11.5 89q0 39 -15.5 52.5t-47.5 13.5h-31l21 80h369l-21 -80h-35q-30 0 -51.5 -12t-41 -45t-39 -91.5t-44.5 -150.5zM1192 1581h-104
l-277 289h223z" />
    <glyph glyph-name="Uacute" unicode="&#xda;" horiz-adv-x="1608" 
d="M1211 470q-30 -110 -88 -200.5t-142 -155.5t-193.5 -100.5t-242.5 -35.5q-223 0 -342 91t-119 267q0 65 19 134l218 809q6 23 9.5 40.5t3.5 30.5q0 20 -9.5 28t-31.5 8h-30l21 80h358l-21 -80h-30q-18 0 -30.5 -6t-22 -18.5t-17 -33t-15.5 -50.5l-219 -811
q-18 -66 -18 -120q0 -67 24.5 -114.5t68 -78t103.5 -45t130 -14.5q84 0 164 23.5t147.5 69.5t117.5 115t75 160l169 625q23 87 34.5 143t11.5 89q0 39 -15.5 52.5t-47.5 13.5h-31l21 80h369l-21 -80h-35q-30 0 -51.5 -12t-41 -45t-39 -91.5t-44.5 -150.5zM976 1870h223
l-276 -289h-105z" />
    <glyph glyph-name="Ucircumflex" unicode="&#xdb;" horiz-adv-x="1608" 
d="M1211 470q-30 -110 -88 -200.5t-142 -155.5t-193.5 -100.5t-242.5 -35.5q-223 0 -342 91t-119 267q0 65 19 134l218 809q6 23 9.5 40.5t3.5 30.5q0 20 -9.5 28t-31.5 8h-30l21 80h358l-21 -80h-30q-18 0 -30.5 -6t-22 -18.5t-17 -33t-15.5 -50.5l-219 -811
q-18 -66 -18 -120q0 -67 24.5 -114.5t68 -78t103.5 -45t130 -14.5q84 0 164 23.5t147.5 69.5t117.5 115t75 160l169 625q23 87 34.5 143t11.5 89q0 39 -15.5 52.5t-47.5 13.5h-31l21 80h369l-21 -80h-35q-30 0 -51.5 -12t-41 -45t-39 -91.5t-44.5 -150.5zM938 1956h187
l127 -272h-75l-170 180l-267 -180h-75z" />
    <glyph glyph-name="Udieresis" unicode="&#xdc;" horiz-adv-x="1608" 
d="M1211 470q-30 -110 -88 -200.5t-142 -155.5t-193.5 -100.5t-242.5 -35.5q-223 0 -342 91t-119 267q0 65 19 134l218 809q6 23 9.5 40.5t3.5 30.5q0 20 -9.5 28t-31.5 8h-30l21 80h358l-21 -80h-30q-18 0 -30.5 -6t-22 -18.5t-17 -33t-15.5 -50.5l-219 -811
q-18 -66 -18 -120q0 -67 24.5 -114.5t68 -78t103.5 -45t130 -14.5q84 0 164 23.5t147.5 69.5t117.5 115t75 160l169 625q23 87 34.5 143t11.5 89q0 39 -15.5 52.5t-47.5 13.5h-31l21 80h369l-21 -80h-35q-30 0 -51.5 -12t-41 -45t-39 -91.5t-44.5 -150.5zM806 1645
q-24 0 -45 8.5t-37 24t-25.5 37.5t-9.5 48q0 19 8 42t25.5 42t44 32t62.5 13q24 0 45.5 -9t37 -24.5t25 -37.5t9.5 -48q0 -20 -8 -42t-25.5 -41.5t-44 -32t-62.5 -12.5zM1158 1645q-24 0 -45 8.5t-37 24t-25.5 37.5t-9.5 48q0 19 8 42t25.5 42t44 32t62.5 13q24 0 45.5 -9
t37 -24.5t25 -37.5t9.5 -48q0 -20 -8 -42t-25.5 -41.5t-44 -32t-62.5 -12.5z" />
    <glyph glyph-name="Yacute" unicode="&#xdd;" horiz-adv-x="1421" 
d="M1130 1250q32 42 46 68.5t14 43.5q0 24 -31 24h-12l21 80h337l-21 -80h-5q-18 0 -36.5 -5.5t-44 -23.5t-62 -52t-90.5 -91q-56 -59 -118 -118.5t-132.5 -123t-151.5 -133t-175 -148.5l-134 -504q-4 -15 -7 -31t-3 -30q0 -20 8 -33t29 -13h30l-21 -80h-359l21 80h30
q18 0 32 10t24.5 25.5t17.5 34.5t12 37l134 505q-100 152 -185 308t-140 318q-8 21 -13 34.5t-10 21t-10.5 10t-12.5 2.5h-31l21 80h320l-21 -80h-26q-14 0 -24 -8.5t-10 -25.5q0 -13 8 -34q23 -63 55.5 -133t70 -140t78.5 -135t82 -117q70 55 138.5 110t132 111.5
t120.5 115t104 120.5zM845 1870h223l-276 -289h-105z" />
    <glyph glyph-name="Thorn" unicode="&#xde;" horiz-adv-x="1376" 
d="M292 1279q6 22 8.5 38.5t2.5 28.5q0 23 -10 31.5t-30 8.5h-30l22 80h359l-22 -80h-29q-15 0 -27 -4.5t-21.5 -16t-18.5 -32.5t-18 -54l-6 -22h172q134 0 236 -20t170.5 -63t103.5 -109t35 -159q0 -80 -27 -182q-38 -142 -106 -240t-167.5 -158.5t-230.5 -87.5t-294 -27
h-173l-6 -24q-6 -23 -8.5 -39t-2.5 -28q0 -24 10 -32t30 -8h29l-22 -80h-358l22 80h30q15 0 26.5 4.5t21.5 16t19 32.5t17 54zM389 306q140 0 239 29.5t166.5 84t109 131.5t67.5 173q12 47 19 89.5t7 81.5q0 61 -19.5 110t-64 84t-117 54t-178.5 19h-172l-229 -856h172z" />
    <glyph glyph-name="germandbls" unicode="&#xdf;" horiz-adv-x="1253" 
d="M602 67q31 0 66.5 9t69 29.5t60.5 54.5t41 85q8 32 8 58q0 49 -21 89.5t-53 76.5t-68.5 68.5t-68.5 65.5t-53 67.5t-21 74.5q0 44 22.5 78.5t56 65.5t72.5 62.5t72.5 70t56 87.5t22.5 115q0 43 -14 75t-37.5 53.5t-55 32t-66.5 10.5q-106 0 -172.5 -60t-102.5 -194
l-306 -1141h-171l286 1070q26 99 65 177t99 132t144.5 82.5t202.5 28.5q90 0 149.5 -19.5t95 -51.5t50 -72t14.5 -80q0 -37 -9 -70q-15 -56 -44 -98.5t-64 -75.5t-71 -59t-66 -49t-49 -45t-19 -47q0 -26 22.5 -55t56.5 -62t73 -70.5t73 -81.5t56.5 -94t22.5 -107
q0 -34 -9 -71q-20 -73 -61 -129.5t-98.5 -95.5t-128 -59.5t-149.5 -20.5q-52 0 -87 3.5t-66.5 7.5t-67.5 7.5t-90 3.5l41 245h80q11 -33 27 -65t40 -56.5t59 -40t85 -15.5z" />
    <glyph glyph-name="agrave" unicode="&#xe0;" horiz-adv-x="1196" 
d="M176 297q0 -53 7 -90t21.5 -59.5t37 -32.5t54.5 -10q67 0 135 51.5t129.5 139.5t113 204t86.5 245l39 144q7 24 7 44q0 16 -12.5 28t-33.5 20t-48 12t-57 4q-79 0 -145 -32.5t-119.5 -87t-93.5 -126t-67 -149t-40.5 -156.5t-13.5 -149zM0 286q0 89 17.5 183t53.5 182.5
t92 167.5t133 137.5t175.5 93t219.5 34.5q136 0 213 -30.5t77 -95.5q0 -17 -3.5 -36t-8.5 -40l-148 -560q-4 -14 -9 -32.5t-9.5 -38t-7.5 -40t-3 -38.5q0 -32 12.5 -54t46.5 -22q13 0 35.5 10.5t50 31.5t56.5 52t56 72v-105q-30 -39 -60.5 -72t-62 -57t-64 -37.5
t-66.5 -13.5q-45 0 -75.5 13t-48.5 35t-25.5 52t-7.5 63q0 43 7 87.5t19 84.5q-43 -78 -90.5 -140t-99.5 -105.5t-107 -66.5t-112 -23q-50 0 -96.5 12.5t-82 47t-56.5 94t-21 154.5zM893 1177h-104l-277 289h223z" />
    <glyph glyph-name="aacute" unicode="&#xe1;" horiz-adv-x="1196" 
d="M176 297q0 -53 7 -90t21.5 -59.5t37 -32.5t54.5 -10q67 0 135 51.5t129.5 139.5t113 204t86.5 245l39 144q7 24 7 44q0 16 -12.5 28t-33.5 20t-48 12t-57 4q-79 0 -145 -32.5t-119.5 -87t-93.5 -126t-67 -149t-40.5 -156.5t-13.5 -149zM0 286q0 89 17.5 183t53.5 182.5
t92 167.5t133 137.5t175.5 93t219.5 34.5q136 0 213 -30.5t77 -95.5q0 -17 -3.5 -36t-8.5 -40l-148 -560q-4 -14 -9 -32.5t-9.5 -38t-7.5 -40t-3 -38.5q0 -32 12.5 -54t46.5 -22q13 0 35.5 10.5t50 31.5t56.5 52t56 72v-105q-30 -39 -60.5 -72t-62 -57t-64 -37.5
t-66.5 -13.5q-45 0 -75.5 13t-48.5 35t-25.5 52t-7.5 63q0 43 7 87.5t19 84.5q-43 -78 -90.5 -140t-99.5 -105.5t-107 -66.5t-112 -23q-50 0 -96.5 12.5t-82 47t-56.5 94t-21 154.5zM679 1466h223l-276 -289h-105z" />
    <glyph glyph-name="acircumflex" unicode="&#xe2;" horiz-adv-x="1196" 
d="M176 297q0 -53 7 -90t21.5 -59.5t37 -32.5t54.5 -10q67 0 135 51.5t129.5 139.5t113 204t86.5 245l39 144q7 24 7 44q0 16 -12.5 28t-33.5 20t-48 12t-57 4q-79 0 -145 -32.5t-119.5 -87t-93.5 -126t-67 -149t-40.5 -156.5t-13.5 -149zM0 286q0 89 17.5 183t53.5 182.5
t92 167.5t133 137.5t175.5 93t219.5 34.5q136 0 213 -30.5t77 -95.5q0 -17 -3.5 -36t-8.5 -40l-148 -560q-4 -14 -9 -32.5t-9.5 -38t-7.5 -40t-3 -38.5q0 -32 12.5 -54t46.5 -22q13 0 35.5 10.5t50 31.5t56.5 52t56 72v-105q-30 -39 -60.5 -72t-62 -57t-64 -37.5
t-66.5 -13.5q-45 0 -75.5 13t-48.5 35t-25.5 52t-7.5 63q0 43 7 87.5t19 84.5q-43 -78 -90.5 -140t-99.5 -105.5t-107 -66.5t-112 -23q-50 0 -96.5 12.5t-82 47t-56.5 94t-21 154.5zM669 1466h187l127 -272h-75l-170 180l-267 -180h-75z" />
    <glyph glyph-name="atilde" unicode="&#xe3;" horiz-adv-x="1196" 
d="M176 301q0 -53 7 -90t21.5 -59.5t37 -32.5t54.5 -10q67 0 135 51.5t129.5 139.5t113 204t86.5 245l39 144q7 24 7 44q0 16 -12.5 28t-33.5 20t-48 12t-57 4q-79 0 -145 -32.5t-119.5 -87t-93.5 -126t-67 -149t-40.5 -156.5t-13.5 -149zM0 290q0 89 17.5 183t53.5 182.5
t92 167.5t133 137.5t175.5 93t219.5 34.5q136 0 213 -30.5t77 -95.5q0 -17 -3.5 -36t-8.5 -40l-148 -560q-4 -14 -9 -32.5t-9.5 -38t-7.5 -40t-3 -38.5q0 -32 12.5 -54t46.5 -22q13 0 35.5 10.5t50 31.5t56.5 52t56 72v-105q-30 -39 -60.5 -72t-62 -57t-64 -37.5
t-66.5 -13.5q-45 0 -75.5 13t-48.5 35t-25.5 52t-7.5 63q0 43 7 87.5t19 84.5q-43 -78 -90.5 -140t-99.5 -105.5t-107 -66.5t-112 -23q-50 0 -96.5 12.5t-82 47t-56.5 94t-21 154.5zM399 1407q46 44 93.5 61.5t105.5 17.5q46 0 86.5 -17.5t80.5 -38t81.5 -38t88.5 -17.5
q36 0 70.5 16.5t66.5 55.5l-26 -98q-40 -44 -86.5 -61.5t-90.5 -17.5q-56 0 -100 17.5t-84.5 38.5t-81.5 38.5t-90 17.5q-35 0 -72 -18.5t-67 -55.5z" />
    <glyph glyph-name="adieresis" unicode="&#xe4;" horiz-adv-x="1196" 
d="M176 297q0 -53 7 -90t21.5 -59.5t37 -32.5t54.5 -10q67 0 135 51.5t129.5 139.5t113 204t86.5 245l39 144q7 24 7 44q0 16 -12.5 28t-33.5 20t-48 12t-57 4q-79 0 -145 -32.5t-119.5 -87t-93.5 -126t-67 -149t-40.5 -156.5t-13.5 -149zM0 286q0 89 17.5 183t53.5 182.5
t92 167.5t133 137.5t175.5 93t219.5 34.5q136 0 213 -30.5t77 -95.5q0 -17 -3.5 -36t-8.5 -40l-148 -560q-4 -14 -9 -32.5t-9.5 -38t-7.5 -40t-3 -38.5q0 -32 12.5 -54t46.5 -22q13 0 35.5 10.5t50 31.5t56.5 52t56 72v-105q-30 -39 -60.5 -72t-62 -57t-64 -37.5
t-66.5 -13.5q-45 0 -75.5 13t-48.5 35t-25.5 52t-7.5 63q0 43 7 87.5t19 84.5q-43 -78 -90.5 -140t-99.5 -105.5t-107 -66.5t-112 -23q-50 0 -96.5 12.5t-82 47t-56.5 94t-21 154.5zM499 1241q-24 0 -45 8.5t-37 24t-25.5 37.5t-9.5 48q0 19 8 42t25.5 42t44 32t62.5 13
q24 0 45.5 -9t37 -24.5t25 -37.5t9.5 -48q0 -20 -8 -42t-25.5 -41.5t-44 -32t-62.5 -12.5zM851 1241q-24 0 -45 8.5t-37 24t-25.5 37.5t-9.5 48q0 19 8 42t25.5 42t44 32t62.5 13q24 0 45.5 -9t37 -24.5t25 -37.5t9.5 -48q0 -20 -8 -42t-25.5 -41.5t-44 -32t-62.5 -12.5z
" />
    <glyph glyph-name="aring" unicode="&#xe5;" horiz-adv-x="1196" 
d="M176 297q0 -53 7 -90t21.5 -59.5t37 -32.5t54.5 -10q67 0 135 51.5t129.5 139.5t113 204t86.5 245l39 144q7 24 7 44q0 16 -12.5 28t-33.5 20t-48 12t-57 4q-79 0 -145 -32.5t-119.5 -87t-93.5 -126t-67 -149t-40.5 -156.5t-13.5 -149zM0 286q0 89 17.5 183t53.5 182.5
t92 167.5t133 137.5t175.5 93t219.5 34.5q136 0 213 -30.5t77 -95.5q0 -17 -3.5 -36t-8.5 -40l-148 -560q-4 -14 -9 -32.5t-9.5 -38t-7.5 -40t-3 -38.5q0 -32 12.5 -54t46.5 -22q13 0 35.5 10.5t50 31.5t56.5 52t56 72v-105q-30 -39 -60.5 -72t-62 -57t-64 -37.5
t-66.5 -13.5q-45 0 -75.5 13t-48.5 35t-25.5 52t-7.5 63q0 43 7 87.5t19 84.5q-43 -78 -90.5 -140t-99.5 -105.5t-107 -66.5t-112 -23q-50 0 -96.5 12.5t-82 47t-56.5 94t-21 154.5zM520 1334q0 41 13.5 73t39.5 56.5t58.5 36.5t68.5 12q39 0 70 -10.5t58 -33.5t42.5 -57
t15.5 -77q0 -40 -14 -74t-41.5 -58t-59.5 -35t-71 -11q-35 0 -69 12.5t-59.5 37t-38.5 57t-13 71.5zM593 1334q0 -24 7.5 -43t22 -34.5t35 -24t42.5 -8.5q24 0 43.5 6.5t36.5 22.5t25 36.5t8 44.5q0 23 -7.5 43t-23.5 36t-37 23.5t-45 7.5q-20 0 -41.5 -8.5t-36 -23.5
t-22 -34.5t-7.5 -43.5z" />
    <glyph glyph-name="ae" unicode="&#xe6;" horiz-adv-x="1752" 
d="M283 -22q-50 0 -96 14t-81 48.5t-56 94t-21 151.5q0 99 19.5 196.5t58 186t96.5 164.5t134.5 132t172.5 87.5t210 31.5q60 0 109 -5.5t84 -18t54.5 -32.5t19.5 -48q0 -18 -11 -45q155 149 351 149q59 0 112.5 -13.5t94 -40.5t64 -68t23.5 -97q0 -74 -33.5 -139t-116 -114
t-222 -77.5t-351.5 -29.5q-16 -79 -16 -156q0 -81 18 -132t48 -80t70 -39.5t85 -10.5q40 0 84.5 11t90 33t90 55t85.5 77v-105q-35 -38 -78 -71t-92.5 -57t-105 -38t-115.5 -14q-86 0 -150.5 25t-108.5 67.5t-68 100t-30 123.5q-46 -83 -97 -142.5t-105 -98t-109.5 -57
t-110.5 -18.5zM829 894q6 22 6 39q0 18 -15.5 30t-38 19.5t-49.5 11t-49 3.5q-83 0 -150 -35t-120.5 -92.5t-92.5 -131t-64.5 -151.5t-38 -153.5t-12.5 -136.5q0 -54 7.5 -90.5t23.5 -59t39.5 -32.5t55.5 -10q66 0 132.5 50.5t127 137.5t112 203.5t86.5 248.5zM1446 851
q0 27 -8 52.5t-25.5 45.5t-44.5 32t-65 12q-66 0 -124 -32.5t-107 -87t-86.5 -125.5t-62.5 -148q147 1 247 20.5t161.5 52.5t88 78.5t26.5 99.5z" />
    <glyph glyph-name="ccedilla" unicode="&#xe7;" horiz-adv-x="991" 
d="M577 991q-70 0 -126.5 -31t-100 -83t-75.5 -119.5t-52.5 -140t-30.5 -145t-10 -134.5q2 -119 54 -185t157 -66q188 0 360 176v-105q-46 -47 -92 -80.5t-95.5 -56t-104.5 -33t-118 -10.5q-74 0 -137 23t-108.5 68.5t-71.5 114t-26 159.5q0 90 19 180t56 172t90.5 153.5
t122.5 123.5t152 82t179 30q45 0 95 -4.5t92 -13.5t69.5 -21.5t27.5 -27.5q0 -10 -3 -20l-27 -110q-8 -35 -19.5 -52t-42.5 -17q-13 0 -21.5 13t-17.5 32t-22 41.5t-35 41.5t-55 32t-83 13zM265 23h76l-38 -125q46 0 89 -7t76 -24t52.5 -46.5t19.5 -74.5q0 -82 -68 -127.5
t-214 -45.5h-144l19 70h86q84 0 119.5 29.5t35.5 73.5q0 24 -6.5 42.5t-24.5 31t-49.5 19t-80.5 7.5z" />
    <glyph glyph-name="egrave" unicode="&#xe8;" horiz-adv-x="1053" 
d="M0 330q0 96 19.5 189t57.5 176.5t92.5 155t124 123t153.5 81t180 29.5q60 0 113.5 -15.5t93.5 -45t63.5 -72t23.5 -96.5q0 -48 -15 -92.5t-48.5 -83t-88.5 -70.5t-135.5 -54.5t-188.5 -35.5t-247 -14q-16 -79 -16 -156q0 -81 18 -132t48 -80t70 -39.5t85 -10.5
q40 0 84.5 11t90 33t90 55t85.5 77v-105q-35 -38 -78 -71t-92.5 -57t-105 -38t-115.5 -14q-93 0 -161 27.5t-112.5 75.5t-66.5 112t-22 137zM746 851q0 27 -8 52.5t-25.5 45.5t-44.5 32t-65 12q-66 0 -124 -32.5t-107 -87t-86.5 -125.5t-62.5 -148q147 1 247 20.5
t161.5 52.5t88 78.5t26.5 99.5zM852 1177h-104l-277 289h223z" />
    <glyph glyph-name="eacute" unicode="&#xe9;" horiz-adv-x="1053" 
d="M0 330q0 96 19.5 189t57.5 176.5t92.5 155t124 123t153.5 81t180 29.5q60 0 113.5 -15.5t93.5 -45t63.5 -72t23.5 -96.5q0 -48 -15 -92.5t-48.5 -83t-88.5 -70.5t-135.5 -54.5t-188.5 -35.5t-247 -14q-16 -79 -16 -156q0 -81 18 -132t48 -80t70 -39.5t85 -10.5
q40 0 84.5 11t90 33t90 55t85.5 77v-105q-35 -38 -78 -71t-92.5 -57t-105 -38t-115.5 -14q-93 0 -161 27.5t-112.5 75.5t-66.5 112t-22 137zM746 851q0 27 -8 52.5t-25.5 45.5t-44.5 32t-65 12q-66 0 -124 -32.5t-107 -87t-86.5 -125.5t-62.5 -148q147 1 247 20.5
t161.5 52.5t88 78.5t26.5 99.5zM633 1466h223l-276 -289h-105z" />
    <glyph glyph-name="ecircumflex" unicode="&#xea;" horiz-adv-x="1053" 
d="M0 330q0 96 19.5 189t57.5 176.5t92.5 155t124 123t153.5 81t180 29.5q60 0 113.5 -15.5t93.5 -45t63.5 -72t23.5 -96.5q0 -48 -15 -92.5t-48.5 -83t-88.5 -70.5t-135.5 -54.5t-188.5 -35.5t-247 -14q-16 -79 -16 -156q0 -81 18 -132t48 -80t70 -39.5t85 -10.5
q40 0 84.5 11t90 33t90 55t85.5 77v-105q-35 -38 -78 -71t-92.5 -57t-105 -38t-115.5 -14q-93 0 -161 27.5t-112.5 75.5t-66.5 112t-22 137zM746 851q0 27 -8 52.5t-25.5 45.5t-44.5 32t-65 12q-66 0 -124 -32.5t-107 -87t-86.5 -125.5t-62.5 -148q147 1 247 20.5
t161.5 52.5t88 78.5t26.5 99.5zM645 1466h187l127 -272h-75l-170 180l-267 -180h-75z" />
    <glyph glyph-name="edieresis" unicode="&#xeb;" horiz-adv-x="1053" 
d="M0 330q0 96 19.5 189t57.5 176.5t92.5 155t124 123t153.5 81t180 29.5q60 0 113.5 -15.5t93.5 -45t63.5 -72t23.5 -96.5q0 -48 -15 -92.5t-48.5 -83t-88.5 -70.5t-135.5 -54.5t-188.5 -35.5t-247 -14q-16 -79 -16 -156q0 -81 18 -132t48 -80t70 -39.5t85 -10.5
q40 0 84.5 11t90 33t90 55t85.5 77v-105q-35 -38 -78 -71t-92.5 -57t-105 -38t-115.5 -14q-93 0 -161 27.5t-112.5 75.5t-66.5 112t-22 137zM746 851q0 27 -8 52.5t-25.5 45.5t-44.5 32t-65 12q-66 0 -124 -32.5t-107 -87t-86.5 -125.5t-62.5 -148q147 1 247 20.5
t161.5 52.5t88 78.5t26.5 99.5zM493 1241q-24 0 -45 8.5t-37 24t-25.5 37.5t-9.5 48q0 19 8 42t25.5 42t44 32t62.5 13q24 0 45.5 -9t37 -24.5t25 -37.5t9.5 -48q0 -20 -8 -42t-25.5 -41.5t-44 -32t-62.5 -12.5zM845 1241q-24 0 -45 8.5t-37 24t-25.5 37.5t-9.5 48
q0 19 8 42t25.5 42t44 32t62.5 13q24 0 45.5 -9t37 -24.5t25 -37.5t9.5 -48q0 -20 -8 -42t-25.5 -41.5t-44 -32t-62.5 -12.5z" />
    <glyph glyph-name="igrave" unicode="&#xec;" horiz-adv-x="568" 
d="M174 888q6 21 8.5 36.5t2.5 26.5q0 21 -9.5 28.5t-27.5 7.5h-28l20 75h253l-200 -740q-4 -14 -9 -32.5t-9.5 -38t-7.5 -40t-3 -38.5q0 -39 14.5 -56.5t37.5 -17.5q21 0 48 13t54.5 35t54.5 52t48 64v-105q-67 -93 -133 -136.5t-138 -43.5q-81 0 -120.5 44.5t-39.5 126.5
q0 60 21 138zM546 1177h-104l-277 289h223z" />
    <glyph glyph-name="iacute" unicode="&#xed;" horiz-adv-x="568" 
d="M174 888q6 21 8.5 36.5t2.5 26.5q0 21 -9.5 28.5t-27.5 7.5h-28l20 75h253l-200 -740q-4 -14 -9 -32.5t-9.5 -38t-7.5 -40t-3 -38.5q0 -39 14.5 -56.5t37.5 -17.5q21 0 48 13t54.5 35t54.5 52t48 64v-105q-67 -93 -133 -136.5t-138 -43.5q-81 0 -120.5 44.5t-39.5 126.5
q0 60 21 138zM333 1466h223l-276 -289h-105z" />
    <glyph glyph-name="icircumflex" unicode="&#xee;" horiz-adv-x="568" 
d="M174 888q6 21 8.5 36.5t2.5 26.5q0 21 -9.5 28.5t-27.5 7.5h-28l20 75h253l-200 -740q-4 -14 -9 -32.5t-9.5 -38t-7.5 -40t-3 -38.5q0 -39 14.5 -56.5t37.5 -17.5q21 0 48 13t54.5 35t54.5 52t48 64v-105q-67 -93 -133 -136.5t-138 -43.5q-81 0 -120.5 44.5t-39.5 126.5
q0 60 21 138zM351 1466h187l127 -272h-75l-170 180l-267 -180h-75z" />
    <glyph glyph-name="idieresis" unicode="&#xef;" horiz-adv-x="568" 
d="M174 888q6 21 8.5 36.5t2.5 26.5q0 21 -9.5 28.5t-27.5 7.5h-28l20 75h253l-200 -740q-4 -14 -9 -32.5t-9.5 -38t-7.5 -40t-3 -38.5q0 -39 14.5 -56.5t37.5 -17.5q21 0 48 13t54.5 35t54.5 52t48 64v-105q-67 -93 -133 -136.5t-138 -43.5q-81 0 -120.5 44.5t-39.5 126.5
q0 60 21 138zM197 1241q-24 0 -45 8.5t-37 24t-25.5 37.5t-9.5 48q0 19 8 42t25.5 42t44 32t62.5 13q24 0 45.5 -9t37 -24.5t25 -37.5t9.5 -48q0 -20 -8 -42t-25.5 -41.5t-44 -32t-62.5 -12.5zM549 1241q-24 0 -45 8.5t-37 24t-25.5 37.5t-9.5 48q0 19 8 42t25.5 42t44 32
t62.5 13q24 0 45.5 -9t37 -24.5t25 -37.5t9.5 -48q0 -20 -8 -42t-25.5 -41.5t-44 -32t-62.5 -12.5z" />
    <glyph glyph-name="eth" unicode="&#xf0;" horiz-adv-x="1087" 
d="M302 1152l29 107l218 74q-35 37 -73.5 70t-77.5 63h154q32 -22 59.5 -45t53.5 -48l288 99l-26 -96l-199 -71q50 -61 85 -127t57.5 -135.5t32.5 -141t10 -142.5q0 -77 -10.5 -151.5t-29.5 -145.5q-37 -136 -98 -228.5t-134.5 -149.5t-152 -81.5t-149.5 -24.5
q-75 0 -138.5 22.5t-110.5 68.5t-73.5 116t-26.5 166q0 51 8 109.5t26 124.5q32 120 87 209.5t125 149t150.5 89t162.5 29.5q54 0 99.5 -10.5t84.5 -35.5q-17 69 -49 130.5t-74 115.5zM196 540q-18 -68 -28 -130t-10 -116q0 -51 9.5 -92.5t31.5 -71t56 -46t84 -16.5
q54 0 107.5 31t101 87.5t86.5 135.5t65 175q23 85 36 167.5t13 150.5q0 45 -6 78q-26 33 -70 54t-98 21q-49 0 -102 -21.5t-103.5 -71.5t-95 -132t-77.5 -203z" />
    <glyph glyph-name="ntilde" unicode="&#xf1;" horiz-adv-x="1177" 
d="M181 888q5 21 8 36.5t3 26.5q0 21 -9.5 28.5t-27.5 7.5h-28l20 75h244l-83 -294q89 166 194 241t211 75q121 0 176.5 -54.5t55.5 -151.5q0 -67 -24 -149l-119 -407q-8 -29 -18.5 -70.5t-10.5 -78.5q0 -40 14 -58t40 -18q21 0 47.5 13.5t54 36t54 52.5t47.5 64v-105
q-67 -93 -133 -136.5t-138 -43.5q-34 0 -63.5 10.5t-51 31t-34 51t-12.5 70.5q0 43 7 84t19 81l123 417q11 37 16.5 67.5t5.5 55.5q0 111 -116 111q-47 0 -107 -37t-122.5 -117.5t-122.5 -208t-108 -307.5l-76 -287h-173zM314 1395q46 44 93.5 61.5t105.5 17.5
q46 0 86.5 -17.5t80.5 -38t81.5 -38t88.5 -17.5q36 0 70.5 16.5t66.5 55.5l-26 -98q-40 -44 -86.5 -61.5t-90.5 -17.5q-56 0 -100 17.5t-84.5 38.5t-81.5 38.5t-90 17.5q-35 0 -72 -18.5t-67 -55.5z" />
    <glyph glyph-name="ograve" unicode="&#xf2;" horiz-adv-x="1094" 
d="M1 353q0 77 16.5 161.5t48.5 166t79.5 154.5t110 128.5t140 88t169.5 32.5q91 0 157 -28t109 -79t63.5 -123t20.5 -160q0 -77 -16 -160t-48 -163t-80 -151t-111 -125t-141 -85.5t-171 -31.5q-86 0 -149.5 25t-106.5 71t-65.5 111t-25.5 145v23zM568 994q-58 0 -110 -33
t-96 -87.5t-79.5 -126.5t-60.5 -149.5t-38.5 -156t-13.5 -146.5q0 -51 9 -93t30 -71.5t55 -46t85 -16.5q58 0 110.5 32.5t96.5 87t79 126t59.5 149t37.5 155.5t13 147q0 51 -9 93.5t-29.5 72.5t-54.5 46.5t-84 16.5zM850 1177h-104l-277 289h223z" />
    <glyph glyph-name="oacute" unicode="&#xf3;" horiz-adv-x="1094" 
d="M1 353q0 77 16.5 161.5t48.5 166t79.5 154.5t110 128.5t140 88t169.5 32.5q91 0 157 -28t109 -79t63.5 -123t20.5 -160q0 -77 -16 -160t-48 -163t-80 -151t-111 -125t-141 -85.5t-171 -31.5q-86 0 -149.5 25t-106.5 71t-65.5 111t-25.5 145v23zM568 994q-58 0 -110 -33
t-96 -87.5t-79.5 -126.5t-60.5 -149.5t-38.5 -156t-13.5 -146.5q0 -51 9 -93t30 -71.5t55 -46t85 -16.5q58 0 110.5 32.5t96.5 87t79 126t59.5 149t37.5 155.5t13 147q0 51 -9 93.5t-29.5 72.5t-54.5 46.5t-84 16.5zM627 1466h223l-276 -289h-105z" />
    <glyph glyph-name="ocircumflex" unicode="&#xf4;" horiz-adv-x="1094" 
d="M1 353q0 77 16.5 161.5t48.5 166t79.5 154.5t110 128.5t140 88t169.5 32.5q91 0 157 -28t109 -79t63.5 -123t20.5 -160q0 -77 -16 -160t-48 -163t-80 -151t-111 -125t-141 -85.5t-171 -31.5q-86 0 -149.5 25t-106.5 71t-65.5 111t-25.5 145v23zM568 994q-58 0 -110 -33
t-96 -87.5t-79.5 -126.5t-60.5 -149.5t-38.5 -156t-13.5 -146.5q0 -51 9 -93t30 -71.5t55 -46t85 -16.5q58 0 110.5 32.5t96.5 87t79 126t59.5 149t37.5 155.5t13 147q0 51 -9 93.5t-29.5 72.5t-54.5 46.5t-84 16.5zM636 1466h187l127 -272h-75l-170 180l-267 -180h-75z" />
    <glyph glyph-name="otilde" unicode="&#xf5;" horiz-adv-x="1094" 
d="M1 353q0 77 16.5 161.5t48.5 166t79.5 154.5t110 128.5t140 88t169.5 32.5q91 0 157 -28t109 -79t63.5 -123t20.5 -160q0 -77 -16 -160t-48 -163t-80 -151t-111 -125t-141 -85.5t-171 -31.5q-86 0 -149.5 25t-106.5 71t-65.5 111t-25.5 145v23zM568 994q-58 0 -110 -33
t-96 -87.5t-79.5 -126.5t-60.5 -149.5t-38.5 -156t-13.5 -146.5q0 -51 9 -93t30 -71.5t55 -46t85 -16.5q58 0 110.5 32.5t96.5 87t79 126t59.5 149t37.5 155.5t13 147q0 51 -9 93.5t-29.5 72.5t-54.5 46.5t-84 16.5zM350 1362q46 44 93.5 61.5t105.5 17.5q46 0 86.5 -17.5
t80.5 -38t81.5 -38t88.5 -17.5q36 0 70.5 16.5t66.5 55.5l-26 -98q-40 -44 -86.5 -61.5t-90.5 -17.5q-56 0 -100 17.5t-84.5 38.5t-81.5 38.5t-90 17.5q-35 0 -72 -18.5t-67 -55.5z" />
    <glyph glyph-name="odieresis" unicode="&#xf6;" horiz-adv-x="1094" 
d="M1 353q0 77 16.5 161.5t48.5 166t79.5 154.5t110 128.5t140 88t169.5 32.5q91 0 157 -28t109 -79t63.5 -123t20.5 -160q0 -77 -16 -160t-48 -163t-80 -151t-111 -125t-141 -85.5t-171 -31.5q-86 0 -149.5 25t-106.5 71t-65.5 111t-25.5 145v23zM568 994q-58 0 -110 -33
t-96 -87.5t-79.5 -126.5t-60.5 -149.5t-38.5 -156t-13.5 -146.5q0 -51 9 -93t30 -71.5t55 -46t85 -16.5q58 0 110.5 32.5t96.5 87t79 126t59.5 149t37.5 155.5t13 147q0 51 -9 93.5t-29.5 72.5t-54.5 46.5t-84 16.5zM493 1241q-24 0 -45 8.5t-37 24t-25.5 37.5t-9.5 48
q0 19 8 42t25.5 42t44 32t62.5 13q24 0 45.5 -9t37 -24.5t25 -37.5t9.5 -48q0 -20 -8 -42t-25.5 -41.5t-44 -32t-62.5 -12.5zM845 1241q-24 0 -45 8.5t-37 24t-25.5 37.5t-9.5 48q0 19 8 42t25.5 42t44 32t62.5 13q24 0 45.5 -9t37 -24.5t25 -37.5t9.5 -48q0 -20 -8 -42
t-25.5 -41.5t-44 -32t-62.5 -12.5z" />
    <glyph glyph-name="divide" unicode="&#xf7;" horiz-adv-x="1124" 
d="M24 639l45 168h930l-45 -168h-930zM400 260q-24 0 -45 8.5t-37 24t-25.5 37.5t-9.5 48q0 19 8 42t25.5 42t44 32t62.5 13q24 0 45.5 -9t37 -24.5t25 -37.5t9.5 -48q0 -20 -8 -42t-25.5 -41.5t-44 -32t-62.5 -12.5zM583 939q-24 0 -45 8.5t-37 24t-25.5 37.5t-9.5 48
q0 19 8 42t25.5 42t44 32t62.5 13q24 0 45.5 -9t37 -24.5t25 -37.5t9.5 -48q0 -20 -8 -42t-25.5 -41.5t-44 -32t-62.5 -12.5z" />
    <glyph glyph-name="oslash" unicode="&#xf8;" horiz-adv-x="1094" 
d="M34 0l54 77q-41 45 -62 108q-23 65 -26 145v23q0 77 16.5 161.5t48.5 166t79.5 154.5t110 128.5t140 88t169.5 32.5q91 0 157 -28q22 -10 41 -22l20 28h117l-65 -91q40 -49 59 -117q21 -72 21 -160q0 -77 -16 -160t-48 -163t-80 -151t-111 -125t-141 -85.5t-171 -31.5
q-86 0 -150 25q-19 7 -36 16l-13 -19h-114zM567 994q-58 0 -110 -33t-96 -87.5t-79.5 -126.5t-60.5 -149.5t-38.5 -156t-13.5 -146.5q0 -50 8 -91l520 738q-19 22 -46 35q-34 17 -84 17zM263 84q34 -16 85 -16q58 0 110.5 32.5t96.5 87t79 126t59.5 149t37.5 155.5t13 147
q0 38 -5 71l-514 -726q16 -15 38 -26z" />
    <glyph glyph-name="ugrave" unicode="&#xf9;" horiz-adv-x="1181" 
d="M394 1062l-194 -723q-20 -72 -20 -121q0 -57 27 -85t87 -28q47 0 107 37t122.5 117.5t122.5 208t108 307.5l76 287h173l-197 -740q-4 -14 -9 -32.5t-9.5 -38t-7.5 -40t-3 -38.5q0 -32 12.5 -54t46.5 -22q13 0 35.5 10.5t50 31.5t56.5 52t56 72v-105q-30 -39 -60.5 -72
t-62 -57t-64 -37.5t-66.5 -13.5q-45 0 -75.5 13t-48.5 35t-25.5 52t-7.5 63q0 43 7 87.5t19 84.5q-48 -92 -99 -155.5t-104 -103.5t-106.5 -58t-106.5 -18q-61 0 -104.5 14.5t-71.5 41.5t-41 65.5t-13 86.5q0 68 22 147l149 555q5 21 8 36.5t3 26.5q0 21 -9.5 28.5
t-27.5 7.5h-28l20 75h253zM871 1177h-104l-277 289h223z" />
    <glyph glyph-name="uacute" unicode="&#xfa;" horiz-adv-x="1181" 
d="M394 1062l-194 -723q-20 -72 -20 -121q0 -57 27 -85t87 -28q47 0 107 37t122.5 117.5t122.5 208t108 307.5l76 287h173l-197 -740q-4 -14 -9 -32.5t-9.5 -38t-7.5 -40t-3 -38.5q0 -32 12.5 -54t46.5 -22q13 0 35.5 10.5t50 31.5t56.5 52t56 72v-105q-30 -39 -60.5 -72
t-62 -57t-64 -37.5t-66.5 -13.5q-45 0 -75.5 13t-48.5 35t-25.5 52t-7.5 63q0 43 7 87.5t19 84.5q-48 -92 -99 -155.5t-104 -103.5t-106.5 -58t-106.5 -18q-61 0 -104.5 14.5t-71.5 41.5t-41 65.5t-13 86.5q0 68 22 147l149 555q5 21 8 36.5t3 26.5q0 21 -9.5 28.5
t-27.5 7.5h-28l20 75h253zM653 1466h223l-276 -289h-105z" />
    <glyph glyph-name="ucircumflex" unicode="&#xfb;" horiz-adv-x="1181" 
d="M394 1062l-194 -723q-20 -72 -20 -121q0 -57 27 -85t87 -28q47 0 107 37t122.5 117.5t122.5 208t108 307.5l76 287h173l-197 -740q-4 -14 -9 -32.5t-9.5 -38t-7.5 -40t-3 -38.5q0 -32 12.5 -54t46.5 -22q13 0 35.5 10.5t50 31.5t56.5 52t56 72v-105q-30 -39 -60.5 -72
t-62 -57t-64 -37.5t-66.5 -13.5q-45 0 -75.5 13t-48.5 35t-25.5 52t-7.5 63q0 43 7 87.5t19 84.5q-48 -92 -99 -155.5t-104 -103.5t-106.5 -58t-106.5 -18q-61 0 -104.5 14.5t-71.5 41.5t-41 65.5t-13 86.5q0 68 22 147l149 555q5 21 8 36.5t3 26.5q0 21 -9.5 28.5
t-27.5 7.5h-28l20 75h253zM646 1466h187l127 -272h-75l-170 180l-267 -180h-75z" />
    <glyph glyph-name="udieresis" unicode="&#xfc;" horiz-adv-x="1181" 
d="M394 1062l-194 -723q-20 -72 -20 -121q0 -57 27 -85t87 -28q47 0 107 37t122.5 117.5t122.5 208t108 307.5l76 287h173l-197 -740q-4 -14 -9 -32.5t-9.5 -38t-7.5 -40t-3 -38.5q0 -32 12.5 -54t46.5 -22q13 0 35.5 10.5t50 31.5t56.5 52t56 72v-105q-30 -39 -60.5 -72
t-62 -57t-64 -37.5t-66.5 -13.5q-45 0 -75.5 13t-48.5 35t-25.5 52t-7.5 63q0 43 7 87.5t19 84.5q-48 -92 -99 -155.5t-104 -103.5t-106.5 -58t-106.5 -18q-61 0 -104.5 14.5t-71.5 41.5t-41 65.5t-13 86.5q0 68 22 147l149 555q5 21 8 36.5t3 26.5q0 21 -9.5 28.5
t-27.5 7.5h-28l20 75h253zM483 1241q-24 0 -45 8.5t-37 24t-25.5 37.5t-9.5 48q0 19 8 42t25.5 42t44 32t62.5 13q24 0 45.5 -9t37 -24.5t25 -37.5t9.5 -48q0 -20 -8 -42t-25.5 -41.5t-44 -32t-62.5 -12.5zM835 1241q-24 0 -45 8.5t-37 24t-25.5 37.5t-9.5 48q0 19 8 42
t25.5 42t44 32t62.5 13q24 0 45.5 -9t37 -24.5t25 -37.5t9.5 -48q0 -20 -8 -42t-25.5 -41.5t-44 -32t-62.5 -12.5z" />
    <glyph glyph-name="yacute" unicode="&#xfd;" horiz-adv-x="1040" 
d="M73 987l20 75h212q-1 -14 -1.5 -30.5t-0.5 -35.5q0 -52 3.5 -118t9 -139t13.5 -149t17.5 -148.5t19 -137.5t19.5 -115q4 -21 16 -21q13 0 24 18q69 97 131 197t109.5 190.5t75 166t27.5 124.5q0 46 -12.5 69.5t-27 37t-27 22.5t-12.5 26q0 15 5 25.5t19 17t39 9.5t64 3
q36 0 60.5 -6t39.5 -16.5t21 -25t6 -31.5q0 -43 -21.5 -109.5t-60 -149t-91.5 -176t-115 -190.5t-131.5 -194t-141 -185.5t-142.5 -165t-137 -132.5t-124.5 -88t-104.5 -32q-62 0 -102.5 16t-40.5 39q0 5 0.5 13t2.5 13l31 105q5 17 9.5 30t11.5 21.5t17 13t26 4.5
q14 0 21 -9t10.5 -22t6 -28.5t8.5 -28.5t18 -22t34 -9q28 0 65.5 20.5t82 57.5t94 88t102.5 112q-7 2 -15 10t-10 20q-24 114 -43.5 240.5t-33.5 251.5t-22 240.5t-10 207.5q0 17 -8.5 23.5t-23.5 6.5h-32zM598 1466h223l-276 -289h-105z" />
    <glyph glyph-name="thorn" unicode="&#xfe;" horiz-adv-x="1134" 
d="M296 1317q7 27 7 43q0 26 -18 26h-27l21 80h228l-179 -668q47 80 95.5 134.5t97.5 88.5t98.5 48.5t99.5 14.5q51 0 96.5 -20t79 -60t53.5 -100t20 -140q0 -48 -7 -101t-24 -114q-35 -126 -95 -230.5t-137.5 -180.5t-169.5 -118t-192 -42q-73 0 -126 24t-84 56l-128 -465
h-172zM168 196q4 -20 16 -43t32 -42.5t48.5 -32t65.5 -12.5q61 0 123 29.5t117.5 89t103 150.5t80.5 214q17 64 24.5 115t7.5 93q0 60 -13.5 98.5t-33.5 61t-43.5 31.5t-42.5 9q-55 0 -116.5 -42t-122.5 -124t-116.5 -201.5t-97.5 -275.5z" />
    <glyph glyph-name="ydieresis" unicode="&#xff;" horiz-adv-x="1040" 
d="M73 987l20 75h212q-1 -14 -1.5 -30.5t-0.5 -35.5q0 -52 3.5 -118t9 -139t13.5 -149t17.5 -148.5t19 -137.5t19.5 -115q4 -21 16 -21q13 0 24 18q69 97 131 197t109.5 190.5t75 166t27.5 124.5q0 46 -12.5 69.5t-27 37t-27 22.5t-12.5 26q0 15 5 25.5t19 17t39 9.5t64 3
q36 0 60.5 -6t39.5 -16.5t21 -25t6 -31.5q0 -43 -21.5 -109.5t-60 -149t-91.5 -176t-115 -190.5t-131.5 -194t-141 -185.5t-142.5 -165t-137 -132.5t-124.5 -88t-104.5 -32q-62 0 -102.5 16t-40.5 39q0 5 0.5 13t2.5 13l31 105q5 17 9.5 30t11.5 21.5t17 13t26 4.5
q14 0 21 -9t10.5 -22t6 -28.5t8.5 -28.5t18 -22t34 -9q28 0 65.5 20.5t82 57.5t94 88t102.5 112q-7 2 -15 10t-10 20q-24 114 -43.5 240.5t-33.5 251.5t-22 240.5t-10 207.5q0 17 -8.5 23.5t-23.5 6.5h-32zM422 1241q-24 0 -45 8.5t-37 24t-25.5 37.5t-9.5 48q0 19 8 42
t25.5 42t44 32t62.5 13q24 0 45.5 -9t37 -24.5t25 -37.5t9.5 -48q0 -20 -8 -42t-25.5 -41.5t-44 -32t-62.5 -12.5zM774 1241q-24 0 -45 8.5t-37 24t-25.5 37.5t-9.5 48q0 19 8 42t25.5 42t44 32t62.5 13q24 0 45.5 -9t37 -24.5t25 -37.5t9.5 -48q0 -20 -8 -42t-25.5 -41.5
t-44 -32t-62.5 -12.5z" />
    <glyph glyph-name="Amacron" unicode="&#x100;" horiz-adv-x="1524" 
d="M759 1466h239q36 -165 65 -332t49.5 -324t31.5 -297.5t11 -252.5q0 -26 -1 -50t-1 -46q0 -29 4.5 -45.5t11 -25t15 -11t16.5 -2.5h24l-22 -80h-339l22 80h26q10 0 19 7.5t16 26.5t10.5 52t3.5 85q0 47 -3 103.5t-8 120t-12 132t-15 138.5h-459q15 26 30.5 50.5t32.5 49.5
h384q-11 73 -21.5 145t-21 138t-21 123.5t-20.5 102.5h-35q-50 -67 -108 -150t-119 -173.5t-122 -185.5t-117.5 -187t-105.5 -177t-85 -156t-56.5 -124t-20.5 -81q0 -24 12.5 -32t33.5 -8h12l-22 -80h-349l22 80h5q19 0 37 4.5t40 23t50.5 56.5t67.5 104q174 296 370.5 598
t422.5 600zM626 1607l22 80h524l-22 -80h-524z" />
    <glyph glyph-name="amacron" unicode="&#x101;" horiz-adv-x="1196" 
d="M176 297q0 -53 7 -90t21.5 -59.5t37 -32.5t54.5 -10q67 0 135 51.5t129.5 139.5t113 204t86.5 245l39 144q7 24 7 44q0 16 -12.5 28t-33.5 20t-48 12t-57 4q-79 0 -145 -32.5t-119.5 -87t-93.5 -126t-67 -149t-40.5 -156.5t-13.5 -149zM0 286q0 89 17.5 183t53.5 182.5
t92 167.5t133 137.5t175.5 93t219.5 34.5q136 0 213 -30.5t77 -95.5q0 -17 -3.5 -36t-8.5 -40l-148 -560q-4 -14 -9 -32.5t-9.5 -38t-7.5 -40t-3 -38.5q0 -32 12.5 -54t46.5 -22q13 0 35.5 10.5t50 31.5t56.5 52t56 72v-105q-30 -39 -60.5 -72t-62 -57t-64 -37.5
t-66.5 -13.5q-45 0 -75.5 13t-48.5 35t-25.5 52t-7.5 63q0 43 7 87.5t19 84.5q-43 -78 -90.5 -140t-99.5 -105.5t-107 -66.5t-112 -23q-50 0 -96.5 12.5t-82 47t-56.5 94t-21 154.5zM421 1236l22 80h524l-22 -80h-524z" />
    <glyph glyph-name="Abreve" unicode="&#x102;" horiz-adv-x="1524" 
d="M759 1466h239q36 -165 65 -332t49.5 -324t31.5 -297.5t11 -252.5q0 -26 -1 -50t-1 -46q0 -29 4.5 -45.5t11 -25t15 -11t16.5 -2.5h24l-22 -80h-339l22 80h26q10 0 19 7.5t16 26.5t10.5 52t3.5 85q0 47 -3 103.5t-8 120t-12 132t-15 138.5h-459q15 26 30.5 50.5t32.5 49.5
h384q-11 73 -21.5 145t-21 138t-21 123.5t-20.5 102.5h-35q-50 -67 -108 -150t-119 -173.5t-122 -185.5t-117.5 -187t-105.5 -177t-85 -156t-56.5 -124t-20.5 -81q0 -24 12.5 -32t33.5 -8h12l-22 -80h-349l22 80h5q19 0 37 4.5t40 23t50.5 56.5t67.5 104q174 296 370.5 598
t422.5 600zM1242 1870q-29 -68 -71.5 -116.5t-95.5 -80t-112.5 -46t-120.5 -14.5q-59 0 -106.5 15.5t-79 41.5t-45 60t-3.5 72q5 19 21.5 36.5t38 31t45 21.5t43.5 8q23 0 29 -14.5t7 -36.5t0.5 -48t10 -48t37.5 -36.5t81 -14.5q33 0 68 8.5t68 28t62.5 52t50.5 80.5h72z
" />
    <glyph glyph-name="abreve" unicode="&#x103;" horiz-adv-x="1196" 
d="M176 297q0 -53 7 -90t21.5 -59.5t37 -32.5t54.5 -10q67 0 135 51.5t129.5 139.5t113 204t86.5 245l39 144q7 24 7 44q0 16 -12.5 28t-33.5 20t-48 12t-57 4q-79 0 -145 -32.5t-119.5 -87t-93.5 -126t-67 -149t-40.5 -156.5t-13.5 -149zM0 286q0 89 17.5 183t53.5 182.5
t92 167.5t133 137.5t175.5 93t219.5 34.5q136 0 213 -30.5t77 -95.5q0 -17 -3.5 -36t-8.5 -40l-148 -560q-4 -14 -9 -32.5t-9.5 -38t-7.5 -40t-3 -38.5q0 -32 12.5 -54t46.5 -22q13 0 35.5 10.5t50 31.5t56.5 52t56 72v-105q-30 -39 -60.5 -72t-62 -57t-64 -37.5
t-66.5 -13.5q-45 0 -75.5 13t-48.5 35t-25.5 52t-7.5 63q0 43 7 87.5t19 84.5q-43 -78 -90.5 -140t-99.5 -105.5t-107 -66.5t-112 -23q-50 0 -96.5 12.5t-82 47t-56.5 94t-21 154.5zM1049 1466q-29 -68 -71.5 -116.5t-95.5 -80t-112.5 -46t-120.5 -14.5q-59 0 -106.5 15.5
t-79 41.5t-45 60t-3.5 72q5 19 21.5 36.5t38 31t45 21.5t43.5 8q23 0 29 -14.5t7 -36.5t0.5 -48t10 -48t37.5 -36.5t81 -14.5q33 0 68 8.5t68 28t62.5 52t50.5 80.5h72z" />
    <glyph glyph-name="Aogonek" unicode="&#x104;" horiz-adv-x="1524" 
d="M759 1466h239q36 -165 65 -332t49.5 -324t31.5 -297.5t11 -252.5q0 -26 -1 -50t-1 -46q0 -29 4.5 -45.5t11 -25t15 -11t16.5 -2.5h24l-22 -80h-339l22 80h26q10 0 19 7.5t16 26.5t10.5 52t3.5 85q0 47 -3 103.5t-8 120t-12 132t-15 138.5h-459q15 26 30.5 50.5t32.5 49.5
h384q-11 73 -21.5 145t-21 138t-21 123.5t-20.5 102.5h-35q-50 -67 -108 -150t-119 -173.5t-122 -185.5t-117.5 -187t-105.5 -177t-85 -156t-56.5 -124t-20.5 -81q0 -24 12.5 -32t33.5 -8h12l-22 -80h-349l22 80h5q19 0 37 4.5t40 23t50.5 56.5t67.5 104q174 296 370.5 598
t422.5 600zM956 22h78q-15 -45 -22 -85.5t-7 -78.5q0 -45 15.5 -76t41 -50t58.5 -27.5t68 -8.5q48 0 93 13t76 33v-69q-33 -31 -63 -50.5t-57 -31t-52 -15.5t-47 -4q-99 0 -159 55.5t-60 165.5q0 43 8.5 100t28.5 129z" />
    <glyph glyph-name="aogonek" unicode="&#x105;" horiz-adv-x="1196" 
d="M176 297q0 -53 7 -90t21.5 -59.5t37 -32.5t54.5 -10q67 0 135 51.5t129.5 139.5t113 204t86.5 245l39 144q7 24 7 44q0 16 -12.5 28t-33.5 20t-48 12t-57 4q-79 0 -145 -32.5t-119.5 -87t-93.5 -126t-67 -149t-40.5 -156.5t-13.5 -149zM0 286q0 89 17.5 183t53.5 182.5
t92 167.5t133 137.5t175.5 93t219.5 34.5q136 0 213 -30.5t77 -95.5q0 -17 -3.5 -36t-8.5 -40l-148 -560q-4 -14 -9 -32.5t-9.5 -38t-7.5 -40t-3 -38.5q0 -32 12.5 -54t46.5 -22q13 0 35.5 10.5t50 31.5t56.5 52t56 72v-105q-30 -39 -60.5 -72t-62 -57t-64 -37.5
t-66.5 -13.5q-45 0 -75.5 13t-48.5 35t-25.5 52t-7.5 63q0 43 7 87.5t19 84.5q-43 -78 -90.5 -140t-99.5 -105.5t-107 -66.5t-112 -23q-50 0 -96.5 12.5t-82 47t-56.5 94t-21 154.5zM196 22h78q-15 -45 -22 -85.5t-7 -78.5q0 -45 15.5 -76t41 -50t58.5 -27.5t68 -8.5
q48 0 93 13t76 33v-69q-33 -31 -63 -50.5t-57 -31t-52 -15.5t-47 -4q-99 0 -159 55.5t-60 165.5q0 43 8.5 100t28.5 129z" />
    <glyph glyph-name="Cacute" unicode="&#x106;" horiz-adv-x="1165" 
d="M566 92q126 0 237.5 34.5t208.5 97.5l-34 -121q-32 -20 -74 -42t-97.5 -40.5t-126.5 -30.5t-162 -12q-138 0 -242 39t-173.5 109t-104 167t-34.5 213q0 129 27 252.5t79 232.5t128 200.5t175 157t219 102.5t260 37q71 0 125 -3.5t105 -7.5t106.5 -7.5t129.5 -3.5
l-47 -298h-74q-15 45 -41 86t-69.5 71.5t-107 49t-152.5 18.5q-105 0 -195 -39t-163 -104.5t-130 -153t-95 -184t-58 -197t-20 -192.5q0 -213 102.5 -322t297.5 -109zM875 1870h223l-276 -289h-105z" />
    <glyph glyph-name="cacute" unicode="&#x107;" horiz-adv-x="991" 
d="M577 991q-70 0 -126.5 -31t-100 -83t-75.5 -119.5t-52.5 -140t-30.5 -145t-10 -134.5q2 -119 54 -185t157 -66q188 0 360 176v-105q-46 -47 -92 -80.5t-95.5 -56t-104.5 -33t-118 -10.5q-74 0 -137 23t-108.5 68.5t-71.5 114t-26 159.5q0 90 19 180t56 172t90.5 153.5
t122.5 123.5t152 82t179 30q45 0 95 -4.5t92 -13.5t69.5 -21.5t27.5 -27.5q0 -10 -3 -20l-27 -110q-8 -35 -19.5 -52t-42.5 -17q-13 0 -21.5 13t-17.5 32t-22 41.5t-35 41.5t-55 32t-83 13zM639 1466h223l-276 -289h-105z" />
    <glyph glyph-name="Ccaron" unicode="&#x10c;" horiz-adv-x="1165" 
d="M566 92q126 0 237.5 34.5t208.5 97.5l-34 -121q-32 -20 -74 -42t-97.5 -40.5t-126.5 -30.5t-162 -12q-138 0 -242 39t-173.5 109t-104 167t-34.5 213q0 129 27 252.5t79 232.5t128 200.5t175 157t219 102.5t260 37q71 0 125 -3.5t105 -7.5t106.5 -7.5t129.5 -3.5
l-47 -298h-74q-15 45 -41 86t-69.5 71.5t-107 49t-152.5 18.5q-105 0 -195 -39t-163 -104.5t-130 -153t-95 -184t-58 -197t-20 -192.5q0 -213 102.5 -322t297.5 -109zM859 1708l263 162h94l-298 -272h-192l-143 272h96z" />
    <glyph glyph-name="ccaron" unicode="&#x10d;" horiz-adv-x="991" 
d="M577 991q-70 0 -126.5 -31t-100 -83t-75.5 -119.5t-52.5 -140t-30.5 -145t-10 -134.5q2 -119 54 -185t157 -66q188 0 360 176v-105q-46 -47 -92 -80.5t-95.5 -56t-104.5 -33t-118 -10.5q-74 0 -137 23t-108.5 68.5t-71.5 114t-26 159.5q0 90 19 180t56 172t90.5 153.5
t122.5 123.5t152 82t179 30q45 0 95 -4.5t92 -13.5t69.5 -21.5t27.5 -27.5q0 -10 -3 -20l-27 -110q-8 -35 -19.5 -52t-42.5 -17q-13 0 -21.5 13t-17.5 32t-22 41.5t-35 41.5t-55 32t-83 13zM668 1304l263 162h94l-298 -272h-192l-143 272h96z" />
    <glyph glyph-name="Dcaron" unicode="&#x10e;" horiz-adv-x="1406" 
d="M-137 0l21 80h30q18 0 30.5 4.5t22 16.5t17 33t16.5 53l292 1092q14 50 14 72q0 20 -10 27.5t-32 7.5h-30l21 80h107q51 0 108.5 3.5t115.5 7.5t115.5 7.5t108.5 3.5q153 0 262 -40.5t179.5 -111t103.5 -166t33 -204.5q0 -112 -32 -232q-54 -200 -136 -339.5t-193.5 -227
t-253 -127.5t-313.5 -40h-597zM186 187q-11 -39 -11 -56q0 -22 16 -26.5t53 -4.5h202q127 0 235 28t196.5 100t158 194.5t120.5 311.5q39 148 39 262q0 199 -114 296.5t-329 97.5q-120 0 -186.5 -15t-79.5 -66zM858 1708l263 162h94l-298 -272h-192l-143 272h96z" />
    <glyph glyph-name="dcaron" unicode="&#x10f;" horiz-adv-x="1433" 
d="M765 860q-9 41 -33.5 67.5t-54 41.5t-58.5 21t-48 6q-67 0 -125 -35t-106 -92.5t-85 -131t-62.5 -150.5t-39 -151.5t-13.5 -133.5q0 -40 5.5 -75.5t20 -62.5t41 -43t68.5 -16q64 0 132 51t130 138.5t114 203.5t85 247zM881 1292q11 42 11 62q0 22 -10 29.5t-28 7.5h-28
l20 75h257l-308 -1144q-4 -14 -9 -32.5t-9.5 -38t-7.5 -40t-3 -38.5q0 -32 12.5 -54t46.5 -22q13 0 35.5 10.5t50 31.5t56.5 52t56 72v-105q-30 -39 -60.5 -72t-62 -57t-64 -37.5t-66.5 -13.5q-45 0 -75.5 13t-48.5 35t-25.5 52t-7.5 63q0 43 9.5 87.5t21.5 84.5
q-98 -165 -195.5 -250t-216.5 -85q-55 0 -102.5 18t-82.5 56t-55 98.5t-20 144.5q0 93 18.5 187.5t54 182.5t86.5 164t116 133t143.5 89.5t167.5 32.5q42 0 79.5 -6.5t68.5 -17.5t55.5 -25.5t40.5 -30.5zM1138 1036l18 65q63 15 99.5 45.5t36.5 72.5q0 13 -15.5 19.5
t-33.5 16.5t-33.5 29.5t-15.5 57.5q0 33 12 60t32 46t46 29.5t54 10.5q61 0 89.5 -35t28.5 -86q0 -61 -23.5 -117t-65.5 -100t-100.5 -74t-128.5 -40z" />
    <glyph glyph-name="Dcroat" unicode="&#x110;" horiz-adv-x="1529" 
d="M10 845h166l116 434q14 50 14 72q0 20 -10 27.5t-32 7.5h-30l21 80h107q51 0 108.5 3.5t115.5 7.5t115.5 7.5t108.5 3.5q153 0 262 -40.5t179.5 -111t103.5 -166t33 -204.5q0 -112 -32 -232q-54 -200 -136 -339.5t-193.5 -227t-253 -127.5t-313.5 -40h-597l21 80h30
q18 0 30.5 4.5t22 16.5t17 33t16.5 53l149 558h-165zM362 845h407l-27 -100h-407l-149 -558q-11 -39 -11 -56q0 -22 16 -26.5t53 -4.5h202q127 0 235 28t196.5 100t158 194.5t120.5 311.5q39 148 39 262q0 199 -114 296.5t-329 97.5q-120 0 -186.5 -15t-79.5 -66z" />
    <glyph glyph-name="dcroat" unicode="&#x111;" horiz-adv-x="1198" 
d="M1225 1281l-24 -90h-144l-234 -869q-4 -14 -9 -32.5t-9.5 -38t-7.5 -40t-3 -38.5q0 -32 12.5 -54t46.5 -22q13 0 35.5 10.5t50 31.5t56.5 52t56 72v-105q-30 -39 -60.5 -72t-62 -57t-64 -37.5t-66.5 -13.5q-45 0 -75.5 13t-48.5 35t-25.5 52t-7.5 63q0 43 9.5 87.5
t21.5 84.5q-98 -165 -195.5 -250t-216.5 -85q-55 0 -102.5 18t-82.5 56t-55 98.5t-20 144.5q0 93 18.5 187.5t54 182.5t86.5 164t116 133t143.5 89.5t167.5 32.5q42 0 79.5 -6.5t68.5 -17.5t55.5 -25.5t40.5 -30.5l51 187h-200l24 90h201l3 11q11 42 11 62q0 22 -10 29.5
t-28 7.5h-28l20 75h257l-50 -185h144zM793 860q-9 41 -33.5 67.5t-54 41.5t-58.5 21t-48 6q-67 0 -125 -35t-106 -92.5t-85 -131t-62.5 -150.5t-39 -151.5t-13.5 -133.5q0 -40 5.5 -75.5t20 -62.5t41 -43t68.5 -16q64 0 132 51t130 138.5t114 203.5t85 247z" />
    <glyph glyph-name="Emacron" unicode="&#x112;" horiz-adv-x="1415" 
d="M788 845q30 0 58.5 9.5t54.5 30.5t49 55t42 83h74l-123 -456h-74q5 28 5 48q0 62 -31 96t-82 34h-426l-149 -558q-8 -27 -8 -47q0 -17 9 -27.5t32 -10.5h395q64 0 114.5 17t91.5 47.5t74 72.5t62 91h74l-118 -330h-1049l21 80h30q18 0 32 10t24.5 25.5t17.5 34.5t12 37
l292 1092q4 14 6.5 29.5t2.5 29.5q0 20 -8 34t-29 14h-30l21 80h579q42 0 99.5 0.5t119.5 3t123.5 7.5t110.5 13l-44 -324h-74q-3 51 -19.5 88.5t-44 62t-65 37t-80.5 12.5h-402q-36 0 -53 -25.5t-27 -61.5l-116 -434h426zM537 1607l22 80h524l-22 -80h-524z" />
    <glyph glyph-name="emacron" unicode="&#x113;" horiz-adv-x="1053" 
d="M0 330q0 96 19.5 189t57.5 176.5t92.5 155t124 123t153.5 81t180 29.5q60 0 113.5 -15.5t93.5 -45t63.5 -72t23.5 -96.5q0 -48 -15 -92.5t-48.5 -83t-88.5 -70.5t-135.5 -54.5t-188.5 -35.5t-247 -14q-16 -79 -16 -156q0 -81 18 -132t48 -80t70 -39.5t85 -10.5
q40 0 84.5 11t90 33t90 55t85.5 77v-105q-35 -38 -78 -71t-92.5 -57t-105 -38t-115.5 -14q-93 0 -161 27.5t-112.5 75.5t-66.5 112t-22 137zM746 851q0 27 -8 52.5t-25.5 45.5t-44.5 32t-65 12q-66 0 -124 -32.5t-107 -87t-86.5 -125.5t-62.5 -148q147 1 247 20.5
t161.5 52.5t88 78.5t26.5 99.5zM388 1236l22 80h524l-22 -80h-524z" />
    <glyph glyph-name="Edotaccent" unicode="&#x116;" horiz-adv-x="1415" 
d="M788 845q30 0 58.5 9.5t54.5 30.5t49 55t42 83h74l-123 -456h-74q5 28 5 48q0 62 -31 96t-82 34h-426l-149 -558q-8 -27 -8 -47q0 -17 9 -27.5t32 -10.5h395q64 0 114.5 17t91.5 47.5t74 72.5t62 91h74l-118 -330h-1049l21 80h30q18 0 32 10t24.5 25.5t17.5 34.5t12 37
l292 1092q4 14 6.5 29.5t2.5 29.5q0 20 -8 34t-29 14h-30l21 80h579q42 0 99.5 0.5t119.5 3t123.5 7.5t110.5 13l-44 -324h-74q-3 51 -19.5 88.5t-44 62t-65 37t-80.5 12.5h-402q-36 0 -53 -25.5t-27 -61.5l-116 -434h426zM815 1645q-24 0 -45 8.5t-37 24t-25.5 37.5
t-9.5 48q0 19 8 42t25.5 42t44 32t62.5 13q24 0 45.5 -9t37 -24.5t25 -37.5t9.5 -48q0 -20 -8 -42t-25.5 -41.5t-44 -32t-62.5 -12.5z" />
    <glyph glyph-name="edotaccent" unicode="&#x117;" horiz-adv-x="1053" 
d="M0 330q0 96 19.5 189t57.5 176.5t92.5 155t124 123t153.5 81t180 29.5q60 0 113.5 -15.5t93.5 -45t63.5 -72t23.5 -96.5q0 -48 -15 -92.5t-48.5 -83t-88.5 -70.5t-135.5 -54.5t-188.5 -35.5t-247 -14q-16 -79 -16 -156q0 -81 18 -132t48 -80t70 -39.5t85 -10.5
q40 0 84.5 11t90 33t90 55t85.5 77v-105q-35 -38 -78 -71t-92.5 -57t-105 -38t-115.5 -14q-93 0 -161 27.5t-112.5 75.5t-66.5 112t-22 137zM746 851q0 27 -8 52.5t-25.5 45.5t-44.5 32t-65 12q-66 0 -124 -32.5t-107 -87t-86.5 -125.5t-62.5 -148q147 1 247 20.5
t161.5 52.5t88 78.5t26.5 99.5zM651 1241q-24 0 -45 8.5t-37 24t-25.5 37.5t-9.5 48q0 19 8 42t25.5 42t44 32t62.5 13q24 0 45.5 -9t37 -24.5t25 -37.5t9.5 -48q0 -20 -8 -42t-25.5 -41.5t-44 -32t-62.5 -12.5z" />
    <glyph glyph-name="Eogonek" unicode="&#x118;" horiz-adv-x="1415" 
d="M788 845q30 0 58.5 9.5t54.5 30.5t49 55t42 83h74l-123 -456h-74q5 28 5 48q0 62 -31 96t-82 34h-426l-149 -558q-8 -27 -8 -47q0 -17 9 -27.5t32 -10.5h395q64 0 114.5 17t91.5 47.5t74 72.5t62 91h74l-118 -330h-1049l21 80h30q18 0 32 10t24.5 25.5t17.5 34.5t12 37
l292 1092q4 14 6.5 29.5t2.5 29.5q0 20 -8 34t-29 14h-30l21 80h579q42 0 99.5 0.5t119.5 3t123.5 7.5t110.5 13l-44 -324h-74q-3 51 -19.5 88.5t-44 62t-65 37t-80.5 12.5h-402q-36 0 -53 -25.5t-27 -61.5l-116 -434h426zM250 22h78q-15 -45 -22 -85.5t-7 -78.5
q0 -45 15.5 -76t41 -50t58.5 -27.5t68 -8.5q48 0 93 13t76 33v-69q-33 -31 -63 -50.5t-57 -31t-52 -15.5t-47 -4q-99 0 -159 55.5t-60 165.5q0 43 8.5 100t28.5 129z" />
    <glyph glyph-name="eogonek" unicode="&#x119;" horiz-adv-x="1053" 
d="M0 330q0 96 19.5 189t57.5 176.5t92.5 155t124 123t153.5 81t180 29.5q60 0 113.5 -15.5t93.5 -45t63.5 -72t23.5 -96.5q0 -48 -15 -92.5t-48.5 -83t-88.5 -70.5t-135.5 -54.5t-188.5 -35.5t-247 -14q-16 -79 -16 -156q0 -81 18 -132t48 -80t70 -39.5t85 -10.5
q40 0 84.5 11t90 33t90 55t85.5 77v-105q-35 -38 -78 -71t-92.5 -57t-105 -38t-115.5 -14q-93 0 -161 27.5t-112.5 75.5t-66.5 112t-22 137zM746 851q0 27 -8 52.5t-25.5 45.5t-44.5 32t-65 12q-66 0 -124 -32.5t-107 -87t-86.5 -125.5t-62.5 -148q147 1 247 20.5
t161.5 52.5t88 78.5t26.5 99.5zM207 22h78q-15 -45 -22 -85.5t-7 -78.5q0 -45 15.5 -76t41 -50t58.5 -27.5t68 -8.5q48 0 93 13t76 33v-69q-33 -31 -63 -50.5t-57 -31t-52 -15.5t-47 -4q-99 0 -159 55.5t-60 165.5q0 43 8.5 100t28.5 129z" />
    <glyph glyph-name="Ecaron" unicode="&#x11a;" horiz-adv-x="1415" 
d="M788 845q30 0 58.5 9.5t54.5 30.5t49 55t42 83h74l-123 -456h-74q5 28 5 48q0 62 -31 96t-82 34h-426l-149 -558q-8 -27 -8 -47q0 -17 9 -27.5t32 -10.5h395q64 0 114.5 17t91.5 47.5t74 72.5t62 91h74l-118 -330h-1049l21 80h30q18 0 32 10t24.5 25.5t17.5 34.5t12 37
l292 1092q4 14 6.5 29.5t2.5 29.5q0 20 -8 34t-29 14h-30l21 80h579q42 0 99.5 0.5t119.5 3t123.5 7.5t110.5 13l-44 -324h-74q-3 51 -19.5 88.5t-44 62t-65 37t-80.5 12.5h-402q-36 0 -53 -25.5t-27 -61.5l-116 -434h426zM812 1708l263 162h94l-298 -272h-192l-143 272h96z
" />
    <glyph glyph-name="ecaron" unicode="&#x11b;" horiz-adv-x="1053" 
d="M0 330q0 96 19.5 189t57.5 176.5t92.5 155t124 123t153.5 81t180 29.5q60 0 113.5 -15.5t93.5 -45t63.5 -72t23.5 -96.5q0 -48 -15 -92.5t-48.5 -83t-88.5 -70.5t-135.5 -54.5t-188.5 -35.5t-247 -14q-16 -79 -16 -156q0 -81 18 -132t48 -80t70 -39.5t85 -10.5
q40 0 84.5 11t90 33t90 55t85.5 77v-105q-35 -38 -78 -71t-92.5 -57t-105 -38t-115.5 -14q-93 0 -161 27.5t-112.5 75.5t-66.5 112t-22 137zM746 851q0 27 -8 52.5t-25.5 45.5t-44.5 32t-65 12q-66 0 -124 -32.5t-107 -87t-86.5 -125.5t-62.5 -148q147 1 247 20.5
t161.5 52.5t88 78.5t26.5 99.5zM651 1304l263 162h94l-298 -272h-192l-143 272h96z" />
    <glyph glyph-name="Gbreve" unicode="&#x11e;" horiz-adv-x="1583" 
d="M983 212l117 437q3 12 5 23.5t2 22.5q0 18 -8.5 29.5t-31.5 11.5h-109l27 100h438l-22 -80h-30q-18 0 -30.5 -5t-22 -17t-17 -33t-15.5 -52l-128 -479q-57 -43 -123 -78.5t-139.5 -61t-152 -39.5t-159.5 -14q-158 0 -272.5 40.5t-189 114t-110 177.5t-35.5 232
q0 120 27.5 237t80 222t128.5 194.5t174 154.5t216.5 102t255.5 37q71 0 139 -3.5t136.5 -7.5t138 -7.5t143.5 -3.5l-47 -298h-74q-14 43 -48.5 83.5t-88 72t-124 51t-155.5 19.5q-117 0 -214 -38t-174.5 -103t-136 -151.5t-97 -183.5t-58 -198.5t-19.5 -196.5
q0 -214 104 -323t322 -109q98 0 197 29t180 92zM1276 1870q-29 -68 -71.5 -116.5t-95.5 -80t-112.5 -46t-120.5 -14.5q-59 0 -106.5 15.5t-79 41.5t-45 60t-3.5 72q5 19 21.5 36.5t38 31t45 21.5t43.5 8q23 0 29 -14.5t7 -36.5t0.5 -48t10 -48t37.5 -36.5t81 -14.5
q33 0 68 8.5t68 28t62.5 52t50.5 80.5h72z" />
    <glyph glyph-name="gbreve" unicode="&#x11f;" horiz-adv-x="1143" 
d="M669 313q-49 -84 -96 -145t-96.5 -100t-104 -58t-117.5 -19q-54 0 -100.5 17t-81 54t-54 95.5t-19.5 141.5q0 78 18 167t55.5 176t95 167t135.5 141t177.5 97.5t221.5 36.5q137 0 208.5 -30t71.5 -96q0 -17 -3.5 -36t-8.5 -40l-204 -773q-33 -123 -91 -222t-137 -169
t-175.5 -107.5t-206.5 -37.5q-12 0 -36.5 1t-54.5 4t-62 7t-58 10t-43 14.5t-17 18.5q0 5 0.5 13t2.5 13l28 95q5 17 9.5 30t11 21.5t17 13t26.5 4.5q11 0 17 -11.5t12 -29t16.5 -37.5t29.5 -37.5t51 -29t82 -11.5q55 0 113 20t112 66.5t100 123.5t79 192l21 74
q12 42 27.5 88.5t27.5 86.5zM175 310q0 -40 6 -75t20.5 -61t38 -41t58.5 -15q72 0 140 48.5t127.5 133t109 199t86.5 246.5l40 144q7 22 7 44q0 16 -11 28t-30 20t-44.5 12t-55.5 4q-88 0 -159 -36t-125.5 -94.5t-94 -132.5t-64.5 -150.5t-37 -148.5t-12 -125zM1037 1466
q-29 -68 -71.5 -116.5t-95.5 -80t-112.5 -46t-120.5 -14.5q-59 0 -106.5 15.5t-79 41.5t-45 60t-3.5 72q5 19 21.5 36.5t38 31t45 21.5t43.5 8q23 0 29 -14.5t7 -36.5t0.5 -48t10 -48t37.5 -36.5t81 -14.5q33 0 68 8.5t68 28t62.5 52t50.5 80.5h72z" />
    <glyph glyph-name="Gcommaaccent" unicode="&#x122;" horiz-adv-x="1583" 
d="M983 212l117 437q3 12 5 23.5t2 22.5q0 18 -8.5 29.5t-31.5 11.5h-109l27 100h438l-22 -80h-30q-18 0 -30.5 -5t-22 -17t-17 -33t-15.5 -52l-128 -479q-57 -43 -123 -78.5t-139.5 -61t-152 -39.5t-159.5 -14q-158 0 -272.5 40.5t-189 114t-110 177.5t-35.5 232
q0 120 27.5 237t80 222t128.5 194.5t174 154.5t216.5 102t255.5 37q71 0 139 -3.5t136.5 -7.5t138 -7.5t143.5 -3.5l-47 -298h-74q-14 43 -48.5 83.5t-88 72t-124 51t-155.5 19.5q-117 0 -214 -38t-174.5 -103t-136 -151.5t-97 -183.5t-58 -198.5t-19.5 -196.5
q0 -214 104 -323t322 -109q98 0 197 29t180 92zM263 -572l18 65q63 15 99.5 45.5t36.5 72.5q0 13 -15.5 19.5t-33.5 16.5t-33.5 29.5t-15.5 57.5q0 33 12 60t32 46t46 29.5t54 10.5q61 0 89.5 -35t28.5 -86q0 -61 -23.5 -117t-65.5 -100t-100.5 -74t-128.5 -40z" />
    <glyph glyph-name="gcommaaccent" unicode="&#x123;" horiz-adv-x="1143" 
d="M669 313q-49 -84 -96 -145t-96.5 -100t-104 -58t-117.5 -19q-54 0 -100.5 17t-81 54t-54 95.5t-19.5 141.5q0 78 18 167t55.5 176t95 167t135.5 141t177.5 97.5t221.5 36.5q137 0 208.5 -30t71.5 -96q0 -17 -3.5 -36t-8.5 -40l-204 -773q-33 -123 -91 -222t-137 -169
t-175.5 -107.5t-206.5 -37.5q-12 0 -36.5 1t-54.5 4t-62 7t-58 10t-43 14.5t-17 18.5q0 5 0.5 13t2.5 13l28 95q5 17 9.5 30t11 21.5t17 13t26.5 4.5q11 0 17 -11.5t12 -29t16.5 -37.5t29.5 -37.5t51 -29t82 -11.5q55 0 113 20t112 66.5t100 123.5t79 192l21 74
q12 42 27.5 88.5t27.5 86.5zM175 310q0 -40 6 -75t20.5 -61t38 -41t58.5 -15q72 0 140 48.5t127.5 133t109 199t86.5 246.5l40 144q7 22 7 44q0 16 -11 28t-30 20t-44.5 12t-55.5 4q-88 0 -159 -36t-125.5 -94.5t-94 -132.5t-64.5 -150.5t-37 -148.5t-12 -125z
M910.997 1616.96l-17.999 -64.9961q-62.9961 -14.999 -99.4941 -45.4971q-36.4971 -30.498 -36.4971 -72.4951q0 -13 15.499 -19.499q15.499 -6.5 33.498 -16.499q17.998 -9.99902 33.498 -29.498q15.499 -19.499 15.499 -57.4971q0 -32.998 -12 -59.9961
q-11.999 -26.998 -31.998 -45.9971q-19.998 -18.999 -45.9971 -29.498q-25.998 -10.5 -53.9961 -10.5q-60.9971 0 -89.4951 34.998t-28.498 85.9951q0 60.9961 23.498 116.993q23.499 55.9961 65.4961 99.9932q41.998 43.998 100.494 73.9961t128.492 39.9971z" />
    <glyph glyph-name="Imacron" unicode="&#x12a;" horiz-adv-x="686" 
d="M292 1279q12 45 12 68t-10 31t-30 8h-30l21 80h359l-21 -80h-29q-15 0 -27 -4.5t-22 -16t-19 -32.5t-18 -54l-292 -1092q-12 -45 -12 -68t10 -31t30 -8h29l-21 -80h-359l21 80h30q15 0 26.5 4.5t22 16t19.5 32.5t18 54zM208 1607l22 80h524l-22 -80h-524z" />
    <glyph glyph-name="imacron" unicode="&#x12b;" horiz-adv-x="568" 
d="M174 888q6 21 8.5 36.5t2.5 26.5q0 21 -9.5 28.5t-27.5 7.5h-28l20 75h253l-200 -740q-4 -14 -9 -32.5t-9.5 -38t-7.5 -40t-3 -38.5q0 -39 14.5 -56.5t37.5 -17.5q21 0 48 13t54.5 35t54.5 52t48 64v-105q-67 -93 -133 -136.5t-138 -43.5q-81 0 -120.5 44.5t-39.5 126.5
q0 60 21 138zM73 1236l22 80h524l-22 -80h-524z" />
    <glyph glyph-name="Iogonek" unicode="&#x12e;" horiz-adv-x="686" 
d="M292 1279q12 45 12 68t-10 31t-30 8h-30l21 80h359l-21 -80h-29q-15 0 -27 -4.5t-22 -16t-19 -32.5t-18 -54l-292 -1092q-12 -45 -12 -68t10 -31t30 -8h29l-21 -80h-359l21 80h30q15 0 26.5 4.5t22 16t19.5 32.5t18 54zM-64 22h78q-15 -45 -22 -85.5t-7 -78.5
q0 -45 15.5 -76t41 -50t58.5 -27.5t68 -8.5q48 0 93 13t76 33v-69q-33 -31 -63 -50.5t-57 -31t-52 -15.5t-47 -4q-99 0 -159 55.5t-60 165.5q0 43 8.5 100t28.5 129z" />
    <glyph glyph-name="iogonek" unicode="&#x12f;" horiz-adv-x="568" 
d="M174 888q6 21 8.5 36.5t2.5 26.5q0 21 -9.5 28.5t-27.5 7.5h-28l20 75h253l-200 -740q-4 -14 -9 -32.5t-9.5 -38t-7.5 -40t-3 -38.5q0 -39 14.5 -56.5t37.5 -17.5q21 0 48 13t54.5 35t54.5 52t48 64v-105q-67 -93 -133 -136.5t-138 -43.5q-81 0 -120.5 44.5t-39.5 126.5
q0 60 21 138zM361 1241q-24 0 -45 8.5t-37 24t-25.5 37.5t-9.5 48q0 19 8 42t25.5 42t44 32t62.5 13q24 0 45.5 -9t37 -24.5t25 -37.5t9.5 -48q0 -20 -8 -42t-25.5 -41.5t-44 -32t-62.5 -12.5zM54 22h78q-15 -45 -22 -85.5t-7 -78.5q0 -45 15.5 -76t41 -50t58.5 -27.5
t68 -8.5q48 0 93 13t76 33v-69q-33 -31 -63 -50.5t-57 -31t-52 -15.5t-47 -4q-99 0 -159 55.5t-60 165.5q0 43 8.5 100t28.5 129z" />
    <glyph glyph-name="Idotaccent" unicode="&#x130;" horiz-adv-x="686" 
d="M292 1279q12 45 12 68t-10 31t-30 8h-30l21 80h359l-21 -80h-29q-15 0 -27 -4.5t-22 -16t-19 -32.5t-18 -54l-292 -1092q-12 -45 -12 -68t10 -31t30 -8h29l-21 -80h-359l21 80h30q15 0 26.5 4.5t22 16t19.5 32.5t18 54zM503 1645q-24 0 -45 8.5t-37 24t-25.5 37.5
t-9.5 48q0 19 8 42t25.5 42t44 32t62.5 13q24 0 45.5 -9t37 -24.5t25 -37.5t9.5 -48q0 -20 -8 -42t-25.5 -41.5t-44 -32t-62.5 -12.5z" />
    <glyph glyph-name="dotlessi" unicode="&#x131;" horiz-adv-x="568" 
d="M174 888q6 21 8.5 36.5t2.5 26.5q0 21 -9.5 28.5t-27.5 7.5h-28l20 75h253l-200 -740q-4 -14 -9 -32.5t-9.5 -38t-7.5 -40t-3 -38.5q0 -39 14.5 -56.5t37.5 -17.5q21 0 48 13t54.5 35t54.5 52t48 64v-105q-67 -93 -133 -136.5t-138 -43.5q-81 0 -120.5 44.5t-39.5 126.5
q0 60 21 138z" />
    <glyph glyph-name="Kcommaaccent" unicode="&#x136;" horiz-adv-x="1485" 
d="M860 147q0 25 -5 67.5t-18 95t-35 113t-57.5 122.5t-85 123.5t-116.5 115.5q-54 -19 -107 -29t-101 -10l-149 -558q-12 -45 -12 -68t10 -31t30 -8h29l-21 -80h-359l21 80h30q15 0 26.5 4.5t22 16t19.5 32.5t18 54l292 1092q12 45 12 68t-10 31t-30 8h-30l21 80h359
l-21 -80h-29q-15 0 -27 -4.5t-22 -16t-19 -32.5t-18 -54l-116 -434q96 0 181 30t166 85q106 73 180.5 134.5t121.5 111t68 86t21 59.5q0 35 -43 35h-41l21 80h429l-21 -80h-35q-34 0 -66.5 -17.5t-70 -49t-84 -76.5t-109 -100.5t-143.5 -120t-187 -135.5q-12 -8 -24.5 -15.5
t-25.5 -15.5q65 -55 115.5 -119t89 -130.5t65 -133t43.5 -127t25.5 -112t11.5 -87.5q0 -7 2.5 -18t8.5 -22t15.5 -19t24.5 -8h29l-21 -80h-344l21 80h30q15 0 23 3.5t12.5 11.5t6 20.5t2.5 31.5zM204 -572l18 65q63 15 99.5 45.5t36.5 72.5q0 13 -15.5 19.5t-33.5 16.5
t-33.5 29.5t-15.5 57.5q0 33 12 60t32 46t46 29.5t54 10.5q61 0 89.5 -35t28.5 -86q0 -61 -23.5 -117t-65.5 -100t-100.5 -74t-128.5 -40z" />
    <glyph glyph-name="kcommaaccent" unicode="&#x137;" horiz-adv-x="1148" 
d="M290 1292q5 21 8 36.5t3 26.5q0 21 -9.5 28.5t-27.5 7.5h-28l20 75h253l-134 -497q-3 -10 -9.5 -31t-15.5 -48t-19.5 -56t-21.5 -56q43 70 95.5 126.5t112.5 96.5t126.5 61.5t138.5 21.5q52 0 92.5 -13t68.5 -37t43 -57.5t15 -73.5q0 -54 -24.5 -108.5t-76 -101.5
t-130.5 -83.5t-188 -54.5q58 -30 85.5 -78t37 -101.5t9.5 -107t3 -96.5q3 -41 17.5 -57t42.5 -16q23 0 49 13t52 35t52 52t49 64v-105q-61 -85 -128 -132.5t-137 -47.5q-87 0 -131.5 52t-44.5 163q0 26 1.5 57.5t1.5 64.5q0 37 -4 73.5t-17 67.5t-36 53t-62 30l2 1h-36
l25 73q117 4 197 30t129 63t70 80.5t21 81.5q0 50 -32.5 71.5t-92.5 21.5q-72 0 -142.5 -37t-136 -117.5t-124.5 -208.5t-109 -311l-76 -287h-173zM41 -572l18 65q63 15 99.5 45.5t36.5 72.5q0 13 -15.5 19.5t-33.5 16.5t-33.5 29.5t-15.5 57.5q0 33 12 60t32 46t46 29.5
t54 10.5q61 0 89.5 -35t28.5 -86q0 -61 -23.5 -117t-65.5 -100t-100.5 -74t-128.5 -40z" />
    <glyph glyph-name="Lacute" unicode="&#x139;" horiz-adv-x="1202" 
d="M594 1386h-30q-18 0 -32 -10t-24.5 -25.5t-17.5 -34.5t-12 -37l-292 -1092q-8 -29 -8 -48q0 -18 8.5 -28.5t31.5 -10.5h372q43 0 87.5 14t86 40.5t79 65.5t67.5 90h74l-123 -310h-998l21 80h30q18 0 32 10t24.5 25.5t17.5 34.5t12 37l292 1092q4 14 6.5 29.5t2.5 29.5
q0 20 -8 34t-29 14h-30l21 80h360zM506 1870h223l-276 -289h-105z" />
    <glyph glyph-name="lacute" unicode="&#x13a;" horiz-adv-x="580" 
d="M295 1292q6 21 8.5 36.5t2.5 26.5q0 21 -9.5 28.5t-27.5 7.5h-28l20 75h253l-318 -1144q-15 -55 -22.5 -94t-7.5 -66q0 -35 16 -49t39 -14q21 0 47.5 13t54 35.5t54 52.5t47.5 63v-105q-67 -93 -133 -136.5t-138 -43.5q-79 0 -120.5 44t-41.5 119q0 18 2.5 40.5t7 46
t10 45.5t10.5 40zM468 1853h223l-276 -289h-105z" />
    <glyph glyph-name="Lcommaaccent" unicode="&#x13b;" horiz-adv-x="1202" 
d="M594 1386h-30q-18 0 -32 -10t-24.5 -25.5t-17.5 -34.5t-12 -37l-292 -1092q-8 -29 -8 -48q0 -18 8.5 -28.5t31.5 -10.5h372q43 0 87.5 14t86 40.5t79 65.5t67.5 90h74l-123 -310h-998l21 80h30q18 0 32 10t24.5 25.5t17.5 34.5t12 37l292 1092q4 14 6.5 29.5t2.5 29.5
q0 20 -8 34t-29 14h-30l21 80h360zM117 -572l18 65q63 15 99.5 45.5t36.5 72.5q0 13 -15.5 19.5t-33.5 16.5t-33.5 29.5t-15.5 57.5q0 33 12 60t32 46t46 29.5t54 10.5q61 0 89.5 -35t28.5 -86q0 -61 -23.5 -117t-65.5 -100t-100.5 -74t-128.5 -40z" />
    <glyph glyph-name="lcommaaccent" unicode="&#x13c;" horiz-adv-x="580" 
d="M295 1292q6 21 8.5 36.5t2.5 26.5q0 21 -9.5 28.5t-27.5 7.5h-28l20 75h253l-318 -1144q-15 -55 -22.5 -94t-7.5 -66q0 -35 16 -49t39 -14q21 0 47.5 13t54 35.5t54 52.5t47.5 63v-105q-67 -93 -133 -136.5t-138 -43.5q-79 0 -120.5 44t-41.5 119q0 18 2.5 40.5t7 46
t10 45.5t10.5 40zM-185 -572l18 65q63 15 99.5 45.5t36.5 72.5q0 13 -15.5 19.5t-33.5 16.5t-33.5 29.5t-15.5 57.5q0 33 12 60t32 46t46 29.5t54 10.5q61 0 89.5 -35t28.5 -86q0 -61 -23.5 -117t-65.5 -100t-100.5 -74t-128.5 -40z" />
    <glyph glyph-name="Lcaron" unicode="&#x13d;" horiz-adv-x="1202" 
d="M594 1386h-30q-18 0 -32 -10t-24.5 -25.5t-17.5 -34.5t-12 -37l-292 -1092q-8 -29 -8 -48q0 -18 8.5 -28.5t31.5 -10.5h372q43 0 87.5 14t86 40.5t79 65.5t67.5 90h74l-123 -310h-998l21 80h30q18 0 32 10t24.5 25.5t17.5 34.5t12 37l292 1092q4 14 6.5 29.5t2.5 29.5
q0 20 -8 34t-29 14h-30l21 80h360zM507 1708l263 162h94l-298 -272h-192l-143 272h96z" />
    <glyph glyph-name="lcaron" unicode="&#x13e;" horiz-adv-x="807" 
d="M295 1292q6 21 8.5 36.5t2.5 26.5q0 21 -9.5 28.5t-27.5 7.5h-28l20 75h253l-318 -1144q-15 -55 -22.5 -94t-7.5 -66q0 -35 16 -49t39 -14q21 0 47.5 13t54 35.5t54 52.5t47.5 63v-105q-67 -93 -133 -136.5t-138 -43.5q-79 0 -120.5 44t-41.5 119q0 18 2.5 40.5t7 46
t10 45.5t10.5 40zM559 1036l18 65q63 15 99.5 45.5t36.5 72.5q0 13 -15.5 19.5t-33.5 16.5t-33.5 29.5t-15.5 57.5q0 33 12 60t32 46t46 29.5t54 10.5q61 0 89.5 -35t28.5 -86q0 -61 -23.5 -117t-65.5 -100t-100.5 -74t-128.5 -40z" />
    <glyph glyph-name="Lslash" unicode="&#x141;" horiz-adv-x="1143" 
d="M594 1386h-30q-18 0 -32 -10t-24.5 -25.5t-17.5 -34.5t-12 -37l-107 -400l188 124l-31 -117l-188 -123l-154 -576q-8 -29 -8 -48q0 -18 8.5 -28.5t31.5 -10.5h372q43 0 87.5 14t86 40.5t79 65.5t67.5 90h74l-123 -310h-998l21 80h30q18 0 32 10t24.5 25.5t17.5 34.5
t12 37l115 429l-183 -119l30 112l183 121l147 549q4 14 6.5 29.5t2.5 29.5q0 20 -8 34t-29 14h-30l21 80h360z" />
    <glyph glyph-name="lslash" unicode="&#x142;" horiz-adv-x="580" 
d="M295 1292q6 21 8.5 36.5t2.5 26.5q0 21 -9.5 28.5t-27.5 7.5h-28l20 75h253l-171 -615l169 112l-32 -117l-169 -111l-115 -413q-15 -55 -22.5 -94t-7.5 -66q0 -35 16 -49t39 -14q21 0 47.5 13t54 35.5t54 52.5t47.5 63v-105q-67 -93 -133 -136.5t-138 -43.5
q-79 0 -120.5 44t-41.5 119q0 18 2.5 40.5t7 46t10 45.5t10.5 40l80 285l-156 -101l30 112l158 104z" />
    <glyph glyph-name="Nacute" unicode="&#x143;" horiz-adv-x="1580" 
d="M906 0q-19 131 -53 263t-77 258.5t-92 244t-98 219t-95 183t-83 136.5l-248 -926q-25 -92 -37 -149t-12 -90q0 -35 14 -47t42 -12h31l-21 -80h-349l21 80h35q26 0 45.5 11.5t38 43.5t37.5 90.5t45 153.5l242 903q7 25 7 46q0 30 -15 44t-41 14h-30l21 80h263
q29 -33 65.5 -88t75.5 -125.5t79.5 -152t78.5 -168t72 -174t60.5 -169t43 -154t20.5 -128.5q3 14 6 31t6.5 33t6.5 29.5t5 20.5l179 667q24 91 36.5 148.5t12.5 90.5q0 35 -14 47t-42 12h-31l21 80h349l-21 -80h-35q-27 0 -47 -11.5t-38 -43.5t-36.5 -91t-43.5 -153
l-291 -1087h-109zM882 1870h223l-276 -289h-105z" />
    <glyph glyph-name="nacute" unicode="&#x144;" horiz-adv-x="1177" 
d="M181 888q5 21 8 36.5t3 26.5q0 21 -9.5 28.5t-27.5 7.5h-28l20 75h244l-83 -294q89 166 194 241t211 75q121 0 176.5 -54.5t55.5 -151.5q0 -67 -24 -149l-119 -407q-8 -29 -18.5 -70.5t-10.5 -78.5q0 -40 14 -58t40 -18q21 0 47.5 13.5t54 36t54 52.5t47.5 64v-105
q-67 -93 -133 -136.5t-138 -43.5q-34 0 -63.5 10.5t-51 31t-34 51t-12.5 70.5q0 43 7 84t19 81l123 417q11 37 16.5 67.5t5.5 55.5q0 111 -116 111q-47 0 -107 -37t-122.5 -117.5t-122.5 -208t-108 -307.5l-76 -287h-173zM623 1466h223l-276 -289h-105z" />
    <glyph glyph-name="Ncommaaccent" unicode="&#x145;" horiz-adv-x="1580" 
d="M906 0q-19 131 -53 263t-77 258.5t-92 244t-98 219t-95 183t-83 136.5l-248 -926q-25 -92 -37 -149t-12 -90q0 -35 14 -47t42 -12h31l-21 -80h-349l21 80h35q26 0 45.5 11.5t38 43.5t37.5 90.5t45 153.5l242 903q7 25 7 46q0 30 -15 44t-41 14h-30l21 80h263
q29 -33 65.5 -88t75.5 -125.5t79.5 -152t78.5 -168t72 -174t60.5 -169t43 -154t20.5 -128.5q3 14 6 31t6.5 33t6.5 29.5t5 20.5l179 667q24 91 36.5 148.5t12.5 90.5q0 35 -14 47t-42 12h-31l21 80h349l-21 -80h-35q-27 0 -47 -11.5t-38 -43.5t-36.5 -91t-43.5 -153
l-291 -1087h-109zM229 -572l18 65q63 15 99.5 45.5t36.5 72.5q0 13 -15.5 19.5t-33.5 16.5t-33.5 29.5t-15.5 57.5q0 33 12 60t32 46t46 29.5t54 10.5q61 0 89.5 -35t28.5 -86q0 -61 -23.5 -117t-65.5 -100t-100.5 -74t-128.5 -40z" />
    <glyph glyph-name="ncommaaccent" unicode="&#x146;" horiz-adv-x="1177" 
d="M181 888q5 21 8 36.5t3 26.5q0 21 -9.5 28.5t-27.5 7.5h-28l20 75h244l-83 -294q89 166 194 241t211 75q121 0 176.5 -54.5t55.5 -151.5q0 -67 -24 -149l-119 -407q-8 -29 -18.5 -70.5t-10.5 -78.5q0 -40 14 -58t40 -18q21 0 47.5 13.5t54 36t54 52.5t47.5 64v-105
q-67 -93 -133 -136.5t-138 -43.5q-34 0 -63.5 10.5t-51 31t-34 51t-12.5 70.5q0 43 7 84t19 81l123 417q11 37 16.5 67.5t5.5 55.5q0 111 -116 111q-47 0 -107 -37t-122.5 -117.5t-122.5 -208t-108 -307.5l-76 -287h-173zM77 -572l18 65q63 15 99.5 45.5t36.5 72.5
q0 13 -15.5 19.5t-33.5 16.5t-33.5 29.5t-15.5 57.5q0 33 12 60t32 46t46 29.5t54 10.5q61 0 89.5 -35t28.5 -86q0 -61 -23.5 -117t-65.5 -100t-100.5 -74t-128.5 -40z" />
    <glyph glyph-name="Ncaron" unicode="&#x147;" horiz-adv-x="1580" 
d="M906 0q-19 131 -53 263t-77 258.5t-92 244t-98 219t-95 183t-83 136.5l-248 -926q-25 -92 -37 -149t-12 -90q0 -35 14 -47t42 -12h31l-21 -80h-349l21 80h35q26 0 45.5 11.5t38 43.5t37.5 90.5t45 153.5l242 903q7 25 7 46q0 30 -15 44t-41 14h-30l21 80h263
q29 -33 65.5 -88t75.5 -125.5t79.5 -152t78.5 -168t72 -174t60.5 -169t43 -154t20.5 -128.5q3 14 6 31t6.5 33t6.5 29.5t5 20.5l179 667q24 91 36.5 148.5t12.5 90.5q0 35 -14 47t-42 12h-31l21 80h349l-21 -80h-35q-27 0 -47 -11.5t-38 -43.5t-36.5 -91t-43.5 -153
l-291 -1087h-109zM906 1708l263 162h94l-298 -272h-192l-143 272h96z" />
    <glyph glyph-name="ncaron" unicode="&#x148;" horiz-adv-x="1177" 
d="M181 888q5 21 8 36.5t3 26.5q0 21 -9.5 28.5t-27.5 7.5h-28l20 75h244l-83 -294q89 166 194 241t211 75q121 0 176.5 -54.5t55.5 -151.5q0 -67 -24 -149l-119 -407q-8 -29 -18.5 -70.5t-10.5 -78.5q0 -40 14 -58t40 -18q21 0 47.5 13.5t54 36t54 52.5t47.5 64v-105
q-67 -93 -133 -136.5t-138 -43.5q-34 0 -63.5 10.5t-51 31t-34 51t-12.5 70.5q0 43 7 84t19 81l123 417q11 37 16.5 67.5t5.5 55.5q0 111 -116 111q-47 0 -107 -37t-122.5 -117.5t-122.5 -208t-108 -307.5l-76 -287h-173zM626 1304l263 162h94l-298 -272h-192l-143 272h96z
" />
    <glyph glyph-name="Omacron" unicode="&#x14c;" horiz-adv-x="1595" 
d="M-20 494v27q0 130 28 252t80.5 229.5t128 196.5t171 153.5t209.5 100t243 35.5q141 0 249 -36.5t181 -104.5t110 -166.5t37 -222.5q0 -130 -28 -253.5t-80.5 -232.5t-128 -199.5t-171.5 -156t-211 -102t-246 -36.5q-135 0 -240 35.5t-177.5 102.5t-112 162.5t-42.5 215.5
zM847 1392q-107 0 -199 -38.5t-167.5 -105.5t-134.5 -156t-99 -189.5t-60.5 -208t-20.5 -209.5q0 -87 21.5 -162t68 -130.5t120 -87t177.5 -31.5q102 0 191.5 37t164.5 101.5t134.5 152t100.5 188t63 210t22 217.5q0 86 -21.5 161t-67.5 131t-118.5 88t-174.5 32zM671 1607
l22 80h524l-22 -80h-524z" />
    <glyph glyph-name="omacron" unicode="&#x14d;" horiz-adv-x="1094" 
d="M1 353q0 77 16.5 161.5t48.5 166t79.5 154.5t110 128.5t140 88t169.5 32.5q91 0 157 -28t109 -79t63.5 -123t20.5 -160q0 -77 -16 -160t-48 -163t-80 -151t-111 -125t-141 -85.5t-171 -31.5q-86 0 -149.5 25t-106.5 71t-65.5 111t-25.5 145v23zM568 994q-58 0 -110 -33
t-96 -87.5t-79.5 -126.5t-60.5 -149.5t-38.5 -156t-13.5 -146.5q0 -51 9 -93t30 -71.5t55 -46t85 -16.5q58 0 110.5 32.5t96.5 87t79 126t59.5 149t37.5 155.5t13 147q0 51 -9 93.5t-29.5 72.5t-54.5 46.5t-84 16.5zM377 1236l22 80h524l-22 -80h-524z" />
    <glyph glyph-name="Ohungarumlaut" unicode="&#x150;" horiz-adv-x="1595" 
d="M-20 494v27q0 130 28 252t80.5 229.5t128 196.5t171 153.5t209.5 100t243 35.5q141 0 249 -36.5t181 -104.5t110 -166.5t37 -222.5q0 -130 -28 -253.5t-80.5 -232.5t-128 -199.5t-171.5 -156t-211 -102t-246 -36.5q-135 0 -240 35.5t-177.5 102.5t-112 162.5t-42.5 215.5
zM847 1392q-107 0 -199 -38.5t-167.5 -105.5t-134.5 -156t-99 -189.5t-60.5 -208t-20.5 -209.5q0 -87 21.5 -162t68 -130.5t120 -87t177.5 -31.5q102 0 191.5 37t164.5 101.5t134.5 152t100.5 188t63 210t22 217.5q0 86 -21.5 161t-67.5 131t-118.5 88t-174.5 32zM777 1870
h223l-277 -289h-104zM1075 1870h223l-277 -289h-104z" />
    <glyph glyph-name="ohungarumlaut" unicode="&#x151;" horiz-adv-x="1094" 
d="M1 353q0 77 16.5 161.5t48.5 166t79.5 154.5t110 128.5t140 88t169.5 32.5q91 0 157 -28t109 -79t63.5 -123t20.5 -160q0 -77 -16 -160t-48 -163t-80 -151t-111 -125t-141 -85.5t-171 -31.5q-86 0 -149.5 25t-106.5 71t-65.5 111t-25.5 145v23zM568 994q-58 0 -110 -33
t-96 -87.5t-79.5 -126.5t-60.5 -149.5t-38.5 -156t-13.5 -146.5q0 -51 9 -93t30 -71.5t55 -46t85 -16.5q58 0 110.5 32.5t96.5 87t79 126t59.5 149t37.5 155.5t13 147q0 51 -9 93.5t-29.5 72.5t-54.5 46.5t-84 16.5zM485 1466h223l-277 -289h-104zM783 1466h223l-277 -289
h-104z" />
    <glyph glyph-name="OE" unicode="&#x152;" horiz-adv-x="2302" 
d="M1445 1366q-37 0 -53 -25.5t-26 -61.5l-119 -443h426q30 0 58 9t54 29.5t49 53.5t42 82h74l-123 -456h-74q5 28 5 49q0 62 -31 97.5t-81 35.5h-426l-150 -561q-3 -10 -4 -18.5t-1 -16.5q0 -17 9 -27.5t32 -10.5h395q64 0 113.5 14t89.5 41t72.5 65.5t61.5 87.5h74
l-113 -310h-1286q-137 0 -238 37t-167 103t-98.5 157.5t-32.5 199.5q0 112 33 237q42 159 124 297t197.5 239.5t262 159.5t318.5 58q49 0 108 -3.5t121 -7.5t122.5 -7.5t111.5 -3.5h347q42 0 99 0.5t119.5 3t123.5 7.5t110 13l-44 -324h-74q-3 51 -19.5 88.5t-44 62t-65 37
t-80.5 12.5h-402zM1189 1315q1 2 1 6v6q0 40 -58 51.5t-167 11.5q-139 0 -257.5 -40.5t-214.5 -122t-167.5 -204.5t-115.5 -289q-39 -146 -39 -257q0 -190 106 -283.5t303 -93.5h202q24 0 40 1.5t27.5 8.5t19 21.5t14.5 40.5z" />
    <glyph glyph-name="oe" unicode="&#x153;" horiz-adv-x="1747" 
d="M0 353q0 77 16.5 161.5t48.5 166t79.5 154.5t110 128.5t140 88t169.5 32.5q128 0 207.5 -58.5t110.5 -167.5q89 115 196 170.5t243 55.5q60 0 113.5 -15.5t93.5 -45t63.5 -72t23.5 -96.5q0 -48 -15 -92.5t-48.5 -83t-88.5 -70.5t-135.5 -54.5t-188.5 -35.5t-247 -14
q-16 -79 -16 -156q0 -81 18 -132t48 -80t70 -39.5t85 -10.5q40 0 84.5 11t90 33t90 55t85.5 77v-105q-35 -38 -78 -71t-92.5 -57t-105 -38t-115.5 -14q-129 0 -212.5 55.5t-116.5 150.5q-32 -47 -73 -85t-89 -65t-103 -41.5t-115 -14.5q-90 0 -155.5 28.5t-108 78.5
t-63 118.5t-20.5 149.5zM567 994q-58 0 -110 -33t-96 -87.5t-79.5 -126.5t-60.5 -149.5t-38.5 -156t-13.5 -146.5q0 -51 9 -93t30 -71.5t55 -46t85 -16.5q58 0 110.5 32.5t96.5 87t79 126t59.5 149t37.5 156t13 146.5q0 51 -9 93.5t-29.5 72.5t-54.5 46.5t-84 16.5z
M1440 851q0 27 -8 52.5t-25.5 45.5t-44.5 32t-65 12q-66 0 -124 -32.5t-107 -87t-86.5 -125.5t-62.5 -148q147 1 247 20.5t161.5 52.5t88 78.5t26.5 99.5z" />
    <glyph glyph-name="Racute" unicode="&#x154;" horiz-adv-x="1484" 
d="M1024 174q6 -30 10 -48.5t9 -28.5t12.5 -13.5t22.5 -3.5h45l-21 -80h-242v10q0 51 -12 120t-35.5 143.5t-59.5 149t-84 136.5t-109 105.5t-134 55.5l31 109q23 -8 49.5 -18.5t57 -19.5t65.5 -15t75 -6q64 0 124 12.5t110 45t87.5 89t57.5 144.5q12 52 12 98
q0 118 -79 175.5t-227 57.5q-74 0 -128 -3t-90.5 -11.5t-57 -24t-27.5 -40.5l-301 -1126q-12 -45 -12 -68t10 -31t30 -8h30l-21 -80h-359l21 80h29q15 0 26.5 4.5t22 16t19.5 32.5t18 54l292 1092q13 46 13 71q0 21 -10 28.5t-31 7.5h-30l21 80q84 0 149.5 1.5t118.5 4
t97 5.5t85.5 5.5t84 4t92.5 1.5q109 0 187.5 -27.5t128.5 -73.5t73.5 -106t23.5 -126q0 -52 -14 -106q-28 -106 -76 -175.5t-113 -112t-147 -62t-178 -25.5q42 -29 76.5 -70t61.5 -88.5t47 -98t34.5 -96.5t24 -84.5t14.5 -62.5zM857 1870h223l-276 -289h-105z" />
    <glyph glyph-name="racute" unicode="&#x155;" horiz-adv-x="930" 
d="M653 957q-47 0 -107 -37t-122.5 -117.5t-122.5 -208t-108 -307.5l-76 -287h-173l238 888q5 21 8 36.5t3 26.5q0 21 -9.5 28.5t-27.5 7.5h-28l20 75h233l-88 -313q47 87 99 150t106.5 104.5t109.5 61t109 19.5q17 0 47.5 -1t60.5 -7t52 -18.5t22 -35.5q0 -10 -3 -20
l-32 -120q-9 -35 -21 -52t-43 -17q-13 0 -18.5 10.5t-9.5 26.5t-9.5 35t-17.5 35t-33.5 26.5t-58.5 10.5zM559 1466h223l-276 -289h-105z" />
    <glyph glyph-name="Rcommaaccent" unicode="&#x156;" horiz-adv-x="1484" 
d="M1024 174q6 -30 10 -48.5t9 -28.5t12.5 -13.5t22.5 -3.5h45l-21 -80h-242v10q0 51 -12 120t-35.5 143.5t-59.5 149t-84 136.5t-109 105.5t-134 55.5l31 109q23 -8 49.5 -18.5t57 -19.5t65.5 -15t75 -6q64 0 124 12.5t110 45t87.5 89t57.5 144.5q12 52 12 98
q0 118 -79 175.5t-227 57.5q-74 0 -128 -3t-90.5 -11.5t-57 -24t-27.5 -40.5l-301 -1126q-12 -45 -12 -68t10 -31t30 -8h30l-21 -80h-359l21 80h29q15 0 26.5 4.5t22 16t19.5 32.5t18 54l292 1092q13 46 13 71q0 21 -10 28.5t-31 7.5h-30l21 80q84 0 149.5 1.5t118.5 4
t97 5.5t85.5 5.5t84 4t92.5 1.5q109 0 187.5 -27.5t128.5 -73.5t73.5 -106t23.5 -126q0 -52 -14 -106q-28 -106 -76 -175.5t-113 -112t-147 -62t-178 -25.5q42 -29 76.5 -70t61.5 -88.5t47 -98t34.5 -96.5t24 -84.5t14.5 -62.5zM218 -572l18 65q63 15 99.5 45.5t36.5 72.5
q0 13 -15.5 19.5t-33.5 16.5t-33.5 29.5t-15.5 57.5q0 33 12 60t32 46t46 29.5t54 10.5q61 0 89.5 -35t28.5 -86q0 -61 -23.5 -117t-65.5 -100t-100.5 -74t-128.5 -40z" />
    <glyph glyph-name="rcommaaccent" unicode="&#x157;" horiz-adv-x="930" 
d="M653 957q-47 0 -107 -37t-122.5 -117.5t-122.5 -208t-108 -307.5l-76 -287h-173l238 888q5 21 8 36.5t3 26.5q0 21 -9.5 28.5t-27.5 7.5h-28l20 75h233l-88 -313q47 87 99 150t106.5 104.5t109.5 61t109 19.5q17 0 47.5 -1t60.5 -7t52 -18.5t22 -35.5q0 -10 -3 -20
l-32 -120q-9 -35 -21 -52t-43 -17q-13 0 -18.5 10.5t-9.5 26.5t-9.5 35t-17.5 35t-33.5 26.5t-58.5 10.5zM-214 -572l18 65q63 15 99.5 45.5t36.5 72.5q0 13 -15.5 19.5t-33.5 16.5t-33.5 29.5t-15.5 57.5q0 33 12 60t32 46t46 29.5t54 10.5q61 0 89.5 -35t28.5 -86
q0 -61 -23.5 -117t-65.5 -100t-100.5 -74t-128.5 -40z" />
    <glyph glyph-name="Rcaron" unicode="&#x158;" horiz-adv-x="1484" 
d="M1024 174q6 -30 10 -48.5t9 -28.5t12.5 -13.5t22.5 -3.5h45l-21 -80h-242v10q0 51 -12 120t-35.5 143.5t-59.5 149t-84 136.5t-109 105.5t-134 55.5l31 109q23 -8 49.5 -18.5t57 -19.5t65.5 -15t75 -6q64 0 124 12.5t110 45t87.5 89t57.5 144.5q12 52 12 98
q0 118 -79 175.5t-227 57.5q-74 0 -128 -3t-90.5 -11.5t-57 -24t-27.5 -40.5l-301 -1126q-12 -45 -12 -68t10 -31t30 -8h30l-21 -80h-359l21 80h29q15 0 26.5 4.5t22 16t19.5 32.5t18 54l292 1092q13 46 13 71q0 21 -10 28.5t-31 7.5h-30l21 80q84 0 149.5 1.5t118.5 4
t97 5.5t85.5 5.5t84 4t92.5 1.5q109 0 187.5 -27.5t128.5 -73.5t73.5 -106t23.5 -126q0 -52 -14 -106q-28 -106 -76 -175.5t-113 -112t-147 -62t-178 -25.5q42 -29 76.5 -70t61.5 -88.5t47 -98t34.5 -96.5t24 -84.5t14.5 -62.5zM815 1708l263 162h94l-298 -272h-192
l-143 272h96z" />
    <glyph glyph-name="rcaron" unicode="&#x159;" horiz-adv-x="930" 
d="M653 957q-47 0 -107 -37t-122.5 -117.5t-122.5 -208t-108 -307.5l-76 -287h-173l238 888q5 21 8 36.5t3 26.5q0 21 -9.5 28.5t-27.5 7.5h-28l20 75h233l-88 -313q47 87 99 150t106.5 104.5t109.5 61t109 19.5q17 0 47.5 -1t60.5 -7t52 -18.5t22 -35.5q0 -10 -3 -20
l-32 -120q-9 -35 -21 -52t-43 -17q-13 0 -18.5 10.5t-9.5 26.5t-9.5 35t-17.5 35t-33.5 26.5t-58.5 10.5zM560 1304l263 162h94l-298 -272h-192l-143 272h96z" />
    <glyph glyph-name="Sacute" unicode="&#x15a;" horiz-adv-x="1382" 
d="M424 73q96 0 176 14.5t137 51.5t89 100t32 161q0 61 -29.5 104.5t-77.5 76.5t-109.5 58.5t-126 52t-126 57t-109.5 72.5t-77.5 100t-29.5 138q2 101 45 181t121 135t188 84t246 29q71 0 121.5 -3.5t97 -7.5t98.5 -7.5t126 -3.5l-47 -298h-74q-15 45 -35.5 86t-58.5 71.5
t-98.5 49t-154.5 18.5q-84 0 -156.5 -14.5t-126 -49.5t-84.5 -93t-31 -145q0 -57 29.5 -97.5t78.5 -72t111 -57t126.5 -52t126.5 -57.5t111 -73t78.5 -99t29.5 -135q0 -121 -45 -209.5t-128.5 -146.5t-202.5 -86t-266 -28q-56 0 -99 2.5t-79.5 6.5t-69.5 9t-68.5 9
t-76.5 6.5t-93 2.5l52 318h79q19 -78 50.5 -128t77.5 -79.5t108.5 -40.5t143.5 -11zM805 1870h223l-276 -289h-105z" />
    <glyph glyph-name="sacute" unicode="&#x15b;" horiz-adv-x="1020" 
d="M300 70q73 0 130.5 16.5t96.5 47.5t59.5 73.5t20.5 95.5q0 39 -11.5 65.5t-36.5 46t-63 34t-90 28.5q-74 19 -127 41t-87.5 51t-50.5 66t-16 86q0 72 34.5 137.5t97.5 115.5t153 80t201 30q15 0 41.5 -1t57.5 -3.5t63 -7.5t58 -12t42.5 -16.5t16.5 -21.5q0 -10 -3 -20
l-21 -80q-9 -35 -21.5 -52t-42.5 -17q-11 0 -20.5 10.5t-22 26.5t-30 34t-44 34t-63.5 26.5t-88 10.5q-50 0 -96 -15.5t-81.5 -42.5t-57 -64t-21.5 -80q0 -36 12 -60t34 -40.5t52.5 -27.5t68.5 -21q83 -21 143 -46t98.5 -57t57 -74.5t18.5 -98.5q0 -81 -34 -152t-100 -124
t-163 -83.5t-222 -30.5q-52 0 -108.5 2t-103 8.5t-77 19t-30.5 32.5q0 9 3 20l22 80q5 17 9.5 30t11.5 21.5t17 13t26 4.5q19 0 37 -21.5t47.5 -48t77 -48t125.5 -21.5zM607 1466h223l-276 -289h-105z" />
    <glyph glyph-name="Scedilla" unicode="&#x15e;" horiz-adv-x="1382" 
d="M424 73q96 0 176 14.5t137 51.5t89 100t32 161q0 61 -29.5 104.5t-77.5 76.5t-109.5 58.5t-126 52t-126 57t-109.5 72.5t-77.5 100t-29.5 138q2 101 45 181t121 135t188 84t246 29q71 0 121.5 -3.5t97 -7.5t98.5 -7.5t126 -3.5l-47 -298h-74q-15 45 -35.5 86t-58.5 71.5
t-98.5 49t-154.5 18.5q-84 0 -156.5 -14.5t-126 -49.5t-84.5 -93t-31 -145q0 -57 29.5 -97.5t78.5 -72t111 -57t126.5 -52t126.5 -57.5t111 -73t78.5 -99t29.5 -135q0 -121 -45 -209.5t-128.5 -146.5t-202.5 -86t-266 -28q-56 0 -99 2.5t-79.5 6.5t-69.5 9t-68.5 9
t-76.5 6.5t-93 2.5l52 318h79q19 -78 50.5 -128t77.5 -79.5t108.5 -40.5t143.5 -11zM241 23h76l-38 -125q46 0 89 -7t76 -24t52.5 -46.5t19.5 -74.5q0 -82 -68 -127.5t-214 -45.5h-144l19 70h86q84 0 119.5 29.5t35.5 73.5q0 24 -6.5 42.5t-24.5 31t-49.5 19t-80.5 7.5z" />
    <glyph glyph-name="scedilla" unicode="&#x15f;" horiz-adv-x="1020" 
d="M300 70q73 0 130.5 16.5t96.5 47.5t59.5 73.5t20.5 95.5q0 39 -11.5 65.5t-36.5 46t-63 34t-90 28.5q-74 19 -127 41t-87.5 51t-50.5 66t-16 86q0 72 34.5 137.5t97.5 115.5t153 80t201 30q15 0 41.5 -1t57.5 -3.5t63 -7.5t58 -12t42.5 -16.5t16.5 -21.5q0 -10 -3 -20
l-21 -80q-9 -35 -21.5 -52t-42.5 -17q-11 0 -20.5 10.5t-22 26.5t-30 34t-44 34t-63.5 26.5t-88 10.5q-50 0 -96 -15.5t-81.5 -42.5t-57 -64t-21.5 -80q0 -36 12 -60t34 -40.5t52.5 -27.5t68.5 -21q83 -21 143 -46t98.5 -57t57 -74.5t18.5 -98.5q0 -81 -34 -152t-100 -124
t-163 -83.5t-222 -30.5q-52 0 -108.5 2t-103 8.5t-77 19t-30.5 32.5q0 9 3 20l22 80q5 17 9.5 30t11.5 21.5t17 13t26 4.5q19 0 37 -21.5t47.5 -48t77 -48t125.5 -21.5zM154 23h76l-38 -125q46 0 89 -7t76 -24t52.5 -46.5t19.5 -74.5q0 -82 -68 -127.5t-214 -45.5h-144
l19 70h86q84 0 119.5 29.5t35.5 73.5q0 24 -6.5 42.5t-24.5 31t-49.5 19t-80.5 7.5z" />
    <glyph glyph-name="Scaron" unicode="&#x160;" horiz-adv-x="1382" 
d="M424 73q96 0 176 14.5t137 51.5t89 100t32 161q0 61 -29.5 104.5t-77.5 76.5t-109.5 58.5t-126 52t-126 57t-109.5 72.5t-77.5 100t-29.5 138q2 101 45 181t121 135t188 84t246 29q71 0 121.5 -3.5t97 -7.5t98.5 -7.5t126 -3.5l-47 -298h-74q-15 45 -35.5 86t-58.5 71.5
t-98.5 49t-154.5 18.5q-84 0 -156.5 -14.5t-126 -49.5t-84.5 -93t-31 -145q0 -57 29.5 -97.5t78.5 -72t111 -57t126.5 -52t126.5 -57.5t111 -73t78.5 -99t29.5 -135q0 -121 -45 -209.5t-128.5 -146.5t-202.5 -86t-266 -28q-56 0 -99 2.5t-79.5 6.5t-69.5 9t-68.5 9
t-76.5 6.5t-93 2.5l52 318h79q19 -78 50.5 -128t77.5 -79.5t108.5 -40.5t143.5 -11zM737 1708l263 162h94l-298 -272h-192l-143 272h96z" />
    <glyph glyph-name="scaron" unicode="&#x161;" horiz-adv-x="1020" 
d="M300 70q73 0 130.5 16.5t96.5 47.5t59.5 73.5t20.5 95.5q0 39 -11.5 65.5t-36.5 46t-63 34t-90 28.5q-74 19 -127 41t-87.5 51t-50.5 66t-16 86q0 72 34.5 137.5t97.5 115.5t153 80t201 30q15 0 41.5 -1t57.5 -3.5t63 -7.5t58 -12t42.5 -16.5t16.5 -21.5q0 -10 -3 -20
l-21 -80q-9 -35 -21.5 -52t-42.5 -17q-11 0 -20.5 10.5t-22 26.5t-30 34t-44 34t-63.5 26.5t-88 10.5q-50 0 -96 -15.5t-81.5 -42.5t-57 -64t-21.5 -80q0 -36 12 -60t34 -40.5t52.5 -27.5t68.5 -21q83 -21 143 -46t98.5 -57t57 -74.5t18.5 -98.5q0 -81 -34 -152t-100 -124
t-163 -83.5t-222 -30.5q-52 0 -108.5 2t-103 8.5t-77 19t-30.5 32.5q0 9 3 20l22 80q5 17 9.5 30t11.5 21.5t17 13t26 4.5q19 0 37 -21.5t47.5 -48t77 -48t125.5 -21.5zM663 1304l263 162h94l-298 -272h-192l-143 272h96z" />
    <glyph glyph-name="Tcommaaccent" unicode="&#x162;" horiz-adv-x="1282" 
d="M431 1366q-44 0 -87.5 -12.5t-85 -37t-78 -62t-66.5 -88.5h-74l130 324q45 -8 103.5 -13t119 -7.5t117.5 -3t99 -0.5h284q42 0 99.5 0.5t119.5 3t123.5 7.5t110.5 13l-44 -324h-74q-3 51 -19.5 88.5t-44 62t-65 37t-80.5 12.5h-145q-36 0 -53 -25.5t-27 -61.5l-292 -1092
q-7 -26 -11 -44.5t-4 -30.5q0 -19 10 -25.5t32 -6.5h30l-21 -80h-359l21 80h30q18 0 30.5 4.5t21.5 16t17 32.5t17 54l292 1092q3 12 5 23t2 21q0 19 -8.5 31t-30.5 12h-145zM109 -572l18 65q63 15 99.5 45.5t36.5 72.5q0 13 -15.5 19.5t-33.5 16.5t-33.5 29.5t-15.5 57.5
q0 33 12 60t32 46t46 29.5t54 10.5q61 0 89.5 -35t28.5 -86q0 -61 -23.5 -117t-65.5 -100t-100.5 -74t-128.5 -40z" />
    <glyph glyph-name="tcommaaccent" unicode="&#x163;" horiz-adv-x="762" 
d="M311 1224l215 160l-86 -322h244l-28 -105h-244l-181 -676q-7 -26 -12 -54t-5 -54q0 -40 14 -58t40 -18q21 0 47.5 13.5t54 36t54 52.5t47.5 64v-105q-67 -93 -133 -136.5t-138 -43.5q-34 0 -63.5 10.5t-51 31t-34 51t-12.5 70.5q0 43 7.5 84t18.5 81l174 651h-101l28 105
h101zM-116 -572l18 65q63 15 99.5 45.5t36.5 72.5q0 13 -15.5 19.5t-33.5 16.5t-33.5 29.5t-15.5 57.5q0 33 12 60t32 46t46 29.5t54 10.5q61 0 89.5 -35t28.5 -86q0 -61 -23.5 -117t-65.5 -100t-100.5 -74t-128.5 -40z" />
    <glyph glyph-name="Tcaron" unicode="&#x164;" horiz-adv-x="1282" 
d="M431 1366q-44 0 -87.5 -12.5t-85 -37t-78 -62t-66.5 -88.5h-74l130 324q45 -8 103.5 -13t119 -7.5t117.5 -3t99 -0.5h284q42 0 99.5 0.5t119.5 3t123.5 7.5t110.5 13l-44 -324h-74q-3 51 -19.5 88.5t-44 62t-65 37t-80.5 12.5h-145q-36 0 -53 -25.5t-27 -61.5l-292 -1092
q-7 -26 -11 -44.5t-4 -30.5q0 -19 10 -25.5t32 -6.5h30l-21 -80h-359l21 80h30q18 0 30.5 4.5t21.5 16t17 32.5t17 54l292 1092q3 12 5 23t2 21q0 19 -8.5 31t-30.5 12h-145zM812 1708l263 162h94l-298 -272h-192l-143 272h96z" />
    <glyph glyph-name="tcaron" unicode="&#x165;" horiz-adv-x="827" 
d="M311 1224l215 160l-86 -322h244l-28 -105h-244l-181 -676q-7 -26 -12 -54t-5 -54q0 -40 14 -58t40 -18q21 0 47.5 13.5t54 36t54 52.5t47.5 64v-105q-67 -93 -133 -136.5t-138 -43.5q-34 0 -63.5 10.5t-51 31t-34 51t-12.5 70.5q0 43 7.5 84t18.5 81l174 651h-101l28 105
h101zM599 1112l18 65q63 15 99.5 45.5t36.5 72.5q0 13 -15.5 19.5t-33.5 16.5t-33.5 29.5t-15.5 57.5q0 33 12 60t32 46t46 29.5t54 10.5q61 0 89.5 -35t28.5 -86q0 -61 -23.5 -117t-65.5 -100t-100.5 -74t-128.5 -40z" />
    <glyph glyph-name="Umacron" unicode="&#x16a;" horiz-adv-x="1608" 
d="M1211 470q-30 -110 -88 -200.5t-142 -155.5t-193.5 -100.5t-242.5 -35.5q-223 0 -342 91t-119 267q0 65 19 134l218 809q6 23 9.5 40.5t3.5 30.5q0 20 -9.5 28t-31.5 8h-30l21 80h358l-21 -80h-30q-18 0 -30.5 -6t-22 -18.5t-17 -33t-15.5 -50.5l-219 -811
q-18 -66 -18 -120q0 -67 24.5 -114.5t68 -78t103.5 -45t130 -14.5q84 0 164 23.5t147.5 69.5t117.5 115t75 160l169 625q23 87 34.5 143t11.5 89q0 39 -15.5 52.5t-47.5 13.5h-31l21 80h369l-21 -80h-35q-30 0 -51.5 -12t-41 -45t-39 -91.5t-44.5 -150.5zM711 1607l22 80
h524l-22 -80h-524z" />
    <glyph glyph-name="umacron" unicode="&#x16b;" horiz-adv-x="1181" 
d="M394 1062l-194 -723q-20 -72 -20 -121q0 -57 27 -85t87 -28q47 0 107 37t122.5 117.5t122.5 208t108 307.5l76 287h173l-197 -740q-4 -14 -9 -32.5t-9.5 -38t-7.5 -40t-3 -38.5q0 -32 12.5 -54t46.5 -22q13 0 35.5 10.5t50 31.5t56.5 52t56 72v-105q-30 -39 -60.5 -72
t-62 -57t-64 -37.5t-66.5 -13.5q-45 0 -75.5 13t-48.5 35t-25.5 52t-7.5 63q0 43 7 87.5t19 84.5q-48 -92 -99 -155.5t-104 -103.5t-106.5 -58t-106.5 -18q-61 0 -104.5 14.5t-71.5 41.5t-41 65.5t-13 86.5q0 68 22 147l149 555q5 21 8 36.5t3 26.5q0 21 -9.5 28.5
t-27.5 7.5h-28l20 75h253zM401 1236l22 80h524l-22 -80h-524z" />
    <glyph glyph-name="Uring" unicode="&#x16e;" horiz-adv-x="1608" 
d="M1211 470q-30 -110 -88 -200.5t-142 -155.5t-193.5 -100.5t-242.5 -35.5q-223 0 -342 91t-119 267q0 65 19 134l218 809q6 23 9.5 40.5t3.5 30.5q0 20 -9.5 28t-31.5 8h-30l21 80h358l-21 -80h-30q-18 0 -30.5 -6t-22 -18.5t-17 -33t-15.5 -50.5l-219 -811
q-18 -66 -18 -120q0 -67 24.5 -114.5t68 -78t103.5 -45t130 -14.5q84 0 164 23.5t147.5 69.5t117.5 115t75 160l169 625q23 87 34.5 143t11.5 89q0 39 -15.5 52.5t-47.5 13.5h-31l21 80h369l-21 -80h-35q-30 0 -51.5 -12t-41 -45t-39 -91.5t-44.5 -150.5zM772 1738
q0 41 13.5 73t39.5 56.5t58.5 36.5t68.5 12q39 0 70 -10.5t58 -33.5t42.5 -57t15.5 -77q0 -40 -14 -74t-41.5 -58t-59.5 -35t-71 -11q-35 0 -69 12.5t-59.5 37t-38.5 57t-13 71.5zM845 1738q0 -24 7.5 -43t22 -34.5t35 -24t42.5 -8.5q24 0 43.5 6.5t36.5 22.5t25 36.5
t8 44.5q0 23 -7.5 43t-23.5 36t-37 23.5t-45 7.5q-20 0 -41.5 -8.5t-36 -23.5t-22 -34.5t-7.5 -43.5z" />
    <glyph glyph-name="uring" unicode="&#x16f;" horiz-adv-x="1181" 
d="M394 1062l-194 -723q-20 -72 -20 -121q0 -57 27 -85t87 -28q47 0 107 37t122.5 117.5t122.5 208t108 307.5l76 287h173l-197 -740q-4 -14 -9 -32.5t-9.5 -38t-7.5 -40t-3 -38.5q0 -32 12.5 -54t46.5 -22q13 0 35.5 10.5t50 31.5t56.5 52t56 72v-105q-30 -39 -60.5 -72
t-62 -57t-64 -37.5t-66.5 -13.5q-45 0 -75.5 13t-48.5 35t-25.5 52t-7.5 63q0 43 7 87.5t19 84.5q-48 -92 -99 -155.5t-104 -103.5t-106.5 -58t-106.5 -18q-61 0 -104.5 14.5t-71.5 41.5t-41 65.5t-13 86.5q0 68 22 147l149 555q5 21 8 36.5t3 26.5q0 21 -9.5 28.5
t-27.5 7.5h-28l20 75h253zM461 1334q0 41 13.5 73t39.5 56.5t58.5 36.5t68.5 12q39 0 70 -10.5t58 -33.5t42.5 -57t15.5 -77q0 -40 -14 -74t-41.5 -58t-59.5 -35t-71 -11q-35 0 -69 12.5t-59.5 37t-38.5 57t-13 71.5zM534 1334q0 -24 7.5 -43t22 -34.5t35 -24t42.5 -8.5
q24 0 43.5 6.5t36.5 22.5t25 36.5t8 44.5q0 23 -7.5 43t-23.5 36t-37 23.5t-45 7.5q-20 0 -41.5 -8.5t-36 -23.5t-22 -34.5t-7.5 -43.5z" />
    <glyph glyph-name="Uhungarumlaut" unicode="&#x170;" horiz-adv-x="1608" 
d="M1211 470q-30 -110 -88 -200.5t-142 -155.5t-193.5 -100.5t-242.5 -35.5q-223 0 -342 91t-119 267q0 65 19 134l218 809q6 23 9.5 40.5t3.5 30.5q0 20 -9.5 28t-31.5 8h-30l21 80h358l-21 -80h-30q-18 0 -30.5 -6t-22 -18.5t-17 -33t-15.5 -50.5l-219 -811
q-18 -66 -18 -120q0 -67 24.5 -114.5t68 -78t103.5 -45t130 -14.5q84 0 164 23.5t147.5 69.5t117.5 115t75 160l169 625q23 87 34.5 143t11.5 89q0 39 -15.5 52.5t-47.5 13.5h-31l21 80h369l-21 -80h-35q-30 0 -51.5 -12t-41 -45t-39 -91.5t-44.5 -150.5zM860 1870h223
l-277 -289h-104zM1158 1870h223l-277 -289h-104z" />
    <glyph glyph-name="uhungarumlaut" unicode="&#x171;" horiz-adv-x="1181" 
d="M394 1062l-194 -723q-20 -72 -20 -121q0 -57 27 -85t87 -28q47 0 107 37t122.5 117.5t122.5 208t108 307.5l76 287h173l-197 -740q-4 -14 -9 -32.5t-9.5 -38t-7.5 -40t-3 -38.5q0 -32 12.5 -54t46.5 -22q13 0 35.5 10.5t50 31.5t56.5 52t56 72v-105q-30 -39 -60.5 -72
t-62 -57t-64 -37.5t-66.5 -13.5q-45 0 -75.5 13t-48.5 35t-25.5 52t-7.5 63q0 43 7 87.5t19 84.5q-48 -92 -99 -155.5t-104 -103.5t-106.5 -58t-106.5 -18q-61 0 -104.5 14.5t-71.5 41.5t-41 65.5t-13 86.5q0 68 22 147l149 555q5 21 8 36.5t3 26.5q0 21 -9.5 28.5
t-27.5 7.5h-28l20 75h253zM510 1466h223l-277 -289h-104zM808 1466h223l-277 -289h-104z" />
    <glyph glyph-name="Uogonek" unicode="&#x172;" horiz-adv-x="1608" 
d="M1211 470q-30 -110 -88 -200.5t-142 -155.5t-193.5 -100.5t-242.5 -35.5q-223 0 -342 91t-119 267q0 65 19 134l218 809q6 23 9.5 40.5t3.5 30.5q0 20 -9.5 28t-31.5 8h-30l21 80h358l-21 -80h-30q-18 0 -30.5 -6t-22 -18.5t-17 -33t-15.5 -50.5l-219 -811
q-18 -66 -18 -120q0 -67 24.5 -114.5t68 -78t103.5 -45t130 -14.5q84 0 164 23.5t147.5 69.5t117.5 115t75 160l169 625q23 87 34.5 143t11.5 89q0 39 -15.5 52.5t-47.5 13.5h-31l21 80h369l-21 -80h-35q-30 0 -51.5 -12t-41 -45t-39 -91.5t-44.5 -150.5zM338 22h78
q-15 -45 -22 -85.5t-7 -78.5q0 -45 15.5 -76t41 -50t58.5 -27.5t68 -8.5q48 0 93 13t76 33v-69q-33 -31 -63 -50.5t-57 -31t-52 -15.5t-47 -4q-99 0 -159 55.5t-60 165.5q0 43 8.5 100t28.5 129z" />
    <glyph glyph-name="uogonek" unicode="&#x173;" horiz-adv-x="1181" 
d="M394 1062l-194 -723q-20 -72 -20 -121q0 -57 27 -85t87 -28q47 0 107 37t122.5 117.5t122.5 208t108 307.5l76 287h173l-197 -740q-4 -14 -9 -32.5t-9.5 -38t-7.5 -40t-3 -38.5q0 -32 12.5 -54t46.5 -22q13 0 35.5 10.5t50 31.5t56.5 52t56 72v-105q-30 -39 -60.5 -72
t-62 -57t-64 -37.5t-66.5 -13.5q-45 0 -75.5 13t-48.5 35t-25.5 52t-7.5 63q0 43 7 87.5t19 84.5q-48 -92 -99 -155.5t-104 -103.5t-106.5 -58t-106.5 -18q-61 0 -104.5 14.5t-71.5 41.5t-41 65.5t-13 86.5q0 68 22 147l149 555q5 21 8 36.5t3 26.5q0 21 -9.5 28.5
t-27.5 7.5h-28l20 75h253zM113 22h78q-15 -45 -22 -85.5t-7 -78.5q0 -45 15.5 -76t41 -50t58.5 -27.5t68 -8.5q48 0 93 13t76 33v-69q-33 -31 -63 -50.5t-57 -31t-52 -15.5t-47 -4q-99 0 -159 55.5t-60 165.5q0 43 8.5 100t28.5 129z" />
    <glyph glyph-name="Ydieresis" unicode="&#x178;" horiz-adv-x="1421" 
d="M1130 1250q32 42 46 68.5t14 43.5q0 24 -31 24h-12l21 80h337l-21 -80h-5q-18 0 -36.5 -5.5t-44 -23.5t-62 -52t-90.5 -91q-56 -59 -118 -118.5t-132.5 -123t-151.5 -133t-175 -148.5l-134 -504q-4 -15 -7 -31t-3 -30q0 -20 8 -33t29 -13h30l-21 -80h-359l21 80h30
q18 0 32 10t24.5 25.5t17.5 34.5t12 37l134 505q-100 152 -185 308t-140 318q-8 21 -13 34.5t-10 21t-10.5 10t-12.5 2.5h-31l21 80h320l-21 -80h-26q-14 0 -24 -8.5t-10 -25.5q0 -13 8 -34q23 -63 55.5 -133t70 -140t78.5 -135t82 -117q70 55 138.5 110t132 111.5
t120.5 115t104 120.5zM672 1645q-24 0 -45 8.5t-37 24t-25.5 37.5t-9.5 48q0 19 8 42t25.5 42t44 32t62.5 13q24 0 45.5 -9t37 -24.5t25 -37.5t9.5 -48q0 -20 -8 -42t-25.5 -41.5t-44 -32t-62.5 -12.5zM1024 1645q-24 0 -45 8.5t-37 24t-25.5 37.5t-9.5 48q0 19 8 42
t25.5 42t44 32t62.5 13q24 0 45.5 -9t37 -24.5t25 -37.5t9.5 -48q0 -20 -8 -42t-25.5 -41.5t-44 -32t-62.5 -12.5z" />
    <glyph glyph-name="Zacute" unicode="&#x179;" horiz-adv-x="1441" 
d="M532 1366q-44 0 -87.5 -12.5t-85 -37t-78 -62t-66.5 -88.5h-74l130 324q61 -9 122 -14t118 -7t107.5 -2.5t92.5 -0.5h716l-25 -94q-59 -40 -139.5 -103t-173.5 -141t-194.5 -168t-202.5 -184.5t-196.5 -189t-177 -182.5t-144.5 -165.5t-98 -136.5h595q55 0 106 17
t96 47.5t83 72.5t67 91h74l-118 -330h-1169l26 99q52 78 123 165.5t154.5 180t176 186.5t186.5 184.5t185.5 174t174 155t151.5 128.5t118 93h-573zM736 1870h223l-276 -289h-105z" />
    <glyph glyph-name="zacute" unicode="&#x17a;" horiz-adv-x="1071" 
d="M976 1062q17 0 26 -16.5t9 -37.5q0 -18 -7.5 -36t-24.5 -28q-49 -29 -104.5 -67.5t-115 -83t-121 -94.5t-122.5 -102q-60 -51 -117 -104.5t-107 -106t-92 -102.5t-72 -93q32 5 66 7.5t69 2.5q80 0 161.5 -13t154 -39.5t131.5 -66.5t95 -94l-69 -42q-34 19 -83.5 35
t-110.5 28t-129.5 19t-140.5 7q-78 0 -154 -8.5t-148 -28.5q-20 2 -27.5 15t-7.5 30q0 15 4.5 30t10.5 25q28 48 66 102t84 108.5t97 109t104 104.5q54 52 108 101t105.5 92.5t99 80.5t88.5 66q-51 3 -103.5 13t-104 21t-100 19.5t-91.5 8.5q-54 0 -95.5 -18.5t-63.5 -69.5
l-34 73q18 51 43.5 84.5t57 53.5t68.5 28t78 8q53 0 110.5 -10t116 -22t116.5 -22t112 -10q46 0 87.5 9.5t76.5 33.5zM655 1466h223l-276 -289h-105z" />
    <glyph glyph-name="Zdotaccent" unicode="&#x17b;" horiz-adv-x="1441" 
d="M532 1366q-44 0 -87.5 -12.5t-85 -37t-78 -62t-66.5 -88.5h-74l130 324q61 -9 122 -14t118 -7t107.5 -2.5t92.5 -0.5h716l-25 -94q-59 -40 -139.5 -103t-173.5 -141t-194.5 -168t-202.5 -184.5t-196.5 -189t-177 -182.5t-144.5 -165.5t-98 -136.5h595q55 0 106 17
t96 47.5t83 72.5t67 91h74l-118 -330h-1169l26 99q52 78 123 165.5t154.5 180t176 186.5t186.5 184.5t185.5 174t174 155t151.5 128.5t118 93h-573zM750 1645q-24 0 -45 8.5t-37 24t-25.5 37.5t-9.5 48q0 19 8 42t25.5 42t44 32t62.5 13q24 0 45.5 -9t37 -24.5t25 -37.5
t9.5 -48q0 -20 -8 -42t-25.5 -41.5t-44 -32t-62.5 -12.5z" />
    <glyph glyph-name="zdotaccent" unicode="&#x17c;" horiz-adv-x="1071" 
d="M976 1062q17 0 26 -16.5t9 -37.5q0 -18 -7.5 -36t-24.5 -28q-49 -29 -104.5 -67.5t-115 -83t-121 -94.5t-122.5 -102q-60 -51 -117 -104.5t-107 -106t-92 -102.5t-72 -93q32 5 66 7.5t69 2.5q80 0 161.5 -13t154 -39.5t131.5 -66.5t95 -94l-69 -42q-34 19 -83.5 35
t-110.5 28t-129.5 19t-140.5 7q-78 0 -154 -8.5t-148 -28.5q-20 2 -27.5 15t-7.5 30q0 15 4.5 30t10.5 25q28 48 66 102t84 108.5t97 109t104 104.5q54 52 108 101t105.5 92.5t99 80.5t88.5 66q-51 3 -103.5 13t-104 21t-100 19.5t-91.5 8.5q-54 0 -95.5 -18.5t-63.5 -69.5
l-34 73q18 51 43.5 84.5t57 53.5t68.5 28t78 8q53 0 110.5 -10t116 -22t116.5 -22t112 -10q46 0 87.5 9.5t76.5 33.5zM692 1241q-24 0 -45 8.5t-37 24t-25.5 37.5t-9.5 48q0 19 8 42t25.5 42t44 32t62.5 13q24 0 45.5 -9t37 -24.5t25 -37.5t9.5 -48q0 -20 -8 -42
t-25.5 -41.5t-44 -32t-62.5 -12.5z" />
    <glyph glyph-name="Zcaron" unicode="&#x17d;" horiz-adv-x="1441" 
d="M532 1366q-44 0 -87.5 -12.5t-85 -37t-78 -62t-66.5 -88.5h-74l130 324q61 -9 122 -14t118 -7t107.5 -2.5t92.5 -0.5h716l-25 -94q-59 -40 -139.5 -103t-173.5 -141t-194.5 -168t-202.5 -184.5t-196.5 -189t-177 -182.5t-144.5 -165.5t-98 -136.5h595q55 0 106 17
t96 47.5t83 72.5t67 91h74l-118 -330h-1169l26 99q52 78 123 165.5t154.5 180t176 186.5t186.5 184.5t185.5 174t174 155t151.5 128.5t118 93h-573zM793 1708l263 162h94l-298 -272h-192l-143 272h96z" />
    <glyph glyph-name="zcaron" unicode="&#x17e;" horiz-adv-x="1071" 
d="M976 1062q17 0 26 -16.5t9 -37.5q0 -18 -7.5 -36t-24.5 -28q-49 -29 -104.5 -67.5t-115 -83t-121 -94.5t-122.5 -102q-60 -51 -117 -104.5t-107 -106t-92 -102.5t-72 -93q32 5 66 7.5t69 2.5q80 0 161.5 -13t154 -39.5t131.5 -66.5t95 -94l-69 -42q-34 19 -83.5 35
t-110.5 28t-129.5 19t-140.5 7q-78 0 -154 -8.5t-148 -28.5q-20 2 -27.5 15t-7.5 30q0 15 4.5 30t10.5 25q28 48 66 102t84 108.5t97 109t104 104.5q54 52 108 101t105.5 92.5t99 80.5t88.5 66q-51 3 -103.5 13t-104 21t-100 19.5t-91.5 8.5q-54 0 -95.5 -18.5t-63.5 -69.5
l-34 73q18 51 43.5 84.5t57 53.5t68.5 28t78 8q53 0 110.5 -10t116 -22t116.5 -22t112 -10q46 0 87.5 9.5t76.5 33.5zM595 1304l263 162h94l-298 -272h-192l-143 272h96z" />
    <glyph glyph-name="florin" unicode="&#x192;" horiz-adv-x="631" 
d="M-270 -338q30 0 57.5 12.5t55.5 53t56.5 115.5t60.5 201l231 913h-99l28 105h97l6 22q25 96 59 171t82 127t113.5 79t154.5 27q18 0 52.5 -2.5t69.5 -9t61 -17t26 -26.5q0 -5 -0.5 -13t-2.5 -13l-23 -85q-10 -35 -21.5 -52t-42.5 -17q-15 0 -21 11t-10 27t-9 35t-17 35
t-33.5 27t-58.5 11q-30 0 -56 -11t-49.5 -41t-45.5 -82.5t-44 -135.5l-17 -67h248l-28 -105h-247l-219 -868q-27 -108 -66.5 -202t-94 -164t-124.5 -110t-159 -40q-29 0 -67 2.5t-71.5 9t-57 17t-23.5 26.5q0 5 0.5 13t2.5 13l31 105q8 35 20.5 52t43.5 17q14 0 20.5 -12.5
t11 -30.5l10 -40t17 -40t33.5 -30.5t59 -12.5z" />
    <glyph glyph-name="Scommaaccent" unicode="&#x218;" horiz-adv-x="1382" 
d="M424 73q96 0 176 14.5t137 51.5t89 100t32 161q0 61 -29.5 104.5t-77.5 76.5t-109.5 58.5t-126 52t-126 57t-109.5 72.5t-77.5 100t-29.5 138q2 101 45 181t121 135t188 84t246 29q71 0 121.5 -3.5t97 -7.5t98.5 -7.5t126 -3.5l-47 -298h-74q-15 45 -35.5 86t-58.5 71.5
t-98.5 49t-154.5 18.5q-84 0 -156.5 -14.5t-126 -49.5t-84.5 -93t-31 -145q0 -57 29.5 -97.5t78.5 -72t111 -57t126.5 -52t126.5 -57.5t111 -73t78.5 -99t29.5 -135q0 -121 -45 -209.5t-128.5 -146.5t-202.5 -86t-266 -28q-56 0 -99 2.5t-79.5 6.5t-69.5 9t-68.5 9
t-76.5 6.5t-93 2.5l52 318h79q19 -78 50.5 -128t77.5 -79.5t108.5 -40.5t143.5 -11zM146 -572l18 65q63 15 99.5 45.5t36.5 72.5q0 13 -15.5 19.5t-33.5 16.5t-33.5 29.5t-15.5 57.5q0 33 12 60t32 46t46 29.5t54 10.5q61 0 89.5 -35t28.5 -86q0 -61 -23.5 -117t-65.5 -100
t-100.5 -74t-128.5 -40z" />
    <glyph glyph-name="scommaaccent" unicode="&#x219;" horiz-adv-x="1020" 
d="M300 70q73 0 130.5 16.5t96.5 47.5t59.5 73.5t20.5 95.5q0 39 -11.5 65.5t-36.5 46t-63 34t-90 28.5q-74 19 -127 41t-87.5 51t-50.5 66t-16 86q0 72 34.5 137.5t97.5 115.5t153 80t201 30q15 0 41.5 -1t57.5 -3.5t63 -7.5t58 -12t42.5 -16.5t16.5 -21.5q0 -10 -3 -20
l-21 -80q-9 -35 -21.5 -52t-42.5 -17q-11 0 -20.5 10.5t-22 26.5t-30 34t-44 34t-63.5 26.5t-88 10.5q-50 0 -96 -15.5t-81.5 -42.5t-57 -64t-21.5 -80q0 -36 12 -60t34 -40.5t52.5 -27.5t68.5 -21q83 -21 143 -46t98.5 -57t57 -74.5t18.5 -98.5q0 -81 -34 -152t-100 -124
t-163 -83.5t-222 -30.5q-52 0 -108.5 2t-103 8.5t-77 19t-30.5 32.5q0 9 3 20l22 80q5 17 9.5 30t11.5 21.5t17 13t26 4.5q19 0 37 -21.5t47.5 -48t77 -48t125.5 -21.5zM7 -572l18 65q63 15 99.5 45.5t36.5 72.5q0 13 -15.5 19.5t-33.5 16.5t-33.5 29.5t-15.5 57.5
q0 33 12 60t32 46t46 29.5t54 10.5q61 0 89.5 -35t28.5 -86q0 -61 -23.5 -117t-65.5 -100t-100.5 -74t-128.5 -40z" />
    <glyph glyph-name="circumflex" unicode="&#x2c6;" horiz-adv-x="587" 
d="M592 1466h187l127 -272h-75l-170 180l-267 -180h-75z" />
    <glyph glyph-name="caron" unicode="&#x2c7;" horiz-adv-x="682" 
d="M566 1304l263 162h94l-298 -272h-192l-143 272h96z" />
    <glyph glyph-name="uni02C9" unicode="&#x2c9;" horiz-adv-x="682" 
d="M73 1227l22 80h524l-22 -80h-524z" />
    <glyph glyph-name="breve" unicode="&#x2d8;" horiz-adv-x="682" 
d="M860 1466q-29 -68 -71.5 -116.5t-95.5 -80t-112.5 -46t-120.5 -14.5q-59 0 -106.5 15.5t-79 41.5t-45 60t-3.5 72q5 19 21.5 36.5t38 31t45 21.5t43.5 8q23 0 29 -14.5t7 -36.5t0.5 -48t10 -48t37.5 -36.5t81 -14.5q33 0 68 8.5t68 28t62.5 52t50.5 80.5h72z" />
    <glyph glyph-name="dotaccent" unicode="&#x2d9;" horiz-adv-x="659" 
d="M322 1241q-24 0 -45 8.5t-37 24t-25.5 37.5t-9.5 48q0 19 8 42t25.5 42t44 32t62.5 13q24 0 45.5 -9t37 -24.5t25 -37.5t9.5 -48q0 -20 -8 -42t-25.5 -41.5t-44 -32t-62.5 -12.5z" />
    <glyph glyph-name="ring" unicode="&#x2da;" horiz-adv-x="682" 
d="M162 1334q0 41 13.5 73t39.5 56.5t58.5 36.5t68.5 12q39 0 70 -10.5t58 -33.5t42.5 -57t15.5 -77q0 -40 -14 -74t-41.5 -58t-59.5 -35t-71 -11q-35 0 -69 12.5t-59.5 37t-38.5 57t-13 71.5zM235 1334q0 -24 7.5 -43t22 -34.5t35 -24t42.5 -8.5q24 0 43.5 6.5t36.5 22.5
t25 36.5t8 44.5q0 23 -7.5 43t-23.5 36t-37 23.5t-45 7.5q-20 0 -41.5 -8.5t-36 -23.5t-22 -34.5t-7.5 -43.5z" />
    <glyph glyph-name="ogonek" unicode="&#x2db;" horiz-adv-x="485" 
d="M60 22h78q-15 -45 -22 -85.5t-7 -78.5q0 -45 15.5 -76t41 -50t58.5 -27.5t68 -8.5q48 0 93 13t76 33v-69q-33 -31 -63 -50.5t-57 -31t-52 -15.5t-47 -4q-99 0 -159 55.5t-60 165.5q0 43 8.5 100t28.5 129z" />
    <glyph glyph-name="tilde" unicode="&#x2dc;" 
d="M-849 1686q46 44 93.5 61.5t105.5 17.5q46 0 86.5 -17.5t80.5 -38t81.5 -38t88.5 -17.5q36 0 70.5 16.5t66.5 55.5l-26 -98q-40 -44 -86.5 -61.5t-90.5 -17.5q-56 0 -100 17.5t-84.5 38.5t-81.5 38.5t-90 17.5q-35 0 -72 -18.5t-67 -55.5z" />
    <glyph glyph-name="hungarumlaut" unicode="&#x2dd;" horiz-adv-x="730" 
d="M175 1466h223l-277 -289h-104zM473 1466h223l-277 -289h-104z" />
    <glyph glyph-name="gravecomb" unicode="&#x300;" 
d="M-227 1321h-94l-287 289h223z" />
    <glyph glyph-name="tildecomb" unicode="&#x303;" 
d="M-849 1686q46 44 93.5 61.5t105.5 17.5q46 0 86.5 -17.5t80.5 -38t81.5 -38t88.5 -17.5q36 0 70.5 16.5t66.5 55.5l-26 -98q-40 -44 -86.5 -61.5t-90.5 -17.5q-56 0 -100 17.5t-84.5 38.5t-81.5 38.5t-90 17.5q-35 0 -72 -18.5t-67 -55.5z" />
    <glyph glyph-name="tonos" unicode="&#x384;" horiz-adv-x="418" 
d="M175 1466h223l-287 -289h-94z" />
    <glyph glyph-name="dieresistonos" unicode="&#x385;" horiz-adv-x="687" 
d="M391 1893h223l-287 -289h-94zM156 1241q-24 0 -45 8.5t-37 24t-25.5 37.5t-9.5 48q0 19 8 42t25.5 42t44 32t62.5 13q24 0 45.5 -9t37 -24.5t25 -37.5t9.5 -48q0 -20 -8 -42t-25.5 -41.5t-44 -32t-62.5 -12.5zM508 1241q-24 0 -45 8.5t-37 24t-25.5 37.5t-9.5 48
q0 19 8 42t25.5 42t44 32t62.5 13q24 0 45.5 -9t37 -24.5t25 -37.5t9.5 -48q0 -20 -8 -42t-25.5 -41.5t-44 -32t-62.5 -12.5z" />
    <glyph glyph-name="Alphatonos" unicode="&#x386;" horiz-adv-x="1524" 
d="M759 1466h239q36 -165 65 -332t49.5 -324t31.5 -297.5t11 -252.5q0 -26 -1 -50t-1 -46q0 -29 4.5 -45.5t11 -25t15 -11t16.5 -2.5h24l-22 -80h-339l22 80h26q10 0 19 7.5t16 26.5t10.5 52t3.5 85q0 47 -3 103.5t-8 120t-12 132t-15 138.5h-459q15 26 30.5 50.5t32.5 49.5
h384q-11 73 -21.5 145t-21 138t-21 123.5t-20.5 102.5h-35q-50 -67 -108 -150t-119 -173.5t-122 -185.5t-117.5 -187t-105.5 -177t-85 -156t-56.5 -124t-20.5 -81q0 -24 12.5 -32t33.5 -8h12l-22 -80h-349l22 80h5q19 0 37 4.5t40 23t50.5 56.5t67.5 104q174 296 370.5 598
t422.5 600zM334 1466h223l-276 -289h-105z" />
    <glyph glyph-name="Epsilontonos" unicode="&#x388;" horiz-adv-x="1415" 
d="M788 845q30 0 58.5 9.5t54.5 30.5t49 55t42 83h74l-123 -456h-74q5 28 5 48q0 62 -31 96t-82 34h-426l-149 -558q-8 -27 -8 -47q0 -17 9 -27.5t32 -10.5h395q64 0 114.5 17t91.5 47.5t74 72.5t62 91h74l-118 -330h-1049l21 80h30q18 0 32 10t24.5 25.5t17.5 34.5t12 37
l292 1092q4 14 6.5 29.5t2.5 29.5q0 20 -8 34t-29 14h-30l21 80h579q42 0 99.5 0.5t119.5 3t123.5 7.5t110.5 13l-44 -324h-74q-3 51 -19.5 88.5t-44 62t-65 37t-80.5 12.5h-402q-36 0 -53 -25.5t-27 -61.5l-116 -434h426zM7 1466h223l-276 -289h-105z" />
    <glyph glyph-name="Etatonos" unicode="&#x389;" horiz-adv-x="1604" 
d="M1037 745h-732l-149 -558q-12 -45 -12 -68t10 -31t30 -8h29l-21 -80h-359l21 80h30q15 0 26.5 4.5t22 16t19.5 32.5t18 54l292 1092q12 45 12 68t-10 31t-30 8h-30l21 80h359l-21 -80h-29q-15 0 -27 -4.5t-22 -16t-19 -32.5t-18 -54l-116 -434h732l116 434q12 45 12 68
t-10 31t-30 8h-30l21 80h359l-21 -80h-29q-15 0 -27 -4.5t-22 -16t-19 -32.5t-18 -54l-292 -1092q-12 -45 -12 -68t10 -31t30 -8h29l-21 -80h-359l21 80h30q15 0 26.5 4.5t22 16t19.5 32.5t18 54zM19 1466h223l-276 -289h-105z" />
    <glyph glyph-name="Iotatonos" unicode="&#x38a;" horiz-adv-x="686" 
d="M292 1279q12 45 12 68t-10 31t-30 8h-30l21 80h359l-21 -80h-29q-15 0 -27 -4.5t-22 -16t-19 -32.5t-18 -54l-292 -1092q-12 -45 -12 -68t10 -31t30 -8h29l-21 -80h-359l21 80h30q15 0 26.5 4.5t22 16t19.5 32.5t18 54zM15 1466h223l-276 -289h-105z" />
    <glyph glyph-name="Omicrontonos" unicode="&#x38c;" horiz-adv-x="1595" 
d="M-20 494v27q0 130 28 252t80.5 229.5t128 196.5t171 153.5t209.5 100t243 35.5q141 0 249 -36.5t181 -104.5t110 -166.5t37 -222.5q0 -130 -28 -253.5t-80.5 -232.5t-128 -199.5t-171.5 -156t-211 -102t-246 -36.5q-135 0 -240 35.5t-177.5 102.5t-112 162.5t-42.5 215.5
zM847 1392q-107 0 -199 -38.5t-167.5 -105.5t-134.5 -156t-99 -189.5t-60.5 -208t-20.5 -209.5q0 -87 21.5 -162t68 -130.5t120 -87t177.5 -31.5q102 0 191.5 37t164.5 101.5t134.5 152t100.5 188t63 210t22 217.5q0 86 -21.5 161t-67.5 131t-118.5 88t-174.5 32zM52 1466
h223l-276 -289h-105z" />
    <glyph glyph-name="Upsilontonos" unicode="&#x38e;" horiz-adv-x="1583" 
d="M1292 1250q32 42 46 68.5t14 43.5q0 24 -31 24h-12l21 80h337l-21 -80h-5q-18 0 -36.5 -5.5t-44 -23.5t-62 -52t-90.5 -91q-56 -59 -118 -118.5t-132.5 -123t-151.5 -133t-175 -148.5l-134 -504q-4 -15 -7 -31t-3 -30q0 -20 8 -33t29 -13h30l-21 -80h-359l21 80h30
q18 0 32 10t24.5 25.5t17.5 34.5t12 37l134 505q-100 152 -185 308t-140 318q-8 21 -13 34.5t-10 21t-10.5 10t-12.5 2.5h-31l21 80h320l-21 -80h-26q-14 0 -24 -8.5t-10 -25.5q0 -13 8 -34q23 -63 55.5 -133t70 -140t78.5 -135t82 -117q70 55 138.5 110t132 111.5
t120.5 115t104 120.5zM27 1466h223l-276 -289h-105z" />
    <glyph glyph-name="Omegatonos" unicode="&#x38f;" horiz-adv-x="1657" 
d="M206 143l13 43q-38 30 -68 73t-50 95.5t-30.5 113.5t-10.5 126q0 110 30 223q35 130 99.5 251t162.5 214.5t233 149.5t311 56q138 0 235 -35t158.5 -96.5t89.5 -144t28 -177.5q0 -105 -30 -216q-31 -114 -80 -211.5t-111 -177t-134 -141t-150 -103.5l-13 -43h93
q64 0 109.5 16t80.5 45.5t63 70t57 89.5h74l-138 -364h-606l32 118q100 48 181.5 118t144.5 156.5t108.5 185t73.5 203.5q23 84 34.5 157t11.5 136q0 155 -76 240t-240 85q-115 0 -210 -42.5t-170 -122t-131.5 -194t-95.5 -259.5q-17 -63 -28.5 -134t-11.5 -143
q0 -58 9.5 -114.5t32 -107t59.5 -92.5t93 -72l-32 -118h-586l54 364h73q3 -49 9 -89.5t25.5 -70t56.5 -45.5t101 -16h66zM114 1466h223l-276 -289h-105z" />
    <glyph glyph-name="iotadieresistonos" unicode="&#x390;" horiz-adv-x="442" 
d="M407 1893h223l-287 -289h-94zM172 1241q-24 0 -45 8.5t-37 24t-25.5 37.5t-9.5 48q0 19 8 42t25.5 42t44 32t62.5 13q24 0 45.5 -9t37 -24.5t25 -37.5t9.5 -48q0 -20 -8 -42t-25.5 -41.5t-44 -32t-62.5 -12.5zM524 1241q-24 0 -45 8.5t-37 24t-25.5 37.5t-9.5 48
q0 19 8 42t25.5 42t44 32t62.5 13q24 0 45.5 -9t37 -24.5t25 -37.5t9.5 -48q0 -20 -8 -42t-25.5 -41.5t-44 -32t-62.5 -12.5zM174 888q6 21 8.5 36.5t2.5 26.5q0 21 -9.5 28.5t-27.5 7.5h-28l20 75h253l-200 -740q-4 -14 -9 -32.5t-9.5 -38t-7.5 -40t-3 -38.5
q0 -39 14.5 -56.5t37.5 -17.5q21 0 48 13t54.5 35t54.5 52t48 64v-105q-67 -93 -133 -136.5t-138 -43.5q-81 0 -120.5 44.5t-39.5 126.5q0 60 21 138z" />
    <glyph glyph-name="Alpha" unicode="&#x391;" horiz-adv-x="1524" 
d="M759 1466h239q36 -165 65 -332t49.5 -324t31.5 -297.5t11 -252.5q0 -26 -1 -50t-1 -46q0 -29 4.5 -45.5t11 -25t15 -11t16.5 -2.5h24l-22 -80h-339l22 80h26q10 0 19 7.5t16 26.5t10.5 52t3.5 85q0 47 -3 103.5t-8 120t-12 132t-15 138.5h-459q15 26 30.5 50.5t32.5 49.5
h384q-11 73 -21.5 145t-21 138t-21 123.5t-20.5 102.5h-35q-50 -67 -108 -150t-119 -173.5t-122 -185.5t-117.5 -187t-105.5 -177t-85 -156t-56.5 -124t-20.5 -81q0 -24 12.5 -32t33.5 -8h12l-22 -80h-349l22 80h5q19 0 37 4.5t40 23t50.5 56.5t67.5 104q174 296 370.5 598
t422.5 600z" />
    <glyph glyph-name="Beta" unicode="&#x392;" horiz-adv-x="1453" 
d="M1289 1099q-15 -60 -47 -111.5t-79.5 -91t-109.5 -65.5t-137 -34q60 -9 109.5 -35.5t84.5 -67t54.5 -92.5t19.5 -112q0 -44 -10 -87q-19 -80 -53.5 -141t-81.5 -106t-104.5 -75t-122 -48t-135 -25.5t-142.5 -7.5h-672l21 80h34q17 0 29 5.5t21 18t16.5 33t15.5 50.5
l292 1092q7 26 10.5 43.5t3.5 30.5q0 19 -9.5 26t-32.5 7h-30l21 80h108q63 0 122.5 3.5t123 7.5t134.5 7.5t157 3.5q103 0 178 -23t124.5 -63.5t73.5 -94.5t24 -117q0 -23 -3 -45.5t-8 -45.5zM186 187q-5 -18 -7.5 -31t-2.5 -23q0 -20 11 -26.5t34 -6.5h274
q93 0 173.5 15.5t143 51t105.5 93.5t61 143q12 57 12 105q0 118 -74.5 177.5t-227.5 59.5h-253l27 100h250q76 0 138.5 12.5t111 42t82.5 77t53 117.5q14 54 14 101q0 42 -12.5 78t-41 63t-74 42t-111.5 15q-98 0 -167.5 -2.5t-115.5 -11t-70.5 -24t-31.5 -42.5z" />
    <glyph glyph-name="Gamma" unicode="&#x393;" horiz-adv-x="1159" 
d="M222 0h-359l21 80h30q18 0 32 10t24 25.5t17 34.5t12 37l293 1092q4 14 6.5 29t2.5 29q0 21 -8 35t-30 14h-30l22 80h559q42 0 99 0.5t119.5 3t123.5 7.5t110 13l-44 -324h-74q-3 51 -19.5 88.5t-44 62t-65 37t-80.5 12.5h-382q-37 0 -53 -25.5t-26 -61.5l-293 -1092
q-4 -15 -7 -30t-3 -29q0 -20 8 -34t30 -14h30z" />
    <glyph glyph-name="Delta" unicode="&#x394;" horiz-adv-x="1318" 
d="M989 0h-1232l22 80q198 345 441.5 699.5t518.5 708.5h85q40 -180 75 -352.5t61 -334t40.5 -310t14.5 -279.5q0 -35 -1 -67.5t-3 -64.5zM829 183q1 14 1.5 29.5t0.5 32.5q0 68 -7 154t-19 179.5t-27 191t-32 188.5t-33.5 171.5t-30.5 140.5q-36 -49 -83.5 -115t-100 -141
t-107.5 -157t-107 -164t-98.5 -161t-81 -148t-54.5 -125t-20 -93q0 -21 6.5 -34t16.5 -20t23 -9.5t26 -2.5h708q7 11 12 31t7 52z" />
    <glyph glyph-name="Epsilon" unicode="&#x395;" horiz-adv-x="1415" 
d="M788 845q30 0 58.5 9.5t54.5 30.5t49 55t42 83h74l-123 -456h-74q5 28 5 48q0 62 -31 96t-82 34h-426l-149 -558q-8 -27 -8 -47q0 -17 9 -27.5t32 -10.5h395q64 0 114.5 17t91.5 47.5t74 72.5t62 91h74l-118 -330h-1049l21 80h30q18 0 32 10t24.5 25.5t17.5 34.5t12 37
l292 1092q4 14 6.5 29.5t2.5 29.5q0 20 -8 34t-29 14h-30l21 80h579q42 0 99.5 0.5t119.5 3t123.5 7.5t110.5 13l-44 -324h-74q-3 51 -19.5 88.5t-44 62t-65 37t-80.5 12.5h-402q-36 0 -53 -25.5t-27 -61.5l-116 -434h426z" />
    <glyph glyph-name="Zeta" unicode="&#x396;" horiz-adv-x="1441" 
d="M532 1366q-44 0 -87.5 -12.5t-85 -37t-78 -62t-66.5 -88.5h-74l130 324q61 -9 122 -14t118 -7t107.5 -2.5t92.5 -0.5h716l-25 -94q-59 -40 -139.5 -103t-173.5 -141t-194.5 -168t-202.5 -184.5t-196.5 -189t-177 -182.5t-144.5 -165.5t-98 -136.5h595q55 0 106 17
t96 47.5t83 72.5t67 91h74l-118 -330h-1169l26 99q52 78 123 165.5t154.5 180t176 186.5t186.5 184.5t185.5 174t174 155t151.5 128.5t118 93h-573z" />
    <glyph glyph-name="Eta" unicode="&#x397;" horiz-adv-x="1604" 
d="M1037 745h-732l-149 -558q-12 -45 -12 -68t10 -31t30 -8h29l-21 -80h-359l21 80h30q15 0 26.5 4.5t22 16t19.5 32.5t18 54l292 1092q12 45 12 68t-10 31t-30 8h-30l21 80h359l-21 -80h-29q-15 0 -27 -4.5t-22 -16t-19 -32.5t-18 -54l-116 -434h732l116 434q12 45 12 68
t-10 31t-30 8h-30l21 80h359l-21 -80h-29q-15 0 -27 -4.5t-22 -16t-19 -32.5t-18 -54l-292 -1092q-12 -45 -12 -68t10 -31t30 -8h29l-21 -80h-359l21 80h30q15 0 26.5 4.5t22 16t19.5 32.5t18 54z" />
    <glyph glyph-name="Theta" unicode="&#x398;" horiz-adv-x="1595" 
d="M498 671q-33 0 -55 -3.5t-36 -10.5t-21 -17.5t-11 -25.5l-8 -30h-80l91 337h79l-7 -29q-3 -11 -3 -20q0 -19 20 -28t74 -9h364q65 0 90 14t33 43l8 30h80l-91 -338h-80l8 30q3 10 3 19q0 20 -20 29t-74 9h-364zM-20 494v27q0 130 28 252t80.5 229.5t128 196.5t171 153.5
t209.5 100t243 35.5q141 0 249 -36.5t181 -104.5t110 -166.5t37 -222.5q0 -130 -28 -253.5t-80.5 -232.5t-128 -199.5t-171.5 -156t-211 -102t-246 -36.5q-135 0 -240 35.5t-177.5 102.5t-112 162.5t-42.5 215.5zM847 1392q-107 0 -199 -38.5t-167.5 -105.5t-134.5 -156
t-99 -189.5t-60.5 -208t-20.5 -209.5q0 -87 21.5 -162t68 -130.5t120 -87t177.5 -31.5q102 0 191.5 37t164.5 101.5t134.5 152t100.5 188t63 210t22 217.5q0 86 -21.5 161t-67.5 131t-118.5 88t-174.5 32z" />
    <glyph glyph-name="Iota" unicode="&#x399;" horiz-adv-x="686" 
d="M292 1279q12 45 12 68t-10 31t-30 8h-30l21 80h359l-21 -80h-29q-15 0 -27 -4.5t-22 -16t-19 -32.5t-18 -54l-292 -1092q-12 -45 -12 -68t10 -31t30 -8h29l-21 -80h-359l21 80h30q15 0 26.5 4.5t22 16t19.5 32.5t18 54z" />
    <glyph glyph-name="Kappa" unicode="&#x39a;" horiz-adv-x="1485" 
d="M860 147q0 25 -5 67.5t-18 95t-35 113t-57.5 122.5t-85 123.5t-116.5 115.5q-54 -19 -107 -29t-101 -10l-149 -558q-12 -45 -12 -68t10 -31t30 -8h29l-21 -80h-359l21 80h30q15 0 26.5 4.5t22 16t19.5 32.5t18 54l292 1092q12 45 12 68t-10 31t-30 8h-30l21 80h359
l-21 -80h-29q-15 0 -27 -4.5t-22 -16t-19 -32.5t-18 -54l-116 -434q96 0 181 30t166 85q106 73 180.5 134.5t121.5 111t68 86t21 59.5q0 35 -43 35h-41l21 80h429l-21 -80h-35q-34 0 -66.5 -17.5t-70 -49t-84 -76.5t-109 -100.5t-143.5 -120t-187 -135.5q-12 -8 -24.5 -15.5
t-25.5 -15.5q65 -55 115.5 -119t89 -130.5t65 -133t43.5 -127t25.5 -112t11.5 -87.5q0 -7 2.5 -18t8.5 -22t15.5 -19t24.5 -8h29l-21 -80h-344l21 80h30q15 0 23 3.5t12.5 11.5t6 20.5t2.5 31.5z" />
    <glyph glyph-name="Lambda" unicode="&#x39b;" horiz-adv-x="1360" 
d="M750 1488h95q39 -168 69 -339.5t50.5 -332.5t31.5 -305.5t11 -257.5q0 -23 -1 -45t-1 -42q0 -31 4 -48t11 -25.5t15.5 -10.5t16.5 -2h24l-22 -80h-339l22 80h26q10 0 18.5 7.5t15.5 28t11 56.5t4 92q0 69 -5.5 154t-14 177.5t-20.5 187t-25.5 183.5t-27 167t-26.5 137
q-56 -80 -124 -178t-140 -206t-143 -222.5t-132 -226.5q-36 -67 -61.5 -118.5t-41.5 -89.5t-23 -64.5t-7 -43.5q0 -24 12.5 -32.5t32.5 -8.5h12l-22 -80h-349l22 80h5q18 0 35.5 3.5t39.5 21.5t50.5 56t69.5 107q175 297 382 606t439 614z" />
    <glyph glyph-name="Mu" unicode="&#x39c;" horiz-adv-x="1837" 
d="M291 1279q9 33 9 56q0 51 -47 51h-30l21 80h307q33 -59 67.5 -146.5t66 -193.5t58.5 -225.5t45 -242.5q44 65 97.5 138.5t112.5 149t121.5 151t124 143.5t120 126t108.5 100h293l-21 -80h-30q-35 0 -52.5 -27t-31.5 -78l-293 -1093q-6 -23 -9.5 -40t-3.5 -31q0 -19 9 -28
t31 -9h30l-21 -80h-359l21 80h30q36 0 53.5 25.5t32.5 81.5l302 1130q-55 -50 -117 -117.5t-127 -145.5t-131 -163t-129 -171t-121 -169t-107 -157h-69q-10 81 -25.5 171.5t-35 182.5t-41.5 180.5t-45 165.5t-46.5 137.5t-44.5 95.5l-254 -949q-25 -94 -38 -152t-13 -90
q0 -33 14 -44.5t44 -11.5h31l-21 -80h-349l21 80h35q29 0 49 11.5t37.5 43.5t35.5 90.5t44 153.5z" />
    <glyph glyph-name="Nu" unicode="&#x39d;" horiz-adv-x="1580" 
d="M906 0q-19 131 -53 263t-77 258.5t-92 244t-98 219t-95 183t-83 136.5l-248 -926q-25 -92 -37 -149t-12 -90q0 -35 14 -47t42 -12h31l-21 -80h-349l21 80h35q26 0 45.5 11.5t38 43.5t37.5 90.5t45 153.5l242 903q7 25 7 46q0 30 -15 44t-41 14h-30l21 80h263
q29 -33 65.5 -88t75.5 -125.5t79.5 -152t78.5 -168t72 -174t60.5 -169t43 -154t20.5 -128.5q3 14 6 31t6.5 33t6.5 29.5t5 20.5l179 667q24 91 36.5 148.5t12.5 90.5q0 35 -14 47t-42 12h-31l21 80h349l-21 -80h-35q-27 0 -47 -11.5t-38 -43.5t-36.5 -91t-43.5 -153
l-291 -1087h-109z" />
    <glyph glyph-name="Xi" unicode="&#x39e;" horiz-adv-x="1438" 
d="M708 142q64 0 111.5 4.5t84.5 20t66.5 45t58.5 78.5h74l-104 -290h-1140l44 290h73q3 -49 17 -78.5t42.5 -45t73.5 -20t108 -4.5h491zM892 1466q42 0 99 0.5t119.5 3t123.5 7.5t110 13l-37 -304h-74q-3 51 -22 79t-49.5 41.5t-70.5 16.5t-83 3h-505q-44 0 -85 -3
t-79.5 -16.5t-72.5 -41.5t-64 -79h-74l123 304q45 -8 103.5 -13t119.5 -7.5t118 -3t99 -0.5h201zM876 861q30 0 56.5 2t50 14.5t44.5 38.5t40 74h74l-111 -416h-74q4 20 4 42q0 29 -9.5 49t-25.5 32.5t-38.5 18t-47.5 5.5h-441q-30 0 -58.5 -7.5t-54 -24.5t-46.5 -45
t-36 -70h-74l111 416h74q-4 -23 -4 -44q0 -32 10 -49t27 -25t39.5 -9.5t48.5 -1.5h441z" />
    <glyph glyph-name="Omicron" unicode="&#x39f;" horiz-adv-x="1595" 
d="M-20 494v27q0 130 28 252t80.5 229.5t128 196.5t171 153.5t209.5 100t243 35.5q141 0 249 -36.5t181 -104.5t110 -166.5t37 -222.5q0 -130 -28 -253.5t-80.5 -232.5t-128 -199.5t-171.5 -156t-211 -102t-246 -36.5q-135 0 -240 35.5t-177.5 102.5t-112 162.5t-42.5 215.5
zM847 1392q-107 0 -199 -38.5t-167.5 -105.5t-134.5 -156t-99 -189.5t-60.5 -208t-20.5 -209.5q0 -87 21.5 -162t68 -130.5t120 -87t177.5 -31.5q102 0 191.5 37t164.5 101.5t134.5 152t100.5 188t63 210t22 217.5q0 86 -21.5 161t-67.5 131t-118.5 88t-174.5 32z" />
    <glyph glyph-name="Pi" unicode="&#x3a0;" horiz-adv-x="1574" 
d="M1180 1279q8 27 8 47q0 18 -9 29t-32 11h-590q-36 0 -52.5 -25.5t-26.5 -61.5l-293 -1092q-6 -23 -8.5 -39t-2.5 -28q0 -24 10 -32t30 -8h29l-22 -80h-358l22 80h30q15 0 26.5 4.5t21.5 16t19 32.5t17 54l293 1092q6 22 8.5 38.5t2.5 28.5q0 23 -10 31.5t-30 8.5h-30
l22 80h1247l-22 -80h-29q-15 0 -27 -4.5t-22 -16t-18.5 -32.5t-17.5 -54l-293 -1092q-6 -23 -8.5 -39t-2.5 -28q0 -24 10 -32t30 -8h29l-22 -80h-359l22 80h30q15 0 26.5 4.5t21.5 16t19 32.5t18 54z" />
    <glyph glyph-name="Rho" unicode="&#x3a1;" horiz-adv-x="1371" 
d="M457 831q54 -26 121.5 -44.5t139.5 -18.5q51 0 107 7.5t108 37t94.5 88t66.5 160.5q12 49 12 94q0 114 -79 175.5t-237 61.5q-88 0 -144 -4t-90 -14.5t-50 -28.5t-23 -46l-298 -1112q-7 -26 -10.5 -43.5t-3.5 -30.5q0 -19 9.5 -26t32.5 -7h30l-21 -80h-360l21 80h30
q18 0 30.5 4.5t22 16.5t17 33t16.5 53l292 1092q14 51 14 74q0 18 -9 25.5t-29 7.5h-34l21 80h130q55 0 107 3.5t109.5 7.5t126 7.5t155.5 3.5q95 0 172.5 -22t133 -64.5t86 -104.5t30.5 -141q0 -23 -2.5 -46.5t-7.5 -48.5q-19 -88 -53 -151.5t-78.5 -108t-98 -71.5
t-110.5 -42t-115.5 -20t-114.5 -5q-80 0 -156 15t-141 42z" />
    <glyph glyph-name="Sigma" unicode="&#x3a3;" horiz-adv-x="1318" 
d="M569 150q64 0 114 15t90 43t73 67.5t62 88.5h74l-129 -364h-1074l25 89q47 50 108 107.5t130 117t143.5 120t149 116t145.5 105t133 87.5q-71 62 -136 131.5t-122 147t-105 165t-84 185.5l25 95h579q42 0 99.5 0.5t119.5 3t123.5 7.5t110.5 13l-44 -324h-74
q-3 51 -19.5 88.5t-44 62t-65 37t-80.5 12.5h-542q31 -77 78.5 -153t104.5 -148t121.5 -136.5t131.5 -116.5l-24 -89q-39 -23 -94.5 -58t-121 -80t-136.5 -97t-140.5 -108.5t-135 -114.5t-118.5 -115h549z" />
    <glyph glyph-name="Tau" unicode="&#x3a4;" horiz-adv-x="1282" 
d="M431 1366q-44 0 -87.5 -12.5t-85 -37t-78 -62t-66.5 -88.5h-74l130 324q45 -8 103.5 -13t119 -7.5t117.5 -3t99 -0.5h284q42 0 99.5 0.5t119.5 3t123.5 7.5t110.5 13l-44 -324h-74q-3 51 -19.5 88.5t-44 62t-65 37t-80.5 12.5h-145q-36 0 -53 -25.5t-27 -61.5l-292 -1092
q-7 -26 -11 -44.5t-4 -30.5q0 -19 10 -25.5t32 -6.5h30l-21 -80h-359l21 80h30q18 0 30.5 4.5t21.5 16t17 32.5t17 54l292 1092q3 12 5 23t2 21q0 19 -8.5 31t-30.5 12h-145z" />
    <glyph glyph-name="Upsilon" unicode="&#x3a5;" horiz-adv-x="1421" 
d="M1130 1250q32 42 46 68.5t14 43.5q0 24 -31 24h-12l21 80h337l-21 -80h-5q-18 0 -36.5 -5.5t-44 -23.5t-62 -52t-90.5 -91q-56 -59 -118 -118.5t-132.5 -123t-151.5 -133t-175 -148.5l-134 -504q-4 -15 -7 -31t-3 -30q0 -20 8 -33t29 -13h30l-21 -80h-359l21 80h30
q18 0 32 10t24.5 25.5t17.5 34.5t12 37l134 505q-100 152 -185 308t-140 318q-8 21 -13 34.5t-10 21t-10.5 10t-12.5 2.5h-31l21 80h320l-21 -80h-26q-14 0 -24 -8.5t-10 -25.5q0 -13 8 -34q23 -63 55.5 -133t70 -140t78.5 -135t82 -117q70 55 138.5 110t132 111.5
t120.5 115t104 120.5z" />
    <glyph glyph-name="Phi" unicode="&#x3a6;" horiz-adv-x="1757" 
d="M535 221q-128 0 -231.5 21t-176.5 65t-112 113.5t-39 166.5q0 73 24 163q38 142 109.5 239t173 156.5t230 85.5t279.5 26h37l6 22q12 45 12 68t-10 31t-30 8h-30l21 80h359l-21 -80h-29q-15 0 -26.5 -4.5t-22 -16t-19.5 -32.5t-18 -54l-6 -22h17q124 0 225 -22.5
t173 -69.5t111 -118.5t39 -170.5q0 -37 -5.5 -77t-17.5 -85q-38 -142 -111 -236.5t-174.5 -151.5t-227 -81t-269.5 -24h-37l-9 -34q-12 -45 -12 -68t10 -31t30 -8h29l-21 -80h-359l21 80h30q14 0 26 4.5t22.5 16t19.5 32.5t18 54l9 34h-17zM790 316q131 0 228.5 29t167.5 83
t115 131.5t71 174.5q11 43 17.5 82t6.5 75q0 62 -20.5 112t-66 85.5t-117.5 54.5t-175 19h-28l-226 -846h27zM192 734q-23 -84 -23 -152q0 -62 20.5 -111.5t66.5 -84t118 -52.5t176 -18h27l226 846h-26q-129 0 -226.5 -31t-168.5 -87.5t-117.5 -135t-72.5 -174.5z" />
    <glyph glyph-name="Chi" unicode="&#x3a7;" horiz-adv-x="1502" 
d="M1471 1386q-24 0 -47.5 -9.5t-46 -25t-44.5 -36.5t-42 -43q-63 -69 -128 -131t-133 -121.5t-140 -118t-148 -119.5q46 -73 92 -147.5t88 -152.5t78 -161.5t62 -173.5q10 -35 29 -51t33 -16h31l-21 -80h-339l21 80h26q15 0 25.5 9t10.5 29q0 6 -1 13.5t-4 15.5
q-47 139 -118.5 266t-151.5 254q-123 -104 -219.5 -195t-163 -164t-101 -125.5t-34.5 -79.5q0 -23 29 -23h12l-21 -80h-337l21 80h5q27 0 54 13t57.5 38.5t66 62t79.5 83.5q117 124 242.5 237t263.5 225q-44 69 -86.5 138.5t-81 141.5t-72 146.5t-58.5 152.5
q-7 22 -15.5 35.5t-17 20.5t-16.5 9.5t-15 2.5h-31l21 80h348l-21 -80h-26q-15 0 -26 -10.5t-11 -30.5q0 -14 6 -30q45 -125 108 -237.5t134 -224.5q115 93 225.5 189t203.5 208q35 42 50 68.5t15 41.5t-11.5 20.5t-28.5 5.5h-12l21 80h337l-21 -80h-5v0z" />
    <glyph glyph-name="Psi" unicode="&#x3a8;" horiz-adv-x="1619" 
d="M1348 1310q9 32 26.5 60.5t42 49.5t55 33.5t64.5 12.5h127l-22 -80h-30q-18 0 -30.5 -4.5t-21.5 -16t-16.5 -32.5t-16.5 -54l-63 -235q-30 -111 -97 -206.5t-161.5 -165t-211.5 -109.5t-246 -40l-90 -336q-7 -26 -10.5 -44t-3.5 -30q0 -20 9.5 -26.5t32.5 -6.5h30
l-22 -80h-359l22 80h30q18 0 30 4.5t21.5 16t17 32.5t16.5 54l90 336q-105 0 -189 28.5t-143 80t-90.5 123t-31.5 157.5q0 63 18 132l63 235q7 26 10.5 44t3.5 30q0 20 -10 26.5t-32 6.5h-30l22 80h126q55 0 83 -30t28 -78q0 -11 -2 -23t-5 -25l-71 -266
q-11 -38 -15.5 -73.5t-4.5 -67.5q0 -65 19.5 -117t57 -89t93 -56.5t126.5 -19.5l177 658q7 26 10.5 44t3.5 30q0 20 -10 26.5t-32 6.5h-30l22 80h359l-22 -80h-30q-18 0 -30.5 -4.5t-21.5 -16t-16.5 -32.5t-16.5 -54l-177 -659q89 0 169.5 31t146.5 86.5t114.5 133.5
t73.5 173z" />
    <glyph glyph-name="Omega" unicode="&#x3a9;" horiz-adv-x="1657" 
d="M217 143l13 43q-38 30 -68 73t-50 95.5t-30.5 113.5t-10.5 126q0 110 30 223q35 130 99.5 251t162.5 214.5t233 149.5t311 56q138 0 235 -35t158.5 -96.5t89.5 -144t28 -177.5q0 -105 -30 -216q-31 -114 -80 -211.5t-111 -177t-134 -141t-150 -103.5l-13 -43h93
q64 0 109.5 16t80.5 45.5t63 70t57 89.5h74l-138 -364h-606l32 118q100 48 181.5 118t144.5 156.5t108.5 185t73.5 203.5q23 84 34.5 157t11.5 136q0 155 -76 240t-240 85q-115 0 -210 -42.5t-170 -122t-131.5 -194t-95.5 -259.5q-17 -63 -28.5 -134t-11.5 -143
q0 -58 9.5 -114.5t32 -107t59.5 -92.5t93 -72l-32 -118h-586l54 364h73q3 -49 9 -89.5t25.5 -70t56.5 -45.5t101 -16h66z" />
    <glyph glyph-name="Iotadieresis" unicode="&#x3aa;" horiz-adv-x="686" 
d="M292 1279q12 45 12 68t-10 31t-30 8h-30l21 80h359l-21 -80h-29q-15 0 -27 -4.5t-22 -16t-19 -32.5t-18 -54l-292 -1092q-12 -45 -12 -68t10 -31t30 -8h29l-21 -80h-359l21 80h30q15 0 26.5 4.5t22 16t19.5 32.5t18 54z" />
    <glyph glyph-name="Upsilondieresis" unicode="&#x3ab;" horiz-adv-x="1290" 
d="M1080 1250q32 42 46 68.5t14 43.5q0 24 -31 24h-12l21 80h337l-21 -80h-5q-18 0 -36.5 -5.5t-44 -23.5t-62 -52t-90.5 -91q-56 -59 -118 -118.5t-132.5 -123t-151.5 -133t-175 -148.5l-134 -504q-4 -15 -7 -31t-3 -30q0 -20 8 -33t29 -13h30l-21 -80h-359l21 80h30
q18 0 32 10t24.5 25.5t17.5 34.5t12 37l134 505q-100 152 -185 308t-140 318q-8 21 -13 34.5t-10 21t-10.5 10t-12.5 2.5h-31l21 80h320l-21 -80h-26q-14 0 -24 -8.5t-10 -25.5q0 -13 8 -34q23 -63 55.5 -133t70 -140t78.5 -135t82 -117q70 55 138.5 110t132 111.5
t120.5 115t104 120.5z" />
    <glyph glyph-name="alphatonos" unicode="&#x3ac;" horiz-adv-x="1317" 
d="M966 97q21 0 47.5 13.5t54 36t54 52.5t47.5 64v-105q-67 -93 -133 -136.5t-138 -43.5q-86 0 -121 41.5t-35 121.5q0 32 4 69t10 77l-6 -9q-59 -85 -109.5 -142.5t-100.5 -92.5t-104 -50t-120 -15q-61 0 -119.5 19.5t-104 61.5t-73.5 109t-28 162q0 100 19 195t54.5 179
t87 154t116.5 120t142 78t164 28q67 0 119.5 -18.5t91 -51t64 -77t39.5 -96.5q29 60 57 116.5t52 104.5h222l-20 -75h-28q-21 0 -35 -10.5t-30 -42.5q-54 -114 -105 -213.5t-97 -184.5q-1 -47 -1.5 -89.5t-1 -77.5t-0.5 -61v-40q0 -27 1.5 -57t8.5 -55.5t19.5 -42
t35.5 -16.5zM587 995q-76 0 -137 -36.5t-108 -95t-81.5 -132.5t-56.5 -148.5t-32.5 -142.5t-10.5 -116q0 -62 9 -110t30 -80.5t55.5 -49t84.5 -16.5q45 0 86.5 18.5t84.5 63.5t90 120.5t102 189.5l92 190q-2 69 -10.5 132t-31.5 110t-63 75t-103 28zM750 1466h223l-276 -289
h-105z" />
    <glyph glyph-name="epsilontonos" unicode="&#x3ad;" horiz-adv-x="992" 
d="M593 996q-43 0 -84 -10t-75.5 -32t-61 -57.5t-39.5 -86.5q-5 -16 -6.5 -30t-1.5 -26q0 -38 15 -63t38 -40t49.5 -21t50.5 -6q14 3 30.5 5.5t32.5 2.5q28 0 48.5 -9.5t20.5 -32.5q0 -21 -9 -36t-23 -24t-31 -13t-33 -4t-32 2.5t-31 7.5q-59 0 -104 -15t-77.5 -38.5
t-54 -54t-34.5 -61t-18 -58.5t-5 -48q0 -56 28.5 -89t73 -50t98.5 -21.5t105 -4.5q75 0 138.5 12t114.5 29l-27 -101q-26 -9 -65.5 -17t-86 -14t-96 -10t-95.5 -4q-93 0 -162 21t-115 56t-69 82t-23 100q0 49 20 104t60 104t101 86.5t143 53.5q-29 8 -56.5 23t-49 37.5
t-34.5 51t-13 63.5q0 16 3 33q12 67 50.5 121t100 91.5t143.5 58t180 20.5q15 0 40.5 -1t55 -4t60 -7.5t55 -11.5t40 -16.5t15.5 -21.5q0 -10 -3 -20l-21 -80q-9 -35 -21.5 -52t-42.5 -17q-11 0 -18 10.5t-15 26.5t-20 34.5t-32 34.5t-50 26.5t-75 10.5zM684 1466h223
l-276 -289h-105z" />
    <glyph glyph-name="etatonos" unicode="&#x3ae;" horiz-adv-x="1185" 
d="M175 888q5 21 8 36.5t3 26.5q0 21 -9.5 28.5t-27.5 7.5h-28l20 75h244l-83 -294q89 166 194 241t211 75q121 0 176.5 -54.5t55.5 -151.5q0 -67 -24 -149l-240 -813q-8 -29 -18.5 -70.5t-10.5 -78.5q0 -40 14 -58t40 -18q21 0 47.5 13.5t54 36t54 52.5t47.5 64v-105
q-67 -93 -133 -136.5t-138 -43.5q-34 0 -63.5 10.5t-51 31t-34 51t-12.5 70.5q0 43 7 84t19 81l244 823q11 37 16.5 67.5t5.5 55.5q0 111 -116 111q-47 0 -107 -37t-122.5 -117.5t-122.5 -208t-108 -307.5l-76 -287h-173zM684 1466h223l-276 -289h-105z" />
    <glyph glyph-name="iotatonos" unicode="&#x3af;" horiz-adv-x="568" 
d="M174 888q6 21 8.5 36.5t2.5 26.5q0 21 -9.5 28.5t-27.5 7.5h-28l20 75h253l-200 -740q-4 -14 -9 -32.5t-9.5 -38t-7.5 -40t-3 -38.5q0 -39 14.5 -56.5t37.5 -17.5q21 0 48 13t54.5 35t54.5 52t48 64v-105q-67 -93 -133 -136.5t-138 -43.5q-81 0 -120.5 44.5t-39.5 126.5
q0 60 21 138zM368 1466h223l-276 -289h-105z" />
    <glyph glyph-name="upsilondieresistonos" unicode="&#x3b0;" horiz-adv-x="1051" 
d="M340 68q50 0 103.5 21.5t104.5 72.5t96.5 135.5t79.5 209.5q17 65 30.5 137t13.5 153q0 61 -10 127t-34 138h90q60 -90 84 -177t24 -173q0 -49 -6.5 -97.5t-17.5 -96.5q-31 -133 -92.5 -234t-140 -169t-169 -102.5t-180.5 -34.5q-157 0 -230.5 62t-73.5 178
q0 32 5.5 68.5t16.5 76.5l148 550q3 11 4 19.5t1 16.5q0 38 -32 38h-33l20 75h252l-190 -707q-11 -38 -17 -73t-6 -67t8 -59t26.5 -46.5t49 -30.5t75.5 -11zM591 1466h223l-276 -289h-105z" />
    <glyph glyph-name="alpha" unicode="&#x3b1;" horiz-adv-x="1336" 
d="M966 97q21 0 47.5 13.5t54 36t54 52.5t47.5 64v-105q-67 -93 -133 -136.5t-138 -43.5q-86 0 -121 41.5t-35 121.5q0 32 4 69t10 77l-6 -9q-59 -85 -109.5 -142.5t-100.5 -92.5t-104 -50t-120 -15q-61 0 -119.5 19.5t-104 61.5t-73.5 109t-28 162q0 100 19 195t54.5 179
t87 154t116.5 120t142 78t164 28q67 0 119.5 -18.5t91 -51t64 -77t39.5 -96.5q29 60 57 116.5t52 104.5h222l-20 -75h-28q-21 0 -35 -10.5t-30 -42.5q-54 -114 -105 -213.5t-97 -184.5q-1 -47 -1.5 -89.5t-1 -77.5t-0.5 -61v-40q0 -27 1.5 -57t8.5 -55.5t19.5 -42
t35.5 -16.5zM587 995q-76 0 -137 -36.5t-108 -95t-81.5 -132.5t-56.5 -148.5t-32.5 -142.5t-10.5 -116q0 -62 9 -110t30 -80.5t55.5 -49t84.5 -16.5q45 0 86.5 18.5t84.5 63.5t90 120.5t102 189.5l92 190q-2 69 -10.5 132t-31.5 110t-63 75t-103 28z" />
    <glyph glyph-name="beta" unicode="&#x3b2;" horiz-adv-x="1156" 
d="M246 1108q28 105 71 177.5t98 117.5t120.5 65t138.5 20q70 0 121.5 -19.5t85 -53.5t50 -80t16.5 -99q0 -83 -28 -147.5t-70.5 -110t-92.5 -72.5t-95 -36q51 -3 100 -27.5t88 -66.5t62.5 -101t23.5 -132q0 -91 -22.5 -168.5t-62.5 -140.5t-94.5 -111t-119 -81
t-135.5 -49.5t-144 -16.5q-59 0 -117 11t-113 34l-114 -428h-171zM764 573q0 53 -12.5 97t-43.5 76t-83 50t-131 18l25 94q61 0 108.5 30t80 79t49.5 110.5t17 123.5q0 32 -7 59.5t-22 47t-39 30.5t-57 11q-80 0 -133 -60.5t-87 -187.5l-274 -1027q48 -23 93.5 -33.5
t90.5 -10.5q90 0 167.5 40t135 108t90 157.5t32.5 187.5z" />
    <glyph glyph-name="gamma" unicode="&#x3b3;" horiz-adv-x="1053" 
d="M130 957q0 17 -8.5 23.5t-23.5 6.5h-32l20 75h212q-1 -15 -1.5 -33.5t-0.5 -40.5q0 -59 3 -135t8.5 -160.5t13 -170.5t15.5 -164.5t17 -143.5t17 -107q40 40 85 102t88 134t82.5 148.5t69.5 147t47.5 129.5t17.5 96q0 44 -12.5 68t-27 38.5t-27 24t-12.5 24.5
q1 15 6 25.5t18.5 17t37.5 9.5t65 3q22 0 45 -3t41 -11t29.5 -24t11.5 -41q0 -43 -21 -112t-58.5 -154.5t-89.5 -182t-113 -194t-129 -190t-139 -170.5q1 -6 1 -12v-13q0 -33 -6.5 -74.5t-17.5 -85.5t-25.5 -86t-31 -75t-34 -53t-33.5 -20h-108q-11 0 -16 12.5t-5 33.5
q0 33 10.5 81.5t27 99.5t37.5 97t42 73q-15 74 -27.5 160.5t-23 177.5t-18.5 182.5t-13.5 176.5t-9 159.5t-4.5 130.5z" />
    <glyph glyph-name="delta" unicode="&#x3b4;" horiz-adv-x="1101" 
d="M1079 1401l-22 -81q-63 37 -151.5 59.5t-185.5 22.5q-45 0 -89 -8t-78.5 -25t-56 -44t-21.5 -64q0 -24 14 -46.5t41.5 -46.5t67.5 -51.5t92 -61.5q47 -31 86.5 -69t68 -86.5t44.5 -110.5t16 -140q0 -79 -17 -159.5t-50 -155t-81 -139.5t-110 -113.5t-137 -76t-162 -27.5
q-84 0 -149 25.5t-109.5 74t-67 118t-22.5 157.5q0 57 10.5 121.5t33.5 130t58.5 129.5t84.5 119.5t113.5 100t144.5 70.5q-61 45 -100 95t-39 115q0 71 33 119.5t88.5 78.5t128 43t150.5 13q56 0 110 -6.5t102.5 -18t89.5 -27.5t71 -35zM168 305q0 -53 10.5 -96.5
t32.5 -74.5t57 -48.5t85 -17.5q58 0 109 24t93.5 66t76 98t56.5 120t35 133t12 136q0 98 -32.5 161.5t-103.5 111.5l-68 46q-70 -26 -124 -73t-94.5 -106.5t-68 -126.5t-44.5 -131.5t-24.5 -122.5t-7.5 -99z" />
    <glyph glyph-name="epsilon" unicode="&#x3b5;" horiz-adv-x="992" 
d="M593 996q-43 0 -84 -10t-75.5 -32t-61 -57.5t-39.5 -86.5q-5 -16 -6.5 -30t-1.5 -26q0 -38 15 -63t38 -40t49.5 -21t50.5 -6q14 3 30.5 5.5t32.5 2.5q28 0 48.5 -9.5t20.5 -32.5q0 -21 -9 -36t-23 -24t-31 -13t-33 -4t-32 2.5t-31 7.5q-59 0 -104 -15t-77.5 -38.5
t-54 -54t-34.5 -61t-18 -58.5t-5 -48q0 -56 28.5 -89t73 -50t98.5 -21.5t105 -4.5q75 0 138.5 12t114.5 29l-27 -101q-26 -9 -65.5 -17t-86 -14t-96 -10t-95.5 -4q-93 0 -162 21t-115 56t-69 82t-23 100q0 49 20 104t60 104t101 86.5t143 53.5q-29 8 -56.5 23t-49 37.5
t-34.5 51t-13 63.5q0 16 3 33q12 67 50.5 121t100 91.5t143.5 58t180 20.5q15 0 40.5 -1t55 -4t60 -7.5t55 -11.5t40 -16.5t15.5 -21.5q0 -10 -3 -20l-21 -80q-9 -35 -21.5 -52t-42.5 -17q-11 0 -18 10.5t-15 26.5t-20 34.5t-32 34.5t-50 26.5t-75 10.5z" />
    <glyph glyph-name="zeta" unicode="&#x3b6;" horiz-adv-x="917" 
d="M1138 1384q-192 -149 -355.5 -293t-288 -276.5t-205 -251.5t-107.5 -217q-5 -16 -6.5 -30t-1.5 -27q0 -45 21.5 -75t57 -50.5t80.5 -35t91.5 -27.5t91.5 -28t80.5 -37.5t57 -55t21.5 -80.5q0 -37 -16.5 -77.5t-44.5 -81t-65 -78.5t-78 -70h-104q31 22 63 53.5t58.5 68.5
t43.5 76.5t17 77.5q0 35 -24 55.5t-64 33t-90.5 20t-103 16t-103 22t-90.5 38.5t-64 63.5t-24 98.5q0 95 53.5 203.5t159 235.5t263 275.5t365.5 324.5q17 14 25 32t8 35q0 20 -12 34.5t-37 14.5h-484l25 95h762q22 0 34.5 -12t12.5 -29q0 -11 -5.5 -21.5t-17.5 -19.5z" />
    <glyph glyph-name="eta" unicode="&#x3b7;" horiz-adv-x="1150" 
d="M181 888q5 21 8 36.5t3 26.5q0 21 -9.5 28.5t-27.5 7.5h-28l20 75h244l-83 -294q89 166 194 241t211 75q121 0 176.5 -54.5t55.5 -151.5q0 -67 -24 -149l-240 -813q-8 -29 -18.5 -70.5t-10.5 -78.5q0 -40 14 -58t40 -18q21 0 47.5 13.5t54 36t54 52.5t47.5 64v-105
q-67 -93 -133 -136.5t-138 -43.5q-34 0 -63.5 10.5t-51 31t-34 51t-12.5 70.5q0 43 7 84t19 81l244 823q11 37 16.5 67.5t5.5 55.5q0 111 -116 111q-47 0 -107 -37t-122.5 -117.5t-122.5 -208t-108 -307.5l-76 -287h-173z" />
    <glyph glyph-name="theta" unicode="&#x3b8;" horiz-adv-x="1175" 
d="M337 -22q-71 0 -127 20.5t-94.5 63t-58.5 109t-20 158.5q0 79 15 176.5t47 216.5q103 385 269.5 575.5t376.5 190.5q147 0 223.5 -91.5t76.5 -277.5q0 -82 -15 -180.5t-47 -216.5q-53 -198 -122.5 -339t-152 -231t-176 -132t-195.5 -42zM361 66q69 0 127.5 35t110 110
t98 192t91.5 281h-514q-35 -137 -53.5 -239.5t-18.5 -177.5q0 -105 38.5 -153t120.5 -48zM718 1401q-71 0 -129.5 -40.5t-109 -119.5t-94.5 -195t-86 -267h514q32 124 48.5 224t16.5 176q0 109 -38 165.5t-122 56.5z" />
    <glyph glyph-name="iota" unicode="&#x3b9;" horiz-adv-x="568" 
d="M174 888q6 21 8.5 36.5t2.5 26.5q0 21 -9.5 28.5t-27.5 7.5h-28l20 75h253l-200 -740q-4 -14 -9 -32.5t-9.5 -38t-7.5 -40t-3 -38.5q0 -39 14.5 -56.5t37.5 -17.5q21 0 48 13t54.5 35t54.5 52t48 64v-105q-67 -93 -133 -136.5t-138 -43.5q-81 0 -120.5 44.5t-39.5 126.5
q0 60 21 138z" />
    <glyph glyph-name="kappa" unicode="&#x3ba;" horiz-adv-x="1093" 
d="M506 161q-1 8 -1.5 16t-0.5 18q0 28 1.5 62t1.5 70q0 37 -3.5 75t-13 70.5t-28 58t-48.5 38.5q-37 -9 -74.5 -15t-76.5 -8l-146 -546h-172l237 888q5 21 8 36.5t3 26.5q0 21 -9.5 28.5t-27.5 7.5h-28l20 75h252l-113 -421q42 0 91.5 10t100 27.5t98 42t86 54t65 63
t34.5 69.5q1 4 1 12q0 19 -11.5 32t-25.5 23.5t-25.5 20.5t-11.5 24q1 15 6 25.5t18.5 17t37.5 9.5t65 3q22 0 44.5 -2.5t41 -10t30 -21.5t11.5 -37q0 -55 -32.5 -112.5t-88.5 -111t-132 -100t-163 -77.5q45 -20 74 -50.5t45.5 -67.5t24 -78t10 -81.5t2.5 -77.5t2 -67
q3 -41 17.5 -57t42.5 -16q23 0 48.5 11.5t52 32.5t52 49.5t48.5 62.5v-105q-61 -85 -128 -132.5t-137 -47.5q-82 0 -124 44.5t-51 138.5z" />
    <glyph glyph-name="lambda" unicode="&#x3bb;" horiz-adv-x="1169" 
d="M859 96q34 0 87 44t109 123v-105q-33 -46 -63 -80t-60 -56t-61 -33t-67 -11q-51 0 -87.5 22.5t-54.5 66.5q-20 48 -36 132t-31.5 195t-32 244.5t-37.5 281.5q-72 -86 -135 -177.5t-113.5 -181t-87.5 -173t-57 -154.5q-8 -30 -8 -51q0 -33 12 -56.5t26.5 -40t26.5 -29
t12 -24.5q-2 -15 -6 -25.5t-16.5 -17t-36.5 -9.5t-64 -3q-23 0 -45.5 3t-40.5 11t-29.5 23.5t-11.5 41.5q0 17 4 37.5t10 42t13.5 43t15.5 40.5q88 219 217 425.5t296 403.5q-14 92 -28 157t-30 106t-35 60t-43 19h-37l32 75h171q24 0 45 -38t42 -124t42.5 -225t47.5 -341
q23 -182 39.5 -305t32.5 -198t33 -107t40 -32z" />
    </font>
</defs>
</svg>
