<?xml version="1.0" standalone="no"?>
<!DOCTYPE svg PUBLIC "-//W3C//DTD SVG 1.1//EN" "http://www.w3.org/Graphics/SVG/1.1/DTD/svg11.dtd" >
<svg xmlns="http://www.w3.org/2000/svg" xmlns:xlink="http://www.w3.org/1999/xlink" version="1.1">
<metadata>
Created by FontForge 20150102 at Sat Jan 17 10:23:02 2015
 By uniteet7
Copyright (c) 2011 by Ruben Hakobyan (Tarumian). All rights reserved.
</metadata>
<defs>
<font id="Arian" horiz-adv-x="0" >
  <font-face 
    font-family="Arian"
    font-weight="400"
    font-stretch="normal"
    units-per-em="2048"
    panose-1="1 0 0 0 0 0 0 0 0 0"
    ascent="1638"
    descent="-410"
    x-height="1062"
    cap-height="1466"
    bbox="-846 -626 2572 1916"
    underline-thickness="150"
    underline-position="-142"
    unicode-range="U+0020-1083F"
  />
<missing-glyph horiz-adv-x="1429" 
d="M100 0v1416h1239v-1416h-1239zM1250 89v1238h-1061v-1238h1061z" />
    <glyph glyph-name=".notdef" horiz-adv-x="1429" 
d="M100 0v1416h1239v-1416h-1239zM1250 89v1238h-1061v-1238h1061z" />
    <glyph glyph-name=".null" 
 />
    <glyph glyph-name="nonmarkingreturn" horiz-adv-x="682" 
 />
    <glyph glyph-name="space" unicode=" " horiz-adv-x="586" 
 />
    <glyph glyph-name="exclam" unicode="!" horiz-adv-x="662" 
d="M459 1373q0 -9 -4.5 -65t-12 -141t-17.5 -191t-20 -215t-19.5 -213t-17.5 -185h-78q-7 81 -16 185t-18.5 213t-19 215t-17 191t-12 141t-4.5 65q0 57 35.5 86t92.5 29t92 -28.5t36 -86.5zM452 100q0 -55 -34.5 -88.5t-89.5 -33.5q-26 0 -48.5 9t-39 25t-26.5 38.5
t-10 49.5q0 55 34.5 89.5t89.5 34.5t89.5 -34.5t34.5 -89.5z" />
    <glyph glyph-name="quotedbl" unicode="&#x22;" horiz-adv-x="751" 
d="M502 947q-5 70 -16.5 133t-31.5 133q-10 35 -20.5 74.5t-10.5 77.5q0 57 34.5 90t94.5 33q59 0 94 -32t35 -89q0 -38 -10.5 -78.5t-19.5 -75.5q-18 -70 -29 -133t-14 -133h-106zM138 947q-5 70 -16.5 133t-31.5 133q-10 35 -20.5 74.5t-10.5 77.5q0 57 34.5 90t94.5 33
q59 0 94 -32t35 -89q0 -38 -10.5 -78.5t-19.5 -75.5q-18 -70 -29 -133t-14 -133h-106z" />
    <glyph glyph-name="numbersign" unicode="#" horiz-adv-x="1033" 
d="M99 -25l83 426h-162v149h191l71 363h-262v149h291l84 429h144l-84 -429h302l84 429h145l-84 -429h166v-149h-194l-72 -363h266v-149h-295l-84 -426h-144l83 426h-302l-83 -426h-144zM355 550h302l72 363h-303z" />
    <glyph glyph-name="dollar" unicode="$" horiz-adv-x="1099" 
d="M490 -211v190q-67 3 -113.5 8.5t-89.5 11.5t-92 10.5t-121 4.5l-33 298h74q27 -44 56.5 -85t72 -73.5t101.5 -54t145 -26.5v613q-80 21 -158 48t-140 71.5t-102 112t-45 169.5q-4 89 28.5 159.5t93 121t143.5 80.5t180 37v116h131v-114q50 -2 89 -5.5t78.5 -7t85 -6
t109.5 -2.5l33 -298h-74q-24 40 -51.5 77t-64.5 66.5t-86.5 50t-118.5 27.5v-552q85 -24 168 -53.5t149 -76.5t106.5 -119t40.5 -180q0 -94 -31 -169.5t-90.5 -130t-146 -87t-196.5 -40.5v-192h-131zM907 398q-6 55 -30.5 95t-62.5 69.5t-88 49.5t-105 37v-573q64 6 120 26
t95.5 57.5t59 96t11.5 142.5zM223 1087q8 -44 32 -76.5t59 -57t80 -43.5t96 -35v514q-59 -7 -113 -28t-93 -57.5t-57 -90.5t-4 -126z" />
    <glyph glyph-name="percent" unicode="%" horiz-adv-x="1750" 
d="M1059 1137q-38 -145 -154 -249q-59 -51 -118 -77t-123 -26q-118 0 -183 102q-40 64 -42 146q0 47 10 97h11v11h-6q36 144 150 245.5t238 101.5q121 0 187 -102q39 -65 41 -145q1 -45 -11 -104zM1752 1631l-1316 -1839l-13 5l-8 -9l-54 30l1322 1850zM1655 325
q-36 -148 -156 -250q-112 -99 -237 -99q-121 0 -185 97q-38 61 -39 144q-1 26 1 48.5t9 52.5h8v11q30 138 137 238q112 107 246 107q120 0 187 -102q39 -59 40 -143q1 -54 -11 -104zM917 1368q-10 27 -22.5 42.5t-35.5 24.5l-14 2l-17 2q-57 0 -111.5 -60.5t-87.5 -189.5
h-10v-11h7l-22 -86q-21 -90 -20 -139q0 -19 4 -35q13 -37 19 -45q11 -20 27 -28l24 -11l24 -1h9h7q24 2 47.5 16.5t50.5 44.5q52 50 88 196l26 93q17 79 17 125q-1 35 -10 60zM1512 554q-8 25 -21.5 43t-32.5 26l-18 2l-11 4q-54 0 -118 -66q-55 -62 -84 -186h-13v-11h10
l-23 -88q-21 -83 -20 -136q0 -20 5.5 -39t10.5 -33q14 -25 34 -35.5t23 -11.5q14 0 29 -4h5h7q43 7 95 58t93 198l21 95q20 81 19 128q-1 23 -2 32.5t-9 23.5z" />
    <glyph glyph-name="ampersand" unicode="&#x26;" horiz-adv-x="1496" 
d="M691 1393q-73 0 -133.5 -20.5t-104 -60t-67.5 -98.5t-24 -137q0 -68 21 -114t58.5 -74t88.5 -40.5t111 -12.5h14v-100h-14q-76 0 -135 -23.5t-99 -66.5t-60.5 -104.5t-20.5 -136.5t23 -135.5t69 -103t114.5 -65.5t158.5 -23t159 23t115 65.5t69.5 103t23.5 135.5v331
h-212v100h607v-100h-199v-331q0 -107 -42.5 -187t-118 -133.5t-178.5 -80t-224 -26.5q-122 0 -224.5 26.5t-177.5 80t-117 133.5t-42 187q0 67 18.5 126t52 108t79 85.5t99.5 58.5q-44 19 -82.5 45t-67.5 61.5t-46 81.5t-17 106q0 99 36.5 176t105 129t165.5 79t218 27
q71 0 119.5 -3.5t93.5 -7.5t95 -7.5t124 -3.5l33 -298h-74q-27 45 -58 86t-75.5 71.5t-106.5 49t-151 18.5z" />
    <glyph glyph-name="quotesingle" unicode="'" horiz-adv-x="374" 
d="M138 947q-5 70 -16.5 133t-31.5 133q-10 35 -20.5 74.5t-10.5 77.5q0 57 34.5 90t94.5 33q59 0 94 -32t35 -89q0 -38 -10.5 -78.5t-19.5 -75.5q-18 -70 -29 -133t-14 -133h-106z" />
    <glyph glyph-name="parenleft" unicode="(" horiz-adv-x="860" 
d="M1134 1450q-100 -71 -190.5 -163.5t-168.5 -201.5t-141.5 -233t-108.5 -257t-69.5 -272.5t-24.5 -280.5q0 -161 34.5 -319t109.5 -308l-47 -41q-146 189 -216 385t-70 391q0 137 30.5 270.5t86 259.5t133.5 243t173.5 220.5t206 192t229.5 158.5z" />
    <glyph glyph-name="parenright" unicode=")" horiz-adv-x="860" 
d="M-74 -582q99 70 190 163t169 202t141.5 233t108.5 256.5t69.5 272t24.5 280.5q0 161 -34.5 319.5t-109.5 308.5l47 41q146 -189 215.5 -385t69.5 -391q0 -137 -30.5 -270.5t-86 -260t-133.5 -243t-173 -220.5t-205.5 -192.5t-229.5 -157.5z" />
    <glyph glyph-name="asterisk" unicode="*" horiz-adv-x="744" 
d="M32 1206q-10 17 -10 41q0 20 6.5 39.5t18 34.5t27 24.5t34.5 9.5q29 0 61 -17.5t62.5 -40t58.5 -44t49 -30.5q-2 19 -11 46.5t-18.5 58.5t-17.5 62.5t-8 59.5q0 42 23 66.5t68 24.5t68.5 -25t23.5 -67q0 -28 -7.5 -59.5t-17.5 -61.5t-18.5 -57.5t-9.5 -46.5q21 9 48.5 30
t58 42.5t62 38.5t60.5 17q19 0 35 -9t27 -24t17.5 -34.5t6.5 -40.5q0 -33 -16.5 -51.5t-42.5 -28t-58.5 -12t-64.5 -2.5q-11 0 -21.5 0.5t-21.5 0.5q-20 0 -36.5 -1t-29.5 -4q17 -20 50.5 -42.5t67.5 -48t59 -54.5t25 -62q0 -18 -9.5 -35t-24.5 -30.5t-34 -21.5t-38 -8
q-25 0 -44 14.5t-33.5 38t-25.5 52.5t-20 57.5t-18 53.5t-18 40q-9 -15 -16.5 -40t-15.5 -54t-18 -58t-24 -52.5t-33 -38.5t-44 -15q-19 0 -37.5 8.5t-33.5 22.5t-24.5 31t-9.5 35q0 32 24.5 61t57 55t65 48.5t49.5 42.5q-17 4 -41.5 4.5t-52 1t-56.5 1.5t-55 6t-46.5 16
t-31.5 31z" />
    <glyph glyph-name="plus" unicode="+" horiz-adv-x="1088" 
d="M513 257v406h-404v123h404v400h123v-400h404v-123h-404v-406h-123z" />
    <glyph glyph-name="comma" unicode="," horiz-adv-x="568" 
d="M107 61q-22 13 -33.5 21.5t-11.5 22.5q0 19 13 27t27 8q6 0 11.5 -1t13.5 -1q20 0 41.5 6t41.5 17.5t36.5 28t26.5 36.5q8 17 17 26.5t23 9.5q19 0 27.5 -13t8.5 -28q0 -20 10 -38.5t21.5 -44.5t21.5 -63t10 -93q0 -69 -23.5 -131t-66 -115t-103.5 -95.5t-136 -71.5
q-6 -3 -12 -3q-16 0 -26.5 13.5t-10.5 28.5q0 19 17 28q38 18 67.5 43t50 56t31 65t10.5 70q0 54 -23.5 106t-79.5 85z" />
    <glyph glyph-name="hyphen" unicode="-" horiz-adv-x="618" 
d="M530 343h-448v114h448v-114z" />
    <glyph glyph-name="period" unicode="." horiz-adv-x="638" 
d="M450 25q-5 0 -10 1t-12 1q-19 0 -41.5 -8t-42.5 -20.5t-35.5 -27.5t-19.5 -29q-7 -16 -15.5 -25.5t-22.5 -9.5q-19 0 -27 12t-8 26q0 7 1.5 11.5t1.5 15.5q0 54 -26.5 89.5t-59.5 46.5q-16 7 -25.5 15.5t-9.5 22.5q0 18 12 26t26 8q6 0 11 -1t13 -1q19 0 41.5 8
t42.5 20.5t35 28t20 29.5q7 16 15.5 25.5t22.5 9.5q18 0 26 -12.5t8 -27.5q0 -5 -1 -10t-1 -12q0 -19 8 -41.5t20.5 -42.5t28 -35.5t29.5 -19.5q16 -7 25.5 -15.5t9.5 -22.5q0 -18 -13 -26.5t-27 -8.5z" />
    <glyph glyph-name="slash" unicode="/" horiz-adv-x="686" 
d="M0 -25l813 1516h108l-812 -1516h-109z" />
    <glyph glyph-name="zero" unicode="0" horiz-adv-x="1024" 
d="M543 -22q-169 0 -254 100t-85 295q0 109 19.5 221t56 216t90 194.5t122 158t150 106.5t175.5 39q86 0 149 -25t103.5 -73.5t60 -119t19.5 -161.5q0 -109 -20 -222t-57.5 -218.5t-91 -198.5t-121 -162.5t-147 -109.5t-169.5 -40zM942 1093q0 30 -5.5 56t-18 45t-33 30
t-50.5 11q-43 0 -84.5 -33.5t-80.5 -91t-74 -133t-65 -159.5t-54.5 -170.5t-41.5 -166.5t-26.5 -147t-9.5 -112q0 -31 5 -60t18 -52t35.5 -37t57.5 -14q52 0 103.5 47.5t99 127.5t88.5 184.5t71 219.5t47.5 232.5t17.5 222.5z" />
    <glyph glyph-name="one" unicode="1" horiz-adv-x="1024" 
d="M1034 1285l-323 -1210h136l-20 -75h-488l20 75h143l260 975q3 12 3 21q0 17 -11 17q-7 0 -25.5 -10.5t-49.5 -27.5t-76 -38t-106 -41l-21 72q45 11 101 36.5t112 59.5t106.5 72t86.5 74h152z" />
    <glyph glyph-name="two" unicode="2" horiz-adv-x="1024" 
d="M415 327q30 12 57 12q30 0 56.5 -12t51 -29.5t48.5 -38.5t49.5 -38.5t52 -29.5t57.5 -12q33 0 61.5 14t51 38t39.5 56t27 68h68q-17 -81 -55 -150.5t-87.5 -119.5t-105.5 -78.5t-109 -28.5q-46 0 -78.5 17.5t-56.5 44t-42.5 57.5t-37.5 57.5t-41.5 44t-54.5 17.5
q-29 0 -52 -18.5t-40 -49t-27 -69.5t-11 -79h-80q7 100 42.5 176.5t89 138.5t119 112.5t133 98.5t131 97t113.5 106.5t80 128.5t30 163q0 42 -15.5 79.5t-43.5 65.5t-67 44t-87 16q-29 0 -55 -6.5t-45.5 -19.5t-31.5 -33t-12 -48q0 -21 9.5 -33.5t23.5 -21t30 -16.5
t30 -18.5t23.5 -26t9.5 -41.5q0 -56 -34 -92.5t-109 -36.5q-42 0 -72 13t-49.5 34.5t-29 50t-9.5 60.5q0 64 26 121t74 100.5t116 69t153 25.5q93 0 165 -24.5t121.5 -67t75 -99.5t25.5 -121q0 -106 -37 -181.5t-97.5 -131.5t-136.5 -98t-153.5 -81t-150.5 -80t-126 -96z
" />
    <glyph glyph-name="three" unicode="3" horiz-adv-x="1024" 
d="M761 676q63 -8 109 -33t76.5 -61.5t45 -81t14.5 -89.5q0 -91 -31.5 -170t-89 -137.5t-138 -92t-178.5 -33.5q-83 0 -153.5 17.5t-122.5 51.5t-81.5 83.5t-29.5 114.5q0 43 14.5 78t39 60t56.5 38t67 13q24 0 48 -6.5t43 -21t31 -36.5t12 -52q0 -33 -10.5 -54t-25.5 -34.5
t-33.5 -22t-33.5 -16.5t-25.5 -17.5t-10.5 -25.5q0 -20 13.5 -38t37 -31.5t55.5 -21t68 -7.5q68 0 117.5 33.5t82 89t48 127.5t15.5 148q0 41 -10.5 78t-29 65t-44 44.5t-54.5 16.5q-18 0 -32.5 -3t-28 -7t-27 -7t-29.5 -3q-20 0 -37 13.5t-17 29.5q0 35 21.5 47.5
t50.5 12.5q10 0 28 -2t37 -4.5t35 -4.5t24 -2q55 0 98.5 26.5t73.5 72.5t45.5 107t15.5 129q0 88 -44.5 132.5t-126.5 44.5q-20 0 -39 -4t-34 -12.5t-24.5 -21t-9.5 -30.5q0 -21 11.5 -31t25 -20.5t25 -27t11.5 -50.5q0 -38 -13.5 -63t-35 -40t-47.5 -21.5t-51 -6.5
q-29 0 -54 10t-44 28t-30 43t-11 55q0 64 30.5 113t80.5 83t114.5 51.5t132.5 17.5q80 0 146 -20t113 -58.5t72.5 -93t25.5 -123.5q0 -65 -28 -121.5t-77.5 -100t-118 -71.5t-150.5 -36v-7z" />
    <glyph glyph-name="four" unicode="4" horiz-adv-x="1024" 
d="M1084 1285l-231 -862h220l-22 -80h-220l-73 -273h162l-18 -70h-535l18 70h162l73 273h-465l34 124q107 85 208 181t190 200t165 214t134 223h198zM761 871q2 5 2 9v8q0 19 -11 19q-7 0 -17.5 -8t-25.5 -28q-34 -44 -72.5 -89t-77 -87.5t-74.5 -81.5t-63.5 -71.5t-44 -57
t-16.5 -38.5q0 -23 47 -23h234z" />
    <glyph glyph-name="five" unicode="5" horiz-adv-x="1024" 
d="M1143 1271q-54 -116 -148 -179.5t-229 -63.5q-46 0 -96.5 7.5t-105.5 24.5l-61 -230q-2 -3 -1.5 -4.5t0.5 -2.5q0 -19 31 -19h10.5t11.5 2q34 6 66 8.5t73 2.5q64 0 120.5 -22t99 -63.5t67.5 -100.5t25 -133q0 -96 -30.5 -186t-91 -159t-150.5 -111t-209 -42
q-83 0 -143.5 22.5t-100 58.5t-58.5 80.5t-19 87.5q0 41 12 76t35.5 60t57.5 39t78 14q29 0 51.5 -8.5t37.5 -22.5t23 -32t8 -38q0 -35 -10 -57t-25.5 -36.5t-33 -24t-33 -18.5t-25.5 -21t-10 -31q0 -16 9.5 -29.5t25 -23.5t37 -16t45.5 -6q76 0 133 42t95.5 107t57.5 143
t19 150q0 49 -7 90t-26.5 71t-53.5 47t-89 17q-45 0 -85.5 -15.5t-72.5 -48.5h-69l155 613q27 -10 62 -21.5t76 -21t86 -15.5t90 -6q66 0 133 17t134 61z" />
    <glyph glyph-name="six" unicode="6" horiz-adv-x="1024" 
d="M1015 920q-31 0 -56 9t-42.5 23t-27 32.5t-9.5 38.5q0 38 13 60.5t28.5 38t28.5 30t13 37.5q0 30 -17.5 38.5t-43.5 8.5q-47 0 -98.5 -26t-100.5 -85t-92 -155t-73 -235h15q17 15 39.5 24t46 14.5t45 7.5t36.5 2q64 0 118.5 -19t95 -57.5t63.5 -95t23 -131.5
q0 -110 -38 -202.5t-101.5 -159t-148 -104t-177.5 -37.5q-148 0 -228 87.5t-80 259.5q0 101 17.5 213t52.5 221.5t87.5 208.5t122.5 174.5t157.5 120.5t191.5 45q81 0 136.5 -17.5t90 -46.5t49.5 -67.5t15 -81.5q0 -36 -11 -67.5t-31 -55t-48 -37.5t-62 -14zM816 560
q0 25 -4 52t-16 49.5t-34 36.5t-58 14q-48 0 -98.5 -28t-91 -87t-66.5 -152t-26 -223q0 -32 5 -63.5t19.5 -56.5t41.5 -40.5t71 -15.5q51 0 97.5 41.5t82 112t56.5 163.5t21 197z" />
    <glyph glyph-name="seven" unicode="7" horiz-adv-x="1024" 
d="M1207 1285q-12 -96 -43 -175.5t-72.5 -148t-90.5 -129t-98.5 -119.5t-95.5 -119t-81 -128t-56.5 -146t-21.5 -173q0 -46 -12.5 -78t-32.5 -52.5t-46.5 -29.5t-54.5 -9q-67 0 -97.5 33.5t-30.5 90.5q0 67 25.5 132.5t67.5 129.5t97 126.5t113.5 122.5t117 117t107.5 111
t85 104.5t50 97.5q-38 -11 -71.5 -16t-61.5 -5q-45 0 -78 7.5t-58 18.5t-44 24t-36 24t-33.5 18.5t-37.5 7.5q-13 0 -30 -4.5t-37.5 -31t-45 -84.5t-51.5 -164h-72l115 447h85q-3 -3 -3 -9q0 -11 6 -16.5t21 -5.5q16 0 30.5 8.5t32.5 18t43 18t63 8.5q40 0 68.5 -12.5
t48.5 -31.5t34 -40.5t26.5 -40.5t25.5 -31.5t31 -12.5q24 0 41.5 15t30 37.5t21.5 48t15 46.5h91z" />
    <glyph glyph-name="eight" unicode="8" horiz-adv-x="1024" 
d="M809 746q63 -48 104.5 -92t65.5 -86.5t33.5 -85.5t9.5 -91q0 -87 -39.5 -162.5t-105.5 -131t-151.5 -87t-178.5 -31.5q-82 0 -149.5 21.5t-116 61.5t-75.5 95.5t-27 123.5q0 117 89 224t251 188q-42 38 -71 72t-46.5 67.5t-25 69t-7.5 75.5q0 65 30 125t84 105.5
t129.5 72.5t167.5 27q68 0 127.5 -15.5t103 -45t68.5 -73t25 -100.5q0 -66 -28 -118t-71 -92t-95.5 -69t-100.5 -48zM979 1067q0 78 -58 123.5t-159 45.5q-46 0 -86 -13.5t-70 -39t-47 -62t-17 -82.5q0 -37 16.5 -72t45.5 -66.5t67 -59t82 -48.5q51 25 92.5 51t71.5 58
t46 72t16 93zM577 647q-139 -63 -215 -156t-76 -200q0 -54 19 -99t53 -77t81 -50t102 -18q56 0 105.5 17.5t87 51.5t59 85t21.5 118q0 59 -20 108t-53 89t-75.5 72t-88.5 59z" />
    <glyph glyph-name="nine" unicode="9" horiz-adv-x="1024" 
d="M352 364q31 0 56 -9t42.5 -23t27 -33t9.5 -38q0 -38 -13 -60.5t-28.5 -38t-28.5 -30t-13 -37.5q0 -30 17.5 -38.5t43.5 -8.5q46 0 98 26t101 85t92 154.5t73 235.5h-15q-17 -15 -39.5 -24t-46 -14.5t-45 -7.5t-36.5 -2q-64 0 -118.5 19t-95 57.5t-63.5 95t-23 131.5
q0 110 38 202.5t101.5 159t148 104t177.5 37.5q72 0 129.5 -22t97.5 -65.5t61 -107.5t21 -149q0 -101 -17.5 -213.5t-52.5 -222t-87.5 -209.5t-122.5 -175.5t-157.5 -120.5t-192.5 -45q-81 0 -136.5 17t-90 46.5t-49.5 68t-15 81.5q0 36 11 67.5t31 55t48 37.5t62 14z
M551 724q0 -26 4 -52.5t16 -49t34 -36.5t58 -14q48 0 98.5 28t91 87t66.5 152t26 223q0 32 -5 63.5t-19.5 56.5t-41.5 40.5t-71 15.5q-51 0 -97.5 -41.5t-82 -112t-56.5 -163.5t-21 -197z" />
    <glyph glyph-name="colon" unicode=":" horiz-adv-x="638" 
d="M450 25q-5 0 -10 1t-12 1q-19 0 -41.5 -8t-42.5 -20.5t-35.5 -27.5t-19.5 -29q-7 -16 -15.5 -25.5t-22.5 -9.5q-19 0 -27 12t-8 26q0 7 1.5 11.5t1.5 15.5q0 54 -26.5 89.5t-59.5 46.5q-16 7 -25.5 15.5t-9.5 22.5q0 18 12 26t26 8q6 0 11 -1t13 -1q19 0 41.5 8
t42.5 20.5t35 28t20 29.5q7 16 15.5 25.5t22.5 9.5q18 0 26 -12.5t8 -27.5q0 -5 -1 -10t-1 -12q0 -19 8 -41.5t20.5 -42.5t28 -35.5t29.5 -19.5q16 -7 25.5 -15.5t9.5 -22.5q0 -18 -13 -26.5t-27 -8.5zM570 465q-5 0 -10 1t-12 1q-19 0 -41.5 -8t-42.5 -20.5t-35.5 -27.5
t-19.5 -29q-7 -16 -15.5 -25.5t-22.5 -9.5q-19 0 -27 12t-8 26q0 7 1.5 11.5t1.5 15.5q0 54 -26.5 89.5t-59.5 46.5q-16 7 -25.5 15.5t-9.5 22.5q0 18 12 26t26 8q6 0 11 -1t13 -1q19 0 41.5 8t42.5 20.5t35 28t20 29.5q7 16 15.5 25.5t22.5 9.5q18 0 26 -12.5t8 -27.5
q0 -5 -1 -10t-1 -12q0 -19 8 -41.5t20.5 -42.5t28 -35.5t29.5 -19.5q16 -7 25.5 -15.5t9.5 -22.5q0 -18 -13 -26.5t-27 -8.5z" />
    <glyph glyph-name="semicolon" unicode=";" horiz-adv-x="638" 
d="M570 465q-5 0 -10 1t-12 1q-19 0 -41.5 -8t-42.5 -20.5t-35.5 -27.5t-19.5 -29q-7 -16 -15.5 -25.5t-22.5 -9.5q-19 0 -27 12t-8 26q0 7 1.5 11.5t1.5 15.5q0 54 -26.5 89.5t-59.5 46.5q-16 7 -25.5 15.5t-9.5 22.5q0 18 12 26t26 8q6 0 11 -1t13 -1q19 0 41.5 8
t42.5 20.5t35 28t20 29.5q7 16 15.5 25.5t22.5 9.5q18 0 26 -12.5t8 -27.5q0 -5 -1 -10t-1 -12q0 -19 8 -41.5t20.5 -42.5t28 -35.5t29.5 -19.5q16 -7 25.5 -15.5t9.5 -22.5q0 -18 -13 -26.5t-27 -8.5zM107 61q-22 13 -33.5 21.5t-11.5 22.5q0 19 13 27t27 8q6 0 11.5 -1
t13.5 -1q20 0 41.5 6t41.5 17.5t36.5 28t26.5 36.5q8 17 17 26.5t23 9.5q19 0 27.5 -13t8.5 -28q0 -20 10 -38.5t21.5 -44.5t21.5 -63t10 -93q0 -69 -23.5 -131t-66 -115t-103.5 -95.5t-136 -71.5q-6 -3 -12 -3q-16 0 -26.5 13.5t-10.5 28.5q0 19 17 28q38 18 67.5 43t50 56
t31 65t10.5 70q0 54 -23.5 106t-79.5 85z" />
    <glyph glyph-name="less" unicode="&#x3c;" horiz-adv-x="1664" 
d="M166 810l1286 534l2 -100l-1107 -461l1123 -465l2 -104l-1305 540z" />
    <glyph glyph-name="equal" unicode="=" horiz-adv-x="1664" 
d="M222 1013h1300l1 -94h-1300zM228 639h1300l2 -94h-1300z" />
    <glyph glyph-name="greater" unicode="&#x3e;" horiz-adv-x="1664" 
d="M1462 749l-1285 -535l-2 99l1108 461l-1124 466l-2 104l1304 -539z" />
    <glyph glyph-name="question" unicode="?" horiz-adv-x="1033" 
d="M538 1394q-88 0 -161.5 -25t-125.5 -81h-47v170q57 11 138 20.5t193 9.5q124 0 214.5 -25.5t149 -72.5t86.5 -113t28 -148q0 -70 -19.5 -124t-51.5 -97.5t-73 -80t-83.5 -72t-83.5 -73.5t-73 -84t-51.5 -103.5t-19.5 -133.5l-89 -1q0 111 27 192.5t67 144t87 112t87 98
t67 101t27 121.5q0 67 -24 117t-64.5 83t-93.5 49t-111 16zM642 100q0 -55 -34.5 -88.5t-89.5 -33.5q-26 0 -48.5 9t-39 25t-26.5 38.5t-10 49.5q0 55 34.5 89.5t89.5 34.5t89.5 -34.5t34.5 -89.5z" />
    <glyph glyph-name="at" unicode="@" horiz-adv-x="1984" 
d="M1370 74q86 0 162 53.5t132.5 144.5t89.5 212t33 256q0 151 -47.5 279t-138 221t-221.5 145t-297 52q-126 0 -240 -35t-211.5 -98.5t-176 -153t-134 -198.5t-85.5 -234.5t-30 -260.5q0 -195 58 -348t164 -258t253.5 -160t326.5 -55q135 0 260 39t233 112.5t194.5 178.5
t143.5 237h60q-48 -135 -135 -250.5t-203.5 -199.5t-257.5 -132t-295 -48q-122 0 -237 23.5t-217 71.5t-187.5 121t-147 171t-95.5 222.5t-34 274.5q0 151 34.5 286.5t97.5 250t152.5 206t200 155.5t239 98.5t269.5 34.5q178 0 324.5 -53t251.5 -151t162.5 -236.5
t57.5 -310.5q0 -86 -19.5 -175.5t-56 -173.5t-89.5 -158.5t-120 -130t-146.5 -88t-169.5 -33.5q-45 0 -75.5 13t-48.5 35t-25.5 52t-7.5 63q0 43 7 87.5t19 84.5q-43 -78 -90.5 -140t-99.5 -105.5t-107 -66.5t-112 -23q-50 0 -96.5 15t-82 50.5t-56.5 94.5t-21 148t17.5 183
t53.5 182.5t92 167.5t133 137.5t175 93t220 34.5q136 0 213 -30.5t77 -95.5q0 -17 -3.5 -36t-8.5 -40l-148 -560q-4 -14 -9 -32.5t-9.5 -38t-7.5 -40t-3 -38.5q0 -32 8.5 -51.5t22.5 -30t31 -14t34 -3.5zM658 297q0 -53 7 -89.5t21.5 -59.5t37 -33t53.5 -10q67 0 135.5 51
t130 139t113 204.5t86.5 245.5l39 144q7 24 7 44q0 16 -12.5 28t-33.5 20t-48 12t-57 4q-79 0 -145 -32.5t-119.5 -87t-93.5 -126t-67 -149t-40.5 -156.5t-13.5 -149z" />
    <glyph glyph-name="A" unicode="A" horiz-adv-x="1536" 
d="M649 1466h239q58 -119 113.5 -240t105.5 -239.5t94 -231t80 -215t63 -192.5t43 -162q8 -37 17.5 -58t19 -31.5t19 -13.5t18.5 -3h24v-80h-339v80h26q11 0 19 9.5t8 36.5q0 23 -7 57q-9 45 -27 106.5t-43 134.5t-54.5 155t-62.5 166h-459q8 26 17 50.5t19 49.5h384
q-30 74 -59.5 145.5t-58 137.5t-54.5 123.5t-48 102.5h-35q-39 -82 -84 -188t-90.5 -221t-87.5 -232t-74.5 -222t-52 -191t-19.5 -138q0 -25 4.5 -41t12.5 -25t19 -12.5t25 -3.5h12v-80h-350v80h5q18 0 35.5 4.5t35 23t36 56.5t39.5 104q94 294 210.5 598t261.5 600z" />
    <glyph glyph-name="B" unicode="B" horiz-adv-x="1520" 
d="M1302 1120q0 -60 -19 -112.5t-55.5 -93.5t-91 -70t-125.5 -41q88 -13 153 -48t107.5 -87t63 -118t20.5 -140q0 -107 -40.5 -184.5t-111 -127.5t-165.5 -74t-203 -24h-672v80h34q17 0 27.5 5.5t16 18t7.5 33t2 50.5v1092q0 32 -2 53t-8 33t-17.5 16.5t-29.5 4.5h-30v80
h108q63 0 121.5 3.5t121 7.5t132.5 7.5t156 3.5q121 0 214 -19.5t156.5 -63.5t96.5 -114t33 -171zM436 187q0 -53 12 -70t47 -17h274q93 0 166 16.5t122.5 53.5t75.5 96.5t26 143.5q0 167 -92.5 251t-277.5 84h-253v100h250q76 0 135.5 16.5t100.5 50.5t63 86t22 122
q0 58 -15.5 108t-51.5 87t-95 57.5t-146 20.5q-98 0 -166.5 -2.5t-112.5 -11t-64 -24t-20 -42.5v-1126z" />
    <glyph glyph-name="C" unicode="C" horiz-adv-x="1408" 
d="M813 93q141 0 249 31t196 100v-111q-25 -23 -64.5 -47t-95 -43.5t-126.5 -32t-159 -12.5q-173 0 -303 53.5t-216.5 151.5t-130 237.5t-43.5 312.5q0 157 38 294.5t121.5 240t215 161.5t318.5 59q71 0 119.5 -3.5t93.5 -7.5t95 -7.5t124 -3.5l33 -298h-74q-27 45 -58 86
t-75.5 71.5t-106.5 49t-151 18.5q-124 0 -216.5 -46t-154 -132t-92 -208t-30.5 -274t34.5 -271t98.5 -201t155 -125t205 -43z" />
    <glyph glyph-name="D" unicode="D" horiz-adv-x="1570" 
d="M163 0v80h30q18 0 29 4.5t17.5 16.5t8.5 33t2 53v1092q0 31 -2 52t-8.5 33t-17.5 17t-29 5h-30v80h107q51 0 115 3.5t130 7.5t130 7.5t115 3.5q172 0 303 -58t219 -159.5t133 -239.5t45 -297q0 -152 -45 -286t-133 -233.5t-219 -157t-303 -57.5h-597zM436 187
q0 -31 3 -48.5t12 -26t25 -10.5t42 -2h202q127 0 227.5 39t170 118t106 198t36.5 279q0 166 -38.5 289t-112.5 204.5t-182 122t-247 40.5q-121 0 -182.5 -15t-61.5 -66v-1122z" />
    <glyph glyph-name="E" unicode="E" horiz-adv-x="1395" 
d="M862 845q30 0 56 9.5t46 30.5t34 55t20 83h74v-456h-74q-3 42 -17 75t-35 56t-47.5 35t-56.5 12h-426v-558q0 -36 10 -60.5t46 -24.5h395q64 0 110 17t78.5 47.5t54.5 72.5t38 91h74l-30 -330h-1049v80h30q18 0 29 10t17.5 25.5t8.5 34.5t2 37v1092q0 18 -2 37t-8.5 34.5
t-17.5 25.5t-29 10h-30v80h569q42 0 99 0.5t118.5 3t121.5 7.5t107 13l43 -324h-74q-16 51 -43 88.5t-61.5 62t-75 37t-83.5 12.5h-392q-36 0 -46 -25.5t-10 -61.5v-434h426z" />
    <glyph glyph-name="F" unicode="F" horiz-adv-x="1296" 
d="M523 0h-360v80h30q18 0 29 10t17.5 25.5t8.5 34.5t2 37v1092q0 18 -2 37t-8.5 34.5t-17.5 25.5t-29 10h-30v80h559q42 0 99 0.5t118.5 3t121.5 7.5t107 13l43 -324h-74q-16 51 -43 88.5t-61.5 62t-75 37t-83.5 12.5h-382q-36 0 -46 -25.5t-10 -61.5v-434h416q30 0 56 9.5
t46 30.5t34 55t20 83h74v-464h-74q-3 42 -17 76t-35 58.5t-47.5 38t-56.5 13.5h-416v-558q0 -18 2 -37t8.5 -34.5t17.5 -25.5t29 -10h30v-80z" />
    <glyph glyph-name="G" unicode="G" horiz-adv-x="1644" 
d="M833 93q61 0 120 7.5t111 22t94.5 37t69.5 52.5v437q0 17 -2 32.5t-8.5 27.5t-17.5 19.5t-29 7.5h-109v100h438v-80h-30q-18 0 -29 -5t-17 -17t-8 -33t-2 -52v-479q-63 -56 -134 -92.5t-146 -59t-151.5 -31.5t-149.5 -9q-184 0 -318.5 51t-222 147.5t-130 237
t-42.5 319.5q0 173 42.5 312.5t131.5 238t225 151.5t324 53q71 0 127.5 -3.5t110.5 -7.5t112 -7.5t132 -3.5l33 -298h-74q-27 45 -66 86t-92.5 71.5t-123.5 49t-159 18.5q-114 0 -209.5 -35t-165.5 -113t-109 -204t-39 -308t40 -305t109.5 -197.5t163 -106t200.5 -31.5z" />
    <glyph glyph-name="H" unicode="H" horiz-adv-x="1604" 
d="M1168 1279q0 33 -3.5 54t-10.5 32.5t-17.5 16t-25.5 4.5h-30v80h359v-80h-29q-15 0 -25.5 -4.5t-17.5 -16t-10.5 -32.5t-3.5 -54v-1092q0 -33 3.5 -54t10.5 -32.5t17.5 -16t25.5 -4.5h29v-80h-359v80h30q15 0 25.5 4.5t17.5 16t10.5 32.5t3.5 54v558h-732v-558
q0 -33 3.5 -54t10.5 -32.5t17.5 -16t25.5 -4.5h29v-80h-359v80h30q15 0 25.5 4.5t17.5 16t10.5 32.5t3.5 54v1092q0 33 -3.5 54t-10.5 32.5t-17.5 16t-25.5 4.5h-30v80h359v-80h-29q-15 0 -25.5 -4.5t-17.5 -16t-10.5 -32.5t-3.5 -54v-434h732v434z" />
    <glyph glyph-name="I" unicode="I" horiz-adv-x="686" 
d="M250 1279q0 33 -3.5 54t-10.5 32.5t-17.5 16t-25.5 4.5h-30v80h359v-80h-29q-15 0 -25.5 -4.5t-17.5 -16t-10.5 -32.5t-3.5 -54v-1092q0 -33 3.5 -54t10.5 -32.5t17.5 -16t25.5 -4.5h29v-80h-359v80h30q15 0 25.5 4.5t17.5 16t10.5 32.5t3.5 54v1092z" />
    <glyph glyph-name="J" unicode="J" horiz-adv-x="686" 
d="M250 1279q0 33 -3.5 54t-10.5 32.5t-17.5 16t-25.5 4.5h-30v80h359v-80h-29q-15 0 -25.5 -4.5t-17.5 -16t-10.5 -32.5t-3.5 -54v-1065q0 -126 -32.5 -222t-92.5 -160.5t-144 -97t-186 -32.5q-20 0 -41 1t-41 6v101q16 -4 35.5 -6t45.5 -2q62 0 112 21.5t85 68t54 120.5
t19 179v1088z" />
    <glyph glyph-name="K" unicode="K" horiz-adv-x="1501" 
d="M1116 147q-6 25 -23 66.5t-45.5 93.5t-69.5 112t-94 122t-119.5 122.5t-146.5 114.5q-45 -17 -91 -25t-91 -8v-558q0 -33 3.5 -54t10.5 -32.5t17.5 -16t25.5 -4.5h29v-80h-359v80h30q15 0 25.5 4.5t17.5 16t10.5 32.5t3.5 54v1092q0 33 -3.5 54t-10.5 32.5t-17.5 16
t-25.5 4.5h-30v80h359v-80h-29q-15 0 -25.5 -4.5t-17.5 -16t-10.5 -32.5t-3.5 -54v-434q96 0 173 30t143 85q120 101 185.5 180t89 134t10 83.5t-50.5 28.5h-41v80h429v-80h-35q-34 0 -61.5 -17.5t-57 -49t-64 -76.5t-81.5 -100.5t-111 -120t-151 -135.5q-11 -8 -21 -15.5
t-21 -15.5q80 -56 147.5 -119.5t123.5 -130.5t100.5 -133t78 -126.5t56 -112t34.5 -87.5q2 -7 7.5 -18t14.5 -22t20.5 -19t26.5 -8h29v-80h-349v80h30q29 0 32 14.5t-6 52.5z" />
    <glyph glyph-name="L" unicode="L" horiz-adv-x="1211" 
d="M523 1386h-30q-18 0 -29 -10t-17.5 -25.5t-8.5 -34.5t-2 -37v-1092q0 -36 10 -60.5t46 -24.5h372q43 0 83.5 13.5t75 40t61.5 65t43 89.5h74l-40 -310h-998v80h30q18 0 29 10t17.5 25.5t8.5 34.5t2 37v1092q0 18 -2 37t-8.5 34.5t-17.5 25.5t-29 10h-30v80h360v-80z" />
    <glyph glyph-name="M" unicode="M" horiz-adv-x="1838" 
d="M250 1279q0 51 -15.5 79t-51.5 28h-30v80h316q49 -59 105.5 -146.5t114.5 -193.5t115.5 -225.5t108.5 -242.5q26 65 60.5 138.5t73 149t81 151t86 143.5t86 126t81.5 100h293v-80h-30q-35 0 -45.5 -27t-10.5 -78v-1093q0 -57 10 -82.5t46 -25.5h30v-80h-359v80h30
q36 0 46.5 25.5t10.5 81.5v1130q-42 -50 -86 -117.5t-88.5 -145.5t-87.5 -163t-82.5 -171t-75.5 -169t-65 -157h-69q-32 81 -72 171.5t-83.5 182.5t-89.5 180.5t-89.5 165.5t-83 137.5t-70.5 95.5v-949q0 -94 2.5 -152.5t11.5 -90.5t26.5 -43.5t46.5 -11.5h31v-80h-349v80
h35q29 0 46 11.5t26 43.5t11.5 90.5t2.5 153.5v900z" />
    <glyph glyph-name="N" unicode="N" horiz-adv-x="1594" 
d="M1207 0q-54 131 -122.5 260.5t-143.5 253t-154.5 238.5t-155.5 216t-145.5 186.5t-125.5 149.5v-926q0 -94 3.5 -152.5t13 -90.5t26.5 -43.5t44 -11.5h31v-80h-349v80h35q26 0 42.5 11.5t26.5 43.5t13.5 90.5t3.5 153.5v903q0 54 -21 79t-56 25h-30v80h298
q53 -49 126 -133t153 -188t162 -219.5t153 -228t125 -214t79 -176.5q-1 14 -2 31t-2 33t-1.5 29.5t-0.5 20.5v667q0 94 -3.5 152.5t-13 90.5t-26.5 43.5t-44 11.5h-31v80h349v-80h-35q-27 0 -44 -11.5t-26 -43.5t-12 -91t-3 -153v-1087h-137z" />
    <glyph glyph-name="O" unicode="O" horiz-adv-x="1626" 
d="M120 733q0 172 41.5 311.5t127 238t216 152t308.5 53.5t308.5 -53t216 -151.5t127 -238t41.5 -312.5t-41.5 -312.5t-127 -238t-216 -151.5t-308.5 -53t-308.5 53.5t-216 152t-127 238t-41.5 311.5zM312 733q0 -145 29 -266.5t90 -209t155.5 -136t226.5 -48.5t226.5 48.5
t156 136t90.5 209t29 266.5t-29 266.5t-90 209t-156 136t-227 48.5t-227 -48.5t-155.5 -136t-89.5 -209t-29 -266.5z" />
    <glyph glyph-name="P" unicode="P" horiz-adv-x="1388" 
d="M536 831q52 -23 114 -40t124 -21.5t120 7.5t102.5 47.5t71.5 99.5t27 162q0 93 -23.5 152t-71 93.5t-118 47.5t-163.5 13q-88 0 -143 -4t-86 -14.5t-42.5 -28.5t-11.5 -46v-1112q0 -32 2 -53t8 -33t17.5 -16.5t29.5 -4.5h30v-80h-360v80h30q18 0 29.5 4.5t17.5 16.5t8 33
t2 53v1092q0 30 -2 50.5t-7.5 33t-16 18t-27.5 5.5h-34v80h130q55 0 106 3.5t107.5 7.5t124 7.5t154.5 3.5q108 0 200.5 -18.5t160 -64.5t107 -123.5t42.5 -195.5q3 -113 -31 -192t-92.5 -129t-136.5 -74t-163 -27.5t-172 12t-164 44.5v111z" />
    <glyph glyph-name="Q" unicode="Q" horiz-adv-x="1626" 
d="M120 733q0 172 41.5 311.5t127 238t216 152t308.5 53.5t308.5 -53t216 -151.5t127 -238t41.5 -312.5q0 -152 -32 -278t-97 -221.5t-165 -157.5t-235 -85q59 -45 117 -86.5t119 -70.5q28 -13 51 -12t34 12l15 14l38 -39l-134 -156q-47 12 -91.5 36t-89 54t-88 64t-88 66
t-91 60.5t-94.5 46.5q-8 3 -18.5 6.5l-22.5 7.5q-132 25 -228.5 88t-160 158t-94.5 219.5t-31 273.5zM312 733q0 -146 29 -267t90 -208.5t155.5 -136t226.5 -48.5t226.5 48.5t156 136t90.5 208.5t29 267q0 145 -29 266.5t-90 209t-156 136t-227 48.5t-227 -48.5t-155.5 -136
t-89.5 -209t-29 -266.5z" />
    <glyph glyph-name="R" unicode="R" horiz-adv-x="1494" 
d="M1279 174q14 -30 23 -48.5t16.5 -28.5t16 -13.5t23.5 -3.5h45v-80h-262q-13 55 -45 128t-77 151t-101.5 154.5t-119 139.5t-129.5 106t-133 53v103q25 -8 54.5 -18t62 -18.5t69 -14.5t76.5 -6q64 0 120.5 15t97.5 49.5t65 90t24 136.5q0 95 -26 157.5t-72.5 99.5
t-109.5 52t-137 15q-86 0 -147.5 -3.5t-100.5 -12t-57.5 -24t-18.5 -40.5v-1126q0 -33 3.5 -54t10.5 -32.5t17.5 -16t25.5 -4.5h30v-80h-359v80h29q15 0 25.5 4.5t17.5 16t10.5 32.5t3.5 54v1092q0 33 -2.5 54t-9.5 32.5t-18 16t-27 4.5h-30v80q84 0 148.5 1.5t116.5 4
t94 5.5t82.5 5.5t82 4t91.5 1.5q144 0 244.5 -28t163.5 -81.5t91 -131.5t28 -178q0 -87 -26 -156.5t-76.5 -119.5t-124 -79t-167.5 -35q46 -29 88 -71t79 -90t69 -98.5t57.5 -97t44.5 -85.5t30 -63z" />
    <glyph glyph-name="S" unicode="S" horiz-adv-x="1349" 
d="M616 73q83 -3 160.5 8.5t135.5 47.5t88.5 101t20.5 168q-7 74 -47 121t-100.5 78t-135.5 52t-153 42t-152.5 48.5t-133.5 71.5t-97 110.5t-43 165.5q-5 96 33.5 170.5t107.5 126t163 78t202 26.5q71 0 119.5 -3.5t93.5 -7.5t95 -7.5t124 -3.5l33 -298h-74q-27 45 -58 86
t-75.5 71.5t-106.5 49t-151 18.5q-66 0 -131 -17t-114 -54t-74 -95t-9 -140q12 -63 55.5 -103.5t106.5 -69t139 -49.5t154 -44t151 -53t130 -77t91.5 -115.5t34.5 -167.5q0 -106 -39.5 -188t-114.5 -137.5t-183 -82.5t-246 -22q-47 1 -84 4.5t-68.5 7.5t-61 8t-62 8t-70.5 6
t-87 2l-33 318h79q26 -53 56.5 -98.5t74.5 -80t105.5 -55.5t150.5 -25z" />
    <glyph glyph-name="T" unicode="T" horiz-adv-x="1402" 
d="M407 1376q-43 0 -83.5 -14t-75 -40.5t-61.5 -65.5t-43 -90h-74l43 324q47 -8 107 -12.5t121.5 -7t118.5 -3.5t99 -1h284q42 0 99 1t118.5 3.5t121.5 7t107 12.5l43 -324h-74q-16 51 -43 90t-61.5 65.5t-75 40.5t-83.5 14h-145q-36 0 -46 -25.5t-10 -61.5v-1102
q0 -33 2 -54t8 -32.5t17 -16t29 -4.5h30v-80h-359v80h30q18 0 29 4.5t17.5 16t8.5 32.5t2 54v1102q0 35 -11.5 61t-44.5 26h-145z" />
    <glyph glyph-name="U" unicode="U" horiz-adv-x="1579" 
d="M1359 470q0 -115 -42.5 -206.5t-117.5 -155t-177 -97t-220 -33.5q-133 0 -235.5 33.5t-173 97t-107 155t-36.5 206.5v809q0 60 -10.5 83.5t-46.5 23.5h-30v80h359v-80h-30q-36 0 -46 -24.5t-10 -83.5v-811q0 -99 29 -169.5t82.5 -115.5t129 -66t168.5 -21t167.5 27
t127 76t81 116.5t28.5 148.5v625q0 94 -4 152.5t-15 90.5t-30 43.5t-48 11.5h-31v80h369v-80h-35q-29 0 -48 -11.5t-29.5 -43.5t-14.5 -91t-4 -153v-617z" />
    <glyph glyph-name="V" unicode="V" horiz-adv-x="1448" 
d="M773 -22h-95q-60 120 -115.5 243t-105.5 243.5t-93.5 235.5t-79 219.5t-62.5 196t-44 164.5q-9 40 -18.5 61.5t-19 31.5t-18.5 11.5t-18 1.5h-24v80h343v-80h-26q-23 0 -29.5 -21t5.5 -82q12 -63 38 -149.5t59.5 -185.5t73 -204.5t79.5 -205.5t78 -188.5t70 -153.5
q34 79 74.5 177.5t81.5 206.5t80 222.5t70 226.5q32 114 44 184.5t9 108.5t-19.5 51t-40.5 13h-12v80h350v-80h-5q-18 0 -34.5 -2t-33.5 -19t-36 -55.5t-42 -111.5q-94 -297 -213.5 -606t-270.5 -614z" />
    <glyph glyph-name="W" unicode="W" horiz-adv-x="2051" 
d="M1396 -22h-95q-75 152 -142.5 304.5t-125.5 301.5q-62 -153 -129 -304.5t-141 -301.5h-95q-90 181 -168.5 365.5t-141.5 356t-109 321t-71 259.5q-9 40 -18.5 61.5t-19 31.5t-18.5 11.5t-18 1.5h-24v80h343v-80h-26q-10 0 -17.5 -4.5t-11 -16t-2.5 -31.5t7 -51
q12 -63 37 -149.5t57.5 -185.5t71 -204.5t77 -205.5t76 -188.5t69.5 -153.5q23 53 49.5 114.5t54.5 129.5t57 140.5t56 147.5q-60 164 -104 305t-68 247q-9 40 -18.5 61.5t-19 31.5t-18.5 11.5t-18 1.5h-24v80h343v-80h-26q-22 0 -29 -21t5 -82q12 -63 37.5 -149.5
t58.5 -185.5t72 -204.5t78.5 -205.5t77.5 -188.5t69 -153.5q34 79 71.5 177.5t75 206.5t73 222.5t66.5 226.5q32 114 44 184.5t9 108.5t-19.5 51t-40.5 13h-12v80h350v-80h-5q-18 0 -34.5 -2t-33.5 -19t-36 -55.5t-42 -111.5q-47 -148 -97 -300t-106.5 -306t-121 -308.5
t-139.5 -305.5z" />
    <glyph glyph-name="X" unicode="X" horiz-adv-x="1582" 
d="M1432 1386q-24 0 -45 -9.5t-39.5 -25t-34.5 -36.5t-30 -43q-44 -67 -91 -128t-98 -119t-105.5 -115t-112.5 -117q65 -72 130 -145.5t128 -152t122.5 -165t114.5 -183.5q20 -35 43 -51t37 -16h31v-80h-359v80h26q20 0 27 16t-14 51q-84 137 -189 263.5t-219 253.5
q-66 -72 -119 -135t-94 -118.5t-71 -103.5t-50 -91q-35 -73 -31.5 -104.5t36.5 -31.5h12v-80h-337v80h5q27 0 50.5 13t47 38.5t49 62t57.5 83.5q84 123 179 235.5t201 224.5q-62 69 -122.5 139t-118.5 142t-111 147t-99 153q-26 44 -47 56t-35 12h-31v80h364v-80h-26
q-20 0 -27.5 -18t15.5 -53q81 -126 172.5 -236t187.5 -216q89 91 170 184.5t143 202.5q24 42 31.5 68.5t3 41.5t-17.5 20.5t-29 5.5h-12v80h337v-80h-5v0z" />
    <glyph glyph-name="Y" unicode="Y" horiz-adv-x="1523" 
d="M1166 1250q36 74 30.5 105t-38.5 31h-12v80h337v-80h-5q-17 0 -34 -5.5t-38 -23.5t-48.5 -52t-66.5 -91q-41 -59 -86.5 -118.5t-99 -123t-115.5 -132.5t-135 -148v-505q0 -18 2 -37t8 -34.5t17 -25.5t29 -10h30v-80h-359v80h30q18 0 29 10t17.5 25.5t8.5 34.5t2 37v505
q-140 152 -268 308t-226 318q-13 21 -22 34.5t-16 21t-13 10t-13 2.5h-31v80h342v-80h-26q-20 0 -25.5 -16.5t17.5 -51.5q40 -63 91.5 -132.5t108.5 -139t117 -134.5t118 -119q55 57 104 112t92 111t80 114t67 120z" />
    <glyph glyph-name="Z" unicode="Z" horiz-adv-x="1456" 
d="M467 1366q-44 0 -84 -12.5t-74.5 -37t-61.5 -62t-43 -88.5h-74l43 324q64 -9 126 -14t119 -7t108 -2.5t93 -0.5h716v-94q-48 -40 -112.5 -103t-139 -141t-154 -168t-158 -184.5t-151 -189t-132.5 -182.5t-103.5 -165.5t-62.5 -136.5h623q55 0 101.5 17t83.5 47.5
t63.5 72.5t42.5 91h74l-30 -330h-1170v99q31 78 80 165.5t110 180t130.5 186.5t142 184.5t144 174t136.5 155t120.5 128.5t94.5 93h-601z" />
    <glyph glyph-name="bracketleft" unicode="[" horiz-adv-x="880" 
d="M22 -407l535 1998h510l-21 -79h-316l-492 -1836h316l-22 -83h-510z" />
    <glyph glyph-name="backslash" unicode="\" horiz-adv-x="686" 
d="M539 -25l-268 1516h98l269 -1516h-99z" />
    <glyph glyph-name="bracketright" unicode="]" horiz-adv-x="880" 
d="M-217 -407l22 83h315l492 1836h-316l21 79h510l-535 -1998h-509z" />
    <glyph glyph-name="asciicircum" unicode="^" horiz-adv-x="1041" 
d="M595 1591l525 -821h-110l-434 672l-409 -672h-114l506 821h36z" />
    <glyph glyph-name="underscore" unicode="_" horiz-adv-x="1234" 
d="M1263 -507h-1274l-1 96h1274z" />
    <glyph glyph-name="grave" unicode="`" horiz-adv-x="458" 
d="M418 1177h-104l-277 289h223z" />
    <glyph glyph-name="a" unicode="a" horiz-adv-x="1151" 
d="M799 532h-285q-64 0 -109.5 -18.5t-75 -49t-43.5 -71t-14 -84.5q0 -51 14 -92t44.5 -69.5t77.5 -44t113 -15.5q75 0 141.5 20t136.5 65v359zM971 174q0 -31 3 -50t10 -30t16.5 -15t23.5 -4h28v-75h-235v90q-45 -34 -88.5 -55.5t-86 -34t-83.5 -17.5t-80 -5
q-89 0 -160.5 20.5t-121.5 60.5t-77 98t-27 133q0 87 34 150t91.5 103.5t134 59.5t161.5 19h285v99q0 82 -22 135.5t-60 85t-89.5 43.5t-111.5 12q-36 0 -72 -6.5t-68.5 -25.5t-57.5 -53t-38 -88h-80l20 218q31 9 64 16.5t70.5 13.5t82 9t99.5 3q88 -1 167 -19.5t138.5 -61
t94.5 -113t35 -175.5v-541z" />
    <glyph glyph-name="b" unicode="b" horiz-adv-x="1213" 
d="M352 116q18 -10 42.5 -19t54 -15.5t61.5 -10.5t64 -4q70 0 122.5 19t90.5 52t63 77.5t39.5 96t20 107.5t5.5 112q0 117 -22 202.5t-61.5 142t-96 83.5t-125.5 27q-50 0 -91 -10t-73 -24.5t-55.5 -30.5t-38.5 -28v-777zM352 986q53 44 128 71t169 27q81 0 160.5 -30
t142.5 -96.5t102 -171.5t39 -255q0 -147 -42 -252t-111.5 -172t-159 -98t-184.5 -31q-98 0 -211.5 16t-244.5 62v75q8 1 15 5t12.5 13t9 25t3.5 43v1075q0 31 -3 50t-10 30t-17 15t-23 4h-28v75h253v-480z" />
    <glyph glyph-name="c" unicode="c" horiz-adv-x="1079" 
d="M659 84q41 -3 82 -2t80 5.5t74 12.5t64 19v-84q-69 -30 -150 -43.5t-176 -13.5q-131 0 -227 39t-160 111t-95 174.5t-31 228.5q0 115 29.5 216t92 176t159.5 118t232 43q52 0 88 -3.5t69 -7.5t69.5 -7.5t90.5 -3.5l24 -238h-80q-16 33 -34.5 64t-47 54.5t-71.5 38
t-108 14.5q-91 0 -154.5 -30.5t-103.5 -90t-58 -146t-18 -197.5q0 -119 24.5 -201.5t71 -135t113 -78.5t151.5 -32z" />
    <glyph glyph-name="d" unicode="d" horiz-adv-x="1214" 
d="M861 931q-15 12 -36.5 23.5t-49.5 20.5t-62.5 14.5t-73.5 5.5q-167 0 -254 -114.5t-87 -349.5q0 -135 26 -223t69.5 -139.5t99.5 -71.5t116 -20q84 0 144.5 27t107.5 65v762zM1033 1466v-1292q0 -31 3 -50t10 -30t16.5 -15t23.5 -4h28v-75h-235v89q-67 -57 -147 -84
t-184 -27q-77 0 -153.5 29.5t-137.5 95.5t-99 171.5t-38 256.5q0 150 43 255t113 171.5t159 96.5t182 30q33 0 67 -2.5t66 -7t60.5 -10.5t50.5 -13v241q0 31 -3 50t-10 30t-17 15t-23 4h-28v75h253z" />
    <glyph glyph-name="e" unicode="e" horiz-adv-x="1201" 
d="M613 1084q133 0 224.5 -42.5t147.5 -116.5t81 -173.5t25 -213.5v-6h-792v-7q0 -124 27.5 -209.5t76 -139t115.5 -77t146 -23.5q58 0 107.5 4t94.5 13.5t86 25.5t82 40v-81q-24 -17 -61.5 -34.5t-88 -32t-112.5 -24t-136 -9.5q-254 0 -385 137.5t-131 415.5q0 115 27 216
t86 176t152.5 118t227.5 43zM909 622q-2 69 -14.5 135.5t-44.5 119.5t-89 85.5t-148 32.5q-89 0 -149 -31.5t-96.5 -92t-52.5 -148.5q-9 -47 -13 -101h607z" />
    <glyph glyph-name="f" unicode="f" horiz-adv-x="661" 
d="M190 1200q0 48 13 99t46 93t90.5 69t146.5 27q28 0 57 -3t56 -7.5t51 -10.5t42 -13l20 -178h-80q-14 40 -32 64.5t-38.5 37.5t-41.5 17t-40 4q-60 0 -89 -39.5t-29 -114.5v-183h244v-95h-244v-793q0 -31 3 -50t10 -30t16.5 -15t23.5 -4h27v-75h-333v75h28q13 0 23 4
t17 15t10 30t3 50v793h-102v95h102v138z" />
    <glyph glyph-name="g" unicode="g" horiz-adv-x="1214" 
d="M639 995q-68 0 -129.5 -20t-108.5 -71.5t-75 -139.5t-28 -223q0 -117 22 -201t61.5 -137.5t96 -79t125.5 -25.5q49 0 90.5 10t73.5 24.5t55.5 30.5t38.5 28v761q-18 10 -43 18t-54 13.5t-61 8.5t-64 3zM617 1084q49 0 101.5 -2.5t109.5 -10.5t118.5 -22t126.5 -37v-75
q-8 -2 -15 -5.5t-12.5 -12.5t-9 -25t-3.5 -43v-799q0 -243 -126 -361t-385 -118q-85 0 -156.5 13.5t-137.5 25.5l-20 178h80q20 -35 48.5 -59t61.5 -40t69 -23t71 -7q87 0 148 22.5t100 66t57 108.5t18 149v91q-53 -44 -128 -71t-169 -27q-54 0 -108 12.5t-103.5 39t-92 69
t-73.5 102.5t-49 139t-18 179q0 151 43.5 255t114 168t159.5 92t180 28z" />
    <glyph glyph-name="h" unicode="h" horiz-adv-x="1195" 
d="M190 1292q0 31 -3 50t-10 30t-17 15t-23 4h-28v75h253v-479q28 22 59.5 39.5t68 30.5t79 20t93.5 7q86 0 152 -24t110.5 -70t67.5 -111.5t23 -149.5v-555q0 -31 3 -50t10 -30t16.5 -15t23.5 -4h27v-75h-333v75h28q13 0 23 4t17 15t10 30t3 50v549q0 60 -13 108.5
t-41 82.5t-72 52.5t-105 18.5q-137 0 -250 -92v-719q0 -31 3 -50t10 -30t16.5 -15t23.5 -4h27v-75h-333v75h28q13 0 23 4t17 15t10 30t3 50v1118z" />
    <glyph glyph-name="i" unicode="i" horiz-adv-x="552" 
d="M109 1062h253v-888q0 -31 3 -50t10 -30t16.5 -15t23.5 -4h27v-75h-333v75h28q13 0 23 4t17 15t10 30t3 50v714q0 31 -3 50t-10 30t-17 15t-23 4h-28v75zM151 1369q0 55 30.5 87t84.5 32q56 0 87.5 -32t31.5 -87q0 -54 -31.5 -84.5t-87.5 -30.5q-54 0 -84.5 30.5
t-30.5 84.5z" />
    <glyph glyph-name="j" unicode="j" horiz-adv-x="542" 
d="M151 1369q0 55 30.5 87t84.5 32q56 0 87.5 -32t31.5 -87q0 -54 -31.5 -84.5t-87.5 -30.5q-54 0 -84.5 30.5t-30.5 84.5zM190 888q0 31 -3 50t-10 30t-17 15t-23 4h-28v75h253v-1201q0 -48 -13 -99t-46 -93t-90.5 -69t-146.5 -27q-56 0 -97 10t-77 24l-20 178h95
q9 -35 19.5 -59t24 -38t30 -20t37.5 -6q58 0 85 40t27 114v1072z" />
    <glyph glyph-name="k" unicode="k" horiz-adv-x="1167" 
d="M997 130q8 -20 16.5 -31t16 -16.5t14.5 -6.5t13 -1h27v-75h-333v75h19q61 0 42 55q-13 36 -42.5 90t-76.5 114.5t-113 122.5q-46 43 -101 82q-61 -19 -117 -19v-346q0 -31 3 -50t10 -30t16.5 -15t23.5 -4h27v-75h-333v75h28q13 0 23 4t17 15t10 30t3 50v1118q0 31 -3 50
t-10 30t-17 15t-23 4h-28v75h253v-856q59 0 121.5 24t119 64t102.5 92.5t72 109.5q19 42 10 64.5t-32 22.5h-31v75h319v-75h-29q-11 0 -20 -5.5t-20.5 -18t-26.5 -33.5t-36 -51q-50 -70 -115.5 -134.5t-138.5 -114.5q-14 -10 -29 -20q65 -46 118 -101q66 -67 115.5 -136
t83 -133t52.5 -110z" />
    <glyph glyph-name="l" unicode="l" horiz-adv-x="552" 
d="M109 1466h253v-1292q0 -31 3 -50t10 -30t16.5 -15t23.5 -4h27v-75h-333v75h28q13 0 23 4t17 15t10 30t3 50v1118q0 31 -3 50t-10 30t-17 15t-23 4h-28v75z" />
    <glyph glyph-name="m" unicode="m" horiz-adv-x="1790" 
d="M986 174q0 -31 3 -50t10 -30t16.5 -15t23.5 -4h27v-75h-333v75h28q13 0 23 4t17 15t10 30t3 50v569q0 118 -54.5 180t-151.5 62q-63 0 -123 -23.5t-123 -78.5v-709q0 -31 3 -50t10 -30t16.5 -15t23.5 -4h27v-75h-333v75h28q13 0 23 4t17 15t10 30t3 50v714q0 31 -3 50
t-10 30t-17 15t-23 4h-28v75h235v-99q63 60 137 90.5t171 30.5q70 0 131 -18t106 -56q33 -28 57 -67q64 65 137 100q85 41 193 41q77 0 138.5 -21t105 -62t67 -103t23.5 -143v-581q0 -31 3 -50t10 -30t16.5 -15t23.5 -4h27v-75h-333v75h28q13 0 23 4t17 15t10 30t3 50v569
q0 118 -53 180t-153 62q-81 0 -152 -36q-57 -30 -105 -76q11 -42 11 -92v-607z" />
    <glyph glyph-name="n" unicode="n" horiz-adv-x="1195" 
d="M362 174q0 -31 3 -50t10 -30t16.5 -15t23.5 -4h27v-75h-333v75h28q13 0 23 4t17 15t10 30t3 50v714q0 31 -3 50t-10 30t-17 15t-23 4h-28v75h235v-89q30 25 63 45.5t71.5 35t84 22.5t99.5 8q86 0 152 -24t110.5 -70t67.5 -111.5t23 -149.5v-555q0 -31 3 -50t10 -30
t16.5 -15t23.5 -4h27v-75h-333v75h28q13 0 23 4t17 15t10 30t3 50v549q0 60 -13 108.5t-41 82.5t-72 52.5t-105 18.5q-137 0 -250 -92v-719z" />
    <glyph glyph-name="o" unicode="o" horiz-adv-x="1196" 
d="M120 531q0 115 25.5 215.5t82.5 175.5t148 118.5t222 43.5q130 0 221 -43.5t148 -118.5t83 -175.5t26 -215.5t-26 -215.5t-83 -175.5t-148 -118.5t-221 -43.5q-131 0 -222 43.5t-148 118.5t-82.5 175.5t-25.5 215.5zM298 531q0 -96 13 -180.5t46.5 -147t91.5 -99
t149 -36.5t149 36.5t91.5 99t46.5 147t13 180.5t-13 180.5t-46.5 147t-92 99t-148.5 36.5t-148.5 -36.5t-92 -99t-46.5 -147t-13 -180.5z" />
    <glyph glyph-name="p" unicode="p" horiz-adv-x="1223" 
d="M362 137q15 -12 36.5 -24t49.5 -22.5t62.5 -17t73.5 -6.5q169 0 255 114.5t86 349.5q0 135 -26 223t-69.5 139.5t-99.5 71.5t-116 20q-42 0 -78 -7.5t-66.5 -20t-57 -29t-50.5 -35.5v-756zM362 -233q0 -31 3 -50t10 -30t16.5 -15t23.5 -4h27v-75h-333v75h28q13 0 23 4
t17 15t10 30t3 50v1121q0 31 -3 50t-10 30t-17 15t-23 4h-28v75h235v-89q67 54 145 82.5t166 28.5q87 0 167.5 -32t143 -99.5t100 -172t37.5 -249.5q0 -150 -42.5 -255t-112.5 -171t-161.5 -96.5t-188.5 -30.5q-60 0 -119.5 10.5t-116.5 30.5v-252z" />
    <glyph glyph-name="q" unicode="q" horiz-adv-x="1223" 
d="M861 952q-18 10 -43 18t-54 13.5t-61 8.5t-64 3q-70 0 -122.5 -19t-90.5 -52t-63 -77.5t-39.5 -96t-20 -107.5t-5.5 -112q0 -117 22 -202.5t61.5 -142t96 -83.5t125.5 -27q49 0 90.5 10t73.5 24.5t55.5 30.5t38.5 28v783zM1033 -233q0 -31 3 -50t10 -30t16.5 -15t23.5 -4
h28v-75h-333v75h27q13 0 23 4t17 15t10 30t3 50v309q-53 -44 -128 -71t-169 -27q-81 0 -160.5 30t-142.5 96.5t-102 171.5t-39 255q0 151 43.5 256.5t115 171.5t163.5 95.5t189 29.5q95 0 205.5 -14t236.5 -58v-75q-8 -2 -15 -5.5t-12.5 -12.5t-9 -25t-3.5 -43v-1084z" />
    <glyph glyph-name="r" unicode="r" horiz-adv-x="886" 
d="M362 893v-719q0 -31 3 -50t10 -30t16.5 -15t23.5 -4h27v-75h-333v75h28q13 0 23 4t17 15t10 30t3 50v714q0 31 -3 50t-10 30t-17 15t-23 4h-28v75h235v-89q40 33 80 54.5t77.5 34t73 17.5t67.5 5q59 0 106 -9.5t79 -12.5l24 -238h-80q-14 78 -64 116.5t-120 38.5
q-51 0 -109 -21t-116 -65z" />
    <glyph glyph-name="s" unicode="s" horiz-adv-x="997" 
d="M448 69q141 0 205.5 50t64.5 140q0 51 -15.5 86t-46.5 59.5t-78 41t-110 31.5q-90 22 -156 48t-109 61.5t-64 83t-21 113.5q0 74 28.5 130t80 94t124 57.5t159.5 19.5q43 0 80.5 -3.5t71.5 -7.5t65 -7.5t60 -3.5l24 -238h-80q-18 37 -38.5 68.5t-49 54.5t-68.5 36t-97 13
q-50 0 -91 -11.5t-70.5 -33.5t-45.5 -53t-16 -70q0 -47 15.5 -77t43 -50.5t65.5 -33t83 -23.5q102 -25 177 -54t123.5 -69.5t72.5 -96t24 -131.5q0 -83 -30 -142.5t-84.5 -98t-130 -56.5t-166.5 -18q-52 0 -88 3.5t-69 7.5t-69.5 7.5t-90.5 3.5l-24 245h80q20 -33 41 -64.5
t50 -56.5t69.5 -40t100.5 -15z" />
    <glyph glyph-name="t" unicode="t" horiz-adv-x="690" 
d="M466 72q71 0 132 29v-80q-34 -18 -75 -30.5t-89 -12.5q-81 0 -131 23.5t-77 60.5t-36.5 83.5t-9.5 92.5v729h-102v95h102v162l172 160v-322h244v-95h-244v-774q0 -17 3.5 -38t15.5 -39.5t34.5 -31t60.5 -12.5z" />
    <glyph glyph-name="u" unicode="u" horiz-adv-x="1195" 
d="M833 888q0 31 -3 50t-10 30t-17 15t-23 4h-28v75h253v-888q0 -31 3 -50t10 -30t16.5 -15t23.5 -4h28v-75h-235v89q-30 -25 -63 -45.5t-71.5 -35t-84 -22.5t-99.5 -8q-86 0 -152 24t-110.5 70t-67.5 111.5t-23 149.5v555q0 31 -3 50t-10 30t-17 15t-23 4h-28v75h253v-723
q0 -60 13 -108.5t41 -82.5t71.5 -52.5t105.5 -18.5q137 0 250 92v719z" />
    <glyph glyph-name="v" unicode="v" horiz-adv-x="1024" 
d="M539 -22h-69q-66 132 -122.5 263.5t-101.5 253t-78 227t-52 185.5q-7 29 -16 45.5t-19 24t-19 9t-15 1.5h-27v75h333v-75h-19q-35 0 -44 -16.5t-1 -61.5q9 -46 25.5 -103.5t37.5 -122t45.5 -131.5t50 -131.5t51 -124t48.5 -106.5q27 58 56 127t56 140t50.5 140t39.5 127
q23 83 32 134.5t7.5 80t-13 38.5t-29.5 10h-31v75h299v-75h-29q-11 0 -20 -3t-18.5 -16.5t-21 -41.5t-27.5 -79q-70 -216 -160 -431.5t-199 -437.5z" />
    <glyph glyph-name="w" unicode="w" horiz-adv-x="1563" 
d="M1437 847q-69 -217 -159.5 -432t-199.5 -437h-69q-66 132 -122.5 263.5t-101.5 252.5l-11 29q-42 -106 -89 -213q-72 -164 -155 -332h-69q-66 132 -122 263.5t-101.5 253t-78.5 227t-52 185.5q-7 29 -16.5 45.5t-19.5 24t-19 9t-15 1.5h-27v75h333v-75h-19
q-35 0 -45 -16.5t0 -61.5q10 -47 27 -105t38 -122t45.5 -131t50 -131.5t50.5 -123.5t48 -106q27 58 56 127t56 140t50 140q13 37 24 71q-9 27 -17 53q-33 106 -52 186q-7 29 -16.5 45.5t-19 24t-19 9t-15.5 1.5h-27v75h333v-75h-19q-35 0 -45 -16.5t0 -61.5
q10 -46 26.5 -103.5t37.5 -122t46 -131.5t50.5 -131.5t50.5 -124t48 -106.5q27 58 56 127t56 140t50.5 140t39.5 127q23 83 32 134.5t7.5 80t-13 38.5t-29.5 10h-31v75h299v-75h-29q-11 0 -20 -3t-18.5 -16.5t-21 -41.5t-27.5 -79z" />
    <glyph glyph-name="x" unicode="x" horiz-adv-x="1112" 
d="M313 180q-23 -50 -10.5 -77.5t38.5 -27.5h31v-75h-342v75h29q21 0 50 23t73 85q54 78 126 167t162 183q-87 98 -166 194t-142 205q-11 19 -22 30t-21 16.5t-18.5 7t-14.5 1.5h-27v75h344v-75h-19q-31 0 -37 -15.5t9 -41.5q36 -63 94.5 -134.5t128.5 -150.5q30 31 58.5 62
t53.5 61t45.5 58t34.5 53q29 54 20.5 81t-34.5 27h-31v75h338v-75h-29q-14 0 -27.5 -5t-28 -17.5t-32.5 -33.5t-41 -52q-57 -77 -124.5 -148t-145.5 -152q93 -105 185 -218t161 -231q10 -18 21 -29t20.5 -17t17.5 -7.5t14 -1.5h27v-75h-338v75h19q16 0 24.5 6t11 15t-1 20
t-10.5 22q-62 92 -127 172.5t-131 155.5q-92 -100 -142.5 -168.5t-73.5 -117.5z" />
    <glyph glyph-name="y" unicode="y" horiz-adv-x="1074" 
d="M929 847q-68 -215 -160 -435t-211 -456q-50 -100 -91 -172t-79 -119t-77 -69.5t-85 -22.5q-28 0 -47.5 2.5t-34.5 7t-27 11t-25 13.5l-20 178h80q6 -26 15.5 -41t21 -22.5t25 -10t28.5 -2.5q19 0 42 8t52.5 37.5t67 87.5t85.5 159q-63 129 -117.5 257.5t-98 246.5
t-75.5 221t-51 181q-7 29 -16.5 45.5t-19.5 24t-19 9t-15 1.5h-27v75h333v-75h-19q-35 0 -44.5 -16.5t-0.5 -61.5q9 -46 25.5 -103.5t37.5 -122t46 -131.5t50.5 -131.5t51 -124t48.5 -106.5q27 58 56 127t56 140t50.5 140t39.5 127q22 83 31 134.5t7.5 80t-13 38.5t-29.5 10
h-31v75h299v-75h-29q-11 0 -20 -3t-18 -16.5t-20.5 -41.5t-27.5 -79z" />
    <glyph glyph-name="z" unicode="z" horiz-adv-x="1063" 
d="M342 967q-24 0 -50 -10t-49.5 -29t-41.5 -45t-27 -59h-80l33 238h823l20 -81q-69 -56 -144 -132t-148 -160t-140.5 -170.5t-121.5 -163t-90 -137.5t-46 -94q-6 -19 -2 -24t18 -5h394q24 0 54.5 9.5t59.5 28.5t53.5 47t37.5 65h80l-33 -245h-861l-16 59q30 80 80.5 170
t111 180t125.5 175t124.5 155.5t108.5 122t77 73.5q12 9 14.5 15.5t-0.5 10t-10 5t-14 1.5h-340z" />
    <glyph glyph-name="braceleft" unicode="{" horiz-adv-x="986" 
d="M528 -467l-14 -40q-157 22 -247.5 115t-93.5 221q-2 117 89 284.5t89 232.5q-1 74 -54.5 126.5t-156.5 66.5l13 47q125 15 212.5 77t122.5 141q24 54 30.5 213t70.5 278t211 216.5t322 119.5l-12 -40q-135 -30 -218.5 -92t-119.5 -148q-26 -59 -32.5 -208t-47.5 -241.5
t-154 -187.5t-291 -149q123 -49 187 -131.5t66 -181.5t-89 -267.5t-90 -244.5q1 -75 47.5 -126.5t159.5 -80.5z" />
    <glyph glyph-name="bar" unicode="|" horiz-adv-x="678" 
d="M356 1631l37 -2138h-99l-37 2138h99z" />
    <glyph glyph-name="braceright" unicode="}" horiz-adv-x="986" 
d="M399 1591l11 40q157 -21 248.5 -113.5t93.5 -221.5q2 -118 -89 -285t-90 -232q1 -74 55 -126.5t158 -66.5l-14 -47q-123 -15 -210.5 -77t-123.5 -141q-23 -53 -30.5 -213t-71.5 -279t-210 -216.5t-321 -119.5l12 40q135 31 217.5 92.5t119.5 147.5q25 61 31.5 209.5
t43.5 228.5q45 104 159 199t292 150q-124 48 -188.5 131t-66.5 182q-1 100 90 268t89 243q-1 76 -47.5 127.5t-157.5 79.5z" />
    <glyph glyph-name="asciitilde" unicode="~" horiz-adv-x="1335" 
d="M1241 774h54q-2 -149 -84.5 -233t-204.5 -84q-55 0 -119.5 17.5t-332.5 120.5q-187 74 -265 74q-85 0 -141.5 -49.5t-79.5 -160.5h-53q5 155 85.5 237t191.5 82q53 0 109 -16q126 -35 331.5 -118t288.5 -83q90 0 150.5 55t69.5 158z" />
    <glyph glyph-name="uni00A0" unicode="&#xa0;" horiz-adv-x="586" 
 />
    <glyph glyph-name="exclamdown" unicode="&#xa1;" horiz-adv-x="662" 
d="M459 -312q-1 -58 -36 -86.5t-92 -28.5t-92.5 29t-35.5 86q0 9 4.5 65t12 141t17 191t19 215t18.5 213t16 185h78q8 -81 17.5 -185t19.5 -213t20 -215t17.5 -191t12 -141t4.5 -65zM452 961q0 -55 -34.5 -89.5t-89.5 -34.5t-89.5 34.5t-34.5 89.5q0 27 10 49.5t26.5 38.5
t39 25t48.5 9q55 0 89.5 -33.5t34.5 -88.5z" />
    <glyph glyph-name="cent" unicode="&#xa2;" horiz-adv-x="1064" 
d="M644 84q41 -3 82 -2t80 5.5t74 12.5t64 19v-84q-69 -30 -150 -43.5t-176 -13.5q-78 0 -143 14l-103 -399h-99l110 427q-91 39 -152 108q-64 72 -95 174.5t-31 228.5q0 115 29.5 216t92 176t159.5 118t232 43q22 0 40 -1l99 383h98l-101 -391q11 -1 21 -2q33 -4 69.5 -7.5
t90.5 -3.5l24 -238h-80q-16 33 -34.5 64t-47.5 54q-27 23 -68 37l-223 -868q61 -22 138 -27zM618 995q-91 0 -154.5 -30.5t-103.5 -90t-58 -146t-18 -197.5q0 -119 24.5 -201.5t70.5 -135.5q18 -20 40 -37l216 838h-17z" />
    <glyph glyph-name="sterling" unicode="&#xa3;" horiz-adv-x="1163" 
d="M680 836v-100h-274q8 -38 12 -76.5t4 -77.5q0 -58 -10.5 -117t-37.5 -117.5t-73 -114t-116 -105.5q75 48 158 70t166 22q68 0 127 -14t112 -30.5t100.5 -30t92.5 -13.5q36 0 71 12t70 41v-112q-31 -28 -63 -46t-63 -29t-60.5 -15.5t-56.5 -4.5q-46 0 -99.5 14t-110.5 31
t-115.5 31t-115.5 14q-36 0 -75 -6.5t-78.5 -18.5t-77.5 -29.5t-71 -38.5l-69 173q66 38 110.5 80t70.5 87.5t37 93t11 97.5q0 57 -11.5 114.5t-26.5 115.5h-205v100h177q-17 62 -30 121.5t-13 115.5q0 93 27.5 169t80 131t130 85t177.5 30q60 0 102 -3.5t80 -7.5t78 -7.5
t96 -3.5l33 -298h-74q-20 46 -48.5 87t-66.5 71.5t-87.5 48.5t-112.5 18q-48 0 -93.5 -12t-81.5 -38.5t-57.5 -69.5t-21.5 -104q0 -33 7 -71.5t18.5 -80.5t25 -87.5t25.5 -93.5h296z" />
    <glyph glyph-name="currency" unicode="&#xa4;" horiz-adv-x="1139" 
d="M230 949l-141 139l109 113l143 -141q51 33 106.5 50.5t117.5 17.5q63 0 118.5 -17.5t106.5 -50.5l142 141l110 -113l-142 -139q33 -53 50.5 -108.5t17.5 -115.5q0 -59 -17.5 -114.5t-50.5 -108.5l142 -139l-110 -113l-142 142q-51 -34 -106.5 -51.5t-118.5 -17.5
q-62 0 -117.5 17.5t-106.5 51.5l-143 -142l-109 113l141 139q-32 53 -49.5 108.5t-17.5 114.5q0 60 17.5 115.5t49.5 108.5zM300 725q0 -54 20.5 -102t56.5 -84t84 -57t103 -21t103 21t83.5 57t56 84t20.5 102t-20.5 102t-56 84t-83.5 57t-103 21q-54 0 -102 -21t-84 -57
t-57 -84t-21 -102z" />
    <glyph glyph-name="yen" unicode="&#xa5;" horiz-adv-x="1463" 
d="M322 434h307v74h-307v100h307v84q-140 152 -268 308t-226 318q-13 21 -22 34.5t-16 21t-13 10t-13 2.5h-31v80h342v-80h-26q-20 0 -25.5 -16.5t17.5 -51.5q40 -63 91.5 -132.5t108.5 -139t117 -134.5t118 -119q55 57 104 112t92 111t80 114t67 120q36 74 30.5 105
t-38.5 31h-12v80h337v-80h-5q-17 0 -34 -5.5t-38 -23.5t-48.5 -52t-66.5 -91q-41 -59 -86.5 -118.5t-99 -123t-115.5 -132.5t-135 -148v-84h307v-100h-307v-74h307v-100h-307v-147q0 -18 2 -37t8 -34.5t17 -25.5t29 -10h30v-80h-359v80h30q18 0 29 10t17.5 25.5t8.5 34.5
t2 37v147h-307v100z" />
    <glyph glyph-name="brokenbar" unicode="&#xa6;" horiz-adv-x="501" 
d="M180 -427v721h110v-721h-110zM180 761v727h110v-727h-110z" />
    <glyph glyph-name="section" unicode="&#xa7;" horiz-adv-x="1139" 
d="M517 -427q-93 0 -159 8.5t-111 16.5v160q77 -49 150 -71.5t160 -22.5q55 0 94.5 16t64 42.5t36 61t11.5 71.5q0 54 -28.5 96t-76 77.5t-107.5 66.5t-122.5 64.5t-122.5 71.5t-107.5 86.5t-76 110.5t-28.5 143q0 61 21.5 112t60.5 90t92.5 64.5t116.5 36.5
q-44 27 -82.5 58.5t-67 69t-45 82.5t-16.5 100q0 73 28.5 130t80 95.5t124 58.5t159.5 20q93 0 159 -8.5t111 -16.5v-160q-77 49 -150 71.5t-160 22.5q-56 0 -95 -14.5t-63.5 -39t-36 -57.5t-11.5 -70q0 -54 30 -96.5t79.5 -78.5t112 -68.5t128.5 -66.5t128.5 -73t112 -88.5
t79.5 -112t30 -143.5q0 -68 -23.5 -121t-66.5 -90t-102.5 -57t-131.5 -22q44 -27 83 -58t68 -68.5t45.5 -83.5t16.5 -102q0 -74 -28.5 -132t-80 -98.5t-124 -62t-159.5 -21.5zM858 471q0 62 -30 110t-78.5 87t-111 72t-127.5 65q-60 -1 -107.5 -16.5t-80 -43t-50 -67
t-17.5 -88.5q0 -57 24.5 -101.5t65.5 -81t94 -67t110 -60.5q17 -2 35.5 -3t37.5 -1q123 0 179 48t56 147z" />
    <glyph glyph-name="dieresis" unicode="&#xa8;" horiz-adv-x="726" 
d="M80 1369q0 55 30.5 87t84.5 32q56 0 87.5 -32t31.5 -87q0 -54 -31.5 -84.5t-87.5 -30.5q-54 0 -84.5 30.5t-30.5 84.5zM412 1369q0 55 30.5 87t84.5 32q56 0 87.5 -32t31.5 -87q0 -54 -31.5 -84.5t-87.5 -30.5q-54 0 -84.5 30.5t-30.5 84.5z" />
    <glyph glyph-name="copyright" unicode="&#xa9;" horiz-adv-x="1509" 
d="M758 78q139 0 257.5 46t205.5 131.5t136 207t49 273.5q0 151 -49 273t-136 208t-205.5 132t-257.5 46t-258 -46t-206 -132t-136 -208t-49 -273q0 -152 49 -273.5t136 -207t206 -131.5t258 -46zM758 -14q-158 0 -295.5 52.5t-238.5 150t-159 236t-58 311.5q0 172 58 311
t159 237t238.5 150.5t295.5 52.5t295 -52.5t238 -150.5t159 -237t58 -311q0 -173 -58 -311.5t-159 -236t-238 -150t-295 -52.5zM802 386q63 0 125.5 15t112.5 49v-74q-14 -13 -36.5 -26.5t-54.5 -25t-73 -18.5t-91 -7q-100 0 -174.5 30.5t-124.5 87t-75 137t-25 179.5
q0 90 22 169t70 138t123.5 93t183.5 34q40 0 68 -2t54 -4t55 -4t71 -2l19 -182h-48q-16 26 -34 48.5t-42 39.5t-55 26.5t-71 9.5q-131 0 -193.5 -94t-62.5 -270q0 -97 19.5 -163.5t54 -107t81.5 -58.5t101 -18z" />
    <glyph glyph-name="ordfeminine" unicode="&#xaa;" horiz-adv-x="719" 
d="M329 1488q67 0 124.5 -17t99.5 -51t65.5 -85t23.5 -119v-383q0 -6 0.5 -14t2 -15t5.5 -12t12 -5h18v-55h-143v72q-56 -54 -113.5 -70.5t-118.5 -16.5q-125 0 -195 56t-70 170q0 56 24 96.5t64.5 66.5t92.5 38.5t108 12.5h195v64q0 56 -15 95.5t-41 64t-61.5 36
t-76.5 11.5q-24 0 -49 -4.5t-46.5 -17.5t-39 -36t-26.5 -59h-54l13 148q21 6 42 11.5t45 9t52 6t62 2.5zM524 1096h-195q-44 0 -75 -12.5t-51 -33.5t-29.5 -49t-9.5 -58q0 -70 40 -110.5t131 -40.5q39 0 73.5 7t60 22.5t40.5 40t15 58.5v176z" />
    <glyph glyph-name="guillemotleft" unicode="&#xab;" horiz-adv-x="948" 
d="M460 273q0 88 39.5 161t103 126.5t142 83.5t156.5 31l-9 -33q-37 -2 -72 -21t-65.5 -49t-56 -68.5t-44 -79.5t-28.5 -81t-10 -73q0 -105 33.5 -165.5t100.5 -86.5l-8 -30q-62 8 -113.5 33.5t-89 64t-58.5 86.5t-21 101zM108 273q0 88 39.5 161t103 126.5t142 83.5
t156.5 31l-9 -33q-37 -2 -72 -21t-65.5 -49t-56 -68.5t-44 -79.5t-28.5 -81t-10 -73q0 -105 33.5 -165.5t100.5 -86.5l-8 -30q-62 8 -113.5 33.5t-89 64t-58.5 86.5t-21 101z" />
    <glyph glyph-name="logicalnot" unicode="&#xac;" horiz-adv-x="1175" 
d="M97 1030h985v-326h-133v202h-852v124z" />
    <glyph glyph-name="uni00AD" unicode="&#xad;" horiz-adv-x="595" 
d="M530 343h-448v114h448v-114z" />
    <glyph glyph-name="registered" unicode="&#xae;" horiz-adv-x="1509" 
d="M1081 412q8 -17 13 -27.5t9.5 -16.5t9.5 -8t13 -2h27v-45h-198q-11 48 -40.5 108.5t-68.5 118.5t-84.5 105.5t-88.5 67.5v59q20 -6 50.5 -10t56.5 -4q31 0 61 8t54 27.5t38.5 51.5t14.5 79q0 54 -14.5 87.5t-40 52t-61 25t-77.5 6.5q-50 0 -77.5 -3.5t-41.5 -10t-17 -17
t-3 -24.5v-620q0 -38 7.5 -50t24.5 -12h18v-45h-252v45h17q17 0 24.5 12t7.5 50v624q0 38 -6.5 49t-25.5 11h-18v47q72 0 121.5 2t88.5 4t74 4t78 2q89 0 152 -16t103 -46.5t58.5 -75t18.5 -101.5q0 -50 -16.5 -88.5t-47 -65t-73 -41t-94.5 -15.5q39 -28 72.5 -70.5
t59.5 -87t44.5 -84t28.5 -60.5zM758 78q139 0 257.5 46t205.5 131.5t136 207t49 273.5q0 151 -49 273t-136 208t-205.5 132t-257.5 46t-258 -46t-206 -132t-136 -208t-49 -273q0 -152 49 -273.5t136 -207t206 -131.5t258 -46zM758 -14q-158 0 -295.5 52.5t-238.5 150
t-159 236t-58 311.5q0 172 58 311t159 237t238.5 150.5t295.5 52.5t295 -52.5t238 -150.5t159 -237t58 -311q0 -173 -58 -311.5t-159 -236t-238 -150t-295 -52.5z" />
    <glyph glyph-name="macron" unicode="&#xaf;" horiz-adv-x="1024" 
d="M-30 1550v100h1146v-100h-1146z" />
    <glyph glyph-name="degree" unicode="&#xb0;" horiz-adv-x="631" 
d="M70 1222q0 51 17.5 95.5t50 77.5t78.5 52t103 19t103 -19t78 -52t49.5 -77.5t17.5 -95.5t-17.5 -95.5t-50 -77.5t-78.5 -52t-102 -19t-102 19t-78.5 52t-50.5 77.5t-18 95.5zM144 1222q0 -37 11.5 -69.5t33.5 -56.5t54.5 -37.5t75.5 -13.5t75.5 13.5t54.5 37.5t33 56.5
t11 69.5t-11.5 69.5t-33.5 56.5t-54.5 37.5t-74.5 13.5t-74.5 -13.5t-55 -37.5t-34 -56.5t-11.5 -69.5z" />
    <glyph glyph-name="plusminus" unicode="&#xb1;" horiz-adv-x="1124" 
d="M512 292v319h-403v123h403v289h123v-289h404v-123h-404v-319h-123zM109 83v123h930v-123h-930z" />
    <glyph glyph-name="twosuperior" unicode="&#xb2;" horiz-adv-x="583" 
d="M243 1422q-33 0 -70.5 -14.5t-60.5 -49.5h-31l11 110q24 5 61 13t100 8q70 0 119.5 -18.5t80.5 -51t45.5 -76t14.5 -94.5q0 -66 -28 -123t-74.5 -106t-106.5 -91t-124 -79h201q21 0 36 1t26.5 7t20 18.5t14.5 36.5h33l-17 -181h-433v97q81 60 140 110.5t97.5 100t57 100
t18.5 110.5q0 38 -7 69.5t-22.5 54.5t-40.5 35.5t-61 12.5z" />
    <glyph glyph-name="threesuperior" unicode="&#xb3;" horiz-adv-x="583" 
d="M224 1423q-35 0 -68 -14t-59 -52h-30l12 108q34 8 74 15.5t97 7.5q47 0 89.5 -10.5t74.5 -33t51 -58.5t19 -88q0 -36 -11.5 -63.5t-30 -47.5t-41.5 -33t-46 -20q29 -5 57.5 -21t51 -41.5t36.5 -59t14 -72.5q0 -54 -21.5 -94.5t-61.5 -68.5t-95.5 -42t-124.5 -14
q-42 0 -83.5 3.5t-68.5 10.5l-11 117h31q23 -39 64 -53t86 -14q26 0 52 8t47 26.5t34 48t13 72.5q0 52 -15 83t-38 47.5t-50 21.5t-51 5q-8 0 -18.5 -2t-21.5 -2q-33 0 -33 39q0 42 31 42q13 0 23.5 -1.5t19.5 -1.5q22 0 44.5 5t40.5 18.5t29.5 38t11.5 62.5
q0 63 -34.5 95.5t-89.5 32.5z" />
    <glyph glyph-name="acute" unicode="&#xb4;" horiz-adv-x="408" 
d="M175 1466h223l-276 -289h-105z" />
    <glyph glyph-name="mu1" unicode="&#xb5;" horiz-adv-x="1207" 
d="M134 1062h172v-723q0 -69 16 -119t46 -81.5t72 -46.5t95 -15q44 0 82.5 9t70.5 22.5t57 29.5t42 31v893h172v-807q0 -44 2 -77t9.5 -55.5t22.5 -33.5t41 -11q23 0 46 5.5t52 27.5v-93q-26 -19 -63.5 -29.5t-89.5 -10.5q-22 0 -48 5.5t-51 18.5t-45 34.5t-30 52.5
q-30 -24 -63.5 -44.5t-71.5 -35.5t-83.5 -23t-99.5 -8q-90 0 -156 26t-114 73v-51q0 -38 8.5 -86t19 -95.5t19.5 -93.5t9 -81q0 -49 -27.5 -75.5t-69.5 -26.5t-69 27t-27 73q0 35 8.5 82.5t18.5 99t18.5 108t8.5 109.5v995z" />
    <glyph glyph-name="paragraph" unicode="&#xb6;" horiz-adv-x="983" 
d="M438 1466h498v-100h-144v-1773h-110v1773h-143v-1773h-110v1125q-79 0 -152 25t-129 73t-89.5 118t-33.5 160t33.5 159.5t90.5 117t131.5 71.5t157.5 24z" />
    <glyph glyph-name="periodcentered" unicode="&#xb7;" horiz-adv-x="408" 
d="M450 521q-5 0 -10 1t-12 1q-19 0 -41.5 -8t-42.5 -20.5t-35.5 -27.5t-19.5 -29q-7 -16 -15.5 -25.5t-22.5 -9.5q-19 0 -27 12t-8 26q0 7 1.5 11.5t1.5 15.5q0 54 -26.5 89.5t-59.5 46.5q-16 7 -25.5 15.5t-9.5 22.5q0 18 12 26t26 8q6 0 11 -1t13 -1q19 0 41.5 8
t42.5 20.5t35 28t20 29.5q7 16 15.5 25.5t22.5 9.5q18 0 26 -12.5t8 -27.5q0 -5 -1 -10t-1 -12q0 -19 8 -41.5t20.5 -42.5t28 -35.5t29.5 -19.5q16 -7 25.5 -15.5t9.5 -22.5q0 -18 -13 -26.5t-27 -8.5z" />
    <glyph glyph-name="cedilla" unicode="&#xb8;" horiz-adv-x="445" 
d="M166 23h76l-38 -125q46 0 89 -7t76 -24t52.5 -46.5t19.5 -74.5q0 -82 -68 -127.5t-214 -45.5h-144v70h105q84 0 119.5 29.5t35.5 73.5q0 24 -6.5 42.5t-24.5 31t-49.5 19t-80.5 7.5z" />
    <glyph glyph-name="onesuperior" unicode="&#xb9;" horiz-adv-x="338" 
d="M258 1488v-661q0 -25 3.5 -35t11.5 -10h29v-50h-218v50h28q8 0 11.5 10t3.5 33v546q0 10 -7 17.5t-18 7.5h-93v70q24 0 52.5 0.5t57.5 2.5t57.5 6.5t53.5 12.5h28z" />
    <glyph glyph-name="ordmasculine" unicode="&#xba;" horiz-adv-x="767" 
d="M50 1105q0 79 17.5 149t57 122t102.5 82t153 30t153.5 -30t103 -82t57.5 -122t18 -149q0 -80 -18 -149.5t-57.5 -121.5t-103 -82t-153.5 -30t-153 30t-102.5 82t-57 121.5t-17.5 149.5zM195 1105q0 -66 8 -123.5t28.5 -100t56.5 -67t92 -24.5t93 24.5t59.5 67t31.5 100
t9 123.5t-9.5 124t-32 101t-59.5 67.5t-92 24.5t-91 -24.5t-57 -67.5t-29 -101t-8 -124z" />
    <glyph glyph-name="guillemotright" unicode="&#xbb;" horiz-adv-x="948" 
d="M492 389q0 -88 -39.5 -161t-103 -126.5t-142 -83.5t-156.5 -31l9 33q37 2 72 21t65.5 49t56 68.5t44 79.5t28.5 81t10 73q0 105 -33.5 165.5t-100.5 86.5l8 30q61 -8 113 -33.5t89.5 -64t58.5 -86.5t21 -101zM844 389q0 -88 -39.5 -161t-103 -126.5t-142 -83.5
t-156.5 -31l9 33q37 2 72 21t65.5 49t56 68.5t44 79.5t28.5 81t10 73q0 105 -33.5 165.5t-100.5 86.5l8 30q61 -8 113 -33.5t89.5 -64t58.5 -86.5t21 -101z" />
    <glyph glyph-name="onequarter" unicode="&#xbc;" horiz-adv-x="1710" 
d="M254 -22l1073 1510h105l-1073 -1510h-105zM1298 276v320q-67 -66 -119.5 -130t-90.5 -127q-6 -12 -6 -26t9.5 -25.5t32.5 -11.5h174zM1298 210h-332v61q28 57 72 120t95 124t105 117t103 101h88v-457h76v-66h-76v-115q0 -25 3.5 -35t11.5 -10h29v-50h-218v50h28
q8 0 11.5 10t3.5 33v117zM399 1488v-661q0 -25 3.5 -35t11.5 -10h29v-50h-218v50h28q8 0 11.5 10t3.5 33v546q0 10 -7 17.5t-18 7.5h-93v70q24 0 52.5 0.5t57.5 2.5t57.5 6.5t53.5 12.5h28z" />
    <glyph glyph-name="onehalf" unicode="&#xbd;" horiz-adv-x="1710" 
d="M399 1488v-661q0 -25 3.5 -35t11.5 -10h29v-50h-218v50h28q8 0 11.5 10t3.5 33v546q0 10 -7 17.5t-18 7.5h-93v70q24 0 52.5 0.5t57.5 2.5t57.5 6.5t53.5 12.5h28zM1290 690q-33 0 -70.5 -14.5t-60.5 -49.5h-31l11 110q24 5 61 13t100 8q70 0 119.5 -18.5t80.5 -51
t45.5 -76t14.5 -94.5q0 -66 -28 -123t-74.5 -106t-106.5 -91t-124 -79h201q21 0 36 1t26.5 7t20 18.5t14.5 36.5h33l-17 -181h-433v97q81 60 140 110.5t97.5 100t57 100t18.5 110.5q0 38 -7 69.5t-22.5 54.5t-40.5 35.5t-61 12.5zM254 -22l1073 1510h105l-1073 -1510h-105z
" />
    <glyph glyph-name="threequarters" unicode="&#xbe;" horiz-adv-x="1710" 
d="M326 1423q-35 0 -68 -14t-59 -52h-30l12 108q34 8 74 15.5t97 7.5q47 0 89.5 -10.5t74.5 -33t51 -58.5t19 -88q0 -36 -11.5 -63.5t-30 -47.5t-41.5 -33t-46 -20q29 -5 57.5 -21t51 -41.5t36.5 -59t14 -72.5q0 -54 -21.5 -94.5t-61.5 -68.5t-95.5 -42t-124.5 -14
q-42 0 -83.5 3.5t-68.5 10.5l-11 117h31q23 -39 64 -53t86 -14q26 0 52 8t47 26.5t34 48t13 72.5q0 52 -15 83t-38 47.5t-50 21.5t-51 5q-8 0 -18.5 -2t-21.5 -2q-33 0 -33 39q0 42 31 42q13 0 23.5 -1.5t19.5 -1.5q22 0 44.5 5t40.5 18.5t29.5 38t11.5 62.5
q0 63 -34.5 95.5t-89.5 32.5zM254 -22l1073 1510h105l-1073 -1510h-105zM1298 276v320q-67 -66 -119.5 -130t-90.5 -127q-6 -12 -6 -26t9.5 -25.5t32.5 -11.5h174zM1298 210h-332v61q28 57 72 120t95 124t105 117t103 101h88v-457h76v-66h-76v-115q0 -25 3.5 -35t11.5 -10
h29v-50h-218v50h28q8 0 11.5 10t3.5 33v117z" />
    <glyph glyph-name="questiondown" unicode="&#xbf;" horiz-adv-x="1079" 
d="M535 -332q88 0 161.5 25t125.5 81h47v-170q-57 -11 -138 -20.5t-193 -9.5q-125 0 -215 25.5t-148.5 72.5t-86.5 113t-28 148q0 70 19.5 124t51.5 97.5t73 80t83.5 72t83.5 73.5t73 84t51.5 103.5t19.5 133.5h89q0 -111 -27 -192t-67 -143.5t-87 -112t-87 -98t-67 -101
t-27 -121.5q0 -67 24 -117t64.5 -83t93.5 -49t111 -16zM431 962q0 55 34.5 88.5t89.5 33.5q25 0 48 -9t39.5 -25t26.5 -38.5t10 -49.5q0 -55 -34.5 -89.5t-89.5 -34.5t-89.5 34.5t-34.5 89.5z" />
    <glyph glyph-name="Agrave" unicode="&#xc0;" horiz-adv-x="1536" 
d="M649 1466h239q58 -119 113.5 -240t105.5 -239.5t94 -231t80 -215t63 -192.5t43 -162q8 -37 17.5 -58t19 -31.5t19 -13.5t18.5 -3h24v-80h-339v80h26q11 0 19 9.5t8 36.5q0 23 -7 57q-9 45 -27 106.5t-43 134.5t-54.5 155t-62.5 166h-459q8 26 17 50.5t19 49.5h384
q-30 74 -59.5 145.5t-58 137.5t-54.5 123.5t-48 102.5h-35q-39 -82 -84 -188t-90.5 -221t-87.5 -232t-74.5 -222t-52 -191t-19.5 -138q0 -25 4.5 -41t12.5 -25t19 -12.5t25 -3.5h12v-80h-350v80h5q18 0 35.5 4.5t35 23t36 56.5t39.5 104q94 294 210.5 598t261.5 600z
M915 1581h-104l-277 289h223z" />
    <glyph glyph-name="Aacute" unicode="&#xc1;" horiz-adv-x="1536" 
d="M649 1466h239q58 -119 113.5 -240t105.5 -239.5t94 -231t80 -215t63 -192.5t43 -162q8 -37 17.5 -58t19 -31.5t19 -13.5t18.5 -3h24v-80h-339v80h26q11 0 19 9.5t8 36.5q0 23 -7 57q-9 45 -27 106.5t-43 134.5t-54.5 155t-62.5 166h-459q8 26 17 50.5t19 49.5h384
q-30 74 -59.5 145.5t-58 137.5t-54.5 123.5t-48 102.5h-35q-39 -82 -84 -188t-90.5 -221t-87.5 -232t-74.5 -222t-52 -191t-19.5 -138q0 -25 4.5 -41t12.5 -25t19 -12.5t25 -3.5h12v-80h-350v80h5q18 0 35.5 4.5t35 23t36 56.5t39.5 104q94 294 210.5 598t261.5 600z
M742 1870h223l-276 -289h-105z" />
    <glyph glyph-name="Acircumflex" unicode="&#xc2;" horiz-adv-x="1536" 
d="M649 1466h239q58 -119 113.5 -240t105.5 -239.5t94 -231t80 -215t63 -192.5t43 -162q8 -37 17.5 -58t19 -31.5t19 -13.5t18.5 -3h24v-80h-339v80h26q11 0 19 9.5t8 36.5q0 23 -7 57q-9 45 -27 106.5t-43 134.5t-54.5 155t-62.5 166h-459q8 26 17 50.5t19 49.5h384
q-30 74 -59.5 145.5t-58 137.5t-54.5 123.5t-48 102.5h-35q-39 -82 -84 -188t-90.5 -221t-87.5 -232t-74.5 -222t-52 -191t-19.5 -138q0 -25 4.5 -41t12.5 -25t19 -12.5t25 -3.5h12v-80h-350v80h5q18 0 35.5 4.5t35 23t36 56.5t39.5 104q94 294 210.5 598t261.5 600z
M667 1870h187l200 -272h-75l-219 180l-218 -180h-75z" />
    <glyph glyph-name="Atilde" unicode="&#xc3;" horiz-adv-x="1536" 
d="M649 1466h239q58 -119 113.5 -240t105.5 -239.5t94 -231t80 -215t63 -192.5t43 -162q8 -37 17.5 -58t19 -31.5t19 -13.5t18.5 -3h24v-80h-339v80h26q11 0 19 9.5t8 36.5q0 23 -7 57q-9 45 -27 106.5t-43 134.5t-54.5 155t-62.5 166h-459q8 26 17 50.5t19 49.5h384
q-30 74 -59.5 145.5t-58 137.5t-54.5 123.5t-48 102.5h-35q-39 -82 -84 -188t-90.5 -221t-87.5 -232t-74.5 -222t-52 -191t-19.5 -138q0 -25 4.5 -41t12.5 -25t19 -12.5t25 -3.5h12v-80h-350v80h5q18 0 35.5 4.5t35 23t36 56.5t39.5 104q94 294 210.5 598t261.5 600z
M427 1708q84 87 177 87q46 0 91 -17.5t91 -38t92 -38t93 -17.5q36 0 64 18t54 54v-89q-87 -87 -178 -87q-51 0 -97 17.5t-90 38t-87.5 38t-90.5 17.5q-35 0 -63.5 -19.5t-55.5 -54.5v91z" />
    <glyph glyph-name="Adieresis" unicode="&#xc4;" horiz-adv-x="1536" 
d="M649 1466h239q58 -119 113.5 -240t105.5 -239.5t94 -231t80 -215t63 -192.5t43 -162q8 -37 17.5 -58t19 -31.5t19 -13.5t18.5 -3h24v-80h-339v80h26q11 0 19 9.5t8 36.5q0 23 -7 57q-9 45 -27 106.5t-43 134.5t-54.5 155t-62.5 166h-459q8 26 17 50.5t19 49.5h384
q-30 74 -59.5 145.5t-58 137.5t-54.5 123.5t-48 102.5h-35q-39 -82 -84 -188t-90.5 -221t-87.5 -232t-74.5 -222t-52 -191t-19.5 -138q0 -25 4.5 -41t12.5 -25t19 -12.5t25 -3.5h12v-80h-350v80h5q18 0 35.5 4.5t35 23t36 56.5t39.5 104q94 294 210.5 598t261.5 600z
M475 1773q0 55 30.5 87t84.5 32q56 0 87.5 -32t31.5 -87q0 -54 -31.5 -84.5t-87.5 -30.5q-54 0 -84.5 30.5t-30.5 84.5zM807 1773q0 55 30.5 87t84.5 32q56 0 87.5 -32t31.5 -87q0 -54 -31.5 -84.5t-87.5 -30.5q-54 0 -84.5 30.5t-30.5 84.5z" />
    <glyph glyph-name="Aring" unicode="&#xc5;" horiz-adv-x="1536" 
d="M649 1466h239q58 -119 113.5 -240t105.5 -239.5t94 -231t80 -215t63 -192.5t43 -162q8 -37 17.5 -58t19 -31.5t19 -13.5t18.5 -3h24v-80h-339v80h26q11 0 19 9.5t8 36.5q0 23 -7 57q-9 45 -27 106.5t-43 134.5t-54.5 155t-62.5 166h-459q8 26 17 50.5t19 49.5h384
q-30 74 -59.5 145.5t-58 137.5t-54.5 123.5t-48 102.5h-35q-39 -82 -84 -188t-90.5 -221t-87.5 -232t-74.5 -222t-52 -191t-19.5 -138q0 -25 4.5 -41t12.5 -25t19 -12.5t25 -3.5h12v-80h-350v80h5q18 0 35.5 4.5t35 23t36 56.5t39.5 104q94 294 210.5 598t261.5 600z
M584 1738q0 40 13.5 72.5t38 56t58 36.5t73.5 13t73.5 -13t58 -36.5t38 -56t13.5 -72.5t-13.5 -72.5t-38 -56t-58 -36.5t-73.5 -13t-73.5 13t-58 36.5t-38 56t-13.5 72.5zM657 1738q0 -48 31 -79t79 -31t79 31t31 79t-31 79t-79 31t-79 -31t-31 -79z" />
    <glyph glyph-name="AE" unicode="&#xc6;" horiz-adv-x="2251" 
d="M878 1298q9 12 15.5 26.5t6.5 27.5q0 14 -10 24t-36 10h-30v80h764q42 0 99 0.5t118.5 3t121.5 7.5t107 13l43 -324h-74q-16 51 -43 88.5t-61.5 62t-75 37t-83.5 12.5h-392q-36 0 -46 -25.5t-10 -61.5v-434h426q30 0 56 9t46 29.5t34 53.5t20 82h74v-456h-74
q-3 42 -17 75.5t-35 57t-47.5 36.5t-56.5 13h-426v-558q0 -36 10 -60.5t46 -24.5h395q64 0 110 14t78.5 41t54.5 65.5t38 87.5h74l-30 -310h-1049v80h30q18 0 29 10t17.5 25.5t8.5 34.5t2 37v558h-407q14 26 29 50.5t31 49.5h347v521h-56q-192 -252 -345.5 -486t-261.5 -443
q-33 -65 -56.5 -115t-38.5 -87.5t-21.5 -64t-6.5 -44.5q0 -27 13.5 -36.5t34.5 -9.5h12v-80h-358v80h5q18 0 35.5 4t38.5 22.5t48 56.5t65 105q142 254 304.5 513t359.5 517z" />
    <glyph glyph-name="Ccedilla" unicode="&#xc7;" horiz-adv-x="1372" 
d="M778 93q141 0 249 31t196 100v-111q-25 -23 -64.5 -47t-95 -43.5t-126.5 -32t-159 -12.5q-173 0 -303 53.5t-216.5 151.5t-130 237.5t-43.5 312.5q0 157 38 294.5t121.5 240t215 161.5t318.5 59q71 0 119.5 -3.5t93.5 -7.5t95 -7.5t124 -3.5l33 -298h-74q-27 45 -58 86
t-75.5 71.5t-106.5 49t-151 18.5q-124 0 -216.5 -46t-154 -132t-92 -208t-30.5 -274t34.5 -271t98.5 -201t155 -125t205 -43zM674 23h76l-38 -125q46 0 89 -7t76 -24t52.5 -46.5t19.5 -74.5q0 -82 -68 -127.5t-214 -45.5h-144v70h105q84 0 119.5 29.5t35.5 73.5
q0 24 -6.5 42.5t-24.5 31t-49.5 19t-80.5 7.5z" />
    <glyph glyph-name="Egrave" unicode="&#xc8;" horiz-adv-x="1395" 
d="M862 845q30 0 56 9.5t46 30.5t34 55t20 83h74v-456h-74q-3 42 -17 75t-35 56t-47.5 35t-56.5 12h-426v-558q0 -36 10 -60.5t46 -24.5h395q64 0 110 17t78.5 47.5t54.5 72.5t38 91h74l-30 -330h-1049v80h30q18 0 29 10t17.5 25.5t8.5 34.5t2 37v1092q0 18 -2 37t-8.5 34.5
t-17.5 25.5t-29 10h-30v80h569q42 0 99 0.5t118.5 3t121.5 7.5t107 13l43 -324h-74q-16 51 -43 88.5t-61.5 62t-75 37t-83.5 12.5h-392q-36 0 -46 -25.5t-10 -61.5v-434h426zM853 1581h-104l-277 289h223z" />
    <glyph glyph-name="Eacute" unicode="&#xc9;" horiz-adv-x="1395" 
d="M862 845q30 0 56 9.5t46 30.5t34 55t20 83h74v-456h-74q-3 42 -17 75t-35 56t-47.5 35t-56.5 12h-426v-558q0 -36 10 -60.5t46 -24.5h395q64 0 110 17t78.5 47.5t54.5 72.5t38 91h74l-30 -330h-1049v80h30q18 0 29 10t17.5 25.5t8.5 34.5t2 37v1092q0 18 -2 37t-8.5 34.5
t-17.5 25.5t-29 10h-30v80h569q42 0 99 0.5t118.5 3t121.5 7.5t107 13l43 -324h-74q-16 51 -43 88.5t-61.5 62t-75 37t-83.5 12.5h-392q-36 0 -46 -25.5t-10 -61.5v-434h426zM690 1870h223l-276 -289h-105z" />
    <glyph glyph-name="Ecircumflex" unicode="&#xca;" horiz-adv-x="1395" 
d="M862 845q30 0 56 9.5t46 30.5t34 55t20 83h74v-456h-74q-3 42 -17 75t-35 56t-47.5 35t-56.5 12h-426v-558q0 -36 10 -60.5t46 -24.5h395q64 0 110 17t78.5 47.5t54.5 72.5t38 91h74l-30 -330h-1049v80h30q18 0 29 10t17.5 25.5t8.5 34.5t2 37v1092q0 18 -2 37t-8.5 34.5
t-17.5 25.5t-29 10h-30v80h569q42 0 99 0.5t118.5 3t121.5 7.5t107 13l43 -324h-74q-16 51 -43 88.5t-61.5 62t-75 37t-83.5 12.5h-392q-36 0 -46 -25.5t-10 -61.5v-434h426zM609 1870h187l200 -272h-75l-219 180l-218 -180h-75z" />
    <glyph glyph-name="Edieresis" unicode="&#xcb;" horiz-adv-x="1395" 
d="M862 845q30 0 56 9.5t46 30.5t34 55t20 83h74v-456h-74q-3 42 -17 75t-35 56t-47.5 35t-56.5 12h-426v-558q0 -36 10 -60.5t46 -24.5h395q64 0 110 17t78.5 47.5t54.5 72.5t38 91h74l-30 -330h-1049v80h30q18 0 29 10t17.5 25.5t8.5 34.5t2 37v1092q0 18 -2 37t-8.5 34.5
t-17.5 25.5t-29 10h-30v80h569q42 0 99 0.5t118.5 3t121.5 7.5t107 13l43 -324h-74q-16 51 -43 88.5t-61.5 62t-75 37t-83.5 12.5h-392q-36 0 -46 -25.5t-10 -61.5v-434h426zM404 1773q0 55 30.5 87t84.5 32q56 0 87.5 -32t31.5 -87q0 -54 -31.5 -84.5t-87.5 -30.5
q-54 0 -84.5 30.5t-30.5 84.5zM736 1773q0 55 30.5 87t84.5 32q56 0 87.5 -32t31.5 -87q0 -54 -31.5 -84.5t-87.5 -30.5q-54 0 -84.5 30.5t-30.5 84.5z" />
    <glyph glyph-name="Igrave" unicode="&#xcc;" horiz-adv-x="686" 
d="M250 1279q0 33 -3.5 54t-10.5 32.5t-17.5 16t-25.5 4.5h-30v80h359v-80h-29q-15 0 -25.5 -4.5t-17.5 -16t-10.5 -32.5t-3.5 -54v-1092q0 -33 3.5 -54t10.5 -32.5t17.5 -16t25.5 -4.5h29v-80h-359v80h30q15 0 25.5 4.5t17.5 16t10.5 32.5t3.5 54v1092zM534 1581h-104
l-277 289h223z" />
    <glyph glyph-name="Iacute" unicode="&#xcd;" horiz-adv-x="686" 
d="M250 1279q0 33 -3.5 54t-10.5 32.5t-17.5 16t-25.5 4.5h-30v80h359v-80h-29q-15 0 -25.5 -4.5t-17.5 -16t-10.5 -32.5t-3.5 -54v-1092q0 -33 3.5 -54t10.5 -32.5t17.5 -16t25.5 -4.5h29v-80h-359v80h30q15 0 25.5 4.5t17.5 16t10.5 32.5t3.5 54v1092zM311 1870h223
l-276 -289h-105z" />
    <glyph glyph-name="Icircumflex" unicode="&#xce;" horiz-adv-x="686" 
d="M250 1279q0 33 -3.5 54t-10.5 32.5t-17.5 16t-25.5 4.5h-30v80h359v-80h-29q-15 0 -25.5 -4.5t-17.5 -16t-10.5 -32.5t-3.5 -54v-1092q0 -33 3.5 -54t10.5 -32.5t17.5 -16t25.5 -4.5h29v-80h-359v80h30q15 0 25.5 4.5t17.5 16t10.5 32.5t3.5 54v1092zM250 1870h187
l200 -272h-75l-219 180l-218 -180h-75z" />
    <glyph glyph-name="Idieresis" unicode="&#xcf;" horiz-adv-x="686" 
d="M250 1279q0 33 -3.5 54t-10.5 32.5t-17.5 16t-25.5 4.5h-30v80h359v-80h-29q-15 0 -25.5 -4.5t-17.5 -16t-10.5 -32.5t-3.5 -54v-1092q0 -33 3.5 -54t10.5 -32.5t17.5 -16t25.5 -4.5h29v-80h-359v80h30q15 0 25.5 4.5t17.5 16t10.5 32.5t3.5 54v1092zM56 1773
q0 55 30.5 87t84.5 32q56 0 87.5 -32t31.5 -87q0 -54 -31.5 -84.5t-87.5 -30.5q-54 0 -84.5 30.5t-30.5 84.5zM388 1773q0 55 30.5 87t84.5 32q56 0 87.5 -32t31.5 -87q0 -54 -31.5 -84.5t-87.5 -30.5q-54 0 -84.5 30.5t-30.5 84.5z" />
    <glyph glyph-name="Eth" unicode="&#xd0;" horiz-adv-x="1570" 
d="M-3 836h253v443q0 31 -2 52t-8.5 33t-17.5 17t-29 5h-30v80h107q51 0 115 3.5t130 7.5t130 7.5t115 3.5q172 0 303 -58t219 -159.5t133 -239.5t45 -297q0 -152 -45 -286t-133 -233.5t-219 -157t-303 -57.5h-597v80h30q18 0 29 4.5t17.5 16.5t8.5 33t2 53v549h-253v100z
M436 187q0 -31 3 -48.5t12 -26t25 -10.5t42 -2h202q127 0 227.5 39t170 118t106 198t36.5 279q0 166 -38.5 289t-112.5 204.5t-182 122t-247 40.5q-121 0 -182.5 -15t-61.5 -66v-473h320v-100h-320v-549z" />
    <glyph glyph-name="Ntilde" unicode="&#xd1;" horiz-adv-x="1594" 
d="M1207 0q-54 131 -122.5 260.5t-143.5 253t-154.5 238.5t-155.5 216t-145.5 186.5t-125.5 149.5v-926q0 -94 3.5 -152.5t13 -90.5t26.5 -43.5t44 -11.5h31v-80h-349v80h35q26 0 42.5 11.5t26.5 43.5t13.5 90.5t3.5 153.5v903q0 54 -21 79t-56 25h-30v80h298
q53 -49 126 -133t153 -188t162 -219.5t153 -228t125 -214t79 -176.5q-1 14 -2 31t-2 33t-1.5 29.5t-0.5 20.5v667q0 94 -3.5 152.5t-13 90.5t-26.5 43.5t-44 11.5h-31v80h349v-80h-35q-27 0 -44 -11.5t-26 -43.5t-12 -91t-3 -153v-1087h-137zM434 1696q84 87 177 87
q46 0 91 -17.5t91 -38t92 -38t93 -17.5q36 0 64 18t54 54v-89q-87 -87 -178 -87q-51 0 -97 17.5t-90 38t-87.5 38t-90.5 17.5q-35 0 -63.5 -19.5t-55.5 -54.5v91z" />
    <glyph glyph-name="Ograve" unicode="&#xd2;" horiz-adv-x="1626" 
d="M120 733q0 172 41.5 311.5t127 238t216 152t308.5 53.5t308.5 -53t216 -151.5t127 -238t41.5 -312.5t-41.5 -312.5t-127 -238t-216 -151.5t-308.5 -53t-308.5 53.5t-216 152t-127 238t-41.5 311.5zM312 733q0 -145 29 -266.5t90 -209t155.5 -136t226.5 -48.5t226.5 48.5
t156 136t90.5 209t29 266.5t-29 266.5t-90 209t-156 136t-227 48.5t-227 -48.5t-155.5 -136t-89.5 -209t-29 -266.5zM993 1581h-104l-277 289h223z" />
    <glyph glyph-name="Oacute" unicode="&#xd3;" horiz-adv-x="1626" 
d="M120 733q0 172 41.5 311.5t127 238t216 152t308.5 53.5t308.5 -53t216 -151.5t127 -238t41.5 -312.5t-41.5 -312.5t-127 -238t-216 -151.5t-308.5 -53t-308.5 53.5t-216 152t-127 238t-41.5 311.5zM312 733q0 -145 29 -266.5t90 -209t155.5 -136t226.5 -48.5t226.5 48.5
t156 136t90.5 209t29 266.5t-29 266.5t-90 209t-156 136t-227 48.5t-227 -48.5t-155.5 -136t-89.5 -209t-29 -266.5zM800 1870h223l-276 -289h-105z" />
    <glyph glyph-name="Ocircumflex" unicode="&#xd4;" horiz-adv-x="1626" 
d="M120 733q0 172 41.5 311.5t127 238t216 152t308.5 53.5t308.5 -53t216 -151.5t127 -238t41.5 -312.5t-41.5 -312.5t-127 -238t-216 -151.5t-308.5 -53t-308.5 53.5t-216 152t-127 238t-41.5 311.5zM312 733q0 -145 29 -266.5t90 -209t155.5 -136t226.5 -48.5t226.5 48.5
t156 136t90.5 209t29 266.5t-29 266.5t-90 209t-156 136t-227 48.5t-227 -48.5t-155.5 -136t-89.5 -209t-29 -266.5zM729 1870h187l200 -272h-75l-219 180l-218 -180h-75z" />
    <glyph glyph-name="Otilde" unicode="&#xd5;" horiz-adv-x="1626" 
d="M120 733q0 172 41.5 311.5t127 238t216 152t308.5 53.5t308.5 -53t216 -151.5t127 -238t41.5 -312.5t-41.5 -312.5t-127 -238t-216 -151.5t-308.5 -53t-308.5 53.5t-216 152t-127 238t-41.5 311.5zM312 733q0 -145 29 -266.5t90 -209t155.5 -136t226.5 -48.5t226.5 48.5
t156 136t90.5 209t29 266.5t-29 266.5t-90 209t-156 136t-227 48.5t-227 -48.5t-155.5 -136t-89.5 -209t-29 -266.5zM483 1711q84 87 177 87q46 0 91 -17.5t91 -38t92 -38t93 -17.5q36 0 64 18t54 54v-89q-87 -87 -178 -87q-51 0 -97 17.5t-90 38t-87.5 38t-90.5 17.5
q-35 0 -63.5 -19.5t-55.5 -54.5v91z" />
    <glyph glyph-name="Odieresis" unicode="&#xd6;" horiz-adv-x="1626" 
d="M120 733q0 172 41.5 311.5t127 238t216 152t308.5 53.5t308.5 -53t216 -151.5t127 -238t41.5 -312.5t-41.5 -312.5t-127 -238t-216 -151.5t-308.5 -53t-308.5 53.5t-216 152t-127 238t-41.5 311.5zM312 733q0 -145 29 -266.5t90 -209t155.5 -136t226.5 -48.5t226.5 48.5
t156 136t90.5 209t29 266.5t-29 266.5t-90 209t-156 136t-227 48.5t-227 -48.5t-155.5 -136t-89.5 -209t-29 -266.5zM534 1773q0 55 30.5 87t84.5 32q56 0 87.5 -32t31.5 -87q0 -54 -31.5 -84.5t-87.5 -30.5q-54 0 -84.5 30.5t-30.5 84.5zM866 1773q0 55 30.5 87t84.5 32
q56 0 87.5 -32t31.5 -87q0 -54 -31.5 -84.5t-87.5 -30.5q-54 0 -84.5 30.5t-30.5 84.5z" />
    <glyph glyph-name="multiply" unicode="&#xd7;" horiz-adv-x="1045" 
d="M810 321l-284 284l-271 -271l-119 119l271 271l-282 282l116 116l282 -282l271 271l119 -119l-271 -271l284 -284z" />
    <glyph glyph-name="Oslash" unicode="&#xd8;" horiz-adv-x="1626" 
d="M42 0l208 232q-58 84 -89 189q-41 141 -41 312q0 170 41 311q31 104 87 186.5t137 139.5t188 87.5t240 30.5q176 0 308 -53q78 -32 136 -77l96 108h137l-158 -177q4 -4 5 -6q87 -99 128 -237.5t41 -312.5q0 -173 -41.5 -312.5t-127 -238t-216 -151.5t-308.5 -53
q-177 0 -309 53q-108 44 -187 122l-137 -153h-138zM431 257q61 -88 155 -136t227 -48q132 0 226.5 48.5t156 136t90.5 208.5t29 267q0 73 -7.5 139t-21.5 127q-11 48 -27.5 89t-36.5 78l-800 -896zM312 733q0 -143 29 -267q11 -50 30 -98l790 883q-51 57 -121 93
q-94 49 -227 49q-132 0 -227 -48.5t-155.5 -136t-89.5 -209t-29 -266.5z" />
    <glyph glyph-name="Ugrave" unicode="&#xd9;" horiz-adv-x="1549" 
d="M1359 470q0 -115 -42.5 -206.5t-117.5 -155t-177 -97t-220 -33.5q-133 0 -235.5 33.5t-173 97t-107 155t-36.5 206.5v809q0 60 -10.5 83.5t-46.5 23.5h-30v80h359v-80h-30q-36 0 -46 -24.5t-10 -83.5v-811q0 -99 29 -169.5t82.5 -115.5t129 -66t168.5 -21t167.5 27
t127 76t81 116.5t28.5 148.5v625q0 94 -4 152.5t-15 90.5t-30 43.5t-48 11.5h-31v80h369v-80h-35q-29 0 -48 -11.5t-29.5 -43.5t-14.5 -91t-4 -153v-617zM992 1581h-104l-277 289h223z" />
    <glyph glyph-name="Uacute" unicode="&#xda;" horiz-adv-x="1549" 
d="M1359 470q0 -115 -42.5 -206.5t-117.5 -155t-177 -97t-220 -33.5q-133 0 -235.5 33.5t-173 97t-107 155t-36.5 206.5v809q0 60 -10.5 83.5t-46.5 23.5h-30v80h359v-80h-30q-36 0 -46 -24.5t-10 -83.5v-811q0 -99 29 -169.5t82.5 -115.5t129 -66t168.5 -21t167.5 27
t127 76t81 116.5t28.5 148.5v625q0 94 -4 152.5t-15 90.5t-30 43.5t-48 11.5h-31v80h369v-80h-35q-29 0 -48 -11.5t-29.5 -43.5t-14.5 -91t-4 -153v-617zM789 1870h223l-276 -289h-105z" />
    <glyph glyph-name="Ucircumflex" unicode="&#xdb;" horiz-adv-x="1549" 
d="M1359 470q0 -115 -42.5 -206.5t-117.5 -155t-177 -97t-220 -33.5q-133 0 -235.5 33.5t-173 97t-107 155t-36.5 206.5v809q0 60 -10.5 83.5t-46.5 23.5h-30v80h359v-80h-30q-36 0 -46 -24.5t-10 -83.5v-811q0 -99 29 -169.5t82.5 -115.5t129 -66t168.5 -21t167.5 27
t127 76t81 116.5t28.5 148.5v625q0 94 -4 152.5t-15 90.5t-30 43.5t-48 11.5h-31v80h369v-80h-35q-29 0 -48 -11.5t-29.5 -43.5t-14.5 -91t-4 -153v-617zM708 1870h187l200 -272h-75l-219 180l-218 -180h-75z" />
    <glyph glyph-name="Udieresis" unicode="&#xdc;" horiz-adv-x="1549" 
d="M1359 470q0 -115 -42.5 -206.5t-117.5 -155t-177 -97t-220 -33.5q-133 0 -235.5 33.5t-173 97t-107 155t-36.5 206.5v809q0 60 -10.5 83.5t-46.5 23.5h-30v80h359v-80h-30q-36 0 -46 -24.5t-10 -83.5v-811q0 -99 29 -169.5t82.5 -115.5t129 -66t168.5 -21t167.5 27
t127 76t81 116.5t28.5 148.5v625q0 94 -4 152.5t-15 90.5t-30 43.5t-48 11.5h-31v80h369v-80h-35q-29 0 -48 -11.5t-29.5 -43.5t-14.5 -91t-4 -153v-617zM503 1773q0 55 30.5 87t84.5 32q56 0 87.5 -32t31.5 -87q0 -54 -31.5 -84.5t-87.5 -30.5q-54 0 -84.5 30.5t-30.5 84.5
zM835 1773q0 55 30.5 87t84.5 32q56 0 87.5 -32t31.5 -87q0 -54 -31.5 -84.5t-87.5 -30.5q-54 0 -84.5 30.5t-30.5 84.5z" />
    <glyph glyph-name="Yacute" unicode="&#xdd;" horiz-adv-x="1463" 
d="M1127 1250q36 74 30.5 105t-38.5 31h-12v80h337v-80h-5q-17 0 -34 -5.5t-38 -23.5t-48.5 -52t-66.5 -91q-41 -59 -86.5 -118.5t-99 -123t-115.5 -132.5t-135 -148v-505q0 -18 2 -37t8 -34.5t17 -25.5t29 -10h30v-80h-359v80h30q18 0 29 10t17.5 25.5t8.5 34.5t2 37v505
q-140 152 -268 308t-226 318q-13 21 -22 34.5t-16 21t-13 10t-13 2.5h-31v80h342v-80h-26q-20 0 -25.5 -16.5t17.5 -51.5q40 -63 91.5 -132.5t108.5 -139t117 -134.5t118 -119q55 57 104 112t92 111t80 114t67 120zM708 1870h223l-276 -289h-105z" />
    <glyph glyph-name="Thorn" unicode="&#xde;" horiz-adv-x="1269" 
d="M149 1279q0 33 -3.5 54t-10.5 32.5t-17.5 16t-25.5 4.5h-30v80h359v-80h-29q-15 0 -25.5 -4.5t-17.5 -16t-10.5 -32.5t-3.5 -54v-22h172q163 0 287 -30t207 -94.5t125 -165.5t42 -243t-42 -240t-125.5 -158.5t-207 -87.5t-286.5 -27h-172v-24q0 -33 3.5 -54t10.5 -32.5
t17.5 -16t25.5 -4.5h30v-80h-360v80h30q15 0 25.5 4.5t17.5 16t10.5 32.5t3.5 54v1092zM507 306q140 0 231 29.5t144 84t74 131.5t21 173t-21 176t-74 138.5t-144 91t-231 32.5h-172v-856h172z" />
    <glyph glyph-name="germandbls" unicode="&#xdf;" horiz-adv-x="1253" 
d="M307 0h-253v75h28q13 0 23 4t17 15t10 30t3 50v896q0 99 18.5 176.5t64 131.5t122.5 82t194 28q111 0 183.5 -28.5t116 -72t61 -94.5t17.5 -96q0 -54 -16 -95t-39.5 -73.5t-51.5 -58t-51.5 -47.5t-39.5 -43t-16 -44q0 -29 32.5 -61.5t81.5 -70.5t106.5 -82t106.5 -96
t81.5 -112.5t32.5 -131.5q0 -73 -26 -129.5t-73 -95.5t-112 -59.5t-144 -20.5q-52 0 -88 3.5t-69 7.5t-69.5 7.5t-90.5 3.5l-24 245h80q20 -33 44 -65t55 -56.5t70 -40t89 -15.5q31 0 64 9t61 29.5t46 54.5t18 85q0 64 -31 114.5t-77 93.5t-100 81t-100 76.5t-77 80.5
t-31 92q0 32 14 58.5t35 51.5t45.5 50.5t45.5 54.5t35 64.5t14 79.5q0 63 -20 110.5t-52 78.5t-73 46.5t-84 15.5q-106 0 -156.5 -59t-50.5 -193v-1141z" />
    <glyph glyph-name="agrave" unicode="&#xe0;" horiz-adv-x="1151" 
d="M799 532h-285q-64 0 -109.5 -18.5t-75 -49t-43.5 -71t-14 -84.5q0 -51 14 -92t44.5 -69.5t77.5 -44t113 -15.5q75 0 141.5 20t136.5 65v359zM971 174q0 -31 3 -50t10 -30t16.5 -15t23.5 -4h28v-75h-235v90q-45 -34 -88.5 -55.5t-86 -34t-83.5 -17.5t-80 -5
q-89 0 -160.5 20.5t-121.5 60.5t-77 98t-27 133q0 87 34 150t91.5 103.5t134 59.5t161.5 19h285v99q0 82 -22 135.5t-60 85t-89.5 43.5t-111.5 12q-36 0 -72 -6.5t-68.5 -25.5t-57.5 -53t-38 -88h-80l20 218q31 9 64 16.5t70.5 13.5t82 9t99.5 3q88 -1 167 -19.5t138.5 -61
t94.5 -113t35 -175.5v-541zM725 1177h-104l-277 289h223z" />
    <glyph glyph-name="aacute" unicode="&#xe1;" horiz-adv-x="1151" 
d="M799 532h-285q-64 0 -109.5 -18.5t-75 -49t-43.5 -71t-14 -84.5q0 -51 14 -92t44.5 -69.5t77.5 -44t113 -15.5q75 0 141.5 20t136.5 65v359zM971 174q0 -31 3 -50t10 -30t16.5 -15t23.5 -4h28v-75h-235v90q-45 -34 -88.5 -55.5t-86 -34t-83.5 -17.5t-80 -5
q-89 0 -160.5 20.5t-121.5 60.5t-77 98t-27 133q0 87 34 150t91.5 103.5t134 59.5t161.5 19h285v99q0 82 -22 135.5t-60 85t-89.5 43.5t-111.5 12q-36 0 -72 -6.5t-68.5 -25.5t-57.5 -53t-38 -88h-80l20 218q31 9 64 16.5t70.5 13.5t82 9t99.5 3q88 -1 167 -19.5t138.5 -61
t94.5 -113t35 -175.5v-541zM533 1466h223l-276 -289h-105z" />
    <glyph glyph-name="acircumflex" unicode="&#xe2;" horiz-adv-x="1151" 
d="M799 532h-285q-64 0 -109.5 -18.5t-75 -49t-43.5 -71t-14 -84.5q0 -51 14 -92t44.5 -69.5t77.5 -44t113 -15.5q75 0 141.5 20t136.5 65v359zM971 174q0 -31 3 -50t10 -30t16.5 -15t23.5 -4h28v-75h-235v90q-45 -34 -88.5 -55.5t-86 -34t-83.5 -17.5t-80 -5
q-89 0 -160.5 20.5t-121.5 60.5t-77 98t-27 133q0 87 34 150t91.5 103.5t134 59.5t161.5 19h285v99q0 82 -22 135.5t-60 85t-89.5 43.5t-111.5 12q-36 0 -72 -6.5t-68.5 -25.5t-57.5 -53t-38 -88h-80l20 218q31 9 64 16.5t70.5 13.5t82 9t99.5 3q88 -1 167 -19.5t138.5 -61
t94.5 -113t35 -175.5v-541zM461 1466h187l200 -272h-75l-219 180l-218 -180h-75z" />
    <glyph glyph-name="atilde" unicode="&#xe3;" horiz-adv-x="1151" 
d="M799 532h-285q-64 0 -109.5 -18.5t-75 -49t-43.5 -71t-14 -84.5q0 -51 14 -92t44.5 -69.5t77.5 -44t113 -15.5q75 0 141.5 20t136.5 65v359zM971 174q0 -31 3 -50t10 -30t16.5 -15t23.5 -4h28v-75h-235v90q-45 -34 -88.5 -55.5t-86 -34t-83.5 -17.5t-80 -5
q-89 0 -160.5 20.5t-121.5 60.5t-77 98t-27 133q0 87 34 150t91.5 103.5t134 59.5t161.5 19h285v99q0 82 -22 135.5t-60 85t-89.5 43.5t-111.5 12q-36 0 -72 -6.5t-68.5 -25.5t-57.5 -53t-38 -88h-80l20 218q31 9 64 16.5t70.5 13.5t82 9t99.5 3q88 -1 167 -19.5t138.5 -61
t94.5 -113t35 -175.5v-541zM239 1391q84 87 177 87q46 0 91 -17.5t91 -38t92 -38t93 -17.5q36 0 64 18t54 54v-89q-87 -87 -178 -87q-51 0 -97 17.5t-90 38t-87.5 38t-90.5 17.5q-35 0 -63.5 -19.5t-55.5 -54.5v91z" />
    <glyph glyph-name="adieresis" unicode="&#xe4;" horiz-adv-x="1151" 
d="M799 532h-285q-64 0 -109.5 -18.5t-75 -49t-43.5 -71t-14 -84.5q0 -51 14 -92t44.5 -69.5t77.5 -44t113 -15.5q75 0 141.5 20t136.5 65v359zM971 174q0 -31 3 -50t10 -30t16.5 -15t23.5 -4h28v-75h-235v90q-45 -34 -88.5 -55.5t-86 -34t-83.5 -17.5t-80 -5
q-89 0 -160.5 20.5t-121.5 60.5t-77 98t-27 133q0 87 34 150t91.5 103.5t134 59.5t161.5 19h285v99q0 82 -22 135.5t-60 85t-89.5 43.5t-111.5 12q-36 0 -72 -6.5t-68.5 -25.5t-57.5 -53t-38 -88h-80l20 218q31 9 64 16.5t70.5 13.5t82 9t99.5 3q88 -1 167 -19.5t138.5 -61
t94.5 -113t35 -175.5v-541zM255 1369q0 55 30.5 87t84.5 32q56 0 87.5 -32t31.5 -87q0 -54 -31.5 -84.5t-87.5 -30.5q-54 0 -84.5 30.5t-30.5 84.5zM587 1369q0 55 30.5 87t84.5 32q56 0 87.5 -32t31.5 -87q0 -54 -31.5 -84.5t-87.5 -30.5q-54 0 -84.5 30.5t-30.5 84.5z" />
    <glyph glyph-name="aring" unicode="&#xe5;" horiz-adv-x="1151" 
d="M799 532h-285q-64 0 -109.5 -18.5t-75 -49t-43.5 -71t-14 -84.5q0 -51 14 -92t44.5 -69.5t77.5 -44t113 -15.5q75 0 141.5 20t136.5 65v359zM971 174q0 -31 3 -50t10 -30t16.5 -15t23.5 -4h28v-75h-235v90q-45 -34 -88.5 -55.5t-86 -34t-83.5 -17.5t-80 -5
q-89 0 -160.5 20.5t-121.5 60.5t-77 98t-27 133q0 87 34 150t91.5 103.5t134 59.5t161.5 19h285v99q0 82 -22 135.5t-60 85t-89.5 43.5t-111.5 12q-36 0 -72 -6.5t-68.5 -25.5t-57.5 -53t-38 -88h-80l20 218q31 9 64 16.5t70.5 13.5t82 9t99.5 3q88 -1 167 -19.5t138.5 -61
t94.5 -113t35 -175.5v-541zM364 1334q0 40 13.5 72.5t38 56t58 36.5t73.5 13t73.5 -13t58 -36.5t38 -56t13.5 -72.5t-13.5 -72.5t-38 -56t-58 -36.5t-73.5 -13t-73.5 13t-58 36.5t-38 56t-13.5 72.5zM437 1334q0 -48 31 -79t79 -31t79 31t31 79t-31 79t-79 31t-79 -31
t-31 -79z" />
    <glyph glyph-name="ae" unicode="&#xe6;" horiz-adv-x="1873" 
d="M1285 1084q133 0 224.5 -41t147.5 -114t81 -173t25 -218v-6h-792v-12q0 -120 26 -205t73.5 -139t113 -79t144.5 -25q58 0 109 4.5t97 14.5t88.5 27t83.5 41v-81q-24 -17 -61.5 -34.5t-88 -32t-112.5 -24t-136 -9.5q-78 0 -139 10.5t-109.5 31t-88.5 51.5t-77 72
q-56 -50 -109 -82t-104.5 -50.5t-101.5 -25.5t-100 -7q-90 0 -161.5 19.5t-121.5 59t-76.5 99t-26.5 138.5q0 86 34 148t92 102t134.5 59t160.5 19h285v99q0 82 -22.5 135.5t-61 85t-90 43.5t-109.5 12q-42 0 -79.5 -8t-68 -27.5t-53 -53t-35.5 -84.5h-80l20 218
q28 8 57 15.5t65.5 13.5t83 9.5t110.5 3.5q59 0 115.5 -10t105.5 -31.5t88 -54t64 -77.5q25 36 58.5 67.5t78.5 55t103.5 37t135.5 13.5zM514 532q-64 0 -109.5 -18.5t-75 -49t-43.5 -71t-14 -84.5q0 -51 14 -92t44.5 -69.5t77.5 -44t113 -15.5q64 0 117.5 14.5t95 36
t70.5 46t44 43.5q-17 36 -28 71.5t-17 72.5t-8.5 76.5t-3.5 83.5h-277zM1581 622q0 72 -12 139t-45 119t-90.5 83.5t-148.5 31.5q-80 0 -136 -24.5t-92.5 -71.5t-56 -116.5t-26.5 -160.5h607z" />
    <glyph glyph-name="ccedilla" unicode="&#xe7;" horiz-adv-x="1079" 
d="M659 84q41 -3 82 -2t80 5.5t74 12.5t64 19v-84q-69 -30 -150 -43.5t-176 -13.5q-131 0 -227 39t-160 111t-95 174.5t-31 228.5q0 115 29.5 216t92 176t159.5 118t232 43q52 0 88 -3.5t69 -7.5t69.5 -7.5t90.5 -3.5l24 -238h-80q-16 33 -34.5 64t-47 54.5t-71.5 38
t-108 14.5q-91 0 -154.5 -30.5t-103.5 -90t-58 -146t-18 -197.5q0 -119 24.5 -201.5t71 -135t113 -78.5t151.5 -32zM550 23h76l-38 -125q46 0 89 -7t76 -24t52.5 -46.5t19.5 -74.5q0 -82 -68 -127.5t-214 -45.5h-144v70h105q84 0 119.5 29.5t35.5 73.5q0 24 -6.5 42.5
t-24.5 31t-49.5 19t-80.5 7.5z" />
    <glyph glyph-name="egrave" unicode="&#xe8;" horiz-adv-x="1201" 
d="M613 1084q133 0 224.5 -42.5t147.5 -116.5t81 -173.5t25 -213.5v-6h-792v-7q0 -124 27.5 -209.5t76 -139t115.5 -77t146 -23.5q58 0 107.5 4t94.5 13.5t86 25.5t82 40v-81q-24 -17 -61.5 -34.5t-88 -32t-112.5 -24t-136 -9.5q-254 0 -385 137.5t-131 415.5q0 115 27 216
t86 176t152.5 118t227.5 43zM909 622q-2 69 -14.5 135.5t-44.5 119.5t-89 85.5t-148 32.5q-89 0 -149 -31.5t-96.5 -92t-52.5 -148.5q-9 -47 -13 -101h607zM810 1177h-104l-277 289h223z" />
    <glyph glyph-name="eacute" unicode="&#xe9;" horiz-adv-x="1201" 
d="M613 1084q133 0 224.5 -42.5t147.5 -116.5t81 -173.5t25 -213.5v-6h-792v-7q0 -124 27.5 -209.5t76 -139t115.5 -77t146 -23.5q58 0 107.5 4t94.5 13.5t86 25.5t82 40v-81q-24 -17 -61.5 -34.5t-88 -32t-112.5 -24t-136 -9.5q-254 0 -385 137.5t-131 415.5q0 115 27 216
t86 176t152.5 118t227.5 43zM909 622q-2 69 -14.5 135.5t-44.5 119.5t-89 85.5t-148 32.5q-89 0 -149 -31.5t-96.5 -92t-52.5 -148.5q-9 -47 -13 -101h607zM607 1466h223l-276 -289h-105z" />
    <glyph glyph-name="ecircumflex" unicode="&#xea;" horiz-adv-x="1201" 
d="M613 1084q133 0 224.5 -42.5t147.5 -116.5t81 -173.5t25 -213.5v-6h-792v-7q0 -124 27.5 -209.5t76 -139t115.5 -77t146 -23.5q58 0 107.5 4t94.5 13.5t86 25.5t82 40v-81q-24 -17 -61.5 -34.5t-88 -32t-112.5 -24t-136 -9.5q-254 0 -385 137.5t-131 415.5q0 115 27 216
t86 176t152.5 118t227.5 43zM909 622q-2 69 -14.5 135.5t-44.5 119.5t-89 85.5t-148 32.5q-89 0 -149 -31.5t-96.5 -92t-52.5 -148.5q-9 -47 -13 -101h607zM526 1466h187l200 -272h-75l-219 180l-218 -180h-75z" />
    <glyph glyph-name="edieresis" unicode="&#xeb;" horiz-adv-x="1201" 
d="M613 1084q133 0 224.5 -42.5t147.5 -116.5t81 -173.5t25 -213.5v-6h-792v-7q0 -124 27.5 -209.5t76 -139t115.5 -77t146 -23.5q58 0 107.5 4t94.5 13.5t86 25.5t82 40v-81q-24 -17 -61.5 -34.5t-88 -32t-112.5 -24t-136 -9.5q-254 0 -385 137.5t-131 415.5q0 115 27 216
t86 176t152.5 118t227.5 43zM909 622q-2 69 -14.5 135.5t-44.5 119.5t-89 85.5t-148 32.5q-89 0 -149 -31.5t-96.5 -92t-52.5 -148.5q-9 -47 -13 -101h607zM320 1369q0 55 30.5 87t84.5 32q56 0 87.5 -32t31.5 -87q0 -54 -31.5 -84.5t-87.5 -30.5q-54 0 -84.5 30.5
t-30.5 84.5zM652 1369q0 55 30.5 87t84.5 32q56 0 87.5 -32t31.5 -87q0 -54 -31.5 -84.5t-87.5 -30.5q-54 0 -84.5 30.5t-30.5 84.5z" />
    <glyph glyph-name="igrave" unicode="&#xec;" horiz-adv-x="552" 
d="M362 1062v-888q0 -31 3 -50t10 -30t16.5 -15t23.5 -4h27v-75h-333v75h28q13 0 23 4t17 15t10 30t3 50v714q0 31 -3 50t-10 30t-17 15t-23 4h-28v75h253zM452 1177h-104l-277 289h223z" />
    <glyph glyph-name="iacute" unicode="&#xed;" horiz-adv-x="552" 
d="M362 1062v-888q0 -31 3 -50t10 -30t16.5 -15t23.5 -4h27v-75h-333v75h28q13 0 23 4t17 15t10 30t3 50v714q0 31 -3 50t-10 30t-17 15t-23 4h-28v75h253zM238 1466h223l-276 -289h-105z" />
    <glyph glyph-name="icircumflex" unicode="&#xee;" horiz-adv-x="552" 
d="M362 1062v-888q0 -31 3 -50t10 -30t16.5 -15t23.5 -4h27v-75h-333v75h28q13 0 23 4t17 15t10 30t3 50v714q0 31 -3 50t-10 30t-17 15t-23 4h-28v75h253zM179 1466h187l200 -272h-75l-219 180l-218 -180h-75z" />
    <glyph glyph-name="idieresis" unicode="&#xef;" horiz-adv-x="552" 
d="M362 1062v-888q0 -31 3 -50t10 -30t16.5 -15t23.5 -4h27v-75h-333v75h28q13 0 23 4t17 15t10 30t3 50v714q0 31 -3 50t-10 30t-17 15t-23 4h-28v75h253zM-23 1369q0 55 30.5 87t84.5 32q56 0 87.5 -32t31.5 -87q0 -54 -31.5 -84.5t-87.5 -30.5q-54 0 -84.5 30.5
t-30.5 84.5zM309 1369q0 55 30.5 87t84.5 32q56 0 87.5 -32t31.5 -87q0 -54 -31.5 -84.5t-87.5 -30.5q-54 0 -84.5 30.5t-30.5 84.5z" />
    <glyph glyph-name="eth" unicode="&#xf0;" horiz-adv-x="1194" 
d="M326 1152v107l193 73q-47 37 -95 70.5t-96 63.5h164q38 -23 72.5 -45.5t66.5 -46.5l260 98v-96l-176 -70q100 -89 168.5 -187t111 -200t61 -206t18.5 -204q0 -136 -33.5 -236t-95 -165.5t-149 -97.5t-196.5 -32t-197.5 31.5t-151.5 96.5t-97 164.5t-34 234.5
q0 150 38 256t101.5 173t147 97.5t175.5 30.5q73 0 126.5 -13t85.5 -33q-36 69 -85 130t-108 115zM298 519q0 -96 13 -178.5t46.5 -143t91.5 -95t149 -34.5t149 34.5t91.5 95t46.5 143t13 178.5q0 112 -15.5 209t-47.5 165q-12 13 -34.5 26.5t-51.5 24.5t-64 18t-74 7
q-85 0 -144.5 -34.5t-97 -94.5t-54.5 -142.5t-17 -178.5z" />
    <glyph glyph-name="ntilde" unicode="&#xf1;" horiz-adv-x="1185" 
d="M431 174q0 -31 3 -50t10 -30t16.5 -15t23.5 -4h27v-75h-333v75h28q13 0 23 4t17 15t10 30t3 50v714q0 31 -3 50t-10 30t-17 15t-23 4h-28v75h235v-89q30 25 63 45.5t71.5 35t84 22.5t99.5 8q86 0 152 -24t110.5 -70t67.5 -111.5t23 -149.5v-555q0 -31 3 -50t10 -30
t16.5 -15t23.5 -4h27v-75h-333v75h28q13 0 23 4t17 15t10 30t3 50v549q0 60 -13 108.5t-41 82.5t-72 52.5t-105 18.5q-137 0 -250 -92v-719zM348 1387q84 87 177 87q46 0 91 -17.5t91 -38t92 -38t93 -17.5q36 0 64 18t54 54v-89q-87 -87 -178 -87q-51 0 -97 17.5t-90 38
t-87.5 38t-90.5 17.5q-35 0 -63.5 -19.5t-55.5 -54.5v91z" />
    <glyph glyph-name="ograve" unicode="&#xf2;" horiz-adv-x="1196" 
d="M120 531q0 115 25.5 215.5t82.5 175.5t148 118.5t222 43.5q130 0 221 -43.5t148 -118.5t83 -175.5t26 -215.5t-26 -215.5t-83 -175.5t-148 -118.5t-221 -43.5q-131 0 -222 43.5t-148 118.5t-82.5 175.5t-25.5 215.5zM298 531q0 -96 13 -180.5t46.5 -147t91.5 -99
t149 -36.5t149 36.5t91.5 99t46.5 147t13 180.5t-13 180.5t-46.5 147t-92 99t-148.5 36.5t-148.5 -36.5t-92 -99t-46.5 -147t-13 -180.5zM800 1177h-104l-277 289h223z" />
    <glyph glyph-name="oacute" unicode="&#xf3;" horiz-adv-x="1196" 
d="M120 531q0 115 25.5 215.5t82.5 175.5t148 118.5t222 43.5q130 0 221 -43.5t148 -118.5t83 -175.5t26 -215.5t-26 -215.5t-83 -175.5t-148 -118.5t-221 -43.5q-131 0 -222 43.5t-148 118.5t-82.5 175.5t-25.5 215.5zM298 531q0 -96 13 -180.5t46.5 -147t91.5 -99
t149 -36.5t149 36.5t91.5 99t46.5 147t13 180.5t-13 180.5t-46.5 147t-92 99t-148.5 36.5t-148.5 -36.5t-92 -99t-46.5 -147t-13 -180.5zM567 1466h223l-276 -289h-105z" />
    <glyph glyph-name="ocircumflex" unicode="&#xf4;" horiz-adv-x="1196" 
d="M120 531q0 115 25.5 215.5t82.5 175.5t148 118.5t222 43.5q130 0 221 -43.5t148 -118.5t83 -175.5t26 -215.5t-26 -215.5t-83 -175.5t-148 -118.5t-221 -43.5q-131 0 -222 43.5t-148 118.5t-82.5 175.5t-25.5 215.5zM298 531q0 -96 13 -180.5t46.5 -147t91.5 -99
t149 -36.5t149 36.5t91.5 99t46.5 147t13 180.5t-13 180.5t-46.5 147t-92 99t-148.5 36.5t-148.5 -36.5t-92 -99t-46.5 -147t-13 -180.5zM506 1466h187l200 -272h-75l-219 180l-218 -180h-75z" />
    <glyph glyph-name="otilde" unicode="&#xf5;" horiz-adv-x="1196" 
d="M120 531q0 115 25.5 215.5t82.5 175.5t148 118.5t222 43.5q130 0 221 -43.5t148 -118.5t83 -175.5t26 -215.5t-26 -215.5t-83 -175.5t-148 -118.5t-221 -43.5q-131 0 -222 43.5t-148 118.5t-82.5 175.5t-25.5 215.5zM298 531q0 -96 13 -180.5t46.5 -147t91.5 -99
t149 -36.5t149 36.5t91.5 99t46.5 147t13 180.5t-13 180.5t-46.5 147t-92 99t-148.5 36.5t-148.5 -36.5t-92 -99t-46.5 -147t-13 -180.5zM268 1354q84 87 177 87q46 0 91 -17.5t91 -38t92 -38t93 -17.5q36 0 64 18t54 54v-89q-87 -87 -178 -87q-51 0 -97 17.5t-90 38
t-87.5 38t-90.5 17.5q-35 0 -63.5 -19.5t-55.5 -54.5v91z" />
    <glyph glyph-name="odieresis" unicode="&#xf6;" horiz-adv-x="1196" 
d="M120 531q0 115 25.5 215.5t82.5 175.5t148 118.5t222 43.5q130 0 221 -43.5t148 -118.5t83 -175.5t26 -215.5t-26 -215.5t-83 -175.5t-148 -118.5t-221 -43.5q-131 0 -222 43.5t-148 118.5t-82.5 175.5t-25.5 215.5zM298 531q0 -96 13 -180.5t46.5 -147t91.5 -99
t149 -36.5t149 36.5t91.5 99t46.5 147t13 180.5t-13 180.5t-46.5 147t-92 99t-148.5 36.5t-148.5 -36.5t-92 -99t-46.5 -147t-13 -180.5zM311 1369q0 55 30.5 87t84.5 32q56 0 87.5 -32t31.5 -87q0 -54 -31.5 -84.5t-87.5 -30.5q-54 0 -84.5 30.5t-30.5 84.5zM643 1369
q0 55 30.5 87t84.5 32q56 0 87.5 -32t31.5 -87q0 -54 -31.5 -84.5t-87.5 -30.5q-54 0 -84.5 30.5t-30.5 84.5z" />
    <glyph glyph-name="divide" unicode="&#xf7;" horiz-adv-x="1124" 
d="M459 938v205h205v-205h-205zM459 311v205h205v-205h-205zM109 639v168h930v-168h-930z" />
    <glyph glyph-name="oslash" unicode="&#xf8;" horiz-adv-x="1196" 
d="M160 0l84 120l-16 20q-58 76 -83 175t-25 216q0 116 25 215q19 75 55.5 137t92.5 106.5t131.5 69.5t173.5 25q128 0 221 -44q14 -7 27 -14t26 -15l36 51h117l-80 -114l22 -26q57 -75 83 -175.5t26 -215.5t-26 -215.5t-83 -175.5t-148 -118.5t-221 -43.5q-132 0 -222 43
q-35 17 -62 36l-40 -57h-114zM449 104q58 -36 149 -36t149 36.5t91.5 99t46.5 147t13 180.5q0 48 -3 93t-10 87q-11 61 -30 111l-469 -663q14 -16 29.5 -30t33.5 -25zM298 531q0 -48 3 -93t10 -88q4 -28 10.5 -52.5t14.5 -47.5l465 661q-24 27 -55 46q-58 37 -148 37
t-148.5 -36.5t-92 -99t-46.5 -147t-13 -180.5z" />
    <glyph glyph-name="ugrave" unicode="&#xf9;" horiz-adv-x="1195" 
d="M833 888q0 31 -3 50t-10 30t-17 15t-23 4h-28v75h253v-888q0 -31 3 -50t10 -30t16.5 -15t23.5 -4h28v-75h-235v89q-30 -25 -63 -45.5t-71.5 -35t-84 -22.5t-99.5 -8q-86 0 -152 24t-110.5 70t-67.5 111.5t-23 149.5v555q0 31 -3 50t-10 30t-17 15t-23 4h-28v75h253v-723
q0 -60 13 -108.5t41 -82.5t71.5 -52.5t105.5 -18.5q137 0 250 92v719zM788 1177h-104l-277 289h223z" />
    <glyph glyph-name="uacute" unicode="&#xfa;" horiz-adv-x="1195" 
d="M833 888q0 31 -3 50t-10 30t-17 15t-23 4h-28v75h253v-888q0 -31 3 -50t10 -30t16.5 -15t23.5 -4h28v-75h-235v89q-30 -25 -63 -45.5t-71.5 -35t-84 -22.5t-99.5 -8q-86 0 -152 24t-110.5 70t-67.5 111.5t-23 149.5v555q0 31 -3 50t-10 30t-17 15t-23 4h-28v75h253v-723
q0 -60 13 -108.5t41 -82.5t71.5 -52.5t105.5 -18.5q137 0 250 92v719zM565 1466h223l-276 -289h-105z" />
    <glyph glyph-name="ucircumflex" unicode="&#xfb;" horiz-adv-x="1195" 
d="M833 888q0 31 -3 50t-10 30t-17 15t-23 4h-28v75h253v-888q0 -31 3 -50t10 -30t16.5 -15t23.5 -4h28v-75h-235v89q-30 -25 -63 -45.5t-71.5 -35t-84 -22.5t-99.5 -8q-86 0 -152 24t-110.5 70t-67.5 111.5t-23 149.5v555q0 31 -3 50t-10 30t-17 15t-23 4h-28v75h253v-723
q0 -60 13 -108.5t41 -82.5t71.5 -52.5t105.5 -18.5q137 0 250 92v719zM498 1466h187l200 -272h-75l-219 180l-218 -180h-75z" />
    <glyph glyph-name="udieresis" unicode="&#xfc;" horiz-adv-x="1195" 
d="M833 888q0 31 -3 50t-10 30t-17 15t-23 4h-28v75h253v-888q0 -31 3 -50t10 -30t16.5 -15t23.5 -4h28v-75h-235v89q-30 -25 -63 -45.5t-71.5 -35t-84 -22.5t-99.5 -8q-86 0 -152 24t-110.5 70t-67.5 111.5t-23 149.5v555q0 31 -3 50t-10 30t-17 15t-23 4h-28v75h253v-723
q0 -60 13 -108.5t41 -82.5t71.5 -52.5t105.5 -18.5q137 0 250 92v719zM310 1369q0 55 30.5 87t84.5 32q56 0 87.5 -32t31.5 -87q0 -54 -31.5 -84.5t-87.5 -30.5q-54 0 -84.5 30.5t-30.5 84.5zM642 1369q0 55 30.5 87t84.5 32q56 0 87.5 -32t31.5 -87q0 -54 -31.5 -84.5
t-87.5 -30.5q-54 0 -84.5 30.5t-30.5 84.5z" />
    <glyph glyph-name="yacute" unicode="&#xfd;" horiz-adv-x="1074" 
d="M929 847q-68 -215 -160 -435t-211 -456q-50 -100 -91 -172t-79 -119t-77 -69.5t-85 -22.5q-28 0 -47.5 2.5t-34.5 7t-27 11t-25 13.5l-20 178h80q6 -26 15.5 -41t21 -22.5t25 -10t28.5 -2.5q19 0 42 8t52.5 37.5t67 87.5t85.5 159q-63 129 -117.5 257.5t-98 246.5
t-75.5 221t-51 181q-7 29 -16.5 45.5t-19.5 24t-19 9t-15 1.5h-27v75h333v-75h-19q-35 0 -44.5 -16.5t-0.5 -61.5q9 -46 25.5 -103.5t37.5 -122t46 -131.5t50.5 -131.5t51 -124t48.5 -106.5q27 58 56 127t56 140t50.5 140t39.5 127q22 83 31 134.5t7.5 80t-13 38.5t-29.5 10
h-31v75h299v-75h-29q-11 0 -20 -3t-18 -16.5t-20.5 -41.5t-27.5 -79zM544 1466h223l-276 -289h-105z" />
    <glyph glyph-name="thorn" unicode="&#xfe;" horiz-adv-x="1223" 
d="M362 137q15 -12 36.5 -24t49.5 -22.5t62.5 -17t73.5 -6.5q170 0 255.5 114t85.5 350q0 135 -26 223t-69.5 139.5t-99.5 71.5t-116 20q-42 0 -78 -7.5t-66.5 -20t-57 -29t-50.5 -35.5v-756zM362 -233q0 -31 3 -50t10 -30t16.5 -15t23.5 -4h27v-75h-333v75h28q13 0 23 4
t17 15t10 30t3 50v1525q0 31 -3 50t-10 30t-17 15t-23 4h-28v75h253v-480q65 48 135 73t158 25q87 0 167.5 -32t143 -99.5t100 -172t37.5 -249.5q0 -150 -42.5 -255t-112.5 -171t-161.5 -96.5t-188.5 -30.5q-121 0 -236 41v-252z" />
    <glyph glyph-name="ydieresis" unicode="&#xff;" horiz-adv-x="1074" 
d="M929 847q-68 -215 -160 -435t-211 -456q-50 -100 -91 -172t-79 -119t-77 -69.5t-85 -22.5q-28 0 -47.5 2.5t-34.5 7t-27 11t-25 13.5l-20 178h80q6 -26 15.5 -41t21 -22.5t25 -10t28.5 -2.5q19 0 42 8t52.5 37.5t67 87.5t85.5 159q-63 129 -117.5 257.5t-98 246.5
t-75.5 221t-51 181q-7 29 -16.5 45.5t-19.5 24t-19 9t-15 1.5h-27v75h333v-75h-19q-35 0 -44.5 -16.5t-0.5 -61.5q9 -46 25.5 -103.5t37.5 -122t46 -131.5t50.5 -131.5t51 -124t48.5 -106.5q27 58 56 127t56 140t50.5 140t39.5 127q22 83 31 134.5t7.5 80t-13 38.5t-29.5 10
h-31v75h299v-75h-29q-11 0 -20 -3t-18 -16.5t-20.5 -41.5t-27.5 -79zM290 1369q0 55 30.5 87t84.5 32q56 0 87.5 -32t31.5 -87q0 -54 -31.5 -84.5t-87.5 -30.5q-54 0 -84.5 30.5t-30.5 84.5zM622 1369q0 55 30.5 87t84.5 32q56 0 87.5 -32t31.5 -87q0 -54 -31.5 -84.5
t-87.5 -30.5q-54 0 -84.5 30.5t-30.5 84.5z" />
    <glyph glyph-name="Amacron" unicode="&#x100;" horiz-adv-x="1536" 
d="M649 1466h239q58 -119 113.5 -240t105.5 -239.5t94 -231t80 -215t63 -192.5t43 -162q8 -37 17.5 -58t19 -31.5t19 -13.5t18.5 -3h24v-80h-339v80h26q11 0 19 9.5t8 36.5q0 23 -7 57q-9 45 -27 106.5t-43 134.5t-54.5 155t-62.5 166h-459q8 26 17 50.5t19 49.5h384
q-30 74 -59.5 145.5t-58 137.5t-54.5 123.5t-48 102.5h-35q-39 -82 -84 -188t-90.5 -221t-87.5 -232t-74.5 -222t-52 -191t-19.5 -138q0 -25 4.5 -41t12.5 -25t19 -12.5t25 -3.5h12v-80h-350v80h5q18 0 35.5 4.5t35 23t36 56.5t39.5 104q94 294 210.5 598t261.5 600z
M447 1607v80h624v-80h-624z" />
    <glyph glyph-name="amacron" unicode="&#x101;" horiz-adv-x="1151" 
d="M799 532h-285q-64 0 -109.5 -18.5t-75 -49t-43.5 -71t-14 -84.5q0 -51 14 -92t44.5 -69.5t77.5 -44t113 -15.5q75 0 141.5 20t136.5 65v359zM971 174q0 -31 3 -50t10 -30t16.5 -15t23.5 -4h28v-75h-235v90q-45 -34 -88.5 -55.5t-86 -34t-83.5 -17.5t-80 -5
q-89 0 -160.5 20.5t-121.5 60.5t-77 98t-27 133q0 87 34 150t91.5 103.5t134 59.5t161.5 19h285v99q0 82 -22 135.5t-60 85t-89.5 43.5t-111.5 12q-36 0 -72 -6.5t-68.5 -25.5t-57.5 -53t-38 -88h-80l20 218q31 9 64 16.5t70.5 13.5t82 9t99.5 3q88 -1 167 -19.5t138.5 -61
t94.5 -113t35 -175.5v-541zM271 1236v80h624v-80h-624z" />
    <glyph glyph-name="Abreve" unicode="&#x102;" horiz-adv-x="1536" 
d="M649 1466h239q58 -119 113.5 -240t105.5 -239.5t94 -231t80 -215t63 -192.5t43 -162q8 -37 17.5 -58t19 -31.5t19 -13.5t18.5 -3h24v-80h-339v80h26q11 0 19 9.5t8 36.5q0 23 -7 57q-9 45 -27 106.5t-43 134.5t-54.5 155t-62.5 166h-459q8 26 17 50.5t19 49.5h384
q-30 74 -59.5 145.5t-58 137.5t-54.5 123.5t-48 102.5h-35q-39 -82 -84 -188t-90.5 -221t-87.5 -232t-74.5 -222t-52 -191t-19.5 -138q0 -25 4.5 -41t12.5 -25t19 -12.5t25 -3.5h12v-80h-350v80h5q18 0 35.5 4.5t35 23t36 56.5t39.5 104q94 294 210.5 598t261.5 600z
M753 1746q35 0 71.5 5t67.5 18.5t53 37.5t28 63h92q-3 -58 -27 -105t-65 -80t-97.5 -51t-124.5 -18q-67 0 -122.5 18t-96 51t-64.5 80t-27 105h92q6 -39 28 -63t53 -37.5t67.5 -18.5t71.5 -5z" />
    <glyph glyph-name="abreve" unicode="&#x103;" horiz-adv-x="1151" 
d="M799 532h-285q-64 0 -109.5 -18.5t-75 -49t-43.5 -71t-14 -84.5q0 -51 14 -92t44.5 -69.5t77.5 -44t113 -15.5q75 0 141.5 20t136.5 65v359zM971 174q0 -31 3 -50t10 -30t16.5 -15t23.5 -4h28v-75h-235v90q-45 -34 -88.5 -55.5t-86 -34t-83.5 -17.5t-80 -5
q-89 0 -160.5 20.5t-121.5 60.5t-77 98t-27 133q0 87 34 150t91.5 103.5t134 59.5t161.5 19h285v99q0 82 -22 135.5t-60 85t-89.5 43.5t-111.5 12q-36 0 -72 -6.5t-68.5 -25.5t-57.5 -53t-38 -88h-80l20 218q31 9 64 16.5t70.5 13.5t82 9t99.5 3q88 -1 167 -19.5t138.5 -61
t94.5 -113t35 -175.5v-541zM557 1342q35 0 71.5 5t67.5 18.5t53 37.5t28 63h92q-3 -58 -27 -105t-65 -80t-97.5 -51t-124.5 -18q-67 0 -122.5 18t-96 51t-64.5 80t-27 105h92q6 -39 28 -63t53 -37.5t67.5 -18.5t71.5 -5z" />
    <glyph glyph-name="Aogonek" unicode="&#x104;" horiz-adv-x="1536" 
d="M649 1466h239q58 -119 113.5 -240t105.5 -239.5t94 -231t80 -215t63 -192.5t43 -162q8 -37 17.5 -58t19 -31.5t19 -13.5t18.5 -3h24v-80h-339v80h26q11 0 19 9.5t8 36.5q0 23 -7 57q-9 45 -27 106.5t-43 134.5t-54.5 155t-62.5 166h-459q8 26 17 50.5t19 49.5h384
q-30 74 -59.5 145.5t-58 137.5t-54.5 123.5t-48 102.5h-35q-39 -82 -84 -188t-90.5 -221t-87.5 -232t-74.5 -222t-52 -191t-19.5 -138q0 -25 4.5 -41t12.5 -25t19 -12.5t25 -3.5h12v-80h-350v80h5q18 0 35.5 4.5t35 23t36 56.5t39.5 104q94 294 210.5 598t261.5 600z
M1215 22h78q-15 -45 -22 -85.5t-7 -78.5q0 -45 15.5 -76t41 -50t58.5 -27.5t68 -8.5q48 0 93 13t76 33v-69q-33 -31 -63 -50.5t-57 -31t-52 -15.5t-47 -4q-99 0 -159 55.5t-60 165.5q0 43 8.5 100t28.5 129z" />
    <glyph glyph-name="aogonek" unicode="&#x105;" horiz-adv-x="1151" 
d="M799 532h-285q-64 0 -109.5 -18.5t-75 -49t-43.5 -71t-14 -84.5q0 -51 14 -92t44.5 -69.5t77.5 -44t113 -15.5q75 0 141.5 20t136.5 65v359zM971 174q0 -31 3 -50t10 -30t16.5 -15t23.5 -4h28v-75h-235v90q-45 -34 -88.5 -55.5t-86 -34t-83.5 -17.5t-80 -5
q-89 0 -160.5 20.5t-121.5 60.5t-77 98t-27 133q0 87 34 150t91.5 103.5t134 59.5t161.5 19h285v99q0 82 -22 135.5t-60 85t-89.5 43.5t-111.5 12q-36 0 -72 -6.5t-68.5 -25.5t-57.5 -53t-38 -88h-80l20 218q31 9 64 16.5t70.5 13.5t82 9t99.5 3q88 -1 167 -19.5t138.5 -61
t94.5 -113t35 -175.5v-541zM863 22h78q-15 -45 -22 -85.5t-7 -78.5q0 -45 15.5 -76t41 -50t58.5 -27.5t68 -8.5q48 0 93 13t76 33v-69q-33 -31 -63 -50.5t-57 -31t-52 -15.5t-47 -4q-99 0 -159 55.5t-60 165.5q0 43 8.5 100t28.5 129z" />
    <glyph glyph-name="Cacute" unicode="&#x106;" horiz-adv-x="1408" 
d="M813 93q141 0 249 31t196 100v-111q-25 -23 -64.5 -47t-95 -43.5t-126.5 -32t-159 -12.5q-173 0 -303 53.5t-216.5 151.5t-130 237.5t-43.5 312.5q0 157 38 294.5t121.5 240t215 161.5t318.5 59q71 0 119.5 -3.5t93.5 -7.5t95 -7.5t124 -3.5l33 -298h-74q-27 45 -58 86
t-75.5 71.5t-106.5 49t-151 18.5q-124 0 -216.5 -46t-154 -132t-92 -208t-30.5 -274t34.5 -271t98.5 -201t155 -125t205 -43zM760 1870h223l-276 -289h-105z" />
    <glyph glyph-name="cacute" unicode="&#x107;" horiz-adv-x="1079" 
d="M659 84q41 -3 82 -2t80 5.5t74 12.5t64 19v-84q-69 -30 -150 -43.5t-176 -13.5q-131 0 -227 39t-160 111t-95 174.5t-31 228.5q0 115 29.5 216t92 176t159.5 118t232 43q52 0 88 -3.5t69 -7.5t69.5 -7.5t90.5 -3.5l24 -238h-80q-16 33 -34.5 64t-47 54.5t-71.5 38
t-108 14.5q-91 0 -154.5 -30.5t-103.5 -90t-58 -146t-18 -197.5q0 -119 24.5 -201.5t71 -135t113 -78.5t151.5 -32zM594 1466h223l-276 -289h-105z" />
    <glyph glyph-name="Ccaron" unicode="&#x10c;" horiz-adv-x="1408" 
d="M813 93q141 0 249 31t196 100v-111q-25 -23 -64.5 -47t-95 -43.5t-126.5 -32t-159 -12.5q-173 0 -303 53.5t-216.5 151.5t-130 237.5t-43.5 312.5q0 157 38 294.5t121.5 240t215 161.5t318.5 59q71 0 119.5 -3.5t93.5 -7.5t95 -7.5t124 -3.5l33 -298h-74q-27 45 -58 86
t-75.5 71.5t-106.5 49t-151 18.5q-124 0 -216.5 -46t-154 -132t-92 -208t-30.5 -274t34.5 -271t98.5 -201t155 -125t205 -43zM816 1708l220 162h94l-225 -272h-192l-216 272h96z" />
    <glyph glyph-name="ccaron" unicode="&#x10d;" horiz-adv-x="1079" 
d="M659 84q41 -3 82 -2t80 5.5t74 12.5t64 19v-84q-69 -30 -150 -43.5t-176 -13.5q-131 0 -227 39t-160 111t-95 174.5t-31 228.5q0 115 29.5 216t92 176t159.5 118t232 43q52 0 88 -3.5t69 -7.5t69.5 -7.5t90.5 -3.5l24 -238h-80q-16 33 -34.5 64t-47 54.5t-71.5 38
t-108 14.5q-91 0 -154.5 -30.5t-103.5 -90t-58 -146t-18 -197.5q0 -119 24.5 -201.5t71 -135t113 -78.5t151.5 -32zM631 1304l220 162h94l-225 -272h-192l-216 272h96z" />
    <glyph glyph-name="Dcaron" unicode="&#x10e;" horiz-adv-x="1570" 
d="M163 0v80h30q18 0 29 4.5t17.5 16.5t8.5 33t2 53v1092q0 31 -2 52t-8.5 33t-17.5 17t-29 5h-30v80h107q51 0 115 3.5t130 7.5t130 7.5t115 3.5q172 0 303 -58t219 -159.5t133 -239.5t45 -297q0 -152 -45 -286t-133 -233.5t-219 -157t-303 -57.5h-597zM436 187
q0 -31 3 -48.5t12 -26t25 -10.5t42 -2h202q127 0 227.5 39t170 118t106 198t36.5 279q0 166 -38.5 289t-112.5 204.5t-182 122t-247 40.5q-121 0 -182.5 -15t-61.5 -66v-1122zM776 1708l220 162h94l-225 -272h-192l-216 272h96z" />
    <glyph glyph-name="dcaron" unicode="&#x10f;" horiz-adv-x="1434" 
d="M861 931q-15 12 -36.5 23.5t-49.5 20.5t-62.5 14.5t-73.5 5.5q-167 0 -254 -114.5t-87 -349.5q0 -135 26 -223t69.5 -139.5t99.5 -71.5t116 -20q84 0 144.5 27t107.5 65v762zM1033 1466v-1292q0 -31 3 -50t10 -30t16.5 -15t23.5 -4h28v-75h-235v89q-67 -57 -147 -84
t-184 -27q-77 0 -153.5 29.5t-137.5 95.5t-99 171.5t-38 256.5q0 150 43 255t113 171.5t159 96.5t182 30q33 0 67 -2.5t66 -7t60.5 -10.5t50.5 -13v241q0 31 -3 50t-10 30t-17 15t-23 4h-28v75h253zM1420 1310q0 -50 -14.5 -95.5t-44 -82.5t-73.5 -62t-103 -34v65
q60 15 83.5 41t23.5 64q0 18 -9 26t-26 12q-42 8 -70 40t-28 80q0 55 34.5 89.5t89.5 34.5q40 0 66.5 -16t42 -41.5t22 -57.5t6.5 -63z" />
    <glyph glyph-name="Dcroat" unicode="&#x110;" horiz-adv-x="1570" 
d="M-3 845h253v434q0 31 -2 52t-8.5 33t-17.5 17t-29 5h-30v80h107q51 0 115 3.5t130 7.5t130 7.5t115 3.5q172 0 303 -58t219 -159.5t133 -239.5t45 -297q0 -152 -45 -286t-133 -233.5t-219 -157t-303 -57.5h-597v80h30q18 0 29 4.5t17.5 16.5t8.5 33t2 53v558h-253v100z
M436 187q0 -31 3 -48.5t12 -26t25 -10.5t42 -2h202q127 0 227.5 39t170 118t106 198t36.5 279q0 166 -38.5 289t-112.5 204.5t-182 122t-247 40.5q-121 0 -182.5 -15t-61.5 -66v-464h320v-100h-320v-558z" />
    <glyph glyph-name="dcroat" unicode="&#x111;" horiz-adv-x="1243" 
d="M1033 1466v-185h110v-90h-110v-1017q0 -31 3 -50t10 -30t16.5 -15t23.5 -4h28v-75h-235v89q-67 -57 -147 -84t-184 -27q-77 0 -153.5 29.5t-137.5 95.5t-99 171.5t-38 256.5q0 150 43 255t113 171.5t159 96.5t182 30q33 0 67 -2.5t66 -7t60.5 -10.5t50.5 -13v140h-238v90
h238q0 34 -3 61q-3 19 -10 30t-17 15t-23 4h-28v75h253zM861 931q-15 12 -36.5 23.5t-49.5 20.5t-62.5 14.5t-73.5 5.5q-167 0 -254 -114.5t-87 -349.5q0 -135 26 -223t69.5 -139.5t99.5 -71.5t116 -20q84 0 144.5 27t107.5 65v762z" />
    <glyph glyph-name="Emacron" unicode="&#x112;" horiz-adv-x="1395" 
d="M862 845q30 0 56 9.5t46 30.5t34 55t20 83h74v-456h-74q-3 42 -17 75t-35 56t-47.5 35t-56.5 12h-426v-558q0 -36 10 -60.5t46 -24.5h395q64 0 110 17t78.5 47.5t54.5 72.5t38 91h74l-30 -330h-1049v80h30q18 0 29 10t17.5 25.5t8.5 34.5t2 37v1092q0 18 -2 37t-8.5 34.5
t-17.5 25.5t-29 10h-30v80h569q42 0 99 0.5t118.5 3t121.5 7.5t107 13l43 -324h-74q-16 51 -43 88.5t-61.5 62t-75 37t-83.5 12.5h-392q-36 0 -46 -25.5t-10 -61.5v-434h426zM403 1607v80h624v-80h-624z" />
    <glyph glyph-name="emacron" unicode="&#x113;" horiz-adv-x="1201" 
d="M613 1084q133 0 224.5 -42.5t147.5 -116.5t81 -173.5t25 -213.5v-6h-792v-7q0 -124 27.5 -209.5t76 -139t115.5 -77t146 -23.5q58 0 107.5 4t94.5 13.5t86 25.5t82 40v-81q-24 -17 -61.5 -34.5t-88 -32t-112.5 -24t-136 -9.5q-254 0 -385 137.5t-131 415.5q0 115 27 216
t86 176t152.5 118t227.5 43zM909 622q-2 69 -14.5 135.5t-44.5 119.5t-89 85.5t-148 32.5q-89 0 -149 -31.5t-96.5 -92t-52.5 -148.5q-9 -47 -13 -101h607zM309 1236v80h624v-80h-624z" />
    <glyph glyph-name="Edotaccent" unicode="&#x116;" horiz-adv-x="1395" 
d="M862 845q30 0 56 9.5t46 30.5t34 55t20 83h74v-456h-74q-3 42 -17 75t-35 56t-47.5 35t-56.5 12h-426v-558q0 -36 10 -60.5t46 -24.5h395q64 0 110 17t78.5 47.5t54.5 72.5t38 91h74l-30 -330h-1049v80h30q18 0 29 10t17.5 25.5t8.5 34.5t2 37v1092q0 18 -2 37t-8.5 34.5
t-17.5 25.5t-29 10h-30v80h569q42 0 99 0.5t118.5 3t121.5 7.5t107 13l43 -324h-74q-16 51 -43 88.5t-61.5 62t-75 37t-83.5 12.5h-392q-36 0 -46 -25.5t-10 -61.5v-434h426zM843 1768q0 -55 -34.5 -88.5t-89.5 -33.5q-26 0 -48.5 9t-39 25t-26.5 38.5t-10 49.5
q0 55 34.5 89.5t89.5 34.5t89.5 -34.5t34.5 -89.5z" />
    <glyph glyph-name="edotaccent" unicode="&#x117;" horiz-adv-x="1201" 
d="M613 1084q133 0 224.5 -42.5t147.5 -116.5t81 -173.5t25 -213.5v-6h-792v-7q0 -124 27.5 -209.5t76 -139t115.5 -77t146 -23.5q58 0 107.5 4t94.5 13.5t86 25.5t82 40v-81q-24 -17 -61.5 -34.5t-88 -32t-112.5 -24t-136 -9.5q-254 0 -385 137.5t-131 415.5q0 115 27 216
t86 176t152.5 118t227.5 43zM909 622q-2 69 -14.5 135.5t-44.5 119.5t-89 85.5t-148 32.5q-89 0 -149 -31.5t-96.5 -92t-52.5 -148.5q-9 -47 -13 -101h607zM746 1364q0 -55 -34.5 -88.5t-89.5 -33.5q-26 0 -48.5 9t-39 25t-26.5 38.5t-10 49.5q0 55 34.5 89.5t89.5 34.5
t89.5 -34.5t34.5 -89.5z" />
    <glyph glyph-name="Eogonek" unicode="&#x118;" horiz-adv-x="1395" 
d="M862 845q30 0 56 9.5t46 30.5t34 55t20 83h74v-456h-74q-3 42 -17 75t-35 56t-47.5 35t-56.5 12h-426v-558q0 -36 10 -60.5t46 -24.5h395q64 0 110 17t78.5 47.5t54.5 72.5t38 91h74l-30 -330h-1049v80h30q18 0 29 10t17.5 25.5t8.5 34.5t2 37v1092q0 18 -2 37t-8.5 34.5
t-17.5 25.5t-29 10h-30v80h569q42 0 99 0.5t118.5 3t121.5 7.5t107 13l43 -324h-74q-16 51 -43 88.5t-61.5 62t-75 37t-83.5 12.5h-392q-36 0 -46 -25.5t-10 -61.5v-434h426zM606 22h78q-15 -45 -22 -85.5t-7 -78.5q0 -45 15.5 -76t41 -50t58.5 -27.5t68 -8.5q48 0 93 13
t76 33v-69q-33 -31 -63 -50.5t-57 -31t-52 -15.5t-47 -4q-99 0 -159 55.5t-60 165.5q0 43 8.5 100t28.5 129z" />
    <glyph glyph-name="eogonek" unicode="&#x119;" horiz-adv-x="1201" 
d="M613 1084q133 0 224.5 -42.5t147.5 -116.5t81 -173.5t25 -213.5v-6h-792v-7q0 -124 27.5 -209.5t76 -139t115.5 -77t146 -23.5q58 0 107.5 4t94.5 13.5t86 25.5t82 40v-81q-24 -17 -61.5 -34.5t-88 -32t-112.5 -24t-136 -9.5q-254 0 -385 137.5t-131 415.5q0 115 27 216
t86 176t152.5 118t227.5 43zM909 622q-2 69 -14.5 135.5t-44.5 119.5t-89 85.5t-148 32.5q-89 0 -149 -31.5t-96.5 -92t-52.5 -148.5q-9 -47 -13 -101h607zM485 22h78q-15 -45 -22 -85.5t-7 -78.5q0 -45 15.5 -76t41 -50t58.5 -27.5t68 -8.5q48 0 93 13t76 33v-69
q-33 -31 -63 -50.5t-57 -31t-52 -15.5t-47 -4q-99 0 -159 55.5t-60 165.5q0 43 8.5 100t28.5 129z" />
    <glyph glyph-name="Ecaron" unicode="&#x11a;" horiz-adv-x="1395" 
d="M862 845q30 0 56 9.5t46 30.5t34 55t20 83h74v-456h-74q-3 42 -17 75t-35 56t-47.5 35t-56.5 12h-426v-558q0 -36 10 -60.5t46 -24.5h395q64 0 110 17t78.5 47.5t54.5 72.5t38 91h74l-30 -330h-1049v80h30q18 0 29 10t17.5 25.5t8.5 34.5t2 37v1092q0 18 -2 37t-8.5 34.5
t-17.5 25.5t-29 10h-30v80h569q42 0 99 0.5t118.5 3t121.5 7.5t107 13l43 -324h-74q-16 51 -43 88.5t-61.5 62t-75 37t-83.5 12.5h-392q-36 0 -46 -25.5t-10 -61.5v-434h426zM710 1708l220 162h94l-225 -272h-192l-216 272h96z" />
    <glyph glyph-name="ecaron" unicode="&#x11b;" horiz-adv-x="1201" 
d="M613 1084q133 0 224.5 -42.5t147.5 -116.5t81 -173.5t25 -213.5v-6h-792v-7q0 -124 27.5 -209.5t76 -139t115.5 -77t146 -23.5q58 0 107.5 4t94.5 13.5t86 25.5t82 40v-81q-24 -17 -61.5 -34.5t-88 -32t-112.5 -24t-136 -9.5q-254 0 -385 137.5t-131 415.5q0 115 27 216
t86 176t152.5 118t227.5 43zM909 622q-2 69 -14.5 135.5t-44.5 119.5t-89 85.5t-148 32.5q-89 0 -149 -31.5t-96.5 -92t-52.5 -148.5q-9 -47 -13 -101h607zM622 1304l220 162h94l-225 -272h-192l-216 272h96z" />
    <glyph glyph-name="Gbreve" unicode="&#x11e;" horiz-adv-x="1574" 
d="M803 93q61 0 120 7.5t111 22t94.5 37t69.5 52.5v437q0 17 -2 32.5t-8.5 27.5t-17.5 19.5t-29 7.5h-109v100h438v-80h-30q-18 0 -29 -5t-17 -17t-8 -33t-2 -52v-479q-63 -56 -134 -92.5t-146 -59t-151.5 -31.5t-149.5 -9q-184 0 -318.5 51t-222 147.5t-130 237
t-42.5 319.5q0 173 42.5 312.5t131.5 238t225 151.5t324 53q71 0 127.5 -3.5t110.5 -7.5t112 -7.5t132 -3.5l33 -298h-74q-27 45 -66 86t-92.5 71.5t-123.5 49t-159 18.5q-114 0 -209.5 -35t-165.5 -113t-109 -204t-39 -308t40 -305t109.5 -197.5t163 -106t200.5 -31.5z
M807 1746q35 0 71.5 5t67.5 18.5t53 37.5t28 63h92q-3 -58 -27 -105t-65 -80t-97.5 -51t-124.5 -18q-67 0 -122.5 18t-96 51t-64.5 80t-27 105h92q6 -39 28 -63t53 -37.5t67.5 -18.5t71.5 -5z" />
    <glyph glyph-name="gbreve" unicode="&#x11f;" horiz-adv-x="1193" 
d="M619 995q-68 0 -129.5 -20t-108.5 -71.5t-75 -139.5t-28 -223q0 -117 22 -201t61.5 -137.5t96 -79t125.5 -25.5q49 0 90.5 10t73.5 24.5t55.5 30.5t38.5 28v761q-18 10 -43 18t-54 13.5t-61 8.5t-64 3zM597 1084q49 0 101.5 -2.5t109.5 -10.5t118.5 -22t126.5 -37v-75
q-8 -2 -15 -5.5t-12.5 -12.5t-9 -25t-3.5 -43v-799q0 -243 -126 -361t-385 -118q-85 0 -156.5 13.5t-137.5 25.5l-20 178h80q20 -35 48.5 -59t61.5 -40t69 -23t71 -7q87 0 148 22.5t100 66t57 108.5t18 149v91q-53 -44 -128 -71t-169 -27q-54 0 -108 12.5t-103.5 39t-92 69
t-73.5 102.5t-49 139t-18 179q0 151 43.5 255t114 168t159.5 92t180 28zM608 1342q35 0 71.5 5t67.5 18.5t53 37.5t28 63h92q-3 -58 -27 -105t-65 -80t-97.5 -51t-124.5 -18q-67 0 -122.5 18t-96 51t-64.5 80t-27 105h92q6 -39 28 -63t53 -37.5t67.5 -18.5t71.5 -5z" />
    <glyph glyph-name="Gcommaaccent" unicode="&#x122;" horiz-adv-x="1644" 
d="M833 93q61 0 120 7.5t111 22t94.5 37t69.5 52.5v437q0 17 -2 32.5t-8.5 27.5t-17.5 19.5t-29 7.5h-109v100h438v-80h-30q-18 0 -29 -5t-17 -17t-8 -33t-2 -52v-479q-63 -56 -134 -92.5t-146 -59t-151.5 -31.5t-149.5 -9q-184 0 -318.5 51t-222 147.5t-130 237
t-42.5 319.5q0 173 42.5 312.5t131.5 238t225 151.5t324 53q71 0 127.5 -3.5t110.5 -7.5t112 -7.5t132 -3.5l33 -298h-74q-27 45 -66 86t-92.5 71.5t-123.5 49t-159 18.5q-114 0 -209.5 -35t-165.5 -113t-109 -204t-39 -308t40 -305t109.5 -197.5t163 -106t200.5 -31.5z
M908 -298q0 -50 -14.5 -95.5t-44 -82.5t-73.5 -62t-103 -34v65q60 15 83.5 41t23.5 64q0 18 -9 26t-26 12q-42 8 -70 40t-28 80q0 55 34.5 89.5t89.5 34.5q40 0 66.5 -16t42 -41.5t22 -57.5t6.5 -63z" />
    <glyph glyph-name="gcommaaccent" unicode="&#x123;" horiz-adv-x="1193" 
d="M497 1360q0 52 11 107.5t38 105t72.5 87.5t113.5 55v-77q-33 -12 -55.5 -34.5t-36 -50t-19 -58t-5.5 -59.5q5 1 9 1h9q29 0 52 -10t39 -27t24.5 -39t8.5 -46q0 -55 -34.5 -89.5t-89.5 -34.5q-70 0 -103.5 47t-33.5 122zM618 995q-68 0 -129.5 -20t-108.5 -71.5
t-75 -139.5t-28 -223q0 -117 22 -201t61.5 -137.5t96 -79t125.5 -25.5q49 0 90.5 10t73.5 24.5t55.5 30.5t38.5 28v761q-18 10 -43 18t-54 13.5t-61 8.5t-64 3zM596 1084q49 0 101.5 -2.5t109.5 -10.5t118.5 -22t126.5 -37v-75q-8 -2 -15 -5.5t-12.5 -12.5t-9 -25t-3.5 -43
v-799q0 -243 -126 -361t-385 -118q-85 0 -156.5 13.5t-137.5 25.5l-20 178h80q20 -35 48.5 -59t61.5 -40t69 -23t71 -7q87 0 148 22.5t100 66t57 108.5t18 149v91q-53 -44 -128 -71t-169 -27q-54 0 -108 12.5t-103.5 39t-92 69t-73.5 102.5t-49 139t-18 179q0 151 43.5 255
t114 168t159.5 92t180 28z" />
    <glyph glyph-name="Imacron" unicode="&#x12a;" horiz-adv-x="686" 
d="M250 1279q0 33 -3.5 54t-10.5 32.5t-17.5 16t-25.5 4.5h-30v80h359v-80h-29q-15 0 -25.5 -4.5t-17.5 -16t-10.5 -32.5t-3.5 -54v-1092q0 -33 3.5 -54t10.5 -32.5t17.5 -16t25.5 -4.5h29v-80h-359v80h30q15 0 25.5 4.5t17.5 16t10.5 32.5t3.5 54v1092zM32 1607v80h624v-80
h-624z" />
    <glyph glyph-name="imacron" unicode="&#x12b;" horiz-adv-x="552" 
d="M362 1062v-888q0 -31 3 -50t10 -30t16.5 -15t23.5 -4h27v-75h-333v75h28q13 0 23 4t17 15t10 30t3 50v714q0 31 -3 50t-10 30t-17 15t-23 4h-28v75h253zM-48 1236v80h624v-80h-624z" />
    <glyph glyph-name="Iogonek" unicode="&#x12e;" horiz-adv-x="686" 
d="M250 1279q0 33 -3.5 54t-10.5 32.5t-17.5 16t-25.5 4.5h-30v80h359v-80h-29q-15 0 -25.5 -4.5t-17.5 -16t-10.5 -32.5t-3.5 -54v-1092q0 -33 3.5 -54t10.5 -32.5t17.5 -16t25.5 -4.5h29v-80h-359v80h30q15 0 25.5 4.5t17.5 16t10.5 32.5t3.5 54v1092zM240 22h78
q-15 -45 -22 -85.5t-7 -78.5q0 -45 15.5 -76t41 -50t58.5 -27.5t68 -8.5q48 0 93 13t76 33v-69q-33 -31 -63 -50.5t-57 -31t-52 -15.5t-47 -4q-99 0 -159 55.5t-60 165.5q0 43 8.5 100t28.5 129z" />
    <glyph glyph-name="iogonek" unicode="&#x12f;" horiz-adv-x="552" 
d="M109 1062h253v-888q0 -31 3 -50t10 -30t16.5 -15t23.5 -4h27v-75h-333v75h28q13 0 23 4t17 15t10 30t3 50v714q0 31 -3 50t-10 30t-17 15t-23 4h-28v75zM151 1369q0 55 30.5 87t84.5 32q56 0 87.5 -32t31.5 -87q0 -54 -31.5 -84.5t-87.5 -30.5q-54 0 -84.5 30.5
t-30.5 84.5zM189 22h78q-15 -45 -22 -85.5t-7 -78.5q0 -45 15.5 -76t41 -50t58.5 -27.5t68 -8.5q48 0 93 13t76 33v-69q-33 -31 -63 -50.5t-57 -31t-52 -15.5t-47 -4q-99 0 -159 55.5t-60 165.5q0 43 8.5 100t28.5 129z" />
    <glyph glyph-name="Idotaccent" unicode="&#x130;" horiz-adv-x="686" 
d="M250 1279q0 33 -3.5 54t-10.5 32.5t-17.5 16t-25.5 4.5h-30v80h359v-80h-29q-15 0 -25.5 -4.5t-17.5 -16t-10.5 -32.5t-3.5 -54v-1092q0 -33 3.5 -54t10.5 -32.5t17.5 -16t25.5 -4.5h29v-80h-359v80h30q15 0 25.5 4.5t17.5 16t10.5 32.5t3.5 54v1092zM467 1768
q0 -55 -34.5 -88.5t-89.5 -33.5q-26 0 -48.5 9t-39 25t-26.5 38.5t-10 49.5q0 55 34.5 89.5t89.5 34.5t89.5 -34.5t34.5 -89.5z" />
    <glyph glyph-name="dotlessi" unicode="&#x131;" horiz-adv-x="542" 
d="M362 1062v-888q0 -31 3 -50t10 -30t16.5 -15t23.5 -4h27v-75h-333v75h28q13 0 23 4t17 15t10 30t3 50v714q0 31 -3 50t-10 30t-17 15t-23 4h-28v75h253z" />
    <glyph glyph-name="Kcommaaccent" unicode="&#x136;" horiz-adv-x="1501" 
d="M1116 147q-6 25 -23 66.5t-45.5 93.5t-69.5 112t-94 122t-119.5 122.5t-146.5 114.5q-45 -17 -91 -25t-91 -8v-558q0 -33 3.5 -54t10.5 -32.5t17.5 -16t25.5 -4.5h29v-80h-359v80h30q15 0 25.5 4.5t17.5 16t10.5 32.5t3.5 54v1092q0 33 -3.5 54t-10.5 32.5t-17.5 16
t-25.5 4.5h-30v80h359v-80h-29q-15 0 -25.5 -4.5t-17.5 -16t-10.5 -32.5t-3.5 -54v-434q96 0 173 30t143 85q120 101 185.5 180t89 134t10 83.5t-50.5 28.5h-41v80h429v-80h-35q-34 0 -61.5 -17.5t-57 -49t-64 -76.5t-81.5 -100.5t-111 -120t-151 -135.5q-11 -8 -21 -15.5
t-21 -15.5q80 -56 147.5 -119.5t123.5 -130.5t100.5 -133t78 -126.5t56 -112t34.5 -87.5q2 -7 7.5 -18t14.5 -22t20.5 -19t26.5 -8h29v-80h-349v80h30q29 0 32 14.5t-6 52.5zM863 -298q0 -50 -14.5 -95.5t-44 -82.5t-73.5 -62t-103 -34v65q60 15 83.5 41t23.5 64q0 18 -9 26
t-26 12q-42 8 -70 40t-28 80q0 55 34.5 89.5t89.5 34.5q40 0 66.5 -16t42 -41.5t22 -57.5t6.5 -63z" />
    <glyph glyph-name="kcommaaccent" unicode="&#x137;" horiz-adv-x="1157" 
d="M997 130q8 -20 16.5 -31t16 -16.5t14.5 -6.5t13 -1h27v-75h-333v75h19q61 0 42 55q-13 36 -42.5 90t-76.5 114.5t-113 122.5q-46 43 -101 82q-61 -19 -117 -19v-346q0 -31 3 -50t10 -30t16.5 -15t23.5 -4h27v-75h-333v75h28q13 0 23 4t17 15t10 30t3 50v1118q0 31 -3 50
t-10 30t-17 15t-23 4h-28v75h253v-856q59 0 121.5 24t119 64t102.5 92.5t72 109.5q19 42 10 64.5t-32 22.5h-31v75h319v-75h-29q-11 0 -20 -5.5t-20.5 -18t-26.5 -33.5t-36 -51q-50 -70 -115.5 -134.5t-138.5 -114.5q-14 -10 -29 -20q65 -46 118 -101q66 -67 115.5 -136
t83 -133t52.5 -110zM647 -298q0 -50 -14.5 -95.5t-44 -82.5t-73.5 -62t-103 -34v65q60 15 83.5 41t23.5 64q0 18 -9 26t-26 12q-42 8 -70 40t-28 80q0 55 34.5 89.5t89.5 34.5q40 0 66.5 -16t42 -41.5t22 -57.5t6.5 -63z" />
    <glyph glyph-name="Lacute" unicode="&#x139;" horiz-adv-x="1211" 
d="M523 1386h-30q-18 0 -29 -10t-17.5 -25.5t-8.5 -34.5t-2 -37v-1092q0 -36 10 -60.5t46 -24.5h372q43 0 83.5 13.5t75 40t61.5 65t43 89.5h74l-40 -310h-998v80h30q18 0 29 10t17.5 25.5t8.5 34.5t2 37v1092q0 18 -2 37t-8.5 34.5t-17.5 25.5t-29 10h-30v80h360v-80z
M515 1870h223l-276 -289h-105z" />
    <glyph glyph-name="lacute" unicode="&#x13a;" horiz-adv-x="552" 
d="M109 1466h253v-1292q0 -31 3 -50t10 -30t16.5 -15t23.5 -4h27v-75h-333v75h28q13 0 23 4t17 15t10 30t3 50v1118q0 31 -3 50t-10 30t-17 15t-23 4h-28v75zM252 1853h223l-276 -289h-105z" />
    <glyph glyph-name="Lcommaaccent" unicode="&#x13b;" horiz-adv-x="1211" 
d="M523 1386h-30q-18 0 -29 -10t-17.5 -25.5t-8.5 -34.5t-2 -37v-1092q0 -36 10 -60.5t46 -24.5h372q43 0 83.5 13.5t75 40t61.5 65t43 89.5h74l-40 -310h-998v80h30q18 0 29 10t17.5 25.5t8.5 34.5t2 37v1092q0 18 -2 37t-8.5 34.5t-17.5 25.5t-29 10h-30v80h360v-80z
M744 -298q0 -50 -14.5 -95.5t-44 -82.5t-73.5 -62t-103 -34v65q60 15 83.5 41t23.5 64q0 18 -9 26t-26 12q-42 8 -70 40t-28 80q0 55 34.5 89.5t89.5 34.5q40 0 66.5 -16t42 -41.5t22 -57.5t6.5 -63z" />
    <glyph glyph-name="lcommaaccent" unicode="&#x13c;" horiz-adv-x="552" 
d="M109 1466h253v-1292q0 -31 3 -50t10 -30t16.5 -15t23.5 -4h27v-75h-333v75h28q13 0 23 4t17 15t10 30t3 50v1118q0 31 -3 50t-10 30t-17 15t-23 4h-28v75zM350 -298q0 -50 -14.5 -95.5t-44 -82.5t-73.5 -62t-103 -34v65q60 15 83.5 41t23.5 64q0 18 -9 26t-26 12
q-42 8 -70 40t-28 80q0 55 34.5 89.5t89.5 34.5q40 0 66.5 -16t42 -41.5t22 -57.5t6.5 -63z" />
    <glyph glyph-name="Lcaron" unicode="&#x13d;" horiz-adv-x="1211" 
d="M523 1386h-30q-18 0 -29 -10t-17.5 -25.5t-8.5 -34.5t-2 -37v-1092q0 -36 10 -60.5t46 -24.5h372q43 0 83.5 13.5t75 40t61.5 65t43 89.5h74l-40 -310h-998v80h30q18 0 29 10t17.5 25.5t8.5 34.5t2 37v1092q0 18 -2 37t-8.5 34.5t-17.5 25.5t-29 10h-30v80h360v-80z
M844 1310q0 -50 -14.5 -95.5t-44 -82.5t-73.5 -62t-103 -34v65q60 15 83.5 41t23.5 64q0 18 -9 26t-26 12q-42 8 -70 40t-28 80q0 55 34.5 89.5t89.5 34.5q40 0 66.5 -16t42 -41.5t22 -57.5t6.5 -63z" />
    <glyph glyph-name="lcaron" unicode="&#x13e;" horiz-adv-x="756" 
d="M100 1466h253v-1292q0 -31 3 -50t10 -30t16.5 -15t23.5 -4h27v-75h-333v75h28q13 0 23 4t17 15t10 30t3 50v1118q0 31 -3 50t-10 30t-17 15t-23 4h-28v75zM701 1310q0 -50 -14.5 -95.5t-44 -82.5t-73.5 -62t-103 -34v65q60 15 83.5 41t23.5 64q0 18 -9 26t-26 12
q-42 8 -70 40t-28 80q0 55 34.5 89.5t89.5 34.5q40 0 66.5 -16t42 -41.5t22 -57.5t6.5 -63z" />
    <glyph glyph-name="Lslash" unicode="&#x141;" horiz-adv-x="1211" 
d="M523 1386h-30q-18 0 -29 -10t-17.5 -25.5t-8.5 -34.5t-2 -37v-399l153 123v-117l-153 -121v-578q0 -36 10 -60.5t46 -24.5h372q43 0 83.5 13.5t75 40t61.5 65t43 89.5h74l-40 -310h-998v80h30q18 0 29 10t17.5 25.5t8.5 34.5t2 37v431l-153 -121v112l153 122v548
q0 18 -2 37t-8.5 34.5t-17.5 25.5t-29 10h-30v80h360v-80z" />
    <glyph glyph-name="lslash" unicode="&#x142;" horiz-adv-x="552" 
d="M109 1466h253v-599l120 96v-117l-120 -95v-577q0 -31 3 -50t10 -30t16.5 -15t23.5 -4h27v-75h-333v75h28q13 0 23 4t17 15t10 30t3 50v441l-150 -118v112l150 120v563q0 31 -3 50t-10 30t-17 15t-23 4h-28v75z" />
    <glyph glyph-name="Nacute" unicode="&#x143;" horiz-adv-x="1594" 
d="M1207 0q-54 131 -122.5 260.5t-143.5 253t-154.5 238.5t-155.5 216t-145.5 186.5t-125.5 149.5v-926q0 -94 3.5 -152.5t13 -90.5t26.5 -43.5t44 -11.5h31v-80h-349v80h35q26 0 42.5 11.5t26.5 43.5t13.5 90.5t3.5 153.5v903q0 54 -21 79t-56 25h-30v80h298
q53 -49 126 -133t153 -188t162 -219.5t153 -228t125 -214t79 -176.5q-1 14 -2 31t-2 33t-1.5 29.5t-0.5 20.5v667q0 94 -3.5 152.5t-13 90.5t-26.5 43.5t-44 11.5h-31v80h349v-80h-35q-27 0 -44 -11.5t-26 -43.5t-12 -91t-3 -153v-1087h-137zM794 1870h223l-276 -289h-105z
" />
    <glyph glyph-name="nacute" unicode="&#x144;" horiz-adv-x="1185" 
d="M431 174q0 -31 3 -50t10 -30t16.5 -15t23.5 -4h27v-75h-333v75h28q13 0 23 4t17 15t10 30t3 50v714q0 31 -3 50t-10 30t-17 15t-23 4h-28v75h235v-89q30 25 63 45.5t71.5 35t84 22.5t99.5 8q86 0 152 -24t110.5 -70t67.5 -111.5t23 -149.5v-555q0 -31 3 -50t10 -30
t16.5 -15t23.5 -4h27v-75h-333v75h28q13 0 23 4t17 15t10 30t3 50v549q0 60 -13 108.5t-41 82.5t-72 52.5t-105 18.5q-137 0 -250 -92v-719zM646 1466h223l-276 -289h-105z" />
    <glyph glyph-name="Ncommaaccent" unicode="&#x145;" horiz-adv-x="1594" 
d="M1207 0q-54 131 -122.5 260.5t-143.5 253t-154.5 238.5t-155.5 216t-145.5 186.5t-125.5 149.5v-926q0 -94 3.5 -152.5t13 -90.5t26.5 -43.5t44 -11.5h31v-80h-349v80h35q26 0 42.5 11.5t26.5 43.5t13.5 90.5t3.5 153.5v903q0 54 -21 79t-56 25h-30v80h298
q53 -49 126 -133t153 -188t162 -219.5t153 -228t125 -214t79 -176.5q-1 14 -2 31t-2 33t-1.5 29.5t-0.5 20.5v667q0 94 -3.5 152.5t-13 90.5t-26.5 43.5t-44 11.5h-31v80h349v-80h-35q-27 0 -44 -11.5t-26 -43.5t-12 -91t-3 -153v-1087h-137zM913 -298q0 -50 -14.5 -95.5
t-44 -82.5t-73.5 -62t-103 -34v65q60 15 83.5 41t23.5 64q0 18 -9 26t-26 12q-42 8 -70 40t-28 80q0 55 34.5 89.5t89.5 34.5q40 0 66.5 -16t42 -41.5t22 -57.5t6.5 -63z" />
    <glyph glyph-name="ncommaaccent" unicode="&#x146;" horiz-adv-x="1185" 
d="M431 174q0 -31 3 -50t10 -30t16.5 -15t23.5 -4h27v-75h-333v75h28q13 0 23 4t17 15t10 30t3 50v714q0 31 -3 50t-10 30t-17 15t-23 4h-28v75h235v-89q30 25 63 45.5t71.5 35t84 22.5t99.5 8q86 0 152 -24t110.5 -70t67.5 -111.5t23 -149.5v-555q0 -31 3 -50t10 -30
t16.5 -15t23.5 -4h27v-75h-333v75h28q13 0 23 4t17 15t10 30t3 50v549q0 60 -13 108.5t-41 82.5t-72 52.5t-105 18.5q-137 0 -250 -92v-719zM747 -298q0 -50 -14.5 -95.5t-44 -82.5t-73.5 -62t-103 -34v65q60 15 83.5 41t23.5 64q0 18 -9 26t-26 12q-42 8 -70 40t-28 80
q0 55 34.5 89.5t89.5 34.5q40 0 66.5 -16t42 -41.5t22 -57.5t6.5 -63z" />
    <glyph glyph-name="Ncaron" unicode="&#x147;" horiz-adv-x="1594" 
d="M1207 0q-54 131 -122.5 260.5t-143.5 253t-154.5 238.5t-155.5 216t-145.5 186.5t-125.5 149.5v-926q0 -94 3.5 -152.5t13 -90.5t26.5 -43.5t44 -11.5h31v-80h-349v80h35q26 0 42.5 11.5t26.5 43.5t13.5 90.5t3.5 153.5v903q0 54 -21 79t-56 25h-30v80h298
q53 -49 126 -133t153 -188t162 -219.5t153 -228t125 -214t79 -176.5q-1 14 -2 31t-2 33t-1.5 29.5t-0.5 20.5v667q0 94 -3.5 152.5t-13 90.5t-26.5 43.5t-44 11.5h-31v80h349v-80h-35q-27 0 -44 -11.5t-26 -43.5t-12 -91t-3 -153v-1087h-137zM818 1708l220 162h94l-225 -272
h-192l-216 272h96z" />
    <glyph glyph-name="ncaron" unicode="&#x148;" horiz-adv-x="1185" 
d="M431 174q0 -31 3 -50t10 -30t16.5 -15t23.5 -4h27v-75h-333v75h28q13 0 23 4t17 15t10 30t3 50v714q0 31 -3 50t-10 30t-17 15t-23 4h-28v75h235v-89q30 25 63 45.5t71.5 35t84 22.5t99.5 8q86 0 152 -24t110.5 -70t67.5 -111.5t23 -149.5v-555q0 -31 3 -50t10 -30
t16.5 -15t23.5 -4h27v-75h-333v75h28q13 0 23 4t17 15t10 30t3 50v549q0 60 -13 108.5t-41 82.5t-72 52.5t-105 18.5q-137 0 -250 -92v-719zM674 1304l220 162h94l-225 -272h-192l-216 272h96z" />
    <glyph glyph-name="Omacron" unicode="&#x14c;" horiz-adv-x="1560" 
d="M88 733q0 172 41.5 311.5t127 238t216 152t308.5 53.5t308.5 -53t216 -151.5t127 -238t41.5 -312.5t-41.5 -312.5t-127 -238t-216 -151.5t-308.5 -53t-308.5 53.5t-216 152t-127 238t-41.5 311.5zM280 733q0 -145 29 -266.5t90 -209t155.5 -136t226.5 -48.5t226.5 48.5
t156 136t90.5 209t29 266.5t-29 266.5t-90 209t-156 136t-227 48.5t-227 -48.5t-155.5 -136t-89.5 -209t-29 -266.5zM476 1607v80h624v-80h-624z" />
    <glyph glyph-name="omacron" unicode="&#x14d;" horiz-adv-x="1196" 
d="M120 531q0 115 25.5 215.5t82.5 175.5t148 118.5t222 43.5q130 0 221 -43.5t148 -118.5t83 -175.5t26 -215.5t-26 -215.5t-83 -175.5t-148 -118.5t-221 -43.5q-131 0 -222 43.5t-148 118.5t-82.5 175.5t-25.5 215.5zM298 531q0 -96 13 -180.5t46.5 -147t91.5 -99
t149 -36.5t149 36.5t91.5 99t46.5 147t13 180.5t-13 180.5t-46.5 147t-92 99t-148.5 36.5t-148.5 -36.5t-92 -99t-46.5 -147t-13 -180.5zM284 1236v80h624v-80h-624z" />
    <glyph glyph-name="Ohungarumlaut" unicode="&#x150;" horiz-adv-x="1560" 
d="M88 733q0 172 41.5 311.5t127 238t216 152t308.5 53.5t308.5 -53t216 -151.5t127 -238t41.5 -312.5t-41.5 -312.5t-127 -238t-216 -151.5t-308.5 -53t-308.5 53.5t-216 152t-127 238t-41.5 311.5zM280 733q0 -145 29 -266.5t90 -209t155.5 -136t226.5 -48.5t226.5 48.5
t156 136t90.5 209t29 266.5t-29 266.5t-90 209t-156 136t-227 48.5t-227 -48.5t-155.5 -136t-89.5 -209t-29 -266.5zM662 1870h223l-277 -289h-104zM960 1870h223l-277 -289h-104z" />
    <glyph glyph-name="ohungarumlaut" unicode="&#x151;" horiz-adv-x="1196" 
d="M120 531q0 115 25.5 215.5t82.5 175.5t148 118.5t222 43.5q130 0 221 -43.5t148 -118.5t83 -175.5t26 -215.5t-26 -215.5t-83 -175.5t-148 -118.5t-221 -43.5q-131 0 -222 43.5t-148 118.5t-82.5 175.5t-25.5 215.5zM298 531q0 -96 13 -180.5t46.5 -147t91.5 -99
t149 -36.5t149 36.5t91.5 99t46.5 147t13 180.5t-13 180.5t-46.5 147t-92 99t-148.5 36.5t-148.5 -36.5t-92 -99t-46.5 -147t-13 -180.5zM496 1466h223l-277 -289h-104zM794 1466h223l-277 -289h-104z" />
    <glyph glyph-name="OE" unicode="&#x152;" horiz-adv-x="2232" 
d="M763 0q-172 0 -303 57.5t-219 157t-133 233.5t-45 286q0 159 45 297t133 239.5t219 159.5t303 58q49 0 109 -3.5t122.5 -7.5t124 -7.5t113.5 -3.5h337q42 0 99 0.5t118.5 3t121.5 7.5t107 13l43 -324h-74q-16 51 -43 88.5t-61.5 62t-75 37t-83.5 12.5h-392
q-36 0 -46 -25.5t-10 -61.5v-434h426q30 0 56 9t46 29.5t34 53.5t20 82h74v-456h-74q-3 42 -17 75.5t-35 57t-47.5 36.5t-56.5 13h-426v-558q0 -40 11 -62.5t45 -22.5h395q64 0 110 14t78.5 41t54.5 65.5t38 87.5h74l-30 -310h-1286zM1087 1309q0 51 -61.5 66t-182.5 15
q-139 0 -247 -40.5t-182 -122t-112.5 -204.5t-38.5 -289q0 -160 36.5 -279t106 -198t170 -118t227.5 -39h202q26 0 42 2t25 10.5t12 26t3 48.5v1122z" />
    <glyph glyph-name="oe" unicode="&#x153;" horiz-adv-x="1979" 
d="M1391 1084q133 0 224.5 -41t147.5 -113t81 -169.5t25 -211.5v-6h-792q0 -128 26 -218t73.5 -146t113 -81.5t144.5 -25.5q58 0 109 4.5t97 14.5t88.5 27t83.5 41v-81q-24 -17 -61.5 -34.5t-88 -32t-112.5 -24t-136 -9.5q-85 0 -152.5 14.5t-119.5 41t-90.5 64.5t-65.5 85
q-24 -44 -59 -81t-82 -65t-108 -43.5t-139 -15.5q-131 0 -222 43.5t-148 118.5t-82.5 175.5t-25.5 215.5t25.5 215.5t82.5 175.5t148 118.5t222 43.5q81 0 143 -16t109 -43.5t80.5 -65.5t57.5 -82q25 44 61 82t85.5 65.5t113 43.5t143.5 16zM298 531q0 -96 13 -180.5
t46.5 -147t91.5 -99t149 -36.5t149 36.5t91.5 99t46.5 147t13 180.5t-13 180.5t-46.5 147t-92 99t-148.5 36.5t-148.5 -36.5t-92 -99t-46.5 -147t-13 -180.5zM1391 995q-80 0 -136 -24t-93 -70t-56.5 -113.5t-25.5 -154.5h607q-2 69 -14.5 134t-45 115.5t-89 81.5t-147.5 31
z" />
    <glyph glyph-name="Racute" unicode="&#x154;" horiz-adv-x="1494" 
d="M1279 174q14 -30 23 -48.5t16.5 -28.5t16 -13.5t23.5 -3.5h45v-80h-262q-13 55 -45 128t-77 151t-101.5 154.5t-119 139.5t-129.5 106t-133 53v103q25 -8 54.5 -18t62 -18.5t69 -14.5t76.5 -6q64 0 120.5 15t97.5 49.5t65 90t24 136.5q0 95 -26 157.5t-72.5 99.5
t-109.5 52t-137 15q-86 0 -147.5 -3.5t-100.5 -12t-57.5 -24t-18.5 -40.5v-1126q0 -33 3.5 -54t10.5 -32.5t17.5 -16t25.5 -4.5h30v-80h-359v80h29q15 0 25.5 4.5t17.5 16t10.5 32.5t3.5 54v1092q0 33 -2.5 54t-9.5 32.5t-18 16t-27 4.5h-30v80q84 0 148.5 1.5t116.5 4
t94 5.5t82.5 5.5t82 4t91.5 1.5q144 0 244.5 -28t163.5 -81.5t91 -131.5t28 -178q0 -87 -26 -156.5t-76.5 -119.5t-124 -79t-167.5 -35q46 -29 88 -71t79 -90t69 -98.5t57.5 -97t44.5 -85.5t30 -63zM747 1870h223l-276 -289h-105z" />
    <glyph glyph-name="racute" unicode="&#x155;" horiz-adv-x="886" 
d="M362 893v-719q0 -31 3 -50t10 -30t16.5 -15t23.5 -4h27v-75h-333v75h28q13 0 23 4t17 15t10 30t3 50v714q0 31 -3 50t-10 30t-17 15t-23 4h-28v75h235v-89q40 33 80 54.5t77.5 34t73 17.5t67.5 5q59 0 106 -9.5t79 -12.5l24 -238h-80q-14 78 -64 116.5t-120 38.5
q-51 0 -109 -21t-116 -65zM400 1466h223l-276 -289h-105z" />
    <glyph glyph-name="Rcommaaccent" unicode="&#x156;" horiz-adv-x="1494" 
d="M1279 174q14 -30 23 -48.5t16.5 -28.5t16 -13.5t23.5 -3.5h45v-80h-262q-13 55 -45 128t-77 151t-101.5 154.5t-119 139.5t-129.5 106t-133 53v103q25 -8 54.5 -18t62 -18.5t69 -14.5t76.5 -6q64 0 120.5 15t97.5 49.5t65 90t24 136.5q0 95 -26 157.5t-72.5 99.5
t-109.5 52t-137 15q-86 0 -147.5 -3.5t-100.5 -12t-57.5 -24t-18.5 -40.5v-1126q0 -33 3.5 -54t10.5 -32.5t17.5 -16t25.5 -4.5h30v-80h-359v80h29q15 0 25.5 4.5t17.5 16t10.5 32.5t3.5 54v1092q0 33 -2.5 54t-9.5 32.5t-18 16t-27 4.5h-30v80q84 0 148.5 1.5t116.5 4
t94 5.5t82.5 5.5t82 4t91.5 1.5q144 0 244.5 -28t163.5 -81.5t91 -131.5t28 -178q0 -87 -26 -156.5t-76.5 -119.5t-124 -79t-167.5 -35q46 -29 88 -71t79 -90t69 -98.5t57.5 -97t44.5 -85.5t30 -63zM846 -298q0 -50 -14.5 -95.5t-44 -82.5t-73.5 -62t-103 -34v65
q60 15 83.5 41t23.5 64q0 18 -9 26t-26 12q-42 8 -70 40t-28 80q0 55 34.5 89.5t89.5 34.5q40 0 66.5 -16t42 -41.5t22 -57.5t6.5 -63z" />
    <glyph glyph-name="rcommaaccent" unicode="&#x157;" horiz-adv-x="886" 
d="M362 893v-719q0 -31 3 -50t10 -30t16.5 -15t23.5 -4h27v-75h-333v75h28q13 0 23 4t17 15t10 30t3 50v714q0 31 -3 50t-10 30t-17 15t-23 4h-28v75h235v-89q40 33 80 54.5t77.5 34t73 17.5t67.5 5q59 0 106 -9.5t79 -12.5l24 -238h-80q-14 78 -64 116.5t-120 38.5
q-51 0 -109 -21t-116 -65zM352 -298q0 -50 -14.5 -95.5t-44 -82.5t-73.5 -62t-103 -34v65q60 15 83.5 41t23.5 64q0 18 -9 26t-26 12q-42 8 -70 40t-28 80q0 55 34.5 89.5t89.5 34.5q40 0 66.5 -16t42 -41.5t22 -57.5t6.5 -63z" />
    <glyph glyph-name="Rcaron" unicode="&#x158;" horiz-adv-x="1494" 
d="M1279 174q14 -30 23 -48.5t16.5 -28.5t16 -13.5t23.5 -3.5h45v-80h-262q-13 55 -45 128t-77 151t-101.5 154.5t-119 139.5t-129.5 106t-133 53v103q25 -8 54.5 -18t62 -18.5t69 -14.5t76.5 -6q64 0 120.5 15t97.5 49.5t65 90t24 136.5q0 95 -26 157.5t-72.5 99.5
t-109.5 52t-137 15q-86 0 -147.5 -3.5t-100.5 -12t-57.5 -24t-18.5 -40.5v-1126q0 -33 3.5 -54t10.5 -32.5t17.5 -16t25.5 -4.5h30v-80h-359v80h29q15 0 25.5 4.5t17.5 16t10.5 32.5t3.5 54v1092q0 33 -2.5 54t-9.5 32.5t-18 16t-27 4.5h-30v80q84 0 148.5 1.5t116.5 4
t94 5.5t82.5 5.5t82 4t91.5 1.5q144 0 244.5 -28t163.5 -81.5t91 -131.5t28 -178q0 -87 -26 -156.5t-76.5 -119.5t-124 -79t-167.5 -35q46 -29 88 -71t79 -90t69 -98.5t57.5 -97t44.5 -85.5t30 -63zM762 1708l220 162h94l-225 -272h-192l-216 272h96z" />
    <glyph glyph-name="rcaron" unicode="&#x159;" horiz-adv-x="886" 
d="M362 893v-719q0 -31 3 -50t10 -30t16.5 -15t23.5 -4h27v-75h-333v75h28q13 0 23 4t17 15t10 30t3 50v714q0 31 -3 50t-10 30t-17 15t-23 4h-28v75h235v-89q40 33 80 54.5t77.5 34t73 17.5t67.5 5q59 0 106 -9.5t79 -12.5l24 -238h-80q-14 78 -64 116.5t-120 38.5
q-51 0 -109 -21t-116 -65zM373 1304l220 162h94l-225 -272h-192l-216 272h96z" />
    <glyph glyph-name="Sacute" unicode="&#x15a;" horiz-adv-x="1349" 
d="M616 73q83 -3 160.5 8.5t135.5 47.5t88.5 101t20.5 168q-7 74 -47 121t-100.5 78t-135.5 52t-153 42t-152.5 48.5t-133.5 71.5t-97 110.5t-43 165.5q-5 96 33.5 170.5t107.5 126t163 78t202 26.5q71 0 119.5 -3.5t93.5 -7.5t95 -7.5t124 -3.5l33 -298h-74q-27 45 -58 86
t-75.5 71.5t-106.5 49t-151 18.5q-66 0 -131 -17t-114 -54t-74 -95t-9 -140q12 -63 55.5 -103.5t106.5 -69t139 -49.5t154 -44t151 -53t130 -77t91.5 -115.5t34.5 -167.5q0 -106 -39.5 -188t-114.5 -137.5t-183 -82.5t-246 -22q-47 1 -84 4.5t-68.5 7.5t-61 8t-62 8t-70.5 6
t-87 2l-33 318h79q26 -53 56.5 -98.5t74.5 -80t105.5 -55.5t150.5 -25zM659 1870h223l-276 -289h-105z" />
    <glyph glyph-name="sacute" unicode="&#x15b;" horiz-adv-x="997" 
d="M448 69q141 0 205.5 50t64.5 140q0 51 -15.5 86t-46.5 59.5t-78 41t-110 31.5q-90 22 -156 48t-109 61.5t-64 83t-21 113.5q0 74 28.5 130t80 94t124 57.5t159.5 19.5q43 0 80.5 -3.5t71.5 -7.5t65 -7.5t60 -3.5l24 -238h-80q-18 37 -38.5 68.5t-49 54.5t-68.5 36t-97 13
q-50 0 -91 -11.5t-70.5 -33.5t-45.5 -53t-16 -70q0 -47 15.5 -77t43 -50.5t65.5 -33t83 -23.5q102 -25 177 -54t123.5 -69.5t72.5 -96t24 -131.5q0 -83 -30 -142.5t-84.5 -98t-130 -56.5t-166.5 -18q-52 0 -88 3.5t-69 7.5t-69.5 7.5t-90.5 3.5l-24 245h80q20 -33 41 -64.5
t50 -56.5t69.5 -40t100.5 -15zM480 1466h223l-276 -289h-105z" />
    <glyph glyph-name="Scedilla" unicode="&#x15e;" horiz-adv-x="1349" 
d="M616 73q83 -3 160.5 8.5t135.5 47.5t88.5 101t20.5 168q-7 74 -47 121t-100.5 78t-135.5 52t-153 42t-152.5 48.5t-133.5 71.5t-97 110.5t-43 165.5q-5 96 33.5 170.5t107.5 126t163 78t202 26.5q71 0 119.5 -3.5t93.5 -7.5t95 -7.5t124 -3.5l33 -298h-74q-27 45 -58 86
t-75.5 71.5t-106.5 49t-151 18.5q-66 0 -131 -17t-114 -54t-74 -95t-9 -140q12 -63 55.5 -103.5t106.5 -69t139 -49.5t154 -44t151 -53t130 -77t91.5 -115.5t34.5 -167.5q0 -106 -39.5 -188t-114.5 -137.5t-183 -82.5t-246 -22q-47 1 -84 4.5t-68.5 7.5t-61 8t-62 8t-70.5 6
t-87 2l-33 318h79q26 -53 56.5 -98.5t74.5 -80t105.5 -55.5t150.5 -25zM600 23h76l-38 -125q46 0 89 -7t76 -24t52.5 -46.5t19.5 -74.5q0 -82 -68 -127.5t-214 -45.5h-144v70h105q84 0 119.5 29.5t35.5 73.5q0 24 -6.5 42.5t-24.5 31t-49.5 19t-80.5 7.5z" />
    <glyph glyph-name="scedilla" unicode="&#x15f;" horiz-adv-x="997" 
d="M448 69q141 0 205.5 50t64.5 140q0 51 -15.5 86t-46.5 59.5t-78 41t-110 31.5q-90 22 -156 48t-109 61.5t-64 83t-21 113.5q0 74 28.5 130t80 94t124 57.5t159.5 19.5q43 0 80.5 -3.5t71.5 -7.5t65 -7.5t60 -3.5l24 -238h-80q-18 37 -38.5 68.5t-49 54.5t-68.5 36t-97 13
q-50 0 -91 -11.5t-70.5 -33.5t-45.5 -53t-16 -70q0 -47 15.5 -77t43 -50.5t65.5 -33t83 -23.5q102 -25 177 -54t123.5 -69.5t72.5 -96t24 -131.5q0 -83 -30 -142.5t-84.5 -98t-130 -56.5t-166.5 -18q-52 0 -88 3.5t-69 7.5t-69.5 7.5t-90.5 3.5l-24 245h80q20 -33 41 -64.5
t50 -56.5t69.5 -40t100.5 -15zM450 23h76l-38 -125q46 0 89 -7t76 -24t52.5 -46.5t19.5 -74.5q0 -82 -68 -127.5t-214 -45.5h-144v70h105q84 0 119.5 29.5t35.5 73.5q0 24 -6.5 42.5t-24.5 31t-49.5 19t-80.5 7.5z" />
    <glyph glyph-name="Scaron" unicode="&#x160;" horiz-adv-x="1349" 
d="M616 73q83 -3 160.5 8.5t135.5 47.5t88.5 101t20.5 168q-7 74 -47 121t-100.5 78t-135.5 52t-153 42t-152.5 48.5t-133.5 71.5t-97 110.5t-43 165.5q-5 96 33.5 170.5t107.5 126t163 78t202 26.5q71 0 119.5 -3.5t93.5 -7.5t95 -7.5t124 -3.5l33 -298h-74q-27 45 -58 86
t-75.5 71.5t-106.5 49t-151 18.5q-66 0 -131 -17t-114 -54t-74 -95t-9 -140q12 -63 55.5 -103.5t106.5 -69t139 -49.5t154 -44t151 -53t130 -77t91.5 -115.5t34.5 -167.5q0 -106 -39.5 -188t-114.5 -137.5t-183 -82.5t-246 -22q-47 1 -84 4.5t-68.5 7.5t-61 8t-62 8t-70.5 6
t-87 2l-33 318h79q26 -53 56.5 -98.5t74.5 -80t105.5 -55.5t150.5 -25zM672 1708l220 162h94l-225 -272h-192l-216 272h96z" />
    <glyph glyph-name="scaron" unicode="&#x161;" horiz-adv-x="997" 
d="M448 69q141 0 205.5 50t64.5 140q0 51 -15.5 86t-46.5 59.5t-78 41t-110 31.5q-90 22 -156 48t-109 61.5t-64 83t-21 113.5q0 74 28.5 130t80 94t124 57.5t159.5 19.5q43 0 80.5 -3.5t71.5 -7.5t65 -7.5t60 -3.5l24 -238h-80q-18 37 -38.5 68.5t-49 54.5t-68.5 36t-97 13
q-50 0 -91 -11.5t-70.5 -33.5t-45.5 -53t-16 -70q0 -47 15.5 -77t43 -50.5t65.5 -33t83 -23.5q102 -25 177 -54t123.5 -69.5t72.5 -96t24 -131.5q0 -83 -30 -142.5t-84.5 -98t-130 -56.5t-166.5 -18q-52 0 -88 3.5t-69 7.5t-69.5 7.5t-90.5 3.5l-24 245h80q20 -33 41 -64.5
t50 -56.5t69.5 -40t100.5 -15zM491 1304l220 162h94l-225 -272h-192l-216 272h96z" />
    <glyph glyph-name="Tcommaaccent" unicode="&#x162;" horiz-adv-x="1402" 
d="M407 1376q-43 0 -83.5 -14t-75 -40.5t-61.5 -65.5t-43 -90h-74l43 324q47 -8 107 -12.5t121.5 -7t118.5 -3.5t99 -1h284q42 0 99 1t118.5 3.5t121.5 7t107 12.5l43 -324h-74q-16 51 -43 90t-61.5 65.5t-75 40.5t-83.5 14h-145q-36 0 -46 -25.5t-10 -61.5v-1102
q0 -33 2 -54t8 -32.5t17 -16t29 -4.5h30v-80h-359v80h30q18 0 29 4.5t17.5 16t8.5 32.5t2 54v1102q0 35 -11.5 61t-44.5 26h-145zM780 -298q0 -50 -14.5 -95.5t-44 -82.5t-73.5 -62t-103 -34v65q60 15 83.5 41t23.5 64q0 18 -9 26t-26 12q-42 8 -70 40t-28 80
q0 55 34.5 89.5t89.5 34.5q40 0 66.5 -16t42 -41.5t22 -57.5t6.5 -63z" />
    <glyph glyph-name="tcommaaccent" unicode="&#x163;" horiz-adv-x="690" 
d="M466 72q71 0 132 29v-80q-34 -18 -75 -30.5t-89 -12.5q-81 0 -131 23.5t-77 60.5t-36.5 83.5t-9.5 92.5v729h-102v95h102v162l172 160v-322h244v-95h-244v-774q0 -17 3.5 -38t15.5 -39.5t34.5 -31t60.5 -12.5zM398 -298q0 -50 -14.5 -95.5t-44 -82.5t-73.5 -62t-103 -34
v65q60 15 83.5 41t23.5 64q0 18 -9 26t-26 12q-42 8 -70 40t-28 80q0 55 34.5 89.5t89.5 34.5q40 0 66.5 -16t42 -41.5t22 -57.5t6.5 -63z" />
    <glyph glyph-name="Tcaron" unicode="&#x164;" horiz-adv-x="1402" 
d="M407 1376q-43 0 -83.5 -14t-75 -40.5t-61.5 -65.5t-43 -90h-74l43 324q47 -8 107 -12.5t121.5 -7t118.5 -3.5t99 -1h284q42 0 99 1t118.5 3.5t121.5 7t107 12.5l43 -324h-74q-16 51 -43 90t-61.5 65.5t-75 40.5t-83.5 14h-145q-36 0 -46 -25.5t-10 -61.5v-1102
q0 -33 2 -54t8 -32.5t17 -16t29 -4.5h30v-80h-359v80h30q18 0 29 4.5t17.5 16t8.5 32.5t2 54v1102q0 35 -11.5 61t-44.5 26h-145zM705 1708l220 162h94l-225 -272h-192l-216 272h96z" />
    <glyph glyph-name="tcaron" unicode="&#x165;" horiz-adv-x="964" 
d="M466 72q71 0 132 29v-80q-34 -18 -75 -30.5t-89 -12.5q-81 0 -131 23.5t-77 60.5t-36.5 83.5t-9.5 92.5v729h-102v95h102v162l172 160v-322h244v-95h-244v-774q0 -17 3.5 -38t15.5 -39.5t34.5 -31t60.5 -12.5zM877 1310q0 -50 -14.5 -95.5t-44 -82.5t-73.5 -62t-103 -34
v65q60 15 83.5 41t23.5 64q0 18 -9 26t-26 12q-42 8 -70 40t-28 80q0 55 34.5 89.5t89.5 34.5q40 0 66.5 -16t42 -41.5t22 -57.5t6.5 -63z" />
    <glyph glyph-name="Umacron" unicode="&#x16a;" horiz-adv-x="1549" 
d="M1359 470q0 -115 -42.5 -206.5t-117.5 -155t-177 -97t-220 -33.5q-133 0 -235.5 33.5t-173 97t-107 155t-36.5 206.5v809q0 60 -10.5 83.5t-46.5 23.5h-30v80h359v-80h-30q-36 0 -46 -24.5t-10 -83.5v-811q0 -99 29 -169.5t82.5 -115.5t129 -66t168.5 -21t167.5 27
t127 76t81 116.5t28.5 148.5v625q0 94 -4 152.5t-15 90.5t-30 43.5t-48 11.5h-31v80h369v-80h-35q-29 0 -48 -11.5t-29.5 -43.5t-14.5 -91t-4 -153v-617zM489 1607v80h624v-80h-624z" />
    <glyph glyph-name="umacron" unicode="&#x16b;" horiz-adv-x="1195" 
d="M833 888q0 31 -3 50t-10 30t-17 15t-23 4h-28v75h253v-888q0 -31 3 -50t10 -30t16.5 -15t23.5 -4h28v-75h-235v89q-30 -25 -63 -45.5t-71.5 -35t-84 -22.5t-99.5 -8q-86 0 -152 24t-110.5 70t-67.5 111.5t-23 149.5v555q0 31 -3 50t-10 30t-17 15t-23 4h-28v75h253v-723
q0 -60 13 -108.5t41 -82.5t71.5 -52.5t105.5 -18.5q137 0 250 92v719zM267 1236v80h624v-80h-624z" />
    <glyph glyph-name="Uring" unicode="&#x16e;" horiz-adv-x="1549" 
d="M1359 470q0 -115 -42.5 -206.5t-117.5 -155t-177 -97t-220 -33.5q-133 0 -235.5 33.5t-173 97t-107 155t-36.5 206.5v809q0 60 -10.5 83.5t-46.5 23.5h-30v80h359v-80h-30q-36 0 -46 -24.5t-10 -83.5v-811q0 -99 29 -169.5t82.5 -115.5t129 -66t168.5 -21t167.5 27
t127 76t81 116.5t28.5 148.5v625q0 94 -4 152.5t-15 90.5t-30 43.5t-48 11.5h-31v80h369v-80h-35q-29 0 -48 -11.5t-29.5 -43.5t-14.5 -91t-4 -153v-617zM632 1738q0 40 13.5 72.5t38 56t58 36.5t73.5 13t73.5 -13t58 -36.5t38 -56t13.5 -72.5t-13.5 -72.5t-38 -56
t-58 -36.5t-73.5 -13t-73.5 13t-58 36.5t-38 56t-13.5 72.5zM705 1738q0 -48 31 -79t79 -31t79 31t31 79t-31 79t-79 31t-79 -31t-31 -79z" />
    <glyph glyph-name="uring" unicode="&#x16f;" horiz-adv-x="1195" 
d="M833 888q0 31 -3 50t-10 30t-17 15t-23 4h-28v75h253v-888q0 -31 3 -50t10 -30t16.5 -15t23.5 -4h28v-75h-235v89q-30 -25 -63 -45.5t-71.5 -35t-84 -22.5t-99.5 -8q-86 0 -152 24t-110.5 70t-67.5 111.5t-23 149.5v555q0 31 -3 50t-10 30t-17 15t-23 4h-28v75h253v-723
q0 -60 13 -108.5t41 -82.5t71.5 -52.5t105.5 -18.5q137 0 250 92v719zM407 1334q0 40 13.5 72.5t38 56t58 36.5t73.5 13t73.5 -13t58 -36.5t38 -56t13.5 -72.5t-13.5 -72.5t-38 -56t-58 -36.5t-73.5 -13t-73.5 13t-58 36.5t-38 56t-13.5 72.5zM480 1334q0 -48 31 -79t79 -31
t79 31t31 79t-31 79t-79 31t-79 -31t-31 -79z" />
    <glyph glyph-name="Uhungarumlaut" unicode="&#x170;" horiz-adv-x="1549" 
d="M1359 470q0 -115 -42.5 -206.5t-117.5 -155t-177 -97t-220 -33.5q-133 0 -235.5 33.5t-173 97t-107 155t-36.5 206.5v809q0 60 -10.5 83.5t-46.5 23.5h-30v80h359v-80h-30q-36 0 -46 -24.5t-10 -83.5v-811q0 -99 29 -169.5t82.5 -115.5t129 -66t168.5 -21t167.5 27
t127 76t81 116.5t28.5 148.5v625q0 94 -4 152.5t-15 90.5t-30 43.5t-48 11.5h-31v80h369v-80h-35q-29 0 -48 -11.5t-29.5 -43.5t-14.5 -91t-4 -153v-617zM669 1870h223l-277 -289h-104zM967 1870h223l-277 -289h-104z" />
    <glyph glyph-name="uhungarumlaut" unicode="&#x171;" horiz-adv-x="1195" 
d="M833 888q0 31 -3 50t-10 30t-17 15t-23 4h-28v75h253v-888q0 -31 3 -50t10 -30t16.5 -15t23.5 -4h28v-75h-235v89q-30 -25 -63 -45.5t-71.5 -35t-84 -22.5t-99.5 -8q-86 0 -152 24t-110.5 70t-67.5 111.5t-23 149.5v555q0 31 -3 50t-10 30t-17 15t-23 4h-28v75h253v-723
q0 -60 13 -108.5t41 -82.5t71.5 -52.5t105.5 -18.5q137 0 250 92v719zM434 1466h223l-277 -289h-104zM732 1466h223l-277 -289h-104z" />
    <glyph glyph-name="Uogonek" unicode="&#x172;" horiz-adv-x="1549" 
d="M1359 470q0 -115 -42.5 -206.5t-117.5 -155t-177 -97t-220 -33.5q-133 0 -235.5 33.5t-173 97t-107 155t-36.5 206.5v809q0 60 -10.5 83.5t-46.5 23.5h-30v80h359v-80h-30q-36 0 -46 -24.5t-10 -83.5v-811q0 -99 29 -169.5t82.5 -115.5t129 -66t168.5 -21t167.5 27
t127 76t81 116.5t28.5 148.5v625q0 94 -4 152.5t-15 90.5t-30 43.5t-48 11.5h-31v80h369v-80h-35q-29 0 -48 -11.5t-29.5 -43.5t-14.5 -91t-4 -153v-617zM796 22h78q-15 -45 -22 -85.5t-7 -78.5q0 -45 15.5 -76t41 -50t58.5 -27.5t68 -8.5q48 0 93 13t76 33v-69
q-33 -31 -63 -50.5t-57 -31t-52 -15.5t-47 -4q-99 0 -159 55.5t-60 165.5q0 43 8.5 100t28.5 129z" />
    <glyph glyph-name="uogonek" unicode="&#x173;" horiz-adv-x="1195" 
d="M833 888q0 31 -3 50t-10 30t-17 15t-23 4h-28v75h253v-888q0 -31 3 -50t10 -30t16.5 -15t23.5 -4h28v-75h-235v89q-30 -25 -63 -45.5t-71.5 -35t-84 -22.5t-99.5 -8q-86 0 -152 24t-110.5 70t-67.5 111.5t-23 149.5v555q0 31 -3 50t-10 30t-17 15t-23 4h-28v75h253v-723
q0 -60 13 -108.5t41 -82.5t71.5 -52.5t105.5 -18.5q137 0 250 92v719zM559 22h78q-15 -45 -22 -85.5t-7 -78.5q0 -45 15.5 -76t41 -50t58.5 -27.5t68 -8.5q48 0 93 13t76 33v-69q-33 -31 -63 -50.5t-57 -31t-52 -15.5t-47 -4q-99 0 -159 55.5t-60 165.5q0 43 8.5 100
t28.5 129z" />
    <glyph glyph-name="Ydieresis" unicode="&#x178;" horiz-adv-x="1463" 
d="M1127 1250q36 74 30.5 105t-38.5 31h-12v80h337v-80h-5q-17 0 -34 -5.5t-38 -23.5t-48.5 -52t-66.5 -91q-41 -59 -86.5 -118.5t-99 -123t-115.5 -132.5t-135 -148v-505q0 -18 2 -37t8 -34.5t17 -25.5t29 -10h30v-80h-359v80h30q18 0 29 10t17.5 25.5t8.5 34.5t2 37v505
q-140 152 -268 308t-226 318q-13 21 -22 34.5t-16 21t-13 10t-13 2.5h-31v80h342v-80h-26q-20 0 -25.5 -16.5t17.5 -51.5q40 -63 91.5 -132.5t108.5 -139t117 -134.5t118 -119q55 57 104 112t92 111t80 114t67 120zM457 1773q0 55 30.5 87t84.5 32q56 0 87.5 -32t31.5 -87
q0 -54 -31.5 -84.5t-87.5 -30.5q-54 0 -84.5 30.5t-30.5 84.5zM789 1773q0 55 30.5 87t84.5 32q56 0 87.5 -32t31.5 -87q0 -54 -31.5 -84.5t-87.5 -30.5q-54 0 -84.5 30.5t-30.5 84.5z" />
    <glyph glyph-name="Zacute" unicode="&#x179;" horiz-adv-x="1428" 
d="M440 1366q-44 0 -84 -12.5t-74.5 -37t-61.5 -62t-43 -88.5h-74l43 324q64 -9 126 -14t119 -7t108 -2.5t93 -0.5h716v-94q-48 -40 -112.5 -103t-139 -141t-154 -168t-158 -184.5t-151 -189t-132.5 -182.5t-103.5 -165.5t-62.5 -136.5h623q55 0 101.5 17t83.5 47.5
t63.5 72.5t42.5 91h74l-30 -330h-1170v99q31 78 80 165.5t110 180t130.5 186.5t142 184.5t144 174t136.5 155t120.5 128.5t94.5 93h-601zM703 1870h223l-276 -289h-105z" />
    <glyph glyph-name="zacute" unicode="&#x17a;" horiz-adv-x="1063" 
d="M342 967q-24 0 -50 -10t-49.5 -29t-41.5 -45t-27 -59h-80l33 238h823l20 -81q-69 -56 -144 -132t-148 -160t-140.5 -170.5t-121.5 -163t-90 -137.5t-46 -94q-6 -19 -2 -24t18 -5h394q24 0 54.5 9.5t59.5 28.5t53.5 47t37.5 65h80l-33 -245h-861l-16 59q30 80 80.5 170
t111 180t125.5 175t124.5 155.5t108.5 122t77 73.5q12 9 14.5 15.5t-0.5 10t-10 5t-14 1.5h-340zM516 1466h223l-276 -289h-105z" />
    <glyph glyph-name="Zdotaccent" unicode="&#x17b;" horiz-adv-x="1428" 
d="M440 1366q-44 0 -84 -12.5t-74.5 -37t-61.5 -62t-43 -88.5h-74l43 324q64 -9 126 -14t119 -7t108 -2.5t93 -0.5h716v-94q-48 -40 -112.5 -103t-139 -141t-154 -168t-158 -184.5t-151 -189t-132.5 -182.5t-103.5 -165.5t-62.5 -136.5h623q55 0 101.5 17t83.5 47.5
t63.5 72.5t42.5 91h74l-30 -330h-1170v99q31 78 80 165.5t110 180t130.5 186.5t142 184.5t144 174t136.5 155t120.5 128.5t94.5 93h-601zM838 1768q0 -55 -34.5 -88.5t-89.5 -33.5q-26 0 -48.5 9t-39 25t-26.5 38.5t-10 49.5q0 55 34.5 89.5t89.5 34.5t89.5 -34.5
t34.5 -89.5z" />
    <glyph glyph-name="zdotaccent" unicode="&#x17c;" horiz-adv-x="1063" 
d="M342 967q-24 0 -50 -10t-49.5 -29t-41.5 -45t-27 -59h-80l33 238h823l20 -81q-69 -56 -144 -132t-148 -160t-140.5 -170.5t-121.5 -163t-90 -137.5t-46 -94q-6 -19 -2 -24t18 -5h394q24 0 54.5 9.5t59.5 28.5t53.5 47t37.5 65h80l-33 -245h-861l-16 59q30 80 80.5 170
t111 180t125.5 175t124.5 155.5t108.5 122t77 73.5q12 9 14.5 15.5t-0.5 10t-10 5t-14 1.5h-340zM651 1364q0 -55 -34.5 -88.5t-89.5 -33.5q-26 0 -48.5 9t-39 25t-26.5 38.5t-10 49.5q0 55 34.5 89.5t89.5 34.5t89.5 -34.5t34.5 -89.5z" />
    <glyph glyph-name="Zcaron" unicode="&#x17d;" horiz-adv-x="1428" 
d="M440 1366q-44 0 -84 -12.5t-74.5 -37t-61.5 -62t-43 -88.5h-74l43 324q64 -9 126 -14t119 -7t108 -2.5t93 -0.5h716v-94q-48 -40 -112.5 -103t-139 -141t-154 -168t-158 -184.5t-151 -189t-132.5 -182.5t-103.5 -165.5t-62.5 -136.5h623q55 0 101.5 17t83.5 47.5
t63.5 72.5t42.5 91h74l-30 -330h-1170v99q31 78 80 165.5t110 180t130.5 186.5t142 184.5t144 174t136.5 155t120.5 128.5t94.5 93h-601zM708 1708l220 162h94l-225 -272h-192l-216 272h96z" />
    <glyph glyph-name="zcaron" unicode="&#x17e;" horiz-adv-x="1063" 
d="M342 967q-24 0 -50 -10t-49.5 -29t-41.5 -45t-27 -59h-80l33 238h823l20 -81q-69 -56 -144 -132t-148 -160t-140.5 -170.5t-121.5 -163t-90 -137.5t-46 -94q-6 -19 -2 -24t18 -5h394q24 0 54.5 9.5t59.5 28.5t53.5 47t37.5 65h80l-33 -245h-861l-16 59q30 80 80.5 170
t111 180t125.5 175t124.5 155.5t108.5 122t77 73.5q12 9 14.5 15.5t-0.5 10t-10 5t-14 1.5h-340zM559 1304l220 162h94l-225 -272h-192l-216 272h96z" />
    <glyph glyph-name="florin" unicode="&#x192;" horiz-adv-x="918" 
d="M325 -138q-14 -66 -40 -119.5t-66 -91t-95 -58t-127 -20.5q-33 0 -61.5 3.5t-53.5 7.5t-47.5 7.5t-44.5 3.5l-24 238h80q17 -92 54.5 -132t94.5 -40q33 0 57.5 11.5t43 35.5t32.5 62t25 92l234 1105h-222l20 95h222l30 138q14 66 40 119t66 90.5t95 58t127 20.5
q33 0 61.5 -3.5t53.5 -7.5t47.5 -7.5t44.5 -3.5l24 -238h-80q-17 92 -54.5 132t-94.5 40q-33 0 -57.5 -11t-43 -35t-32 -62t-25.5 -92l-30 -138h197l-20 -95h-197z" />
    <glyph glyph-name="Scommaaccent" unicode="&#x218;" horiz-adv-x="1349" 
d="M616 73q83 -3 160.5 8.5t135.5 47.5t88.5 101t20.5 168q-7 74 -47 121t-100.5 78t-135.5 52t-153 42t-152.5 48.5t-133.5 71.5t-97 110.5t-43 165.5q-5 96 33.5 170.5t107.5 126t163 78t202 26.5q71 0 119.5 -3.5t93.5 -7.5t95 -7.5t124 -3.5l33 -298h-74q-27 45 -58 86
t-75.5 71.5t-106.5 49t-151 18.5q-66 0 -131 -17t-114 -54t-74 -95t-9 -140q12 -63 55.5 -103.5t106.5 -69t139 -49.5t154 -44t151 -53t130 -77t91.5 -115.5t34.5 -167.5q0 -106 -39.5 -188t-114.5 -137.5t-183 -82.5t-246 -22q-47 1 -84 4.5t-68.5 7.5t-61 8t-62 8t-70.5 6
t-87 2l-33 318h79q26 -53 56.5 -98.5t74.5 -80t105.5 -55.5t150.5 -25zM801 -298q0 -50 -14.5 -95.5t-44 -82.5t-73.5 -62t-103 -34v65q60 15 83.5 41t23.5 64q0 18 -9 26t-26 12q-42 8 -70 40t-28 80q0 55 34.5 89.5t89.5 34.5q40 0 66.5 -16t42 -41.5t22 -57.5t6.5 -63z
" />
    <glyph glyph-name="scommaaccent" unicode="&#x219;" horiz-adv-x="997" 
d="M448 69q141 0 205.5 50t64.5 140q0 51 -15.5 86t-46.5 59.5t-78 41t-110 31.5q-90 22 -156 48t-109 61.5t-64 83t-21 113.5q0 74 28.5 130t80 94t124 57.5t159.5 19.5q43 0 80.5 -3.5t71.5 -7.5t65 -7.5t60 -3.5l24 -238h-80q-18 37 -38.5 68.5t-49 54.5t-68.5 36t-97 13
q-50 0 -91 -11.5t-70.5 -33.5t-45.5 -53t-16 -70q0 -47 15.5 -77t43 -50.5t65.5 -33t83 -23.5q102 -25 177 -54t123.5 -69.5t72.5 -96t24 -131.5q0 -83 -30 -142.5t-84.5 -98t-130 -56.5t-166.5 -18q-52 0 -88 3.5t-69 7.5t-69.5 7.5t-90.5 3.5l-24 245h80q20 -33 41 -64.5
t50 -56.5t69.5 -40t100.5 -15zM629 -298q0 -50 -14.5 -95.5t-44 -82.5t-73.5 -62t-103 -34v65q60 15 83.5 41t23.5 64q0 18 -9 26t-26 12q-42 8 -70 40t-28 80q0 55 34.5 89.5t89.5 34.5q40 0 66.5 -16t42 -41.5t22 -57.5t6.5 -63z" />
    <glyph glyph-name="circumflex" unicode="&#x2c6;" horiz-adv-x="587" 
d="M200 1466h187l200 -272h-75l-219 180l-218 -180h-75z" />
    <glyph glyph-name="caron" unicode="&#x2c7;" horiz-adv-x="682" 
d="M359 1304l220 162h94l-225 -272h-192l-216 272h96z" />
    <glyph glyph-name="uni02C9" unicode="&#x2c9;" horiz-adv-x="682" 
d="M29 1227v80h624v-80h-624z" />
    <glyph glyph-name="breve" unicode="&#x2d8;" horiz-adv-x="682" 
d="M340 1342q35 0 71.5 5t67.5 18.5t53 37.5t28 63h92q-3 -58 -27 -105t-65 -80t-97.5 -51t-124.5 -18q-67 0 -122.5 18t-96 51t-64.5 80t-27 105h92q6 -39 28 -63t53 -37.5t67.5 -18.5t71.5 -5z" />
    <glyph glyph-name="dotaccent" unicode="&#x2d9;" horiz-adv-x="659" 
d="M458 1364q0 -55 -34.5 -88.5t-89.5 -33.5q-26 0 -48.5 9t-39 25t-26.5 38.5t-10 49.5q0 55 34.5 89.5t89.5 34.5t89.5 -34.5t34.5 -89.5z" />
    <glyph glyph-name="ring" unicode="&#x2da;" horiz-adv-x="682" 
d="M162 1334q0 40 13.5 72.5t38 56t58 36.5t73.5 13t73.5 -13t58 -36.5t38 -56t13.5 -72.5t-13.5 -72.5t-38 -56t-58 -36.5t-73.5 -13t-73.5 13t-58 36.5t-38 56t-13.5 72.5zM235 1334q0 -48 31 -79t79 -31t79 31t31 79t-31 79t-79 31t-79 -31t-31 -79z" />
    <glyph glyph-name="ogonek" unicode="&#x2db;" horiz-adv-x="485" 
d="M60 22h78q-15 -45 -22 -85.5t-7 -78.5q0 -45 15.5 -76t41 -50t58.5 -27.5t68 -8.5q48 0 93 13t76 33v-69q-33 -31 -63 -50.5t-57 -31t-52 -15.5t-47 -4q-99 0 -159 55.5t-60 165.5q0 43 8.5 100t28.5 129z" />
    <glyph glyph-name="tilde" unicode="&#x2dc;" 
d="M-846 1678q84 87 177 87q46 0 91 -17.5t91 -38t92 -38t93 -17.5q36 0 64 18t54 54v-89q-87 -87 -178 -87q-51 0 -97 17.5t-90 38t-87.5 38t-90.5 17.5q-35 0 -63.5 -19.5t-55.5 -54.5v91z" />
    <glyph glyph-name="hungarumlaut" unicode="&#x2dd;" horiz-adv-x="714" 
d="M175 1466h223l-277 -289h-104zM473 1466h223l-277 -289h-104z" />
    <glyph glyph-name="gravecomb" unicode="&#x300;" 
d="M-227 1321h-94l-287 289h223z" />
    <glyph glyph-name="tildecomb" unicode="&#x303;" 
d="M-846 1678q84 87 177 87q46 0 91 -17.5t91 -38t92 -38t93 -17.5q36 0 64 18t54 54v-89q-87 -87 -178 -87q-51 0 -97 17.5t-90 38t-87.5 38t-90.5 17.5q-35 0 -63.5 -19.5t-55.5 -54.5v91z" />
    <glyph glyph-name="tonos" unicode="&#x384;" horiz-adv-x="418" 
d="M175 1466h223l-287 -289h-94z" />
    <glyph glyph-name="dieresistonos" unicode="&#x385;" horiz-adv-x="687" 
d="M331 1893h223l-287 -289h-94zM292 1364q0 -55 -34.5 -88.5t-89.5 -33.5q-26 0 -48.5 9t-39 25t-26.5 38.5t-10 49.5q0 55 34.5 89.5t89.5 34.5t89.5 -34.5t34.5 -89.5zM640 1364q0 -55 -34.5 -88.5t-89.5 -33.5q-26 0 -48.5 9t-39 25t-26.5 38.5t-10 49.5q0 55 34.5 89.5
t89.5 34.5t89.5 -34.5t34.5 -89.5z" />
    <glyph glyph-name="Alphatonos" unicode="&#x386;" horiz-adv-x="1536" 
d="M649 1466h239q58 -119 113.5 -240t105.5 -239.5t94 -231t80 -215t63 -192.5t43 -162q8 -37 17.5 -58t19 -31.5t19 -13.5t18.5 -3h24v-80h-339v80h26q11 0 19 9.5t8 36.5q0 23 -7 57q-9 45 -27 106.5t-43 134.5t-54.5 155t-62.5 166h-459q8 26 17 50.5t19 49.5h384
q-30 74 -59.5 145.5t-58 137.5t-54.5 123.5t-48 102.5h-35q-39 -82 -84 -188t-90.5 -221t-87.5 -232t-74.5 -222t-52 -191t-19.5 -138q0 -25 4.5 -41t12.5 -25t19 -12.5t25 -3.5h12v-80h-350v80h5q18 0 35.5 4.5t35 23t36 56.5t39.5 104q94 294 210.5 598t261.5 600z
M329 1466h223l-276 -289h-105z" />
    <glyph glyph-name="anoteleia" unicode="&#x387;" horiz-adv-x="569" 
d="M540 519q-5 0 -10 1t-12 1q-19 0 -41.5 -8t-42.5 -20.5t-35.5 -27.5t-19.5 -29q-7 -16 -15.5 -25.5t-22.5 -9.5q-19 0 -27 12t-8 26q0 7 1.5 11.5t1.5 15.5q0 54 -26.5 89.5t-59.5 46.5q-16 7 -25.5 15.5t-9.5 22.5q0 18 12 26t26 8q6 0 11 -1t13 -1q19 0 41.5 8
t42.5 20.5t35 28t20 29.5q7 16 15.5 25.5t22.5 9.5q18 0 26 -12.5t8 -27.5q0 -5 -1 -10t-1 -12q0 -19 8 -41.5t20.5 -42.5t28 -35.5t29.5 -19.5q16 -7 25.5 -15.5t9.5 -22.5q0 -18 -13 -26.5t-27 -8.5z" />
    <glyph glyph-name="Epsilontonos" unicode="&#x388;" horiz-adv-x="1465" 
d="M932 845q30 0 56 9.5t46 30.5t34 55t20 83h74v-456h-74q-3 42 -17 75t-35 56t-47.5 35t-56.5 12h-426v-558q0 -36 10 -60.5t46 -24.5h395q64 0 110 17t78.5 47.5t54.5 72.5t38 91h74l-30 -330h-1049v80h30q18 0 29 10t17.5 25.5t8.5 34.5t2 37v1092q0 18 -2 37t-8.5 34.5
t-17.5 25.5t-29 10h-30v80h569q42 0 99 0.5t118.5 3t121.5 7.5t107 13l43 -324h-74q-16 51 -43 88.5t-61.5 62t-75 37t-83.5 12.5h-392q-36 0 -46 -25.5t-10 -61.5v-434h426zM-7 1466h223l-276 -289h-105z" />
    <glyph glyph-name="Etatonos" unicode="&#x389;" horiz-adv-x="1674" 
d="M1238 1279q0 33 -3.5 54t-10.5 32.5t-17.5 16t-25.5 4.5h-30v80h359v-80h-29q-15 0 -25.5 -4.5t-17.5 -16t-10.5 -32.5t-3.5 -54v-1092q0 -33 3.5 -54t10.5 -32.5t17.5 -16t25.5 -4.5h29v-80h-359v80h30q15 0 25.5 4.5t17.5 16t10.5 32.5t3.5 54v558h-732v-558
q0 -33 3.5 -54t10.5 -32.5t17.5 -16t25.5 -4.5h29v-80h-359v80h30q15 0 25.5 4.5t17.5 16t10.5 32.5t3.5 54v1092q0 33 -3.5 54t-10.5 32.5t-17.5 16t-25.5 4.5h-30v80h359v-80h-29q-15 0 -25.5 -4.5t-17.5 -16t-10.5 -32.5t-3.5 -54v-434h732v434zM-12 1466h223l-276 -289
h-105z" />
    <glyph glyph-name="Iotatonos" unicode="&#x38a;" horiz-adv-x="746" 
d="M310 1279q0 33 -3.5 54t-10.5 32.5t-17.5 16t-25.5 4.5h-30v80h359v-80h-29q-15 0 -25.5 -4.5t-17.5 -16t-10.5 -32.5t-3.5 -54v-1092q0 -33 3.5 -54t10.5 -32.5t17.5 -16t25.5 -4.5h29v-80h-359v80h30q15 0 25.5 4.5t17.5 16t10.5 32.5t3.5 54v1092zM-16 1466h223
l-276 -289h-105z" />
    <glyph glyph-name="Omicrontonos" unicode="&#x38c;" horiz-adv-x="1560" 
d="M88 733q0 172 41.5 311.5t127 238t216 152t308.5 53.5t308.5 -53t216 -151.5t127 -238t41.5 -312.5t-41.5 -312.5t-127 -238t-216 -151.5t-308.5 -53t-308.5 53.5t-216 152t-127 238t-41.5 311.5zM280 733q0 -145 29 -266.5t90 -209t155.5 -136t226.5 -48.5t226.5 48.5
t156 136t90.5 209t29 266.5t-29 266.5t-90 209t-156 136t-227 48.5t-227 -48.5t-155.5 -136t-89.5 -209t-29 -266.5zM120 1466h223l-276 -289h-105z" />
    <glyph glyph-name="Upsilontonos" unicode="&#x38e;" horiz-adv-x="1533" 
d="M1196 1250q36 74 30.5 105t-38.5 31h-12v80h337v-80h-5q-17 0 -34 -5.5t-38 -23.5t-48.5 -52t-66.5 -91q-41 -59 -86.5 -118.5t-99 -123t-115.5 -132.5t-135 -148v-505q0 -18 2 -37t8 -34.5t17 -25.5t29 -10h30v-80h-359v80h30q18 0 29 10t17.5 25.5t8.5 34.5t2 37v505
q-140 152 -268 308t-226 318q-13 21 -22 34.5t-16 21t-13 10t-13 2.5h-31v80h342v-80h-26q-20 0 -25.5 -16.5t17.5 -51.5q40 -63 91.5 -132.5t108.5 -139t117 -134.5t118 -119q55 57 104 112t92 111t80 114t67 120zM-137 1466h223l-276 -289h-105z" />
    <glyph glyph-name="Omegatonos" unicode="&#x38f;" horiz-adv-x="1744" 
d="M527 149v37q-65 42 -120 103.5t-94.5 141t-61.5 176.5t-22 210q0 86 15.5 169.5t48 158t83.5 137.5t123 109t165.5 71.5t210.5 25.5t210 -25.5t164 -71t121.5 -108.5t82.5 -137.5t47 -157.5t15 -169q0 -114 -23 -211.5t-63.5 -177t-96.5 -141t-122 -103.5v-37h93
q58 0 98.5 13t69 38.5t48 63t35.5 86.5h74l-42 -350h-606v118q88 48 150.5 118t102.5 156.5t59 185t19 203.5q0 145 -25 259.5t-78 194t-135.5 122t-197.5 42.5t-198.5 -42.5t-137.5 -122t-79.5 -194t-25.5 -259.5q0 -55 5.5 -116.5t19.5 -124.5t38.5 -124.5t61 -117
t87.5 -102t119 -78.5v-118h-587l-42 350h74q16 -49 35.5 -86.5t48.5 -63t69.5 -38.5t97.5 -13h66zM211 1466h223l-276 -289h-105z" />
    <glyph glyph-name="iotadieresistonos" unicode="&#x390;" horiz-adv-x="552" 
d="M261 1893h223l-287 -289h-94zM222 1364q0 -55 -34.5 -88.5t-89.5 -33.5q-26 0 -48.5 9t-39 25t-26.5 38.5t-10 49.5q0 55 34.5 89.5t89.5 34.5t89.5 -34.5t34.5 -89.5zM570 1364q0 -55 -34.5 -88.5t-89.5 -33.5q-26 0 -48.5 9t-39 25t-26.5 38.5t-10 49.5q0 55 34.5 89.5
t89.5 34.5t89.5 -34.5t34.5 -89.5zM362 1062v-888q0 -31 3 -50t10 -30t16.5 -15t23.5 -4h27v-75h-333v75h28q13 0 23 4t17 15t10 30t3 50v714q0 31 -3 50t-10 30t-17 15t-23 4h-28v75h253z" />
    <glyph glyph-name="Alpha" unicode="&#x391;" horiz-adv-x="1536" 
d="M649 1466h239q58 -119 113.5 -240t105.5 -239.5t94 -231t80 -215t63 -192.5t43 -162q8 -37 17.5 -58t19 -31.5t19 -13.5t18.5 -3h24v-80h-339v80h26q11 0 19 9.5t8 36.5q0 23 -7 57q-9 45 -27 106.5t-43 134.5t-54.5 155t-62.5 166h-459q8 26 17 50.5t19 49.5h384
q-30 74 -59.5 145.5t-58 137.5t-54.5 123.5t-48 102.5h-35q-39 -82 -84 -188t-90.5 -221t-87.5 -232t-74.5 -222t-52 -191t-19.5 -138q0 -25 4.5 -41t12.5 -25t19 -12.5t25 -3.5h12v-80h-350v80h5q18 0 35.5 4.5t35 23t36 56.5t39.5 104q94 294 210.5 598t261.5 600z" />
    <glyph glyph-name="Beta" unicode="&#x392;" horiz-adv-x="1520" 
d="M1302 1120q0 -60 -19 -112.5t-55.5 -93.5t-91 -70t-125.5 -41q88 -13 153 -48t107.5 -87t63 -118t20.5 -140q0 -107 -40.5 -184.5t-111 -127.5t-165.5 -74t-203 -24h-672v80h34q17 0 27.5 5.5t16 18t7.5 33t2 50.5v1092q0 32 -2 53t-8 33t-17.5 16.5t-29.5 4.5h-30v80
h108q63 0 121.5 3.5t121 7.5t132.5 7.5t156 3.5q121 0 214 -19.5t156.5 -63.5t96.5 -114t33 -171zM436 187q0 -53 12 -70t47 -17h274q93 0 166 16.5t122.5 53.5t75.5 96.5t26 143.5q0 167 -92.5 251t-277.5 84h-253v100h250q76 0 135.5 16.5t100.5 50.5t63 86t22 122
q0 58 -15.5 108t-51.5 87t-95 57.5t-146 20.5q-98 0 -166.5 -2.5t-112.5 -11t-64 -24t-20 -42.5v-1126z" />
    <glyph glyph-name="Gamma" unicode="&#x393;" horiz-adv-x="1221" 
d="M523 0h-360v80h30q18 0 29 10t17.5 25.5t8.5 34.5t2 37v1092q0 18 -2 37t-8.5 34.5t-17.5 25.5t-29 10h-30v80h559q42 0 99 0.5t118.5 3t121.5 7.5t107 13l43 -324h-74q-16 51 -43 88.5t-61.5 62t-75 37t-83.5 12.5h-382q-36 0 -46 -25.5t-10 -61.5v-1092q0 -18 2 -37
t8.5 -34.5t17.5 -25.5t29 -10h30v-80z" />
    <glyph glyph-name="Delta" unicode="&#x394;" horiz-adv-x="1443" 
d="M1323 0h-1243v80q106 345 255 699.5t329 708.5h95q100 -203 190.5 -397.5t165 -373.5t128 -340t80.5 -297v-80zM1104 183q-13 63 -41 149.5t-65.5 185.5t-82 204.5t-89 205.5t-86 188.5t-74.5 153.5q-37 -80 -81 -178t-88 -206t-85 -222.5t-72 -226.5q-25 -89 -35.5 -148
t-10.5 -97q0 -30 6 -48t15.5 -28t23 -13t28.5 -3h740q3 9 3 27q0 20 -6 56z" />
    <glyph glyph-name="Epsilon" unicode="&#x395;" horiz-adv-x="1395" 
d="M862 845q30 0 56 9.5t46 30.5t34 55t20 83h74v-456h-74q-3 42 -17 75t-35 56t-47.5 35t-56.5 12h-426v-558q0 -36 10 -60.5t46 -24.5h395q64 0 110 17t78.5 47.5t54.5 72.5t38 91h74l-30 -330h-1049v80h30q18 0 29 10t17.5 25.5t8.5 34.5t2 37v1092q0 18 -2 37t-8.5 34.5
t-17.5 25.5t-29 10h-30v80h569q42 0 99 0.5t118.5 3t121.5 7.5t107 13l43 -324h-74q-16 51 -43 88.5t-61.5 62t-75 37t-83.5 12.5h-392q-36 0 -46 -25.5t-10 -61.5v-434h426z" />
    <glyph glyph-name="Zeta" unicode="&#x396;" horiz-adv-x="1428" 
d="M440 1366q-44 0 -84 -12.5t-74.5 -37t-61.5 -62t-43 -88.5h-74l43 324q64 -9 126 -14t119 -7t108 -2.5t93 -0.5h716v-94q-48 -40 -112.5 -103t-139 -141t-154 -168t-158 -184.5t-151 -189t-132.5 -182.5t-103.5 -165.5t-62.5 -136.5h623q55 0 101.5 17t83.5 47.5
t63.5 72.5t42.5 91h74l-30 -330h-1170v99q31 78 80 165.5t110 180t130.5 186.5t142 184.5t144 174t136.5 155t120.5 128.5t94.5 93h-601z" />
    <glyph glyph-name="Eta" unicode="&#x397;" horiz-adv-x="1604" 
d="M1168 1279q0 33 -3.5 54t-10.5 32.5t-17.5 16t-25.5 4.5h-30v80h359v-80h-29q-15 0 -25.5 -4.5t-17.5 -16t-10.5 -32.5t-3.5 -54v-1092q0 -33 3.5 -54t10.5 -32.5t17.5 -16t25.5 -4.5h29v-80h-359v80h30q15 0 25.5 4.5t17.5 16t10.5 32.5t3.5 54v558h-732v-558
q0 -33 3.5 -54t10.5 -32.5t17.5 -16t25.5 -4.5h29v-80h-359v80h30q15 0 25.5 4.5t17.5 16t10.5 32.5t3.5 54v1092q0 33 -3.5 54t-10.5 32.5t-17.5 16t-25.5 4.5h-30v80h359v-80h-29q-15 0 -25.5 -4.5t-17.5 -16t-10.5 -32.5t-3.5 -54v-434h732v434z" />
    <glyph glyph-name="Theta" unicode="&#x398;" horiz-adv-x="1626" 
d="M624 671q-33 0 -54 -3.5t-32.5 -10.5t-16 -17.5t-4.5 -25.5v-30h-80v337h80v-29q0 -15 4.5 -25.5t16 -17.5t32.5 -10.5t54 -3.5h364q33 0 54 3.5t32.5 10.5t16 17.5t4.5 25.5v29h80v-337h-80v30q0 15 -4.5 25.5t-16 17.5t-32.5 10.5t-54 3.5h-364zM120 733
q0 172 41.5 311.5t127 238t216 152t308.5 53.5t308.5 -53t216 -151.5t127 -238t41.5 -312.5t-41.5 -312.5t-127 -238t-216 -151.5t-308.5 -53t-308.5 53.5t-216 152t-127 238t-41.5 311.5zM312 733q0 -145 29 -266.5t90 -209t155.5 -136t226.5 -48.5t226.5 48.5t156 136
t90.5 209t29 266.5t-29 266.5t-90 209t-156 136t-227 48.5t-227 -48.5t-155.5 -136t-89.5 -209t-29 -266.5z" />
    <glyph glyph-name="Iota" unicode="&#x399;" horiz-adv-x="686" 
d="M250 1279q0 33 -3.5 54t-10.5 32.5t-17.5 16t-25.5 4.5h-30v80h359v-80h-29q-15 0 -25.5 -4.5t-17.5 -16t-10.5 -32.5t-3.5 -54v-1092q0 -33 3.5 -54t10.5 -32.5t17.5 -16t25.5 -4.5h29v-80h-359v80h30q15 0 25.5 4.5t17.5 16t10.5 32.5t3.5 54v1092z" />
    <glyph glyph-name="Kappa" unicode="&#x39a;" horiz-adv-x="1501" 
d="M1116 147q-6 25 -23 66.5t-45.5 93.5t-69.5 112t-94 122t-119.5 122.5t-146.5 114.5q-45 -17 -91 -25t-91 -8v-558q0 -33 3.5 -54t10.5 -32.5t17.5 -16t25.5 -4.5h29v-80h-359v80h30q15 0 25.5 4.5t17.5 16t10.5 32.5t3.5 54v1092q0 33 -3.5 54t-10.5 32.5t-17.5 16
t-25.5 4.5h-30v80h359v-80h-29q-15 0 -25.5 -4.5t-17.5 -16t-10.5 -32.5t-3.5 -54v-434q96 0 173 30t143 85q120 101 185.5 180t89 134t10 83.5t-50.5 28.5h-41v80h429v-80h-35q-34 0 -61.5 -17.5t-57 -49t-64 -76.5t-81.5 -100.5t-111 -120t-151 -135.5q-11 -8 -21 -15.5
t-21 -15.5q80 -56 147.5 -119.5t123.5 -130.5t100.5 -133t78 -126.5t56 -112t34.5 -87.5q2 -7 7.5 -18t14.5 -22t20.5 -19t26.5 -8h29v-80h-349v80h30q29 0 32 14.5t-6 52.5z" />
    <glyph glyph-name="Lambda" unicode="&#x39b;" horiz-adv-x="1448" 
d="M685 1488h95q60 -121 116 -243.5t107 -243t95.5 -235.5t81.5 -219.5t64.5 -196t45.5 -164.5q9 -36 18 -57t19 -32t19 -14t18 -3h24v-80h-339v80h26q11 0 18.5 10t7.5 38q0 20 -6 55q-13 63 -39 149.5t-61 185.5t-75.5 204.5t-81.5 205.5t-80.5 188.5t-70.5 153.5
q-29 -67 -67.5 -159t-80 -195.5t-81 -212t-71 -209.5t-51 -187t-19.5 -145q0 -25 4.5 -41t12.5 -25t19 -12.5t25 -3.5h12v-80h-350v80h5q18 0 35 3.5t34 21.5t36 56t41 107q96 297 219.5 606t274.5 614z" />
    <glyph glyph-name="Mu" unicode="&#x39c;" horiz-adv-x="1838" 
d="M250 1279q0 51 -15.5 79t-51.5 28h-30v80h316q49 -59 105.5 -146.5t114.5 -193.5t115.5 -225.5t108.5 -242.5q26 65 60.5 138.5t73 149t81 151t86 143.5t86 126t81.5 100h293v-80h-30q-35 0 -45.5 -27t-10.5 -78v-1093q0 -57 10 -82.5t46 -25.5h30v-80h-359v80h30
q36 0 46.5 25.5t10.5 81.5v1130q-42 -50 -86 -117.5t-88.5 -145.5t-87.5 -163t-82.5 -171t-75.5 -169t-65 -157h-69q-32 81 -72 171.5t-83.5 182.5t-89.5 180.5t-89.5 165.5t-83 137.5t-70.5 95.5v-949q0 -94 2.5 -152.5t11.5 -90.5t26.5 -43.5t46.5 -11.5h31v-80h-349v80
h35q29 0 46 11.5t26 43.5t11.5 90.5t2.5 153.5v900z" />
    <glyph glyph-name="Nu" unicode="&#x39d;" horiz-adv-x="1594" 
d="M1207 0q-54 131 -122.5 260.5t-143.5 253t-154.5 238.5t-155.5 216t-145.5 186.5t-125.5 149.5v-926q0 -94 3.5 -152.5t13 -90.5t26.5 -43.5t44 -11.5h31v-80h-349v80h35q26 0 42.5 11.5t26.5 43.5t13.5 90.5t3.5 153.5v903q0 54 -21 79t-56 25h-30v80h298
q53 -49 126 -133t153 -188t162 -219.5t153 -228t125 -214t79 -176.5q-1 14 -2 31t-2 33t-1.5 29.5t-0.5 20.5v667q0 94 -3.5 152.5t-13 90.5t-26.5 43.5t-44 11.5h-31v80h349v-80h-35q-27 0 -44 -11.5t-26 -43.5t-12 -91t-3 -153v-1087h-137z" />
    <glyph glyph-name="Xi" unicode="&#x39e;" horiz-adv-x="1481" 
d="M986 142q64 0 110 5t78.5 20.5t54.5 44.5t38 78h74l-30 -290h-1141l-30 290h74q16 -49 38 -78.5t54.5 -45t78.5 -20t110 -4.5h491zM841 1466q42 0 99 0.5t118.5 3t121.5 7.5t107 13l43 -304h-74q-16 51 -43 79t-61.5 41.5t-75 16.5t-83.5 3h-505q-44 0 -84 -3
t-74.5 -16.5t-61.5 -41.5t-43 -79h-74l43 304q47 -8 107 -13t121.5 -7.5t118.5 -3t99 -0.5h201zM961 861q30 0 56 2.5t46.5 15t34.5 38.5t19 73h74v-416h-74q-3 42 -17 70t-35 45t-47.5 24.5t-56.5 7.5h-441q-30 0 -56.5 -7.5t-47.5 -24.5t-35 -45t-17 -70h-74v416h74
q6 -47 20 -73t34 -38.5t46 -15t56 -2.5h441z" />
    <glyph glyph-name="Omicron" unicode="&#x39f;" horiz-adv-x="1626" 
d="M120 733q0 172 41.5 311.5t127 238t216 152t308.5 53.5t308.5 -53t216 -151.5t127 -238t41.5 -312.5t-41.5 -312.5t-127 -238t-216 -151.5t-308.5 -53t-308.5 53.5t-216 152t-127 238t-41.5 311.5zM312 733q0 -145 29 -266.5t90 -209t155.5 -136t226.5 -48.5t226.5 48.5
t156 136t90.5 209t29 266.5t-29 266.5t-90 209t-156 136t-227 48.5t-227 -48.5t-155.5 -136t-89.5 -209t-29 -266.5z" />
    <glyph glyph-name="Pi" unicode="&#x3a0;" horiz-adv-x="1573" 
d="M1138 1279q0 36 -10 61.5t-46 25.5h-590q-36 0 -46 -25.5t-10 -61.5v-1092q0 -33 3.5 -54t10.5 -32.5t17.5 -16t25.5 -4.5h29v-80h-359v80h30q15 0 25.5 4.5t17.5 16t10.5 32.5t3.5 54v1092q0 33 -3.5 54t-10.5 32.5t-17.5 16t-25.5 4.5h-30v80h1247v-80h-29
q-15 0 -25.5 -4.5t-17.5 -16t-10.5 -32.5t-3.5 -54v-1092q0 -33 3.5 -54t10.5 -32.5t17.5 -16t25.5 -4.5h29v-80h-359v80h30q15 0 25.5 4.5t17.5 16t10.5 32.5t3.5 54v1092z" />
    <glyph glyph-name="Rho" unicode="&#x3a1;" horiz-adv-x="1395" 
d="M536 831q52 -23 114 -40t124 -21.5t120 7.5t102.5 47.5t71.5 99.5t27 162q0 93 -23.5 152t-71 93.5t-118 47.5t-163.5 13q-88 0 -143 -4t-86 -14.5t-42.5 -28.5t-11.5 -46v-1112q0 -32 2 -53t8 -33t17.5 -16.5t29.5 -4.5h30v-80h-360v80h30q18 0 29.5 4.5t17.5 16.5t8 33
t2 53v1092q0 30 -2 50.5t-7.5 33t-16 18t-27.5 5.5h-34v80h130q55 0 106 3.5t107.5 7.5t124 7.5t154.5 3.5q108 0 200.5 -18.5t160 -64.5t107 -123.5t42.5 -195.5q3 -113 -31 -192t-92.5 -129t-136.5 -74t-163 -27.5t-172 12t-164 44.5v111z" />
    <glyph glyph-name="Sigma" unicode="&#x3a3;" horiz-adv-x="1386" 
d="M891 154q64 0 110 15t78.5 43t54.5 67.5t38 88.5h74l-42 -368h-1074v89q34 50 80 107.5t99.5 118t112 121t118 117t117.5 106t110 87.5q-81 53 -165.5 122.5t-165 150t-154 170t-132.5 182.5v95h579q42 0 99 0.5t118.5 3t121.5 7.5t107 13l43 -324h-74q-16 51 -43 88.5
t-61.5 62t-75 37t-83.5 12.5h-521q52 -77 120.5 -154.5t145 -149t157 -134.5t157.5 -109v-72q-38 -27 -87.5 -65.5t-104.5 -85t-113.5 -100t-115.5 -110.5t-109.5 -115.5t-95.5 -116.5h577z" />
    <glyph glyph-name="Tau" unicode="&#x3a4;" horiz-adv-x="1402" 
d="M407 1376q-43 0 -83.5 -14t-75 -40.5t-61.5 -65.5t-43 -90h-74l43 324q47 -8 107 -12.5t121.5 -7t118.5 -3.5t99 -1h284q42 0 99 1t118.5 3.5t121.5 7t107 12.5l43 -324h-74q-16 51 -43 90t-61.5 65.5t-75 40.5t-83.5 14h-145q-36 0 -46 -25.5t-10 -61.5v-1102
q0 -33 2 -54t8 -32.5t17 -16t29 -4.5h30v-80h-359v80h30q18 0 29 4.5t17.5 16t8.5 32.5t2 54v1102q0 35 -11.5 61t-44.5 26h-145z" />
    <glyph glyph-name="Upsilon" unicode="&#x3a5;" horiz-adv-x="1463" 
d="M1127 1250q36 74 30.5 105t-38.5 31h-12v80h337v-80h-5q-17 0 -34 -5.5t-38 -23.5t-48.5 -52t-66.5 -91q-41 -59 -86.5 -118.5t-99 -123t-115.5 -132.5t-135 -148v-505q0 -18 2 -37t8 -34.5t17 -25.5t29 -10h30v-80h-359v80h30q18 0 29 10t17.5 25.5t8.5 34.5t2 37v505
q-140 152 -268 308t-226 318q-13 21 -22 34.5t-16 21t-13 10t-13 2.5h-31v80h342v-80h-26q-20 0 -25.5 -16.5t17.5 -51.5q40 -63 91.5 -132.5t108.5 -139t117 -134.5t118 -119q55 57 104 112t92 111t80 114t67 120z" />
    <glyph glyph-name="Phi" unicode="&#x3a6;" horiz-adv-x="1787" 
d="M776 221q-153 0 -276 27t-209.5 87.5t-133.5 158.5t-47 240t47.5 241.5t134.5 162t210 91t274 28.5h27v22q0 33 -3.5 54t-10.5 32.5t-17.5 16t-25.5 4.5h-30v80h359v-80h-29q-15 0 -25.5 -4.5t-17.5 -16t-10.5 -32.5t-3.5 -54v-22h27q147 0 268.5 -28.5t208.5 -91
t135.5 -162t48.5 -241.5t-49.5 -240t-137.5 -158.5t-209 -87.5t-265 -27h-27v-34q0 -33 3.5 -54t10.5 -32.5t17.5 -16t25.5 -4.5h29v-80h-359v80h30q15 0 25.5 4.5t17.5 16t10.5 32.5t3.5 54v34h-27zM1016 316q131 -2 220.5 27.5t145 84.5t80 132.5t24.5 173.5t-23.5 174.5
t-78.5 135t-145 87.5t-223 31h-27v-846h27zM306 734q0 -96 24 -173t79 -131.5t145 -84t222 -29.5h27v846h-27q-129 0 -218.5 -31t-145.5 -87.5t-81 -135t-25 -174.5z" />
    <glyph glyph-name="Chi" unicode="&#x3a7;" horiz-adv-x="1542" 
d="M1413 1386q-24 0 -45 -9.5t-39.5 -25t-34.5 -36.5t-30 -43q-44 -67 -91 -128t-98 -119t-105.5 -115t-112.5 -117q65 -72 130 -145.5t128 -152t122.5 -165t114.5 -183.5q20 -35 43 -51t37 -16h31v-80h-359v80h26q20 0 27 16t-14 51q-84 137 -189 263.5t-219 253.5
q-66 -72 -119 -135t-94 -118.5t-71 -103.5t-50 -91q-35 -73 -31.5 -104.5t36.5 -31.5h12v-80h-337v80h5q27 0 50.5 13t47 38.5t49 62t57.5 83.5q84 123 179 235.5t201 224.5q-62 69 -122.5 139t-118.5 142t-111 147t-99 153q-26 44 -47 56t-35 12h-31v80h364v-80h-26
q-20 0 -27.5 -18t15.5 -53q81 -126 172.5 -236t187.5 -216q89 91 170 184.5t143 202.5q24 42 31.5 68.5t3 41.5t-17.5 20.5t-29 5.5h-12v80h337v-80h-5v0z" />
    <glyph glyph-name="Psi" unicode="&#x3a8;" horiz-adv-x="1631" 
d="M1298 1310q0 32 10 60.5t29 49.5t46 33.5t61 12.5h127v-80h-30q-18 0 -29 -4.5t-17.5 -16t-8.5 -32.5t-2 -54v-235q0 -111 -41.5 -206.5t-117 -165t-182 -109.5t-235.5 -40v-336q0 -33 2 -54t8 -32.5t17 -16t29 -4.5h30v-80h-359v80h30q18 0 29 4.5t17.5 16t8.5 32.5
t2 54v336q-124 0 -229.5 40t-182.5 109.5t-120.5 165t-43.5 206.5v235q0 33 -2 54t-8 32.5t-17 16t-29 4.5h-30v80h126q34 0 61 -12.5t46 -33.5t29 -49.5t10 -60.5v-266q0 -95 27.5 -172.5t78.5 -133.5t123 -86.5t161 -30.5v658q0 33 -2 54t-8 32.5t-17 16t-29 4.5h-30v80
h359v-80h-30q-18 0 -29 -4.5t-17.5 -16t-8.5 -32.5t-2 -54v-659q89 0 161 31t123 86.5t78.5 133.5t27.5 173v266z" />
    <glyph glyph-name="Omega" unicode="&#x3a9;" horiz-adv-x="1744" 
d="M527 149v37q-65 42 -120 103.5t-94.5 141t-61.5 176.5t-22 210q0 86 15.5 169.5t48 158t83.5 137.5t123 109t165.5 71.5t210.5 25.5t210 -25.5t164 -71t121.5 -108.5t82.5 -137.5t47 -157.5t15 -169q0 -114 -23 -211.5t-63.5 -177t-96.5 -141t-122 -103.5v-37h93
q58 0 98.5 13t69 38.5t48 63t35.5 86.5h74l-42 -350h-606v118q88 48 150.5 118t102.5 156.5t59 185t19 203.5q0 145 -25 259.5t-78 194t-135.5 122t-197.5 42.5t-198.5 -42.5t-137.5 -122t-79.5 -194t-25.5 -259.5q0 -55 5.5 -116.5t19.5 -124.5t38.5 -124.5t61 -117
t87.5 -102t119 -78.5v-118h-587l-42 350h74q16 -49 35.5 -86.5t48.5 -63t69.5 -38.5t97.5 -13h66z" />
    <glyph glyph-name="Iotadieresis" unicode="&#x3aa;" horiz-adv-x="686" 
d="M250 1279q0 33 -3.5 54t-10.5 32.5t-17.5 16t-25.5 4.5h-30v80h359v-80h-29q-15 0 -25.5 -4.5t-17.5 -16t-10.5 -32.5t-3.5 -54v-1092q0 -33 3.5 -54t10.5 -32.5t17.5 -16t25.5 -4.5h29v-80h-359v80h30q15 0 25.5 4.5t17.5 16t10.5 32.5t3.5 54v1092zM58 1773
q0 55 30.5 87t84.5 32q56 0 87.5 -32t31.5 -87q0 -54 -31.5 -84.5t-87.5 -30.5q-54 0 -84.5 30.5t-30.5 84.5zM390 1773q0 55 30.5 87t84.5 32q56 0 87.5 -32t31.5 -87q0 -54 -31.5 -84.5t-87.5 -30.5q-54 0 -84.5 30.5t-30.5 84.5z" />
    <glyph glyph-name="Upsilondieresis" unicode="&#x3ab;" horiz-adv-x="1423" 
d="M1097 1250q36 74 30.5 105t-38.5 31h-12v80h337v-80h-5q-17 0 -34 -5.5t-38 -23.5t-48.5 -52t-66.5 -91q-41 -59 -86.5 -118.5t-99 -123t-115.5 -132.5t-135 -148v-505q0 -18 2 -37t8 -34.5t17 -25.5t29 -10h30v-80h-359v80h30q18 0 29 10t17.5 25.5t8.5 34.5t2 37v505
q-140 152 -268 308t-226 318q-13 21 -22 34.5t-16 21t-13 10t-13 2.5h-31v80h342v-80h-26q-20 0 -25.5 -16.5t17.5 -51.5q40 -63 91.5 -132.5t108.5 -139t117 -134.5t118 -119q55 57 104 112t92 111t80 114t67 120zM414 1773q0 55 30.5 87t84.5 32q56 0 87.5 -32t31.5 -87
q0 -54 -31.5 -84.5t-87.5 -30.5q-54 0 -84.5 30.5t-30.5 84.5zM746 1773q0 55 30.5 87t84.5 32q56 0 87.5 -32t31.5 -87q0 -54 -31.5 -84.5t-87.5 -30.5q-54 0 -84.5 30.5t-30.5 84.5z" />
    <glyph glyph-name="alphatonos" unicode="&#x3ac;" horiz-adv-x="1387" 
d="M552 -22q-84 0 -162 30t-138 96.5t-96 171.5t-36 255q0 138 34.5 242t95 173t142 103.5t176.5 34.5q126 0 222.5 -60.5t143.5 -172.5l46 211h222v-75h-28q-21 0 -31.5 -10.5t-18.5 -42.5l-85 -338l102 -450q8 -38 27.5 -54t45.5 -16q15 0 31.5 4t34.5 11v-70
q-32 -20 -66.5 -31.5t-69.5 -11.5q-45 0 -74.5 13.5t-49 37.5t-31 57t-19.5 71l-34 154q-57 -166 -154 -249.5t-230 -83.5zM566 986q-84 0 -136 -42t-81.5 -108t-40 -146.5t-10.5 -158.5q0 -104 16 -188.5t48.5 -144t80.5 -91.5t111 -32q57 0 101.5 21t79.5 66.5t62.5 119
t50.5 178.5l27 123l-27 121q-13 57 -36.5 108t-58.5 90t-82 61.5t-105 22.5zM633 1466h223l-276 -289h-105z" />
    <glyph glyph-name="epsilontonos" unicode="&#x3ad;" horiz-adv-x="999" 
d="M552 996q-43 0 -79.5 -14t-63.5 -38.5t-42 -59t-15 -74.5q0 -55 17 -91t43 -57t57 -29.5t58 -8.5q14 3 29 5.5t31 2.5t31 -3t26.5 -9.5t18.5 -17.5t7 -27q0 -35 -23 -48.5t-55 -13.5q-16 0 -32.5 2.5t-32.5 7.5q-68 0 -112 -19.5t-70 -49.5t-36 -66.5t-10 -69.5
q0 -81 34.5 -128t87 -70.5t115.5 -30t121 -6.5q75 0 135 12t107 29v-101q-24 -9 -61.5 -17t-82 -14t-93 -10t-94.5 -4q-107 0 -190.5 27.5t-140.5 73t-87 104.5t-30 121q0 45 12.5 89t41 82.5t74 67t112.5 42.5q-36 9 -69.5 28.5t-60 48.5t-42 67t-15.5 84q0 54 25 103
t74 86.5t121.5 59.5t166.5 22q43 0 76 -3.5t62.5 -7.5t58 -7.5t62.5 -3.5l24 -238h-80q-17 45 -36 77.5t-43.5 53.5t-56.5 31t-75 10zM501 1466h223l-276 -289h-105z" />
    <glyph glyph-name="etatonos" unicode="&#x3ae;" horiz-adv-x="1180" 
d="M352 174q0 -31 3 -50t10 -30t16.5 -15t23.5 -4h27v-75h-333v75h28q13 0 23 4t17 15t10 30t3 50v714q0 31 -3 50t-10 30t-17 15t-23 4h-28v75h235v-89q30 25 63 45.5t71.5 35t84 22.5t99.5 8q86 0 152 -24t110.5 -70t67.5 -111.5t23 -149.5v-962q0 -31 3 -50t10 -30
t16.5 -15t23.5 -4h27v-75h-333v75h28q13 0 23 4t17 15t10 30t3 50v956q0 60 -13 108.5t-41 82.5t-72 52.5t-105 18.5q-137 0 -250 -92v-719zM668 1466h223l-276 -289h-105z" />
    <glyph glyph-name="iotatonos" unicode="&#x3af;" horiz-adv-x="552" 
d="M362 1062v-888q0 -31 3 -50t10 -30t16.5 -15t23.5 -4h27v-75h-333v75h28q13 0 23 4t17 15t10 30t3 50v714q0 31 -3 50t-10 30t-17 15t-23 4h-28v75h253zM256 1466h223l-276 -289h-105z" />
    <glyph glyph-name="upsilondieresistonos" unicode="&#x3b0;" horiz-adv-x="1185" 
d="M180 888q0 31 -3 50t-10 30t-17 15t-23 4h-28v75h253v-707q0 -57 8 -109t35 -91.5t78.5 -63t138.5 -23.5q58 0 109.5 21.5t89.5 72.5t60 135.5t22 209.5q0 57 -4.5 119t-19.5 131t-44.5 145t-80.5 160h90q69 -74 113.5 -146.5t70.5 -144t36 -141.5t10 -139
q0 -127 -38 -223t-101 -160.5t-144.5 -97t-168.5 -32.5q-100 0 -180 25.5t-136 75t-86 121t-30 163.5v525zM555 1467h223l-276 -289h-105z" />
    <glyph glyph-name="alpha" unicode="&#x3b1;" horiz-adv-x="1387" 
d="M552 -22q-84 0 -162 30t-138 96.5t-96 171.5t-36 255q0 138 34.5 242t95 173t142 103.5t176.5 34.5q126 0 222.5 -60.5t143.5 -172.5l46 211h222v-75h-28q-21 0 -31.5 -10.5t-18.5 -42.5l-85 -338l102 -450q8 -38 27.5 -54t45.5 -16q15 0 31.5 4t34.5 11v-70
q-32 -20 -66.5 -31.5t-69.5 -11.5q-45 0 -74.5 13.5t-49 37.5t-31 57t-19.5 71l-34 154q-57 -166 -154 -249.5t-230 -83.5zM566 986q-84 0 -136 -42t-81.5 -108t-40 -146.5t-10.5 -158.5q0 -104 16 -188.5t48.5 -144t80.5 -91.5t111 -32q57 0 101.5 21t79.5 66.5t62.5 119
t50.5 178.5l27 123l-27 121q-13 57 -36.5 108t-58.5 90t-82 61.5t-105 22.5z" />
    <glyph glyph-name="beta" unicode="&#x3b2;" horiz-adv-x="1223" 
d="M175 1108q0 104 33 176.5t87 117.5t123.5 65.5t142.5 20.5q87 0 156.5 -23.5t117.5 -66t74 -102t26 -131.5t-22 -124t-55 -87.5t-72 -56t-73 -27.5q62 -4 132 -29t129 -73.5t98 -123t39 -177.5q0 -132 -39 -225t-105.5 -151.5t-156.5 -85.5t-192 -27q-72 0 -143 19
t-128 55v-285q0 -31 3 -50t10 -30t16.5 -15t23.5 -4h27v-75h-333v75h28q13 0 23 4t17 15t10 30t3 50v1341zM611 87q64 0 122 20t101.5 65t69 116.5t25.5 173.5q0 85 -23 150.5t-70.5 110.5t-120.5 68t-174 23v94q54 0 94.5 19t67 52t40 78.5t13.5 99.5q0 120 -50.5 180.5
t-144.5 60.5q-47 0 -86 -13.5t-67.5 -43t-44.5 -76.5t-16 -114v-996q64 -37 127 -52.5t137 -15.5z" />
    <glyph glyph-name="gamma" unicode="&#x3b3;" horiz-adv-x="1143" 
d="M158 907q-7 29 -16 45.5t-19 24t-19 9t-15 1.5h-27v75h236q9 -60 28.5 -142t45 -173t55 -184.5t59 -177t56 -150.5t47.5 -105q18 38 37 86.5t38 101.5t37.5 109t34.5 109t30.5 101t24.5 87q21 77 30.5 126t9.5 78q0 35 -11.5 47t-31.5 12h-31v75h299v-75h-29
q-11 0 -20 -3t-18.5 -16.5t-21 -41.5t-27.5 -79q-31 -94 -65.5 -196t-73 -207t-80.5 -210.5t-88 -206.5v-260q0 -31 3 -50t10 -30t16.5 -15t23.5 -4h27v-75h-333v75h28q13 0 23 4t17 15t10 30t3 50v258q-56 122 -104 248t-86.5 243t-67 218t-45.5 173z" />
    <glyph glyph-name="delta" unicode="&#x3b4;" horiz-adv-x="1197" 
d="M571 1488q63 0 119 -7t103 -18t84 -24t62 -26v-81q-84 35 -168 52t-178 17q-48 0 -88.5 -6.5t-69 -20.5t-44.5 -35.5t-16 -52.5q0 -38 33 -70t86.5 -62t122 -61.5t139.5 -68.5q66 -35 124.5 -81t102 -110t69 -149t25.5 -198q0 -101 -28 -192.5t-86.5 -162t-149 -112
t-215.5 -41.5q-131 0 -222 42t-148 115t-82.5 172t-25.5 214q0 81 15.5 158t49.5 143t88.5 117t131.5 81q-42 22 -77 45.5t-61 52t-40.5 62t-14.5 74.5q0 66 32.5 111t84.5 72.5t115.5 39t126.5 11.5zM298 521q0 -96 13.5 -179t47.5 -143.5t92 -95.5t147 -35q83 0 142 30
t97 81.5t55.5 122t17.5 151.5q0 84 -14.5 150.5t-43.5 119t-74 93.5t-105 74q-40 22 -80.5 41.5t-80.5 37.5q-69 -23 -111 -69.5t-65 -107t-30.5 -131t-7.5 -140.5z" />
    <glyph glyph-name="epsilon" unicode="&#x3b5;" horiz-adv-x="999" 
d="M552 996q-43 0 -79.5 -14t-63.5 -38.5t-42 -59t-15 -74.5q0 -55 17 -91t43 -57t57 -29.5t58 -8.5q14 3 29 5.5t31 2.5t31 -3t26.5 -9.5t18.5 -17.5t7 -27q0 -35 -23 -48.5t-55 -13.5q-16 0 -32.5 2.5t-32.5 7.5q-68 0 -112 -19.5t-70 -49.5t-36 -66.5t-10 -69.5
q0 -81 34.5 -128t87 -70.5t115.5 -30t121 -6.5q75 0 135 12t107 29v-101q-24 -9 -61.5 -17t-82 -14t-93 -10t-94.5 -4q-107 0 -190.5 27.5t-140.5 73t-87 104.5t-30 121q0 45 12.5 89t41 82.5t74 67t112.5 42.5q-36 9 -69.5 28.5t-60 48.5t-42 67t-15.5 84q0 54 25 103
t74 86.5t121.5 59.5t166.5 22q43 0 76 -3.5t62.5 -7.5t58 -7.5t62.5 -3.5l24 -238h-80q-17 45 -36 77.5t-43.5 53.5t-56.5 31t-75 10z" />
    <glyph glyph-name="zeta" unicode="&#x3b6;" horiz-adv-x="927" 
d="M957 1384q-142 -143 -266 -286t-215.5 -277.5t-144 -255.5t-52.5 -219q0 -63 26.5 -103.5t70 -66.5t99 -42t114 -29.5t114 -29t99 -41.5t70 -66t26.5 -103q0 -41 -11.5 -79.5t-29.5 -74t-41 -65.5t-47 -53h-104q24 21 44.5 47.5t35.5 57t24 64t9 68.5q0 50 -29 78.5
t-76 44t-107.5 24t-123.5 19t-123.5 28t-107.5 51.5t-76 90t-29 144q0 90 39 190.5t114.5 216t186.5 249t254 290.5q9 10 13.5 22.5t4.5 24.5q0 26 -17.5 47.5t-47.5 21.5h-504v95h762z" />
    <glyph glyph-name="eta" unicode="&#x3b7;" horiz-adv-x="1180" 
d="M352 174q0 -31 3 -50t10 -30t16.5 -15t23.5 -4h27v-75h-333v75h28q13 0 23 4t17 15t10 30t3 50v714q0 31 -3 50t-10 30t-17 15t-23 4h-28v75h235v-89q30 25 63 45.5t71.5 35t84 22.5t99.5 8q86 0 152 -24t110.5 -70t67.5 -111.5t23 -149.5v-962q0 -31 3 -50t10 -30
t16.5 -15t23.5 -4h27v-75h-333v75h28q13 0 23 4t17 15t10 30t3 50v956q0 60 -13 108.5t-41 82.5t-72 52.5t-105 18.5q-137 0 -250 -92v-719z" />
    <glyph glyph-name="theta" unicode="&#x3b8;" horiz-adv-x="1214" 
d="M598 -22q-109 0 -194.5 42t-144 132t-89 231t-30.5 339q0 192 30.5 336t89.5 239.5t145 143t196 47.5q229 0 346 -190.5t117 -575.5q0 -198 -32 -339t-92 -231t-146.5 -132t-195.5 -42zM598 66q79 0 132 35t86 109.5t47.5 191.5t16.5 282h-555q1 -165 14.5 -282
t44.5 -191.5t83 -109.5t131 -35zM598 1401q-78 0 -129.5 -40.5t-83 -119.5t-45 -195t-15.5 -267h554q-2 151 -17 267t-48 195t-86 119.5t-130 40.5z" />
    <glyph glyph-name="iota" unicode="&#x3b9;" horiz-adv-x="552" 
d="M362 1062v-888q0 -31 3 -50t10 -30t16.5 -15t23.5 -4h27v-75h-333v75h28q13 0 23 4t17 15t10 30t3 50v714q0 31 -3 50t-10 30t-17 15t-23 4h-28v75h253z" />
    <glyph glyph-name="kappa" unicode="&#x3ba;" horiz-adv-x="1167" 
d="M997 130q8 -20 16.5 -31t16 -16.5t14.5 -6.5t13 -1h27v-75h-333v75h19q46 0 46 33q0 25 -24 75t-68 110.5t-106.5 125.5t-138.5 120q-30 -9 -59.5 -14t-57.5 -5v-346q0 -31 3 -50t10 -30t16.5 -15t23.5 -4h27v-75h-333v75h28q13 0 23 4t17 15t10 30t3 50v714q0 31 -3 50
t-10 30t-17 15t-23 4h-28v75h333v-75h-27q-14 0 -23.5 -4t-16.5 -15t-10 -30t-3 -50v-278q59 0 121.5 24t119 64t102.5 92.5t72 109.5q12 27 12 47t-9.5 30t-24.5 10h-31v75h319v-75h-29q-11 0 -20.5 -5.5t-20.5 -18t-26 -33.5t-36 -51q-27 -39 -59 -76t-68.5 -71t-76 -65
t-79.5 -56q75 -54 135.5 -119.5t106.5 -131.5t77.5 -126t49.5 -104z" />
    <glyph glyph-name="lambda" unicode="&#x3bb;" horiz-adv-x="1102" 
d="M957 155q7 -29 16.5 -45.5t19 -24t18.5 -9t15 -1.5h27v-75h-333v75h19q26 0 37.5 9t11.5 32q0 17 -4 37q-11 56 -34.5 143t-56.5 191.5t-74.5 220t-88.5 229.5q-32 -73 -63.5 -156.5t-59.5 -165t-50 -154t-33 -123.5q-18 -81 -26.5 -131.5t-8.5 -79.5q0 -32 9.5 -42
t28.5 -10h31v-75h-299v75h29q11 0 20.5 2.5t19 16t21 42t26.5 79.5q59 199 136 408.5t175 416.5q-37 83 -76 158.5t-80 138.5q-22 34 -36.5 44t-27.5 10h-27v75h208q67 -112 136.5 -254t135.5 -309t126.5 -355.5t111.5 -392.5z" />
    <glyph glyph-name="mu" unicode="&#x3bc;" horiz-adv-x="1222" 
d="M295 -22q0 -52 6 -107t17 -100t28 -74t40 -29h27v-75h-298v75h28q13 0 23 24t17 61.5t10 83.5t3 91v960q0 31 -3 50t-10 30t-17 15t-23 4h-28v75h253v-743q0 -112 54.5 -177t174.5 -65q57 0 103.5 15.5t79.5 41t51 58.5t18 68v628q0 31 -3 50t-10 30t-17 15t-23 4h-28v75
h253v-888q0 -31 3 -50t10 -30t16.5 -15t23.5 -4h28v-75h-235v108q-55 -68 -134 -99t-184 -31q-83 0 -146 21.5t-108 63.5v-85z" />
    <glyph glyph-name="nu" unicode="&#x3bd;" horiz-adv-x="1024" 
d="M539 -22h-69q-66 132 -122.5 263.5t-101.5 253t-78 227t-52 185.5q-7 29 -16 45.5t-19 24t-19 9t-15 1.5h-27v75h242q5 -64 24.5 -146.5t46 -170t58 -175.5t61.5 -163.5t55 -132.5t40 -84q27 58 56 127t56 140t50.5 140t39.5 127q21 77 30.5 126t9.5 78q0 35 -11.5 47
t-31.5 12h-31v75h299v-75h-29q-11 0 -20 -3t-18.5 -16.5t-21 -41.5t-27.5 -79q-70 -216 -160 -431.5t-199 -437.5z" />
    <glyph glyph-name="xi" unicode="&#x3be;" horiz-adv-x="959" 
d="M909 -145q0 -43 -12.5 -82t-31 -72.5t-41 -60.5t-42.5 -47h-100q24 25 45 55t36 62t23.5 64t8.5 61q0 46 -29 74t-76.5 46.5t-108 32t-124 31t-124 43.5t-108 69t-76.5 108t-29 160q0 96 37 171.5t97 128t136.5 82t156.5 34.5q-26 3 -61 9.5t-72.5 19.5t-74 34.5
t-65.5 54t-47 78t-18 106.5q0 50 18 92.5t47 75t66 54.5t75 32h-293v95h735v-95h-241q-29 0 -68.5 -14.5t-75 -45t-60.5 -79t-25 -115.5q0 -68 21 -116.5t57 -80t83 -46.5t99 -15h213v-95h-213q-84 0 -148.5 -26t-109 -70.5t-67.5 -102.5t-23 -122q0 -80 26 -134.5t69 -92.5
t98 -62.5t112 -44.5t112 -40t98 -47.5t69 -67t26 -99.5z" />
    <glyph glyph-name="omicron" unicode="&#x3bf;" horiz-adv-x="1196" 
d="M120 531q0 115 25.5 215.5t82.5 175.5t148 118.5t222 43.5q130 0 221 -43.5t148 -118.5t83 -175.5t26 -215.5t-26 -215.5t-83 -175.5t-148 -118.5t-221 -43.5q-131 0 -222 43.5t-148 118.5t-82.5 175.5t-25.5 215.5zM298 531q0 -96 13 -180.5t46.5 -147t91.5 -99
t149 -36.5t149 36.5t91.5 99t46.5 147t13 180.5t-13 180.5t-46.5 147t-92 99t-148.5 36.5t-148.5 -36.5t-92 -99t-46.5 -147t-13 -180.5z" />
    <glyph glyph-name="pi" unicode="&#x3c0;" horiz-adv-x="1272" 
d="M1109 72q26 0 52 5.5t60 23.5v-80q-32 -20 -68 -31.5t-76 -11.5q-77 0 -123 23.5t-70.5 60.5t-32.5 83.5t-8 92.5v650q0 26 -3 41.5t-10 24t-17 11t-23 2.5h-345q-14 0 -23.5 -2.5t-16.5 -11t-10 -24t-3 -41.5v-714q0 -31 3 -50t10 -30t16.5 -15t23.5 -4h27v-75h-333v75
h28q13 0 23 4t17 15t10 30t3 50v714q0 26 -3 41.5t-10 24t-17 11t-23 2.5h-64v95h1068v-95h-103q-14 0 -23.5 -2.5t-16.5 -11t-10 -24t-3 -41.5v-695q0 -17 2 -38t11 -39.5t28 -31t53 -12.5z" />
    <glyph glyph-name="rho" unicode="&#x3c1;" horiz-adv-x="1224" 
d="M343 136q45 -35 104 -52t128 -17q83 0 148.5 25.5t110.5 81t68.5 143t23.5 212.5q0 126 -22.5 214.5t-62.5 144t-94 81t-117 25.5q-54 0 -105.5 -16t-92 -61.5t-65 -127.5t-24.5 -215v-438zM343 -233q0 -31 3 -50t10 -30t16.5 -15t23.5 -4h27v-75h-333v75h28q13 0 23 4
t17 15t10 30t3 50v807q0 146 38.5 244t102.5 157t146.5 84t171.5 25q59 0 117 -12t110.5 -38.5t98 -69t78.5 -104t51.5 -144t18.5 -187.5q0 -109 -20.5 -192.5t-57 -144.5t-85.5 -102t-106.5 -66t-120.5 -35.5t-127 -10.5q-65 0 -125.5 10.5t-118.5 30.5v-252z" />
    <glyph glyph-name="sigma1" unicode="&#x3c2;" horiz-adv-x="1064" 
d="M929 -145q0 -38 -12 -76t-30.5 -73t-40 -64.5t-40.5 -48.5h-104q30 30 51 63.5t35 66t20.5 61.5t6.5 51q0 49 -30.5 76t-80.5 45t-114 31.5t-130.5 34.5t-130.5 54.5t-114 91.5t-80.5 146t-30.5 217q0 115 29.5 216t92 176t159.5 118t232 43q52 0 88 -3.5t69 -7.5
t70 -7.5t91 -3.5l24 -238h-80q-16 33 -34.5 64t-47.5 54.5t-72 38t-108 14.5q-91 0 -154.5 -30.5t-103.5 -90t-58 -146t-18 -197.5q0 -83 18 -144t49 -105.5t72.5 -75.5t88 -53t95.5 -38.5t95.5 -32.5t88 -34t72.5 -44t49 -62t18 -87z" />
    <glyph glyph-name="sigma" unicode="&#x3c3;" horiz-adv-x="1193" 
d="M820 967q57 -27 103.5 -77.5t79.5 -115.5t51.5 -140.5t18.5 -151.5q0 -95 -27 -185.5t-84 -161.5t-147 -114t-216 -43q-107 0 -195.5 33.5t-151.5 102t-97.5 172.5t-34.5 245q0 100 20 178t54.5 137t81 100.5t98.5 67t107.5 37t108.5 11.5h465v-95h-235zM897 524
q0 57 -14.5 123.5t-46 128t-80 113t-117.5 78.5h-58q-65 0 -117 -30t-89.5 -86.5t-57.5 -137.5t-20 -183q0 -120 19 -207.5t57 -144t94.5 -83.5t131.5 -27q149 0 223.5 110t74.5 346z" />
    <glyph glyph-name="tau" unicode="&#x3c4;" horiz-adv-x="887" 
d="M606 72q71 0 132 29v-80q-34 -18 -75 -30.5t-89 -12.5q-81 0 -131 23.5t-77 60.5t-36.5 83.5t-9.5 92.5v719h-292v105h805v-105h-341v-764q0 -17 3.5 -38t15.5 -39.5t34.5 -31t60.5 -12.5z" />
    <glyph glyph-name="upsilon" unicode="&#x3c5;" horiz-adv-x="1185" 
d="M180 888q0 31 -3 50t-10 30t-17 15t-23 4h-28v75h253v-707q0 -57 8 -109t35 -91.5t78.5 -63t138.5 -23.5q58 0 109.5 21.5t89.5 72.5t60 135.5t22 209.5q0 57 -4.5 119t-19.5 131t-44.5 145t-80.5 160h90q69 -74 113.5 -146.5t70.5 -144t36 -141.5t10 -139
q0 -127 -38 -223t-101 -160.5t-144.5 -97t-168.5 -32.5q-100 0 -180 25.5t-136 75t-86 121t-30 163.5v525z" />
    <glyph glyph-name="phi" unicode="&#x3c6;" horiz-adv-x="1518" 
d="M845 86q86 9 155.5 37.5t118 82t75 133.5t26.5 192q0 108 -24 192t-64.5 141t-95.5 87t-116 30q-33 0 -54 -24.5t-21 -88.5v-782zM673 -10q-138 10 -241.5 52.5t-173 112t-104 164.5t-34.5 212q0 111 29 203t87.5 162t146.5 115.5t205 62.5v-99q-65 -14 -118 -46.5
t-91.5 -86.5t-59.5 -131t-21 -180q0 -112 25.5 -192t74 -133.5t118 -82t157.5 -37.5v789q0 57 15.5 96.5t42.5 63.5t64 35t81 11q118 0 214.5 -42t164.5 -115.5t105.5 -174t37.5 -218.5q0 -121 -37 -216.5t-107.5 -164.5t-173.5 -109.5t-235 -50.5v-223q0 -31 3 -50t10 -30
t16.5 -15t23.5 -4h27v-75h-333v75h28q13 0 23 4t17 15t10 30t3 50v223z" />
    <glyph glyph-name="chi" unicode="&#x3c7;" horiz-adv-x="1182" 
d="M313 -227q-5 -17 -8 -30.5t-3 -25.5q0 -24 11 -36.5t28 -12.5h31v-75h-342v75h29q10 0 24 4.5t30 16.5t33.5 33t35.5 54q75 140 163 280.5t176 277.5q-53 84 -104 165.5t-97.5 157.5t-87 145.5t-70.5 129.5q-10 19 -21 30t-21.5 16.5t-19 7t-14.5 1.5h-27v75h234
q27 -60 63.5 -127t78.5 -139t89 -149t96 -156q66 107 121 204.5t90 183.5q18 45 18 71q0 37 -32 37h-31v75h338v-75h-29q-14 0 -28.5 -4.5t-30 -16.5t-33 -33t-37.5 -54q-62 -101 -141 -218.5t-160 -242.5q53 -86 106 -173.5t103 -175t95 -174.5t83 -172q9 -20 19 -31
t20.5 -16t19 -6.5t14.5 -1.5h27v-75h-338v75h19q20 0 27 7.5t7 18.5q0 15 -10 37q-58 128 -134 262t-158 268q-83 -133 -150 -257.5t-102 -230.5z" />
    <glyph glyph-name="psi" unicode="&#x3c8;" horiz-adv-x="1537" 
d="M180 888q0 31 -3 50t-10 30t-17 15t-23 4h-28v75h253v-607q0 -99 21 -168.5t64 -115.5t109 -69.5t156 -30.5v817q0 31 -3 50t-10 30t-17 15t-23 4h-28v75h253v-990q88 8 157 35t116.5 78.5t72.5 130.5t25 191q0 57 -4.5 119t-19.5 131t-44.5 145t-80.5 160h90
q68 -73 112.5 -145.5t70.5 -144t36.5 -141.5t10.5 -139q0 -117 -36.5 -208.5t-106 -155.5t-170 -101t-229.5 -46v-214q0 -31 3 -50t10 -30t16.5 -15t23.5 -4h27v-75h-333v75h28q13 0 23 4t17 15t10 30t3 50v214q-140 9 -239 46t-162 99.5t-92 147.5t-29 189v425z" />
    <glyph glyph-name="omega" unicode="&#x3c9;" horiz-adv-x="1572" 
d="M700 637h172v-209q0 -99 15.5 -168t42.5 -112t63 -62t76 -19q55 0 94.5 25.5t65.5 79.5t38.5 137t12.5 197q0 57 -7 119.5t-24.5 131.5t-46 145t-71.5 160h90q70 -75 115 -149t70.5 -147t35.5 -145t10 -142q0 -116 -24 -209t-70.5 -158t-114 -99.5t-153.5 -34.5
q-64 0 -113 17t-85.5 48.5t-62 75t-43.5 96.5q-18 -53 -43.5 -96.5t-62 -75t-85.5 -48.5t-113 -17q-87 0 -154 35t-113.5 100t-70.5 158.5t-24 210.5q0 70 11 141.5t39 143.5t74 146t117 149h80q-43 -84 -71.5 -160t-46 -145t-24.5 -131.5t-7 -119.5q0 -229 50.5 -334
t160.5 -105q39 0 75 19.5t63 62t43 111.5t16 168v209z" />
    <glyph glyph-name="iotadieresis" unicode="&#x3ca;" horiz-adv-x="552" 
d="M362 1062v-888q0 -31 3 -50t10 -30t16.5 -15t23.5 -4h27v-75h-333v75h28q13 0 23 4t17 15t10 30t3 50v714q0 31 -3 50t-10 30t-17 15t-23 4h-28v75h253zM-18 1369q0 55 30.5 87t84.5 32q56 0 87.5 -32t31.5 -87q0 -54 -31.5 -84.5t-87.5 -30.5q-54 0 -84.5 30.5
t-30.5 84.5zM314 1369q0 55 30.5 87t84.5 32q56 0 87.5 -32t31.5 -87q0 -54 -31.5 -84.5t-87.5 -30.5q-54 0 -84.5 30.5t-30.5 84.5z" />
    <glyph glyph-name="upsilondieresis" unicode="&#x3cb;" horiz-adv-x="1185" 
d="M180 888q0 31 -3 50t-10 30t-17 15t-23 4h-28v75h253v-707q0 -57 8 -109t35 -91.5t78.5 -63t138.5 -23.5q58 0 109.5 21.5t89.5 72.5t60 135.5t22 209.5q0 57 -4.5 119t-19.5 131t-44.5 145t-80.5 160h90q69 -74 113.5 -146.5t70.5 -144t36 -141.5t10 -139
q0 -127 -38 -223t-101 -160.5t-144.5 -97t-168.5 -32.5q-100 0 -180 25.5t-136 75t-86 121t-30 163.5v525zM287 1369q0 55 30.5 87t84.5 32q56 0 87.5 -32t31.5 -87q0 -54 -31.5 -84.5t-87.5 -30.5q-54 0 -84.5 30.5t-30.5 84.5zM619 1369q0 55 30.5 87t84.5 32
q56 0 87.5 -32t31.5 -87q0 -54 -31.5 -84.5t-87.5 -30.5q-54 0 -84.5 30.5t-30.5 84.5z" />
    <glyph glyph-name="omicrontonos" unicode="&#x3cc;" horiz-adv-x="1196" 
d="M120 531q0 115 25.5 215.5t82.5 175.5t148 118.5t222 43.5q130 0 221 -43.5t148 -118.5t83 -175.5t26 -215.5t-26 -215.5t-83 -175.5t-148 -118.5t-221 -43.5q-131 0 -222 43.5t-148 118.5t-82.5 175.5t-25.5 215.5zM298 531q0 -96 13 -180.5t46.5 -147t91.5 -99
t149 -36.5t149 36.5t91.5 99t46.5 147t13 180.5t-13 180.5t-46.5 147t-92 99t-148.5 36.5t-148.5 -36.5t-92 -99t-46.5 -147t-13 -180.5zM585 1466h223l-276 -289h-105z" />
    <glyph glyph-name="upsilontonos" unicode="&#x3cd;" horiz-adv-x="1185" 
d="M180 888q0 31 -3 50t-10 30t-17 15t-23 4h-28v75h253v-707q0 -57 8 -109t35 -91.5t78.5 -63t138.5 -23.5q58 0 109.5 21.5t89.5 72.5t60 135.5t22 209.5q0 57 -4.5 119t-19.5 131t-44.5 145t-80.5 160h90q69 -74 113.5 -146.5t70.5 -144t36 -141.5t10 -139
q0 -127 -38 -223t-101 -160.5t-144.5 -97t-168.5 -32.5q-100 0 -180 25.5t-136 75t-86 121t-30 163.5v525zM582 1466h223l-276 -289h-105z" />
    <glyph glyph-name="omegatonos" unicode="&#x3ce;" horiz-adv-x="1572" 
d="M700 637h172v-209q0 -99 15.5 -168t42.5 -112t63 -62t76 -19q55 0 94.5 25.5t65.5 79.5t38.5 137t12.5 197q0 57 -7 119.5t-24.5 131.5t-46 145t-71.5 160h90q70 -75 115 -149t70.5 -147t35.5 -145t10 -142q0 -116 -24 -209t-70.5 -158t-114 -99.5t-153.5 -34.5
q-64 0 -113 17t-85.5 48.5t-62 75t-43.5 96.5q-18 -53 -43.5 -96.5t-62 -75t-85.5 -48.5t-113 -17q-87 0 -154 35t-113.5 100t-70.5 158.5t-24 210.5q0 70 11 141.5t39 143.5t74 146t117 149h80q-43 -84 -71.5 -160t-46 -145t-24.5 -131.5t-7 -119.5q0 -229 50.5 -334
t160.5 -105q39 0 75 19.5t63 62t43 111.5t16 168v209zM781 1466h223l-276 -289h-105z" />
    <glyph glyph-name="theta1" unicode="&#x3d1;" horiz-adv-x="1282" 
d="M110 530v58q82 0 133.5 -22.5t83 -59t48.5 -83.5t28.5 -96t23.5 -96t34 -83.5t59 -59t99 -22.5q69 0 117 29t78.5 88t46.5 148.5t22 210.5q-63 22 -131 38.5t-135 31.5q-79 18 -156.5 45t-138.5 73.5t-98.5 118.5t-37.5 179q0 106 32 191t88.5 145t134 92t168.5 32
q120 0 207.5 -52t144 -149.5t84 -237.5t27.5 -317q0 -38 -1.5 -73.5t-3.5 -70.5q58 -46 86 -118.5t29 -187.5h-54q0 54 -20.5 95t-55.5 73q-37 -229 -143 -350.5t-290 -121.5q-89 0 -151.5 23.5t-105 62.5t-69 88.5t-44 101.5t-29.5 101.5t-26 88.5t-33 62.5t-51 23.5z
M887 732q0 188 -18 316t-53.5 206.5t-87.5 112.5t-119 34q-57 0 -104 -21.5t-80.5 -65t-52 -109t-18.5 -152.5q0 -81 24.5 -137t65 -93t92.5 -58t108 -33q70 -15 130.5 -29t111.5 -29q0 14 0.5 28.5t0.5 29.5z" />
    <glyph glyph-name="Upsilon1" unicode="&#x3d2;" horiz-adv-x="1305" 
d="M540 679q0 96 -20 185.5t-54.5 168t-80 143.5t-96 111.5t-102.5 72.5t-101 26h-31v80h221q50 0 110 -36t114.5 -98t96 -145t56.5 -177q27 99 70 186t102 152t133 102.5t163 37.5q43 0 76 -6t56 -14v-108q-16 7 -29 12t-26.5 8.5t-29 5.5t-36.5 2q-63 0 -117.5 -29.5
t-99.5 -80.5t-80 -118.5t-59.5 -143t-37 -154.5t-12.5 -153v-522q0 -18 2 -37t8 -34.5t17 -25.5t29 -10h30v-80h-359v80h30q18 0 29 10t17.5 25.5t8.5 34.5t2 37v492z" />
    <glyph glyph-name="uni03F0" unicode="&#x3f0;" horiz-adv-x="1271" 
d="M152 -32v258q18 28 42 58.5t53 64.5v328q0 30 -2.5 64.5t-7.5 69t-13 66.5t-18 56.5t-22.5 39t-27.5 14.5h-27v75h298v-75h-28q-14 0 -23.5 -24t-16.5 -61.5t-10 -83.5t-3 -91v-269q81 83 178.5 171.5t201.5 172.5t210 159t203 132v-195q-26 -16 -55 -35.5t-61 -42.5
v-435q0 -30 2.5 -64.5t7.5 -69t13 -66.5t18 -56.5t22.5 -39t27.5 -14.5h27v-75h-298v75h28q13 0 23 24t17 61.5t10 83.5t3 91v411q-68 -54 -141.5 -116.5t-146.5 -130t-144 -137.5t-134 -139t-116 -133.5t-90 -121.5z" />
    <glyph glyph-name="uni03F1" unicode="&#x3f1;" horiz-adv-x="1236" 
d="M917 -407h-306q-92 0 -173.5 28.5t-143.5 93t-98 168.5t-36 255v403q0 115 25.5 214t82.5 172t148 115t222 42q130 0 221 -46t148 -121.5t83 -173.5t26 -202q0 -134 -33 -239t-100.5 -177t-169 -109.5t-237.5 -37.5q-80 0 -139.5 9.5t-104.5 20.5q0 -78 21 -138
t60.5 -100.5t95.5 -61t126 -20.5h282v-95zM332 138q16 -15 41.5 -28t55.5 -22.5t62.5 -15t62.5 -5.5q110 0 183.5 38t118 103t63.5 151t19 182q0 84 -13 165.5t-46.5 145t-91.5 103t-149 39.5t-150 -33.5t-93.5 -93t-48.5 -141t-14 -177.5v-411z" />
    <glyph glyph-name="afii10023" unicode="&#x401;" horiz-adv-x="1395" 
d="M862 845q30 0 56 9.5t46 30.5t34 55t20 83h74v-456h-74q-3 42 -17 75t-35 56t-47.5 35t-56.5 12h-426v-558q0 -36 10 -60.5t46 -24.5h395q64 0 110 17t78.5 47.5t54.5 72.5t38 91h74l-30 -330h-1049v80h30q18 0 29 10t17.5 25.5t8.5 34.5t2 37v1092q0 18 -2 37t-8.5 34.5
t-17.5 25.5t-29 10h-30v80h569q42 0 99 0.5t118.5 3t121.5 7.5t107 13l43 -324h-74q-16 51 -43 88.5t-61.5 62t-75 37t-83.5 12.5h-392q-36 0 -46 -25.5t-10 -61.5v-434h426zM438 1685q0 55 30.5 87t84.5 32q56 0 87.5 -32t31.5 -87q0 -54 -31.5 -84.5t-87.5 -30.5
q-54 0 -84.5 30.5t-30.5 84.5zM770 1685q0 55 30.5 87t84.5 32q56 0 87.5 -32t31.5 -87q0 -54 -31.5 -84.5t-87.5 -30.5q-54 0 -84.5 30.5t-30.5 84.5z" />
    <glyph glyph-name="afii10051" unicode="&#x402;" horiz-adv-x="1710" 
d="M407 1366q-44 0 -84 -12.5t-74.5 -37t-61.5 -62t-43 -88.5h-74l43 324q47 -8 107 -13t121.5 -7.5t118.5 -3t99 -0.5h284q42 0 99 0.5t118.5 3t121.5 7.5t107 13l43 -324h-74q-16 51 -43 88.5t-61.5 62t-75 37t-83.5 12.5h-145q-36 0 -46 -25.5t-10 -61.5v-426
q61 21 126.5 32.5t149.5 11.5q107 0 201.5 -29.5t165.5 -86.5t112 -140t41 -190q0 -99 -33.5 -182t-101 -143t-170 -93t-241.5 -33v100q92 0 157.5 26t107.5 73.5t61.5 113t19.5 144.5q0 86 -27 150.5t-74.5 108t-111.5 65t-138 21.5q-23 0 -52.5 -2t-62 -7.5t-66 -15
t-64.5 -24.5v-566q0 -33 2 -54t8 -32.5t17 -16t29 -4.5h30v-80h-359v80h30q18 0 29 4.5t17.5 16t8.5 32.5t2 54v1092q0 35 -11.5 61t-44.5 26h-145z" />
    <glyph glyph-name="afii10052" unicode="&#x403;" horiz-adv-x="1221" 
d="M523 0h-360v80h30q18 0 29 10t17.5 25.5t8.5 34.5t2 37v1092q0 18 -2 37t-8.5 34.5t-17.5 25.5t-29 10h-30v80h559q42 0 99 0.5t118.5 3t121.5 7.5t107 13l43 -324h-74q-16 51 -43 88.5t-61.5 62t-75 37t-83.5 12.5h-382q-36 0 -46 -25.5t-10 -61.5v-1092q0 -18 2 -37
t8.5 -34.5t17.5 -25.5t29 -10h30v-80zM592 1870h223l-276 -289h-105z" />
    <glyph glyph-name="afii10053" unicode="&#x404;" horiz-adv-x="1372" 
d="M778 93q141 0 249 31t196 100v-111q-25 -23 -64.5 -47t-95 -43.5t-126.5 -32t-159 -12.5q-173 0 -303 53.5t-216.5 151.5t-130 237.5t-43.5 312.5q0 157 38 294.5t121.5 240t215 161.5t318.5 59q71 0 119.5 -3.5t93.5 -7.5t95 -7.5t124 -3.5l33 -298h-74q-27 45 -58 86
t-75.5 71.5t-106.5 49t-151 18.5q-124 0 -216.5 -46t-154 -132t-92 -208t-30.5 -274t34.5 -271t98.5 -201t155 -125t205 -43z" />
    <glyph glyph-name="afii10054" unicode="&#x405;" horiz-adv-x="1349" 
d="M616 73q83 -3 160.5 8.5t135.5 47.5t88.5 101t20.5 168q-7 74 -47 121t-100.5 78t-135.5 52t-153 42t-152.5 48.5t-133.5 71.5t-97 110.5t-43 165.5q-5 96 33.5 170.5t107.5 126t163 78t202 26.5q71 0 119.5 -3.5t93.5 -7.5t95 -7.5t124 -3.5l33 -298h-74q-27 45 -58 86
t-75.5 71.5t-106.5 49t-151 18.5q-66 0 -131 -17t-114 -54t-74 -95t-9 -140q12 -63 55.5 -103.5t106.5 -69t139 -49.5t154 -44t151 -53t130 -77t91.5 -115.5t34.5 -167.5q0 -106 -39.5 -188t-114.5 -137.5t-183 -82.5t-246 -22q-47 1 -84 4.5t-68.5 7.5t-61 8t-62 8t-70.5 6
t-87 2l-33 318h79q26 -53 56.5 -98.5t74.5 -80t105.5 -55.5t150.5 -25z" />
    <glyph glyph-name="afii10055" unicode="&#x406;" horiz-adv-x="686" 
d="M250 1279q0 33 -3.5 54t-10.5 32.5t-17.5 16t-25.5 4.5h-30v80h359v-80h-29q-15 0 -25.5 -4.5t-17.5 -16t-10.5 -32.5t-3.5 -54v-1092q0 -33 3.5 -54t10.5 -32.5t17.5 -16t25.5 -4.5h29v-80h-359v80h30q15 0 25.5 4.5t17.5 16t10.5 32.5t3.5 54v1092z" />
    <glyph glyph-name="afii10056" unicode="&#x407;" horiz-adv-x="686" 
d="M250 1279q0 33 -3.5 54t-10.5 32.5t-17.5 16t-25.5 4.5h-30v80h359v-80h-29q-15 0 -25.5 -4.5t-17.5 -16t-10.5 -32.5t-3.5 -54v-1092q0 -33 3.5 -54t10.5 -32.5t17.5 -16t25.5 -4.5h29v-80h-359v80h30q15 0 25.5 4.5t17.5 16t10.5 32.5t3.5 54v1092zM41 1735
q0 55 30.5 87t84.5 32q56 0 87.5 -32t31.5 -87q0 -54 -31.5 -84.5t-87.5 -30.5q-54 0 -84.5 30.5t-30.5 84.5zM373 1735q0 55 30.5 87t84.5 32q56 0 87.5 -32t31.5 -87q0 -54 -31.5 -84.5t-87.5 -30.5q-54 0 -84.5 30.5t-30.5 84.5z" />
    <glyph glyph-name="afii10057" unicode="&#x408;" horiz-adv-x="686" 
d="M250 1279q0 33 -3.5 54t-10.5 32.5t-17.5 16t-25.5 4.5h-30v80h359v-80h-29q-15 0 -25.5 -4.5t-17.5 -16t-10.5 -32.5t-3.5 -54v-1065q0 -126 -32.5 -222t-92.5 -160.5t-144 -97t-186 -32.5q-20 0 -41 1t-41 6v101q16 -4 35.5 -6t45.5 -2q62 0 112 21.5t85 68t54 120.5
t19 179v1088z" />
    <glyph glyph-name="afii10058" unicode="&#x409;" horiz-adv-x="2301" 
d="M1134 1279q0 36 -10 61.5t-46 25.5h-456q-18 0 -29 -7t-17 -18.5t-8 -27.5t-2 -34q-4 -249 -13.5 -442.5t-28.5 -338t-49 -244t-74 -161t-104 -88.5t-139 -27q-48 0 -77.5 11t-53.5 31l-27 256h80q20 -71 57 -100.5t75 -29.5q30 0 59 15t56 59t50 122.5t40 205.5
t27.5 309t11.5 433q0 29 -6.5 48t-17.5 29.5t-25 14.5t-28 4h-30v80h1057v-80h-29q-15 0 -25.5 -4.5t-17.5 -16t-10.5 -32.5t-3.5 -54v-1095q0 -22 7.5 -38.5t39.5 -27.5t97.5 -16.5t181.5 -5.5q184 0 274.5 94t90.5 267q0 86 -27 150.5t-74.5 108t-111.5 65t-138 21.5
q-25 0 -56.5 -2.5t-66 -8.5t-69.5 -17t-68 -29v103q65 23 133.5 36t157.5 13q107 0 201.5 -29.5t165.5 -86.5t112 -140t41 -190q0 -99 -35 -182t-105 -143t-174.5 -93t-243.5 -33h-606v80h30q15 0 25.5 4.5t17.5 16t10.5 32.5t3.5 54v1092z" />
    <glyph glyph-name="afii10059" unicode="&#x40a;" horiz-adv-x="2335" 
d="M1354 1279v-1095q0 -22 7.5 -38.5t39.5 -27.5t97.5 -16.5t181.5 -5.5q184 0 274.5 94t90.5 267q0 86 -27 150.5t-74.5 108t-111.5 65t-138 21.5q-25 0 -56.5 -2.5t-66 -8.5t-69.5 -17t-68 -29v103q65 23 133.5 36t157.5 13q107 0 201.5 -29.5t165.5 -86.5t112 -140
t41 -190q0 -99 -35 -182t-105 -143t-174.5 -93t-243.5 -33h-606v80h30q15 0 25.5 4.5t17.5 16t10.5 32.5t3.5 54v558h-732v-558q0 -33 3.5 -54t10.5 -32.5t17.5 -16t25.5 -4.5h29v-80h-359v80h30q15 0 25.5 4.5t17.5 16t10.5 32.5t3.5 54v1092q0 33 -3.5 54t-10.5 32.5
t-17.5 16t-25.5 4.5h-30v80h359v-80h-29q-15 0 -25.5 -4.5t-17.5 -16t-10.5 -32.5t-3.5 -54v-434h732v434q0 33 -3.5 54t-10.5 32.5t-17.5 16t-25.5 4.5h-30v80h359v-80h-29q-15 0 -25.5 -4.5t-17.5 -16t-10.5 -32.5t-3.5 -54z" />
    <glyph glyph-name="afii10060" unicode="&#x40b;" horiz-adv-x="1824" 
d="M794 817q106 48 200.5 71t197.5 23q120 0 204.5 -24.5t138 -75.5t78 -130.5t24.5 -189.5v-304q0 -33 3.5 -54t10.5 -32.5t17.5 -16t25.5 -4.5h30v-80h-359v80h29q15 0 25.5 4.5t17.5 16t10.5 32.5t3.5 54v289q0 83 -14.5 144.5t-49 102.5t-91 61t-141.5 20q-52 0 -96 -5
t-86.5 -15.5t-85.5 -26.5t-93 -38v-532q0 -33 2 -54t8 -32.5t17 -16t29 -4.5h30v-80h-359v80h30q18 0 29 4.5t17.5 16t8.5 32.5t2 54v1102q0 35 -11.5 61t-44.5 26h-145q-43 0 -83.5 -14t-75 -40.5t-61.5 -65.5t-43 -90h-74l43 324q47 -8 107 -12.5t121.5 -7t118.5 -3.5
t99 -1h284q42 0 99 1t118.5 3.5t121.5 7t107 12.5l43 -324h-74q-16 51 -43 90t-61.5 65.5t-75 40.5t-83.5 14h-145q-36 0 -46 -25.5t-10 -61.5v-472z" />
    <glyph glyph-name="afii10061" unicode="&#x40c;" horiz-adv-x="1485" 
d="M1116 147q-6 25 -23 66.5t-45.5 93.5t-69.5 112t-94 122t-119.5 122.5t-146.5 114.5q-45 -17 -91 -25t-91 -8v-558q0 -33 3.5 -54t10.5 -32.5t17.5 -16t25.5 -4.5h29v-80h-359v80h30q15 0 25.5 4.5t17.5 16t10.5 32.5t3.5 54v1092q0 33 -3.5 54t-10.5 32.5t-17.5 16
t-25.5 4.5h-30v80h359v-80h-29q-15 0 -25.5 -4.5t-17.5 -16t-10.5 -32.5t-3.5 -54v-434q96 0 173 30t143 85q120 101 185.5 180t89 134t10 83.5t-50.5 28.5h-41v80h429v-80h-35q-34 0 -61.5 -17.5t-57 -49t-64 -76.5t-81.5 -100.5t-111 -120t-151 -135.5q-11 -8 -21 -15.5
t-21 -15.5q80 -56 147.5 -119.5t123.5 -130.5t100.5 -133t78 -126.5t56 -112t34.5 -87.5q2 -7 7.5 -18t14.5 -22t20.5 -19t26.5 -8h29v-80h-349v80h30q29 0 32 14.5t-6 52.5zM712 1870h223l-276 -289h-105z" />
    <glyph glyph-name="afii10062" unicode="&#x40e;" horiz-adv-x="1346" 
d="M698 590q107 191 189 353.5t139 306.5q16 41 16 69q0 37 -20 52t-44 15h-12v80h347v-80h-5q-17 0 -30.5 -5t-30 -22.5t-39 -51.5t-57.5 -93q-13 -22 -46 -81.5t-81 -147.5t-110 -200.5t-133 -240.5q-89 -159 -157.5 -267t-126 -174.5t-109.5 -95.5t-106 -29
q-48 0 -77.5 11t-53.5 31l-27 256h80q20 -71 57 -100.5t75 -29.5q22 0 46 11.5t52.5 39t62.5 72t76 110.5q-177 258 -295.5 487t-186.5 440q-15 47 -40 63.5t-46 16.5h-31v80h370v-80h-26q-27 0 -39 -15t-12 -37q0 -19 8 -40q28 -75 63 -155t81.5 -171.5t108.5 -196.5
t144 -228zM649 1746q35 0 71.5 5t67.5 18.5t53 37.5t28 63h92q-3 -58 -27 -105t-65 -80t-97.5 -51t-124.5 -18q-67 0 -122.5 18t-96 51t-64.5 80t-27 105h92q6 -39 28 -63t53 -37.5t67.5 -18.5t71.5 -5z" />
    <glyph glyph-name="afii10145" unicode="&#x40f;" horiz-adv-x="1573" 
d="M1138 1279q0 33 -3.5 54t-10.5 32.5t-17.5 16t-25.5 4.5h-30v80h359v-80h-29q-15 0 -25.5 -4.5t-17.5 -16t-10.5 -32.5t-3.5 -54v-1092q0 -33 3.5 -54t10.5 -32.5t17.5 -16t25.5 -4.5h29v-80h-531v-232h-186v232h-530v80h30q15 0 25.5 4.5t17.5 16t10.5 32.5t3.5 54v1092
q0 33 -3.5 54t-10.5 32.5t-17.5 16t-25.5 4.5h-30v80h359v-80h-29q-15 0 -25.5 -4.5t-17.5 -16t-10.5 -32.5t-3.5 -54v-1092q0 -36 10 -61.5t46 -25.5h590q36 0 46 25.5t10 61.5v1092z" />
    <glyph glyph-name="afii10017" unicode="&#x410;" horiz-adv-x="1536" 
d="M649 1466h239q58 -119 113.5 -240t105.5 -239.5t94 -231t80 -215t63 -192.5t43 -162q8 -37 17.5 -58t19 -31.5t19 -13.5t18.5 -3h24v-80h-339v80h26q11 0 19 9.5t8 36.5q0 23 -7 57q-9 45 -27 106.5t-43 134.5t-54.5 155t-62.5 166h-459q8 26 17 50.5t19 49.5h384
q-30 74 -59.5 145.5t-58 137.5t-54.5 123.5t-48 102.5h-35q-39 -82 -84 -188t-90.5 -221t-87.5 -232t-74.5 -222t-52 -191t-19.5 -138q0 -25 4.5 -41t12.5 -25t19 -12.5t25 -3.5h12v-80h-350v80h5q18 0 35.5 4.5t35 23t36 56.5t39.5 104q94 294 210.5 598t261.5 600z" />
    <glyph glyph-name="afii10018" unicode="&#x411;" horiz-adv-x="1482" 
d="M250 1279q0 60 -10.5 83.5t-46.5 23.5h-30v80h579q42 0 99 0.5t118.5 3t121.5 7.5t107 13l43 -324h-74q-16 51 -43 88.5t-61.5 62t-75 37t-83.5 12.5h-406q-17 0 -27 -7t-15.5 -19t-7.5 -28t-2 -34v-1094q0 -22 7.5 -38.5t39.5 -27.5t97.5 -16.5t181.5 -5.5
q184 0 274.5 94t90.5 267q0 86 -27 150.5t-74.5 108t-111.5 65t-138 21.5q-25 0 -56.5 -2.5t-66 -8.5t-69.5 -17t-68 -29v103q65 23 133.5 36t157.5 13q107 0 201.5 -29.5t165.5 -86.5t112 -140t41 -190q0 -99 -35 -182t-105 -143t-174.5 -93t-243.5 -33h-606v80h30
q15 0 25.5 4.5t17.5 16t10.5 32.5t3.5 54v1092z" />
    </font>
</defs>
</svg>
